<svg xmlns="http://www.w3.org/2000/svg" xml:space="preserve" id="Layer_1" x="0" y="0" style="enable-background:new 0 0 962.7 599.2" version="1.1" viewBox="0 0 962.7 599.2"><style>.st0{fill:#f0f2f5}.st1{fill:#e1e6eb}.st2{fill:#fff}.st3{fill:#d2d9e1}.st4{fill:#1f4168}.st5{fill:teal}.st6{fill:#f99747}.st7{fill:#f9a21b}.st8{fill:#1b1a2e}.st9{fill:#1b1b2f}.st10{fill:#ffc89f}.st11{fill:#ff9a6c}.st13{opacity:.4}.st14{fill:#a65b3c}</style><path d="M717.7 135.5a62 62 0 0 0-11.9 7 49 49 0 0 1-12.9-32.5h18.8a59 59 0 0 0 6 25.5zM711.7 108.9h-18.8c.1-12 4.7-23.6 12.9-32.5a62 62 0 0 0 11.9 7c-3.9 8-5.9 16.7-6 25.5zM736.8 158a48 48 0 0 1-30.2-14.7c3.6-2.7 7.5-5 11.6-6.8l1.7 3.1c4.3 7.3 10 13.6 16.9 18.4zM718.2 82.4c-4.1-1.8-8-4.1-11.6-6.8a49 49 0 0 1 30.2-14.7 59.5 59.5 0 0 0-18.6 21.5z" class="st0"/><path d="m739.1 60.7 2-.1v26.6a58.2 58.2 0 0 1-21.8-4.5 59.7 59.7 0 0 1 19.8-22z" class="st0"/><path d="M718.8 83.9a59 59 0 0 0 22.3 4.6v20.4h-28.2c.1-8.7 2.1-17.2 5.9-25zM712.9 110h28.2v20.4a59 59 0 0 0-22.3 4.6 58.5 58.5 0 0 1-5.9-25z" class="st0"/><path d="M719.3 136.1a58.2 58.2 0 0 1 21.8-4.5v26.7l-2-.1a58.5 58.5 0 0 1-19.8-22.1zM744.2 158.2l-2 .1v-26.7c7.5.1 14.9 1.6 21.8 4.5a57.7 57.7 0 0 1-19.8 22.1zM764.1 82.9a58.2 58.2 0 0 1-21.8 4.5V60.7l2 .1a58.6 58.6 0 0 1 19.8 22.1z" class="st0"/><path d="M764.6 135c-7.1-3-14.7-4.5-22.3-4.6V110h28.2a58.5 58.5 0 0 1-5.9 25zM770.5 108.9h-28.2V88.5a59 59 0 0 0 22.3-4.6 58.5 58.5 0 0 1 5.9 25zM765.2 136.5c4.1 1.8 8 4.1 11.6 6.8a49 49 0 0 1-30.2 14.7 59.5 59.5 0 0 0 16.9-18.4l1.7-3.1zM746.5 60.9a48 48 0 0 1 30.2 14.7c-3.6 2.7-7.5 5-11.6 6.8l-1.7-3.1a59.4 59.4 0 0 0-16.9-18.4z" class="st0"/><path d="M771.7 110h18.8c-.1 12-4.7 23.6-12.9 32.5a62 62 0 0 0-11.9-7 60.4 60.4 0 0 0 6-25.5zM765.7 83.4a62 62 0 0 0 11.9-7 49 49 0 0 1 12.9 32.5h-18.8a61.1 61.1 0 0 0-6-25.5zM481.5 353.2l.9-.4.6-.3.1-.1.4-.2.1-.1.2-.1.7-.4.5-.3 1.1-.7.4-.2.9-.6a23 23 0 0 0 1.9-1.4l.8-.7.3-.3.3-.3.4-.3.8-.8.9-.9 17.3 7.4 8.9-20.7-16.6-7.2v-.3l.1-.6v-.6l.1-.7v-4.9l-.1-.7v-.2l-.1-.8-.2-1.1-.1-.8V313.6l-.2-1-.3-1.2-.3-1.2 15.1-11.3L503 281l-14.5 10.9-.1-.1-1-.7-.8-.5-.3-.2-.7-.5-.8-.4-.2-.1h-.1l-.6-.3-.3-.2-.2-.1-.1-.1-.3-.2-.7-.3-.6-.3-.5-.2a.8.8 0 0 0-.5-.2l-.2-.1-.5-.2-.6-.2-.3-.1-.6-.2-.5-.2-.3-.1-.5-.1-.6-.2-.2-.1-.8-.2h-.2l-2.2-18.7-22.3 2.6 2.1 18-.3.1c-1.8.8-3.5 1.7-5.1 2.8-1.3.8-2.5 1.8-3.7 2.8l-.6.5-.5.4-.6.6-.3.3-.3.3-.1.1-.3.3-17.3-7.4-8.9 20.7 16.6 7.2v.2l-.1.8V324.4l.1.8.2 1.1.2.9.2 1.1v.2l.2.9.1.2.3 1v.1L417.7 342l13.4 18 14.5-10.8.3.2.8.6.9.6h.1l.8.5h.1l.7.4.3.1.4.2.6.3.3.1.6.3.3.1 1.1.5.7.3.4.2.4.2.7.3.8.3.3.1.3.1.8.2 1.1.3 2.2 18.8 22.3-2.6-2.1-18 .7-.1zm-21-17.3a16.6 16.6 0 0 1-7.2-25 16.8 16.8 0 1 1 7.2 25zM481.4 232l.3.5.2.3v.1l.2.2v.1l.1.1.3.4.2.2.4.6.2.2.4.5.9 1 .4.4.2.2.2.2.2.2.5.4.6.5-3.2 10.3 12.2 3.8 3.1-9.8h2.9l.4-.1h.1l.4-.1h.1l.4-.1h.1l.5-.1.6-.2.5-.1h.2l.5-.2.6-.2.7-.3 7.3 7.9 9.4-8.7-7-7.6v-.1l.4-.6.3-.5.1-.2.2-.4.2-.5.1-.1.1-.3.1-.2.1-.1v-.1l.1-.2.1-.4.1-.4.1-.3.1-.3v-.1l.1-.3.1-.3v-.2l.1-.4.1-.3v-.2l.1-.3.1-.4v-.1l.1-.5 10.5-2.3L527 210l-10.1 2.2-.1-.2a13 13 0 0 0-1.9-2.7l-1.8-1.9-.3-.3-.3-.2-.3-.3-.2-.2-.2-.2-.1-.1-.2-.2 3.2-10.3-12.2-3.9-3.1 9.9H496.5l-.4.1h-.1l-.3.1-.3.1-.3.1h-.2l-.4.1-.6.2-.5.1-.6.2h-.2l-.5.2h-.1l-.6.2-7.3-7.9-9.4 8.7 7 7.6-.1.2-.3.5-.3.5-.2.5-.2.4-.1.2-.1.2-.2.4-.1.2-.1.4-.1.2-.2.7-.1.4-.1.3-.1.2-.1.4-.1.5v.4l-.1.4-.1.7-10.5 2.3 2.8 12.5 10.1-2.2v.3zm8.6-12.9c.6-1.8 1.7-3.4 3.1-4.6a10 10 0 0 1 10.7-1 9.5 9.5 0 0 1 2.7 14.6 9.5 9.5 0 0 1-10.3 3 9.7 9.7 0 0 1-5.6-4.7 9.7 9.7 0 0 1-.6-7.3zM155.1 97.2c-.8 0-1.6-.3-2.2-.8a42 42 0 0 0-57.2 0c-.6.5-1.5.8-2.3.7-.8-.1-1.6-.4-2.1-1-.6-.6-.9-1.4-.8-2.2 0-.8.3-1.6.9-2.2a48.4 48.4 0 0 1 65.8 0c.5.4.8 1 1 1.6a4 4 0 0 1-.1 1.9c-.2.6-.6 1.1-1.2 1.5a4 4 0 0 1-1.8.5z" class="st0"/><path d="M147.1 108.8a3 3 0 0 1-1.3-.3l-1.1-.7a28.2 28.2 0 0 0-31.5-6.4 28.6 28.6 0 0 0-9.3 6.4c-.6.6-1.4.9-2.2.9-.8 0-1.6-.3-2.2-.9s-1-1.4-1-2.2c0-.8.3-1.7.8-2.3a34.8 34.8 0 0 1 50.2 0 3.4 3.4 0 0 1 .6 3.5c-.2.6-.7 1.1-1.2 1.4-.6.4-1.2.6-1.8.6z" class="st0"/><path d="M138.9 120.6c-.5 0-1-.1-1.5-.4a3 3 0 0 1-1.2-1 14.4 14.4 0 0 0-12-6.3 14.6 14.6 0 0 0-12 6.3l-.9.9-1.2.5h-1.3l-1.2-.5-.9-.9-.5-1.2v-1.3l.5-1.2a20.8 20.8 0 0 1 34.4 0c.3.5.5 1.1.6 1.6 0 .6-.1 1.2-.4 1.7-.3.5-.7 1-1.2 1.3 0 .4-.6.5-1.2.5z" class="st0"/><path d="M124.3 135.2a7.6 7.6 0 1 0 0-15.2 7.6 7.6 0 0 0 0 15.2zM484.9 67.6H478v30.8h6.9V67.6z" class="st0"/><path d="M469.6 78.3h-6.9v20h6.9v-20z" class="st1"/><path d="M454.2 67.6h-6.9v30.8h6.9V67.6z" class="st0"/><path d="M438.9 76.4H432v21.9h6.9V76.4zM423.5 79.8h-6.9v18.5h6.9V79.8z" class="st1"/><path d="M408.2 87.4h-6.9v11h6.9v-11zM855.1 382.6s-15.9 6-31.1 21a151 151 0 0 0-22.3 27.9 83.4 83.4 0 0 0 53.4-48.9zM816.2 434.7c-8.5.4-16.8 2.7-24.3 6.7a56.9 56.9 0 0 0 49.1-2.3 56.9 56.9 0 0 0-24.8-4.4zM784.3 389.3a56.4 56.4 0 0 0 11.5 47.8 56.4 56.4 0 0 0-11.5-47.8zM814.8 505.8c10.1-5.6 12-12 7.2-19.3a58.1 58.1 0 0 0-18.1-17.5s.7 12.2 8.8 23.6c4 5.7 4.7 9.9 2.1 13.2z" class="st0"/><path d="m809.7 458.9-.7-.2-1.2-.3-1.2-.3-.6-.1-.6-.1-1.2-.3a83.3 83.3 0 0 0-24.6-1l.2-.3c2.2-2.9 4.5-5.8 6.9-8.6l7.3-8.3 3.8-4 3.9-3.9-4 3.8-3.8 4a196.6 196.6 0 0 0-14.2 16.9l-1.8 2.5a19 19 0 0 0-.6-3.3l-.9-3.3-1.2-3.2c-.4-1.1-.9-2.1-1.5-3.1l.7 1.6.6 1.6 1.2 3.2 1 3.3.2.8.2.8.3 1.6-4.6 6.5-1.5 2.3-1.5 2.3-1.5 2.3-1.4 2.4-.7 1.2-.7 1.2-.7 1.2-.7 1.2-1.3 2.4-.3.6-.3.6-.7 1.1c-.9 1.6-1.6 3.3-2.4 5l-1.1 2.5-.6 1.3-.5 1.3-1.1 2.5-1 2.6-.5 1.3-.4 1.3-.6 1.7h-.1l.2-6.8.9-17.4 1.3-17.4 1-10.3c1.1.7 2.2 1.3 3.4 1.7 7.7 2.6 15.9-.5 15.9-.5a34 34 0 0 0-18.4-9.3l.4-3.3.5-4.3.1-1a50.2 50.2 0 0 0 14.7 10.8 57 57 0 0 0-12.6-25.6l.2-1.5.3-2.2.4-2.2.4-2.1.4-2.1.8-4.3.4-2.1.4-2.1.4-2.1.5-2.1.1-.4a50 50 0 0 0 21.5-13.1c4.8-5.1 8.8-6.5 12.5-4.6-7.4-8.9-14-9.5-20.3-3.4a56.3 56.3 0 0 0-13.7 21l.8-3.8a310 310 0 0 1 2.5-10.3v-.1l1.7-6.5s10.1-12 18.7-30.4a99 99 0 0 0 9.4-36.4 83.4 83.4 0 0 0-28.1 66.8l-1.7 6.5c-2.4-7.6-5.7-14.8-9.7-21.6-7.3-12.3-16.6-18.8-16.6-18.8a56.3 56.3 0 0 0 26.3 40.6l-2.5 10.3-.9 4.3-.5 2.1-.4 2.1-.4 2.1-.4 2.1-.8 4.3-1.7 10c-4.8-4.3-10.7-3.6-18.1 2.9 4-1.3 7.7.8 11.7 6.5 1.3 1.9 2.8 3.7 4.3 5.4l-1.1 8.8c-3-.5-6.1-.5-9.2-.1-.2-.1 3.7 5 8.3 8.1l-1 10.4-1.3 17.4c-.5 8.1-.9 16.1-1.1 24.2h-.2l-.1-2.1V500l-.1-1.5-.1-1.5-.1-.8-.1-.7-.4-3v-.4l-.1-.4-.1-.7-.2-1.5-.2-1.5-.3-1.5-.6-3-.6-2.9c-1.7-7.8-4-15.5-6.6-23.1-1.3-3.8-2.8-7.5-4.2-11.2a269.7 269.7 0 0 0-11.8-25.3 56.8 56.8 0 0 0 23.9-42.8 58.2 58.2 0 0 0-24.1 42.8c-1.3-2.4-2.5-4.7-3.9-7a89.7 89.7 0 0 1 3.9 7.1l1.8 3.5a531.6 531.6 0 0 1 8.8 19.2 73.5 73.5 0 0 0-19.1-4.9l-4.9-.5-1.2-.1h-6l-2.5.1-4.9.5a56 56 0 0 0-48.9 5.1c-.3 0 14.2 7.8 25 6.8 13.5-1.3 23.9-11.8 23.9-11.8 1.6-.2 3.3-.4 4.9-.4l2.5-.1H713l1.2.1a81.3 81.3 0 0 1 24 5.3l1.1 2.7a254.7 254.7 0 0 1 10.9 34.3l.6 2.9.6 2.9.3 1.5.2 1.5.2 1.5.1.7.1.4.1.4.4 3 .1.7.1.7.1 1.5.1 1.5v1.6l.1 2.1H723v61.1h61v-61.1h-30.2l.6-1.7.5-1.3.5-1.3 1-2.6 1.1-2.5.5-1.3.6-1.3 1.1-2.5 2.4-4.9.6-1.2.3-.6.3-.6 1.3-2.4.7-1.2.7-1.2.7-1.2.7-1.2 1.4-2.3 1.5-2.3 1.5-2.3 1.5-2.3 6.2-8.7a39 39 0 0 1 4.9-.3h5l5.2.3 2.7 2.7 1.8 2.2a28 28 0 0 0-12.9 20.9 27.7 27.7 0 0 0 12.9-20.8l.6.8.6.8.6.8.5.8.3.4.3.4a39 39 0 0 1 1.9 3.5l-.4-.9-.4-.9-.5-.9-.5-.9c-.7-1.1-1.4-2.3-2.2-3.3a37.6 37.6 0 0 0-3.9-4.5l-1.4-1.2a67.7 67.7 0 0 1 9.6 1.3l1.2.3.6.1.6.1 1.2.3 1.2.3c.2-.4.4-.3.7-.3a27.9 27.9 0 0 0 23.4 6.8 29 29 0 0 0-11-6.1c-4-1.2-8.2-1.4-12.4-.7z" class="st0"/><path d="M685.6 352.2a84 84 0 0 0 38.1 61.6s-3.9-15.2-13.9-32.9a98.8 98.8 0 0 0-24.2-28.7zM730.1 426a57.5 57.5 0 0 0-46.6-15.6 57.5 57.5 0 0 0 46.6 15.6zM724.1 454.2a28.9 28.9 0 0 0-6-11 33.3 33.3 0 0 1 5.9-3.6l-1.8.9-1.7 1c-2.3 1.4-4.4 3-6.3 4.9l-.7.7-.7.7-.7.7-.6.8a37 37 0 0 1 2.8-2.8l.4-.3.4-.3.7-.7.8-.6.8-.6.8-.6c-.7 4.2-.4 8.5.8 12.5 1.2 4.1 3.2 7.8 6.1 11 .4-4.3.2-8.6-1-12.7zM690.8 481.8c-1.5-3.9.2-7.7 5.7-12.1 10.9-8.8 14.9-20.3 14.9-20.3a55.7 55.7 0 0 0-22.2 11.9c-6.7 5.7-6.6 12.3 1.6 20.5z" class="st0"/><path d="M337.7 537.9h-55.6v26.7h55.6v-26.7z" class="st2"/><path d="M282.2 537.9h-70.1v26.7h70.1v-26.7z" class="st0"/><path d="M339.5 537.9h-57.4v2.2h57.4v-2.2zM338.6 545h-25.7v.5h25.7v-.5zM339.5 562.4h-57.4v2.2h57.4v-2.2z" class="st0"/><path d="M224.3 537.9h-5.2v26.7h5.2v-26.7zM274 537.9h-1.3v26.7h1.3v-26.7zM269.7 537.9h-1.3v26.7h1.3v-26.7z" class="st2"/><path d="M337.3 555.3h-5.8l-5.4-9.7h5.8l5.4 9.7z" class="st0"/><path d="M234.4 546.5v6.5c0 .4 0 .8-.2 1.1-.1.4-.3.7-.6 1s-.6.5-1 .6l-1.1.2c-.8 0-1.6-.2-2.1-.8-.3-.3-.5-.6-.6-1l-.2-1.2h1.9c0 .3.1.7.3.9l.4.3.4.1.4-.1.4-.2.3-.9v-6.5h1.7zM242.3 554h-3.7l-.6 1.8h-2l3.3-9.3h2.1l3.3 9.3h-2l-.4-1.8zm-.5-1.4-1.3-3.9-1.3 3.9h2.6zM254.4 546.5l-3.4 9.3h-2.3l-3.4-9.3h2l2.5 7.4 2.5-7.4h2.1zM261.2 554h-3.7l-.6 1.8H255l3.3-9.3h2.2l3.3 9.3h-2l-.6-1.8zm-.5-1.4-1.3-3.9-1.3 3.9h2.6zM335.3 496.2h-47.7v22.9h47.7v-22.9z" class="st2"/><path d="M287.6 496.2h-60.1v22.9h60.1v-22.9zM336.9 496.2h-49.2v1.9h49.2v-1.9zM336.1 502.3H314v.5h22.1v-.5zM336.9 517.2h-49.2v1.9h49.2v-1.9z" class="st0"/><path d="M238 499.5h-4.4v16.3h4.4v-16.3zM278.2 499.5h-29.7v16.3h29.7v-16.3z" class="st2"/><path d="M335 511.1h-5l-4.6-8.4h5l4.6 8.4zM257.7 507.3c-.2.4-.6.8-1.1 1a4 4 0 0 1-1.8.4h-1.5v3.4h-1.8v-9h3.3a4 4 0 0 1 1.8.4c.5.2.8.6 1.1 1 .2.4.4.9.4 1.4 0 .5-.1 1-.4 1.4zm-1.8-.4.3-.4.1-.5c0-.9-.5-1.3-1.5-1.3h-1.4v2.6h1.4c.4 0 .8-.1 1.1-.4zM266.8 503.2v9H265v-3.8h-3.8v3.8h-1.8v-9h1.8v3.7h3.8v-3.7h1.8zM274.7 507.3c-.2.4-.6.8-1.1 1a4 4 0 0 1-1.8.4h-1.5v3.4h-1.8v-9h3.3a4 4 0 0 1 1.8.4c.5.2.8.6 1.1 1 .2.4.4.9.4 1.4 0 .5-.1 1-.4 1.4zm-1.8-.4.3-.4.1-.5c0-.9-.5-1.3-1.5-1.3h-1.4v2.6h1.4c.4 0 .8-.1 1.1-.4z" class="st0"/><path d="M244.9 519.1h77.3v18.7h-77.3c-2.5 0-4.8-1-6.6-2.7a9.4 9.4 0 0 1-2.7-6.6v-.2c0-2.5 1-4.8 2.7-6.6a10 10 0 0 1 6.6-2.6z" class="st1"/><path d="M292.7 520.7h31.2v15.7h-31.2c-2.1 0-4.1-.8-5.5-2.3a7.8 7.8 0 0 1-2.3-5.5c0-2.1.8-4.1 2.3-5.5a7.2 7.2 0 0 1 5.5-2.4z" class="st2"/><path d="M325.2 519.1h-40.3v1.5h40.3v-1.5zM324.5 524.1h-18.1v.4h18.1v-.4zM325.2 536.3h-40.3v1.5h40.3v-1.5z" class="st1"/><path d="M278.7 534.7h-33.3c-1.7 0-3.2-.7-4.4-1.8a6.3 6.3 0 0 1 0-8.8 6.2 6.2 0 0 1 4.4-1.8h33.3l-.8.7c-.8.8-1.4 1.7-1.8 2.8s-.6 2.2-.5 3.3.4 2.2.9 3.2c.6.9 1.3 1.8 2.2 2.4z" class="st2"/><path d="m274.4 535.7-.3-.1a9.4 9.4 0 0 1-3.6-6.5c-.1-1.3.1-2.5.5-3.7s1.1-2.3 2-3.2l.9-.8.3-.1.3.2.1.3-.2.3-.8.7c-.8.8-1.4 1.8-1.8 2.9a7.8 7.8 0 0 0 .5 6.7c.6 1 1.3 1.9 2.2 2.6l.1.2v.3l-.2.2c.2 0 .1 0 0 0z" class="st1"/><path d="M383.7 30.1h-3.8a19.6 19.6 0 0 0-32.3-12.5 19.4 19.4 0 0 0-6.3 12.5h-3.8a17.3 17.3 0 0 0-17.4 17.4 17.3 17.3 0 0 0 17.4 17.4h46.3a17.3 17.3 0 0 0 17.4-17.4 17.3 17.3 0 0 0-17.5-17.4zM90.3 333.9a33 33 0 0 1-30.7-20.5 33.3 33.3 0 1 1 30.7 20.5zm0-51.8a18.5 18.5 0 0 0-13.1 31.6 18.5 18.5 0 0 0 31.6-13.1c0-4.9-2-9.6-5.4-13.1a18.9 18.9 0 0 0-13.1-5.4z" class="st0"/><path d="M127.2 300.7h-22a15 15 0 0 0-14.9-14.9v-22.1a37 37 0 0 1 36.9 37z" class="st3"/><path d="M73.6 300.7H55.3a35 35 0 0 1 35.1-35.1V284a16.8 16.8 0 0 0-16.8 16.7z" class="st1"/><path d="M883.4 128.5c-.6 0-1.2-.2-1.7-.7a32.9 32.9 0 0 0-45.4.6l-1 .2-1-.2c-.3-.1-.6-.3-.8-.6l-.5-.9c-.1-.3-.2-.7-.1-1 0-.4.1-.7.3-1l.7-.8a38.2 38.2 0 0 1 51.4 0c.4.3.6.8.7 1.3.1.5.1 1-.1 1.5s-.5.9-.9 1.2c-.6.2-1 .4-1.6.4z" class="st0"/><path d="m877.2 137.5-1-.2c-.3-.1-.6-.3-.8-.6a21.6 21.6 0 0 0-7.3-5 21.5 21.5 0 0 0-17.4 0 24.3 24.3 0 0 0-7.3 5c-.5.5-1.1.7-1.8.7s-1.3-.2-1.8-.7-.7-1.1-.8-1.7c0-.7.2-1.3.7-1.8a29 29 0 0 1 8.9-6.2c3.4-1.4 7-2.2 10.6-2.2s7.3.7 10.6 2.2c3.4 1.4 6.4 3.5 8.9 6.2.3.4.6.8.7 1.3.1.5 0 1-.2 1.4-.2.5-.5.8-.9 1.1-.1.4-.6.5-1.1.5z" class="st0"/><path d="m870.9 146.8-1.2-.3c-.4-.2-.7-.5-.9-.8-1-1.5-2.4-2.8-4.1-3.6-1.6-.9-3.4-1.3-5.3-1.3-1.8 0-3.6.4-5.3 1.3-1.6.9-3 2.1-4.1 3.6l-.7.7-.9.4h-1l-.9-.4-.7-.7-.4-.9v-1l.4-.9a16.8 16.8 0 0 1 13.5-7.1 16.4 16.4 0 0 1 13.5 7.1c.3.4.4.8.4 1.3s-.1.9-.3 1.3-.5.7-.9 1c-.2.2-.7.3-1.1.3z" class="st0"/><path d="M865.2 153.6a6 6 0 1 0-11.6-2.8 6 6 0 0 0 11.6 2.8zM838.6 318.6a22.8 22.8 0 0 1-16.2-19.7 23.2 23.2 0 0 1 12-22.6 23 23 0 0 1 21.9 40.7 24.8 24.8 0 0 1-17.7 1.6zm10.3-34.4a12.5 12.5 0 0 0-13.6 4.2 12.7 12.7 0 0 0-1.3 14.2 12.9 12.9 0 0 0 12.6 6.7c2.5-.3 4.9-1.3 6.9-2.9s3.4-3.8 4.1-6.2c1-3.3.6-6.8-1-9.8-1.7-3-4.5-5.2-7.7-6.2z" class="st0"/><path d="m869.7 303.8-14.6-4.4c.8-2.6.5-5.4-.8-7.8s-3.5-4.2-6.1-5l4.4-14.6a25.5 25.5 0 0 1 17.1 31.8z" class="st3"/><path d="m834.1 293.2-12.2-3.7a24.4 24.4 0 0 1 30.2-16.3l-3.7 12.2c-2.9-.9-6.1-.6-8.8.9a11.9 11.9 0 0 0-5.5 6.9z" class="st1"/><path d="M121.9 182.8H71.4v6H122l-.1-6zM84.5 170.4H51.7v6h32.8v-6z" class="st0"/><path d="M95.7 170.4H88v6h7.8v-6h-.1z" class="st1"/><path d="M107 170.4h-7.8v6h7.8v-6z" class="st0"/><path d="M75.3 192.9h-16v6h16v-6z" class="st1"/><path d="M104.9 192.9H78.8v6h26.1v-6zM679.4 29.8h-50.6v6h50.6v-6zM642 17.4h-32.8v6H642v-6z" class="st0"/><path d="M653.2 17.4h-7.8v6h7.8v-6z" class="st1"/><path d="M664.4 17.4h-7.8v6h7.8v-6z" class="st0"/><path d="M632.8 39.9h-16v6h16v-6z" class="st1"/><path d="M662.4 39.9h-26.1v6h26.1v-6zM247.4 39.9h-50.6v6h50.6v-6z" class="st0"/><path d="M200.8 50h-16v6h16v-6z" class="st1"/><path d="M230.4 50h-26.1v6h26.1v-6zM155.5 402h-42.2v6h42.2v-6z" class="st0"/><path d="M116.6 412.1h-13.3v6h13.3v-6z" class="st1"/><path d="M141.3 412.1h-21.8v6h21.8v-6zM903.2 207h-50.6v6h50.6v-6z" class="st0"/><path d="M856.7 217.1h-16v6h16v-6z" class="st1"/><path d="M886.2 217.1h-26.1v6h26.1v-6zM211.1 30l-5.2-5.3 5.2-5.3h4.2l-5.1 5.3 5.1 5.3h-4.2zM228.9 19.4h4.2l5.1 5.3-5.1 5.3h-4.2l5.2-5.3-5.2-5.3zM490.6 12.6l-5.1-5.3 5.1-5.3h4.2l-5.1 5.3 5.1 5.3h-4.2zM508.4 2h4.2l5.2 5.3-5.2 5.3h-4.2l5.2-5.3-5.2-5.3zM160.1 484.9l-5.2-5.3 5.2-5.3h4.2l-5.1 5.3 5.1 5.3h-4.2zM177.9 474.3h4.2l5.1 5.3-5.1 5.3h-4.2l5.2-5.3-5.2-5.3z" class="st0"/><path d="M171.2 220.5h-.3v-4h.3v4zm0-8h-.3v-4h.3v4zm0-8.1h-.3v-4h.3v4zm0-8h-.3v-4h.3v4zm0-8h-.3v-4h.3v4zm0-8.1h-.3v-4h.3v4zm0-8h-.3v-4h.3v4zm0-8h-.3v-4h.3v4zm0-8.1h-.3v-4h.3v4zm0-8h-.3v-4h.3v4zm0-8.1h-.3v-4h.3v4zm0-8h-.3v-4h.3v4zm0-8h-.3v-2.7h1.7v.3h-1.3l-.1 2.4zm48.3-2.4h-2.8v-.3h2.8v.3zm-6.8 0h-4v-.3h4v.3zm-8 0h-4v-.3h4v.3zm-8 0h-4v-.3h4v.3zm-8.1 0h-4v-.3h4v.3zm-8 0h-4v-.3h4v.3zM809.6 256.7h-4v-.3h4v.3zm-8 0h-1v-.3h1v.3zm11.6-.7h-.3v-4h.3v4zm0-8.1h-.3v-4h.3v4zm0-8h-.3v-4h.3v4zm0-8h-.3v-4h.3v4zm0-8.1h-.3v-4h.3v4zm0-8h-.3v-4h.3v4zm0-8h-.3v-4h.3v4zm0-8.1h-.3v-4h.3v4zm0-8h-.3v-4h.3v4zm0-8h-.3V181h-1v-.3h1.4v3h-.1zm-5.4-2.7h-4v-.3h4v.3zm-8 0h-4v-.3h4v.3zm-8 0h-4v-.3h4v.3zm-8.1 0h-4v-.3h4v.3zm-8 0h-4v-.3h4v.3zm-8 0h-4v-.3h4v.3zM476.3 399.8h-4v-.3h4v.3zm-8 0h-4v-.3h4v.3zm-8 0h-4v-.3h4v.3zm-8.1 0h-4v-.3h4v.3zm-8 0h-4v-.3h4v.3zm-8 0h-4v-.3h4v.3zm-8 0h-4v-.3h4v.3zm-8.1 0h-4v-.3h4v.3zm-8 0h-4v-.3h4v.3zm-8 0h-4v-.3h4v.3zm74.9-1.7h-.3v-4h.3v4zm0-8.1h-.3v-4h.3v4zm0-8h-.3v-4h.3v4zm0-8h-.3v-4h.3v4zm0-8.1h-.3v-4h.3v4zm0-8h-.3v-4h.3v4zm0-8h-.3v-4h.3v4zm0-8.1h-.3v-4h.3v4zm0-8h-.3v-4h.3v4zm0-8.1h-.3v-4h.3v4zm0-8h-.3v-4h.3v4zm0-8h-.3v-4h.3v4zm0-8.1h-.3v-4h.3v4zm0-8h-.3v-4h.3v4zm0-8h-.3v-4h.3v4zm0-8.1h-.3v-4h.3v4zm0-8h-.3v-4h.3v4zm0-8h-.3v-4h.3v4zM657.7 126.7h-.3v-3.3h.3v3.3zm0-7.3h-.3v-4h.3v4zm0-8.1h-.3v-4h.3v4zm0-8h-.3v-4h.3v4zm0-8h-.3v-4h.3v4zm0-8.1h-.3v-4h.3v4zm-2.9-5.1h-4v-.3h4v.3zm-8.1 0h-4v-.3h4v.3zm-8 0h-4v-.3h4v.3zm-8 0h-4v-.3h4v.3zm-8 0h-4v-.3h4v.3zm-8.1 0h-4v-.3h4v.3zm-8 0h-4v-.3h4v.3zm-8 0h-4v-.3h4v.3zm-8 0h-4v-.3h4v.3zm-8.1 0h-4v-.3h4v.3zM347 439h-4v-.3h4v.3zm-8 0h-4v-.3h4v.3zm-8 0h-4v-.3h4v.3zm-8.1 0h-4v-.3h4v.3zm-8 0h-4v-.3h4v.3zm-8 0h-4v-.3h4v.3zm-8 0h-4v-.3h4v.3zm-8.1 0h-4v-.3h4v.3zm-8 0h-4v-.3h4v.3zm-8 0h-4v-.3h4v.3zm-8 0h-4v-.3h4v.3zm-8.1 0h-4v-.3h4v.3zm-8 0h-4v-.3h4v.3zm-8 0h-4v-.3h4v.3zm-8 0h-4v-.3h4v.3zm-8.1 0h-4v-.3h4v.3zm-8 0h-4v-.3h4v.3zm-8 0h-4v-.3h4v.3zm-8 0h-4v-.3h4v.3zm-8.1 0h-4v-.3h4v.3zm155.6-1.3h-.3v-4h.3v4zm0-8h-.3v-4h.3v4zM386 102h-.3v-4h.3v4zm0-8.1h-.3v-4h.3v4zm0-8h-.3v-2.8h-.9v-.3h1.3v3.1h-.1zm-5.3-2.8h-4v-.3h4v.3zm-8 0h-4v-.3h4v.3zm-8 0h-4v-.3h4v.3zm-8.1 0h-4v-.3h4v.3zm-8 0h-4v-.3h4v.3zm-8 0h-4v-.3h4v.3zm-8 0h-4v-.3h4v.3zm-8.1 0h-4v-.3h4v.3zm-8 0h-.8v-.3h.8v.3z" class="st4"/><path d="M201 181.9v168.2h202.7l20.9 27.5v-27.5h38.8V181.9H201z" class="st2"/><path d="m424.7 378-21.1-27.8H200.8V181.7h262.7v168.5h-38.8V378zm-223.6-28.1h202.6l.1.1 20.6 27.1v-27.2h38.8V182h-262v167.9h-.1z" class="st4"/><path d="M463.3 181.9H201v20.6h262.4v-20.6h-.1z" class="st5"/><path d="M213.4 192.9c.4-1.8-.7-3.5-2.5-3.9s-3.5.7-3.9 2.5.7 3.5 2.5 3.9c1.7.3 3.5-.8 3.9-2.5zM226 192.9a3.2 3.2 0 0 0-6.3-1.5c-.4 1.8.7 3.5 2.4 3.9 1.7.5 3.5-.6 3.9-2.4zM238.7 192.8c.4-1.8-.8-3.5-2.5-3.9-1.8-.4-3.5.8-3.9 2.5-.4 1.8.8 3.5 2.5 3.9 1.8.4 3.5-.7 3.9-2.5z" class="st2"/><path d="M245.9 218.8h-19v4.6h19v-4.6z" class="st4"/><path d="M257.7 218.8h-7.9v4.6h7.9v-4.6z" class="st6"/><path d="M269.5 218.8h-7.9v4.6h7.9v-4.6z" class="st4"/><path d="M247.9 226h-10.5v4.6h10.5V226z" class="st7"/><path d="M281.7 226h-29.9v4.6h29.9V226z" class="st4"/><path d="M306 226h-20.3v4.6H306V226z" class="st6"/><path d="M318.2 226h-8.3v4.6h8.3V226zM260.1 233.1H227v4.6h33.1v-4.6z" class="st4"/><path d="M287 233.1h-23v4.6h23v-4.6z" class="st6"/><path d="M307 233.1h-16.1v4.6H307v-4.6zM318.1 233.1h-7.2v4.6h7.2v-4.6zM251.9 240.3H227v4.6h24.9v-4.6z" class="st4"/><path d="M275.5 240.3h-19.7v4.6h19.7v-4.6zM307.7 252.1h10.5v-4.6h-10.5v4.6z" class="st6"/><path d="M303.8 247.5h-29.9v4.6h29.9v-4.6z" class="st4"/><path d="M249.7 252.1H270v-4.6h-20.3v4.6z" class="st6"/><path d="M245.8 247.5h-8.3v4.6h8.3v-4.6zM318.2 254.7h-33.1v4.6h33.1v-4.6z" class="st4"/><path d="M258.2 259.3h23v-4.6h-23v4.6z" class="st6"/><path d="M254.3 254.7h-16.1v4.6h16.1v-4.6zM234.2 254.7H227v4.6h7.2v-4.6zM245.9 261.9h-19v4.6h19v-4.6z" class="st4"/><path d="M257.7 261.9h-7.9v4.6h7.9v-4.6z" class="st6"/><path d="M269.5 261.9h-7.9v4.6h7.9v-4.6z" class="st4"/><path d="M247.9 269h-10.5v4.6h10.5V269z" class="st6"/><path d="M281.7 269h-29.9v4.6h29.9V269z" class="st4"/><path d="M306 269h-20.3v4.6H306V269z" class="st6"/><path d="M318.2 269h-8.3v4.6h8.3V269zM260.1 276.2H227v4.6h33.1v-4.6z" class="st4"/><path d="M287 276.2h-23v4.6h23v-4.6z" class="st6"/><path d="M307 276.2h-16.1v4.6H307v-4.6zM318.1 276.2h-7.2v4.6h7.2v-4.6zM251.9 283.4H227v4.6h24.9v-4.6z" class="st4"/><path d="M275.5 283.4h-19.7v4.6h19.7v-4.6zM307.7 295.2h10.5v-4.6h-10.5v4.6z" class="st6"/><path d="M303.8 290.6h-29.9v4.6h29.9v-4.6z" class="st4"/><path d="M249.7 295.2H270v-4.6h-20.3v4.6z" class="st6"/><path d="M245.8 290.6h-8.3v4.6h8.3v-4.6zM318.2 297.8h-33.1v4.6h33.1v-4.6z" class="st4"/><path d="M258.2 302.3h23v-4.6h-23v4.6z" class="st6"/><path d="M254.3 297.8h-16.1v4.6h16.1v-4.6zM234.2 297.8H227v4.6h7.2v-4.6z" class="st4"/><path d="M336.7 218.8h-6.9v4.6h6.9v-4.6z" class="st1"/><path d="M341 218.8h-2.9v4.6h2.9v-4.6z" class="st0"/><path d="M351.7 218.8h-9.3v4.6h9.3v-4.6z" class="st1"/><path d="M337.4 226h-7.7v4.6h7.7V226z" class="st0"/><path d="M351.7 226h-12.8v4.6h12.8V226zM341.9 233.1h-12.1v4.6h12.1v-4.6z" class="st1"/><path d="M351.7 233.1h-8.4v4.6h8.4v-4.6z" class="st0"/><path d="M338.9 240.3h-9.1v4.6h9.1v-4.6z" class="st1"/><path d="M351.7 240.3h-11.4v4.6h11.4v-4.6zM338.1 252.1h13.6v-4.6h-13.6v4.6z" class="st0"/><path d="M329.8 252.1h6.8v-4.6h-6.8v4.6z" class="st1"/><path d="M341.2 259.3h10.5v-4.6h-10.5v4.6z" class="st0"/><path d="M333.8 259.3h5.9v-4.6h-5.9v4.6zM329.8 259.3h2.6v-4.6h-2.6v4.6zM336.7 261.9h-6.9v4.6h6.9v-4.6z" class="st1"/><path d="M341 261.9h-2.9v4.6h2.9v-4.6z" class="st0"/><path d="M351.7 261.9h-9.3v4.6h9.3v-4.6z" class="st1"/><path d="M337.4 269h-7.6v4.6h7.6V269z" class="st0"/><path d="M351.7 269h-12.8v4.6h12.8V269zM341.9 276.2h-12.1v4.6h12.1v-4.6z" class="st1"/><path d="M351.7 276.2h-8.4v4.6h8.4v-4.6z" class="st0"/><path d="M338.9 283.4h-9.1v4.6h9.1v-4.6z" class="st1"/><path d="M351.7 283.4h-11.4v4.6h11.4v-4.6zM338.1 295.2h13.6v-4.6h-13.6v4.6z" class="st0"/><path d="M329.8 295.2h6.8v-4.6h-6.8v4.6z" class="st1"/><path d="M341.2 302.3h10.5v-4.6h-10.5v4.6z" class="st0"/><path d="M333.8 302.3h5.9v-4.6h-5.9v4.6zM329.8 302.3h2.6v-4.6h-2.6v4.6z" class="st1"/><path d="M220.1 218.8h-2v4.6h2v-4.6zM220.1 226h-2v4.6h2V226zM220.1 233.1h-2v4.6h2v-4.6zM220.1 240.3h-2v4.6h2v-4.6zM220.1 247.5h-2v4.6h2v-4.6zM220.1 254.7h-2v4.6h2v-4.6zM220.1 261.9h-2v4.6h2v-4.6zM220.1 269h-2v4.6h2V269zM220.1 276.2h-2v4.6h2v-4.6zM220.1 283.4h-2v4.6h2v-4.6zM220.1 290.6h-2v4.6h2v-4.6zM220.1 297.8h-2v4.6h2v-4.6z" class="st4"/><path d="M391.7 328.7a26.8 26.8 0 0 1-24.6-16.5 27.1 27.1 0 0 1 5.8-29.1 26.6 26.6 0 0 1 29.1-5.8 26.7 26.7 0 0 1-10.3 51.4zm0-41.6a15 15 0 0 0-13.8 9.2 14.9 14.9 0 0 0 3.3 16.2 15 15 0 0 0 22.9-2.2 15 15 0 0 0-12.4-23.2z" class="st0"/><path d="M421.3 302h-17.7a11.9 11.9 0 0 0-11.9-11.9v-17.7a29.6 29.6 0 0 1 29.6 29.6z" class="st4"/><path d="M378.3 302h-14.8c0-7.5 3-14.6 8.3-19.9s12.4-8.3 19.9-8.3v14.8a13.4 13.4 0 0 0-13.4 13.4z" class="st6"/><path d="M373.2 315.2h-.1V313h.2v2.2c0-.1-.1 0-.1 0zM373.2 322.4h-.1V318.6h.2V322.4c0-.1-.1 0-.1 0zM373.4 328H371.1v-.2H373V325.9h.2v2.1h.2zM367.2 328h-4.1v-.2h4.1l.1.1v.2l-.1-.1zm-8.1 0H355v-.2h4.1l.1.1V328.2l-.1-.2c.1 0 .1 0 0 0zm-8 0H347v-.2h4.1l.1.1V328.2l-.1-.2zM343.1 328H341v-.2l.1-.1h2.1v.2l-.1.1z" class="st4"/><path d="M326.1 326.5h8.2v-4.6h-8.2v4.6z" class="st6"/><path d="M323 321.9h-23.3v4.6H323v-4.6zM334.3 329.1h-16.4v4.6h16.4v-4.6z" class="st4"/><path d="M299.7 333.7h15.2v-4.6h-15.2v4.6z" class="st6"/><path d="M341.1 329.2c.8 0 1.4-.6 1.4-1.4s-.6-1.4-1.4-1.4-1.4.6-1.4 1.4.6 1.4 1.4 1.4zM381.1 283.7h-.1v-2.2h.2l.1.1v2.1h-.2zM381.1 276.7h-.1V271.5h.1l.1.1.1.1v5.1l-.2-.1zM381.1 266.6h-.1v-2.2h.2v2.2h-.1z" class="st4"/><path d="M399.6 252.8h8.2v-4.6h-8.2v4.6z" class="st6"/><path d="M396.6 248.2h-23.3v4.6h23.3v-4.6zM407.8 255.4h-16.4v4.6h16.4v-4.6z" class="st4"/><path d="M373.2 260h15.2v-4.6h-15.2v4.6z" class="st6"/><path d="M381.1 265.8c.8 0 1.4-.6 1.4-1.4s-.6-1.4-1.4-1.4-1.4.6-1.4 1.4c0 .8.6 1.4 1.4 1.4zM414.3 314.2h-2.1v-.1l.1-.1.1-.1h2.1v.2l-.2.1zM436.1 314.2h-3.7v-.2H436.2V314.3l-.1-.1zm-7.3 0h-3.7v-.2H428.9v.2h-.1zm-7.2 0h-3.7v-.2H421.7v.2h-.1zM441.7 314.2h-2.1v-.2h2.1l.1.1.1.1v.1l-.2-.1z" class="st4"/><path d="M436.4 296.9h-4.9v4.6h4.9v-4.6z" class="st6"/><path d="M452.1 296.9h-13.9v4.6h13.9v-4.6zM441.3 304h-9.7v4.6h9.7V304z" class="st4"/><path d="M452.1 304h-9v4.6h9V304z" class="st7"/><path d="m440.3 314.1.2.8.6.5.8.1.7-.4.4-.7a1 1 0 0 0-.1-.8 1 1 0 0 0-.5-.6c-.2-.2-.5-.2-.8-.2-.4 0-.7.1-1 .4-.1.1-.3.5-.3.9z" class="st4"/><path d="M495.3 218.4h-99.9v13.8h99.9v-13.8z" class="st5"/><path d="M495.3 237h-53.6v13.8h53.6V237zM233.7 395.4h-53.6v13.8h53.6v-13.8zM201 419.5h-20.9v13.8H201v-13.8z" class="st6"/><path d="M702.1 294.6v-14.8h-12.5v-46.5h103.6v46.5h-79.8l-11.3 14.8zm-12.2-15.1h12.5v14.2l10.8-14.2h79.6v-45.8H689.9v45.8z" class="st4"/><path d="M726.2 249v15.1h-3v-6.4h-6.4v6.4h-3V249h3v6.2h6.4V249h3zM739.4 249v2.4h-4V264h-3v-12.6h-4V249h11zM758 249v15.1h-3v-9.8l-4 9.8h-2.3l-4.1-9.8v9.8h-3V249h3.4l4.8 11.2 4.8-11.2h3.4zM764 261.7h5v2.4h-8V249h3v12.7z" class="st4"/><path d="M210.2 223.8H132v39.9h78.2v-39.9z" class="st6"/><path d="M145.4 238.5a9.6 9.6 0 0 1 3.6-3.6 10.6 10.6 0 0 1 10.9.4 8.7 8.7 0 0 1 3.5 4.7h-4.6a4.8 4.8 0 0 0-1.9-2.1 6.5 6.5 0 0 0-6 .1c-.9.5-1.6 1.3-2.1 2.3-.5 1.1-.8 2.3-.8 3.5s.3 2.4.8 3.5a5.5 5.5 0 0 0 5.2 3.1c1 0 2-.2 2.9-.7.8-.5 1.5-1.3 1.9-2.2h4.6a8.7 8.7 0 0 1-3.5 4.7 10 10 0 0 1-5.8 1.7 10 10 0 0 1-8.7-4.9c-.9-1.6-1.3-3.4-1.3-5.3-.1-1.8.4-3.6 1.3-5.2zM170 253.2a5 5 0 0 1-2.6-2.1 5 5 0 0 1-1-3.2h4.3l.2 1.1.6.9c.6.5 1.4.8 2.1.7.8 0 1.6-.2 2.2-.7.3-.2.5-.5.6-.8l.2-1-.1-.8-.4-.7c-.4-.4-.8-.7-1.3-.9l-2.2-.7-3.1-1.1c-.8-.4-1.5-1-2.1-1.7s-.9-1.8-.9-3c0-1.1.3-2.2.9-3.1.6-.9 1.5-1.6 2.5-2 1.2-.5 2.4-.7 3.6-.7 2.1 0 3.7.5 5 1.5.6.5 1.2 1.1 1.5 1.9s.6 1.5.6 2.3h-4.4l-.2-.9-.6-.8c-.6-.5-1.4-.7-2.2-.7-.7 0-1.3.2-1.9.6l-.5.8-.2.9.1.7.4.6c.4.4.8.7 1.3.9l2.2.8 3.2 1.1c.8.4 1.6 1 2.1 1.7.6.9.9 1.9.9 3 0 1-.3 2.1-.8 3-.6.9-1.4 1.7-2.4 2.2-1.2.6-2.5.8-3.8.8a7 7 0 0 1-3.8-.6zM187.3 253.2a5 5 0 0 1-2.6-2.1 5 5 0 0 1-1-3.2h4.3l.2 1.1.6.9c.6.5 1.4.8 2.1.7.8 0 1.6-.2 2.2-.7.3-.2.5-.5.6-.8l.2-1-.1-.8-.4-.7c-.4-.4-.8-.7-1.3-.9l-2.2-.7-3.1-1.1c-.8-.4-1.5-1-2.1-1.7-.6-.8-.9-1.8-.9-3 0-1.1.3-2.2.9-3.1.6-.9 1.5-1.6 2.5-2 1.2-.5 2.4-.7 3.6-.7 2.1 0 3.7.5 5 1.5.6.5 1.2 1.1 1.5 1.9.4.7.6 1.5.6 2.3h-4.4l-.2-.9-.6-.8c-.6-.5-1.4-.7-2.2-.7-.7 0-1.3.2-1.9.6l-.5.8-.2 1 .1.7.4.6c.4.4.8.7 1.3.9l2.2.8 3.2 1.1c.8.4 1.6 1 2.1 1.7.6.9.9 1.9.9 3 0 1-.3 2.1-.8 3-.6.9-1.4 1.7-2.4 2.2-1.2.6-2.5.8-3.8.8-1.3.1-2.6-.2-3.8-.7z" class="st2"/><path d="M389 379.8h-78.2V415H389v-35.2z" class="st5"/><path d="M330.8 389.8v10.6c0 1.5-.4 2.6-1.3 3.4-.8.8-2 1.2-3.4 1.2-1.3.1-2.5-.4-3.5-1.3-.9-.8-1.3-2-1.3-3.5h3c0 .5.1 1.1.5 1.5l.6.4.7.1.7-.1.6-.4c.3-.4.5-.9.4-1.4v-10.6l3 .1zM343.6 402h-6l-1 2.9h-3.2l5.4-15.1h3.5l5.4 15.1h-3.2l-.9-2.9zm-.9-2.4-2.2-6.3-2.2 6.3h4.4zM363.3 389.8l-5.5 15.1h-3.7l-5.5-15.1h3.2l4.1 12 4.1-12h3.3zM374.3 402h-6l-1 2.9h-3.2l5.4-15.1h3.5l5.4 15.1h-3.2l-.9-2.9zm-.8-2.4-2.2-6.3-2.2 6.3h4.4z" class="st2"/><path d="M593.6 157.3H333v-49.8h260.5l.1 49.8zm-260.2-.3h259.9v-49.2H333.4V157z" class="st4"/><path d="M368.1 113.3h-11v4.3h11v-4.3zM345.5 113.3h-4.3v4.3h4.3v-4.3zM345.5 120h-4.3v4.3h4.3V120zM345.5 126.7h-4.3v4.3h4.3v-4.3zM345.5 133.4h-4.3v4.3h4.3v-4.3z" class="st4"/><path d="M368.1 120h-11v4.3h11V120z" class="st0"/><path d="M368.1 126.7h-11v4.3h11v-4.3z" class="st4"/><path d="M368.1 133.4h-11v4.3h11v-4.3z" class="st0"/><path d="M343.1 148.3h-1.9v2.8h1.9v-2.8z" class="st6"/><path d="M347.1 148.3h-1.9v2.8h1.9v-2.8zM351.1 148.3h-1.9v2.8h1.9v-2.8zM355 148.3h-1.9v2.8h1.9v-2.8zM359 148.3h-1.9v2.8h1.9v-2.8z" class="st7"/><path d="M363 148.3h-1.9v2.8h1.9v-2.8zM367 148.3h-1.9v2.8h1.9v-2.8zM371 148.3h-1.9v2.8h1.9v-2.8z" class="st0"/><path d="M396.6 113.3H375v4.3h21.6v-4.3z" class="st4"/><path d="M410.1 113.3h-9v4.3h9v-4.3z" class="st0"/><path d="M423.5 113.3h-9v4.3h9v-4.3z" class="st4"/><path d="M387 120h-12v4.3h12V120z" class="st6"/><path d="M425.5 120h-34.1v4.3h34.1V120z" class="st4"/><path d="M453.2 120H430v4.3h23.2V120z" class="st0"/><path d="M467.2 120h-9.5v4.3h9.5V120zM412.8 126.7H375v4.3h37.8v-4.3z" class="st4"/><path d="M443.5 126.7h-26.2v4.3h26.2v-4.3z" class="st6"/><path d="M466.4 126.7H448v4.3h18.4v-4.3zM479 126.7h-8.2v4.3h8.2v-4.3zM403.4 133.4H375v4.3h28.4v-4.3z" class="st4"/><path d="M430.4 133.4h-22.5v4.3h22.5v-4.3z" class="st0"/><path d="M573 59.3h-71.4v77.3H573V59.3z" class="st5"/><path d="M553 82.9h-31.5v31.5H553V82.9z" class="st2"/><path d="M537.3 70c1.7 0 3.4.7 4.6 1.9a6.6 6.6 0 0 1 1.9 4.6V83h-12.9v-6.5c0-1.7.7-3.4 1.9-4.6a6 6 0 0 1 4.5-1.9m0-1.1a7.5 7.5 0 0 0-7.5 7.6V84h15.1v-7.6a8 8 0 0 0-2.2-5.4 8.3 8.3 0 0 0-5.4-2.1z" class="st2"/><path d="M541.6 94.9c0-1.1-.4-2.1-1.1-2.9a4.4 4.4 0 0 0-5.8-.6c-.9.6-1.5 1.6-1.7 2.6-.2.8-.1 1.6.2 2.4s.7 1.4 1.4 1.9c.4.3.7.7 1 1.2.2.5.4 1 .4 1.5v.3c0 .7-.2 1.4-.6 2l-.5 1.1v1.2c.2.6.5 1.1 1 1.4s1.1.5 1.7.4c.6-.1 1.1-.4 1.5-.8a2.5 2.5 0 0 0 .1-3.1 3 3 0 0 1-.7-2v-.5c0-.5.1-1 .4-1.5a3 3 0 0 1 1-1.2c.5-.4 1-.9 1.3-1.5.3-.6.4-1.3.4-1.9z" class="st4"/><path d="M276 318.1H144.3v67.2H276v-67.2z" class="st5"/><path d="M226 331.5h-10v4.6h10v-4.6z" class="st0"/><path d="M232.3 331.5h-4.2v4.6h4.2v-4.6z" class="st6"/><path d="M238.5 331.5h-4.2v4.6h4.2v-4.6z" class="st0"/><path d="M227.1 338.7h-5.5v4.6h5.5v-4.6z" class="st6"/><path d="M244.9 338.7h-15.8v4.6h15.8v-4.6z" class="st0"/><path d="M257.7 338.7H247v4.6h10.7v-4.6z" class="st6"/><path d="M264.2 338.7h-4.4v4.6h4.4v-4.6zM233.5 345.9H216v4.6h17.5v-4.6z" class="st0"/><path d="M247.7 345.9h-12.1v4.6h12.1v-4.6z" class="st6"/><path d="M258.3 345.9h-8.5v4.6h8.5v-4.6zM264.1 345.9h-3.8v4.6h3.8v-4.6zM229.2 353H216v4.6h13.1l.1-4.6z" class="st0"/><path d="M241.6 353h-10.4v4.6h10.4V353z" class="st6"/><path d="m193.8 347.4-1.8 8.4h6.9v6.8h-8.4l-2 9.3h-7.3l2-9.3h-9.9l-2 9.3h-7.2l2-9.3h-8.2v-6.8h9.7l1.8-8.4h-8.2v-6.8h9.7l1.9-9.1h7.2l-1.9 9.1h9.9l1.9-9.1h7.3l-1.9 9.1h7v6.8h-8.5zm-7.2 0h-9.9l-1.8 8.4h9.9l1.8-8.4z" class="st2"/><path d="M258.6 364.8h5.5v-4.6h-5.5v4.6z" class="st6"/><path d="M240.8 364.8h15.8v-4.6h-15.8v4.6z" class="st0"/><path d="M228 364.8h10.7v-4.6H228v4.6z" class="st6"/><path d="M221.6 364.8h4.4v-4.6h-4.4v4.6zM246.7 372h17.5v-4.6h-17.5v4.6z" class="st0"/><path d="M232.5 372h12.1v-4.6h-12.1v4.6z" class="st6"/><path d="M221.9 372h8.5v-4.6h-8.5v4.6zM216.1 372h3.8v-4.6h-3.8v4.6z" class="st0"/><path d="M741.6 133.6h-103v49.5h103v-49.5z" class="st5"/><path d="M663.9 168.3c-2 0-3.9-.6-5.5-1.7a9.7 9.7 0 0 1-3.6-4.4 11 11 0 0 1-.6-5.7 9.7 9.7 0 0 1 13.5-7.2c1.8.7 3.3 2 4.4 3.6a9.8 9.8 0 0 1-8.2 15.4zm0-19.5a10 10 0 0 0-5.3 1.6 9.4 9.4 0 0 0-4 9.8 9.7 9.7 0 0 0 2.6 4.9 9.7 9.7 0 0 0 10.4 2.1 9.7 9.7 0 0 0 4.3-3.5 9.7 9.7 0 0 0-1.2-12.1 9.5 9.5 0 0 0-6.8-2.8z" class="st2"/><path d="M677.6 158.4h-1.3c0-3.3-1.3-6.4-3.6-8.8a12.4 12.4 0 0 0-8.7-3.6v-1.3c3.6 0 7.1 1.4 9.7 4 2.5 2.5 3.9 6 3.9 9.7zM653.6 152.8l-2.3-1.3c1.2-2.3 3.1-4.2 5.3-5.5s4.8-2 7.4-2v2.7c-2.1 0-4.2.6-6 1.6a11.2 11.2 0 0 0-4.4 4.5zM663.9 172.1a13.6 13.6 0 0 1-11.8-6.7c-1.2-2-1.9-4.4-1.9-6.7 0-2.4.5-4.7 1.6-6.8l1.2.6a12.2 12.2 0 0 0 10.8 18.2l.1 1.4zM663.9 162.2a3.8 3.8 0 1 0 0-7.6 3.8 3.8 0 0 0 0 7.6z" class="st2"/><path d="M663.9 168.3c-2 0-3.9-.6-5.5-1.7a9.7 9.7 0 0 1-3.6-4.4 11 11 0 0 1-.6-5.7 9.7 9.7 0 0 1 13.5-7.2c1.8.7 3.3 2 4.4 3.6a9.8 9.8 0 0 1-8.2 15.4zm0-19.5a10 10 0 0 0-5.3 1.6 9.4 9.4 0 0 0-4 9.8 9.7 9.7 0 0 0 2.6 4.9 9.7 9.7 0 0 0 10.4 2.1 9.7 9.7 0 0 0 4.3-3.5 9.7 9.7 0 0 0-1.2-12.1 9.5 9.5 0 0 0-6.8-2.8zM735.6 141.7h1.7V140h-1.7v1.7zM732.8 141.7h1.7V140h-1.7v1.7zM722.5 141.7h9.3V140h-9.3v1.7zM735.6 147.2h1.7v-1.7h-1.7v1.7zM732.8 147.2h1.7v-1.7h-1.7v1.7zM722.5 147.2h9.3v-1.7h-9.3v1.7zM735.6 152.7h1.7V151h-1.7v1.7zM732.8 152.7h1.7V151h-1.7v1.7zM722.5 152.7h9.3V151h-9.3v1.7zM735.6 158.2h1.7v-1.7h-1.7v1.7zM732.8 158.2h1.7v-1.7h-1.7v1.7zM722.5 158.2h9.3v-1.7h-9.3v1.7zM687.9 158.1h-2.1v-2.2h.2V157.8H687.9V158.1c.1 0 .1 0 0 0zM711.4 158.1h-4v-.2h4.1v.1l-.1.1c.1 0 .1 0 0 0zm-7.8 0h-4v-.2h4.1v.1l-.1.1zm-7.8 0h-4v-.2h4.1v.1l-.1.1c.1 0 0 0 0 0zM717.5 158.1h-2.2v-.2H717.2v-2H717.5v2.2zM717.3 151.5l-.1-.1V146.7H717.5V151.7l-.2-.2zM717.3 142.3s-.1 0 0 0c-.1 0-.1 0 0 0l-.1-.1V140.3H715.3v-.2h2.2V142.4c-.1-.2-.1-.1-.2-.1zM711.4 140.3h-4v-.2h4.1v.1l-.1.1c.1 0 .1 0 0 0zm-7.8 0h-4v-.2h4.1v.1l-.1.1c.1 0 0 0 0 0zm-7.8 0h-4v-.2h4.1v.1l-.1.1c.1 0 0 0 0 0zM686 142.3s-.1 0 0 0c-.1 0-.1 0 0 0l-.1-.1V140h2.2v.2H686.2v2l-.2.1zM686 151.5l-.1-.1V146.7h.2V151.4l-.1.1.1.1-.1-.1zM697.9 161.1h-12.2v3.8h12.2v-3.8zM691.8 168.7h-6.1v1h6.1v-1zM691.8 171.6h-6.1v1h6.1v-1zM691.8 174.4h-6.1v1h6.1v-1zM307.2 149h-63.8V72.4h49.1L307.1 87v62h.1z" class="st2"/><path d="M292.6 87.1h14.6l-14.6-14.6v14.6z" class="st4"/><path d="M307.4 149.2h-64.1V72.3h49.4L307.4 87v62.2zm-63.8-.3H307V87.1l-14.5-14.5h-48.9v76.3z" class="st4"/><path d="M264.1 110.7h-41.2v21.7h41.2v-21.7z" class="st4"/><path d="M237.1 121.2c-.3.5-.7.9-1.2 1.1-.6.3-1.4.5-2.1.4h-1.7v3.9h-2v-10.1h3.7c.7 0 1.4.1 2 .4.5.2.9.6 1.2 1.1s.4 1 .4 1.6c.1.5 0 1.1-.3 1.6zm-2.1-.5.3-.5.1-.6c0-1-.6-1.5-1.7-1.5h-1.6v2.9h1.6c.5.1 1 0 1.3-.3zM247.4 116.5v10.1h-2v-4.3H241v4.3h-2v-10.1h2v4.2h4.3v-4.2h2.1zM256.4 121.2c-.3.5-.7.9-1.2 1.1-.6.3-1.4.5-2.1.4h-1.7v3.9h-2v-10.1h3.7c.7 0 1.4.1 2 .4.5.2.9.6 1.2 1.1.3.5.4 1 .4 1.6.1.5-.1 1.1-.3 1.6zm-2.2-.5.3-.5.1-.6c0-1-.6-1.5-1.7-1.5h-1.6v2.9h1.6c.5.1 1 0 1.3-.3z" class="st2"/><path d="M281.6 97.6h-6.9v4.6h6.9v-4.6z" class="st1"/><path d="M285.9 97.6H283v4.6h2.9v-4.6z" class="st0"/><path d="M296.6 97.6h-9.3v4.6h9.3v-4.6z" class="st1"/><path d="M282.3 104.8h-7.7v4.6h7.7v-4.6z" class="st0"/><path d="M296.6 104.8h-12.8v4.6h12.8v-4.6zM286.8 111.9h-12.1v4.6h12.1v-4.6z" class="st1"/><path d="M296.6 111.9h-8.4v4.6h8.4v-4.6z" class="st0"/><path d="M283.8 119.1h-9.1v4.6h9.1v-4.6z" class="st1"/><path d="M296.6 119.1h-11.4v4.6h11.4v-4.6zM283 130.9h13.6v-4.6H283v4.6z" class="st0"/><path d="M274.7 130.9h6.8v-4.6h-6.8v4.6z" class="st1"/><path d="M286.1 138.1h10.5v-4.6h-10.5v4.6z" class="st0"/><path d="M278.7 138.1h5.9v-4.6h-5.9v4.6zM274.7 138.1h2.6v-4.6h-2.6v4.6z" class="st1"/><path d="M252.4 104.4h-2.2v-2.2h.3v1.8h1.8l.1.4zM258.8 104.1h-3.2v.3h3.2v-.3zM264.2 104.4H262v-.3h1.8v-1.8h.3v2.1h.1zM264.2 98.2h-.3v-4.1h.3v4.1zm0-8.2h-.3v-4.1h.3V90zM264.2 81.8h-.3V80h-1.8v-.3h2.2v2.1h-.1zM258.8 79.6h-3.2v.3h3.2v-.3zM250.6 81.8h-.3v-2.2h2.2v.3h-1.8l-.1 1.9zM250.6 98.2h-.3v-4.1h.3v4.1zm0-8.2h-.3v-4.1h.3V90z" class="st4"/><path d="M801.6 564.1H188.8v1h612.7l.1-1z" class="st8"/><path d="M753.4 570S703 586.5 678 580.1c-1-.2-2-.5-2.9-.9h-.1s-18.3 8.9-45.7 2.4c0 0-7.3-5.4-9-13.6h-89.9s-38.1 26-52.9-19.9c0 0-11.7-24.6 1.3-48.7l5.6-34.2s-9-23.6 4.1-28.9c0 0 7.3-63.4 17.4-62.3.4-2.5 7-8.6 50.6-12.8l2.5-2.6c2.1-2.1 4.6-3.6 7.5-4.3 2.8-.7 5.8-.7 8.6.2a86.1 86.1 0 0 0 49-1.1c5.2-1.5 10-4.1 14-6.7 1.5-1 3.3-1.5 5.1-1.3 1.8.1 3.5.8 4.8 2l3.6 3.2c17.4 5.2 54-2.6 56.1 2.5 0 0 10.3-4.5 30.5 48.2l12.3 32.3c1.2 3.1 3.6 5.7 6.6 7.2 3.6 1.8 7.4 6.6 1.5 19.5 0 0 9.9 33.2 16.5 44.9 6.6 11.7.9 19.5.9 19.5.6 1.1 17 42.5-22.6 45.3z" class="st6"/><path d="M638.5 538.3c-3.4-.5-8-.3-8-.3-11 .8-12.1 9.6-12.1 9.6l-21.9 8.4-5.7 2.2c1.9-11.4 1.7-29.3.3-49.8l-.2-2.9c-.8-11.4-2-23.4-3.4-35.6-2-18-4.5-36.3-6.8-52.7l-4.5-29.8-3.8-23.3a7 7 0 0 1 .1-2.5c.2-.8.6-1.6 1.1-2.2.5-.7 1.2-1.2 1.9-1.6s1.6-.6 2.4-.7l56.2-3.1c1-.1 2 0 2.9.2a7.3 7.3 0 0 1 4.4 3.7c.4.9.7 1.8.7 2.8 3.1 58.7-3.6 177.6-3.6 177.6z" class="st4"/><path d="M537.9 272.9s-2.6 14.1.5 21 6.6 4.3 6.6 4.3-8.9-12.9-6.1-25.6l-1 .3zM637.7 303.6l26.2-26.1s4.3 15.5-4.5 27c-5.5 7.2-1.7 14-1.7 14s-8.2-.4-6.3-8.5c-.3.5-3 3-2.8 10.9 0 0-3 0-4-2.4a4.7 4.7 0 0 1 0-3.3c-2 1.6-4.9 2.6-6.9 1.6l3.1-4.2c-.8 1-3.1 3.5-7.5 4.6-6.2 1.6-9.9-1.1-9.9-1.1l14.3-12.5z" class="st9"/><path d="M576.3 320.3v36.3a30.8 30.8 0 0 0 30.8 31 30.8 30.8 0 0 0 30.8-31v-36.3h-61.6z" class="st10"/><path d="M556.5 314.8a41.2 41.2 0 1 0 82.2 0v-50.3a41.2 41.2 0 1 0-82.2 0v50.3z" class="st10"/><path d="M576.3 350.1v8.3s12.3-.6 21.5-5.6c0 0-8.7 3.2-21.5-2.7z" class="st11"/><path d="M574.6 287.5c2-.3 3.4-2.2 3.1-4.3-.3-2-2.2-3.4-4.2-3.1s-3.4 2.2-3.1 4.3c.3 2 2.2 3.4 4.2 3.1z" class="st9"/><path d="M564.9 280.2a11.5 11.5 0 0 1 7.6-3l1.1.1.5.1.5.1 1 .3 1 .4.5.2.5.2.9.5 1.7 1.2-1.8-1-.9-.4-.5-.2-.5-.2-1-.3-1-.2-.5-.1h-.5l-1-.1c-1.4 0-2.7.2-4 .6l-1 .4-.9.4-1.7 1zM613.4 287.5c2-.3 3.4-2.2 3.1-4.3-.3-2-2.2-3.4-4.2-3.1s-3.4 2.2-3.1 4.3c.3 2 2.2 3.4 4.2 3.1z" class="st9"/><path d="M603.7 280.2a11.5 11.5 0 0 1 7.6-3l1.1.1.5.1.5.1 1 .3 1 .4.5.2.5.2.9.5 1.7 1.2-1.8-1-.9-.4-.5-.2-.5-.2-1-.3-1-.2-.5-.1h-.5l-1-.1c-1.4 0-2.7.2-4 .6l-1 .4-.9.4-1.7 1zM587.5 295.8a78 78 0 0 1-.5 4.8l-.6 4.8c-.2.8-.2 1.6-.2 2.3 0 .8.2 1.5.5 2.3.3.7.8 1.3 1.4 1.8l2 1.3-2.1-1.1a4 4 0 0 1-1.6-1.8c-.4-.7-.6-1.6-.6-2.4s0-1.6.2-2.4l.7-4.8.8-4.8z" class="st9"/><path d="M601 318.7a8.2 8.2 0 0 1-1.8 3.6 7.5 7.5 0 0 1-8.8 1.9c-1.6-.7-2.8-2-3.5-3.6l1.9-.1 2.5-.1.9-.1.8-.1 1.4-.4c1-.3 2-.8 2.9-1.4l2-1.2 1.8-1.1c.1.8.1 1.7-.1 2.6z" style="fill:#e43f5a"/><path d="m599.3 317.2-.5 1.1a7 7 0 0 1-9 2.9l-1-.6 2.5-.1.9-.1.8-.1 1.4-.4c1-.3 2-.8 2.9-1.4.6-.5 1.2-.9 2-1.3z" class="st2"/><path d="M564.9 269.9c.2-.8.6-1.6 1.1-2.2l.8-.9.5-.4.5-.4a8 8 0 0 1 4.8-1.3l1.3.1.6.1.6.2 1.2.4 1.1.6.5.3.4.4.8.9.7 1 .5 1.1H577l-.5-.1h-.5l-.9-.1h-5.8l-4.4.3zM603.7 269.9c.2-.8.6-1.6 1.1-2.2l.8-.9.5-.4.5-.4a8 8 0 0 1 4.8-1.3l1.3.1.6.1.6.2 1.2.4 1.1.6.5.3.4.4.8.9.7 1 .5 1.1h-3.3l-.5-.1h-.5l-.9-.1h-5.8l-4.4.3z" class="st9"/><path d="M618.9 241.3a12.5 12.5 0 0 0-6-6.2 12.2 12.2 0 0 0-8.6-.6c-4.4 1.4-9.8 5.1-15.3 13.5-1.9 3-3.6 6.2-5 9.5a45 45 0 0 1-26 25.6l-1.5 24.1-.6-.3a47.9 47.9 0 0 1-17.7-29.8l-.5-2.8c.1 1-.1 2-.4 2.9a7 7 0 0 1-1.7 2.4c-2.3 2-5.9 1.1-5.9 1.1s6.6-8.4 3.5-23.5c-2.8-13.6 3.1-22.4 15.4-29.1 0 0-9 1.2-10.6-7.2 0 0 19.7 8.7 33.2-7.3 16.6-19.6 37.9-16.6 42.7 1.1 0 0 4.5-10.1 12.2-4.2 7.7 5.9 15.3 15.6 27.8 20.9 12.5 5.3 3.3 38.8 22.2 46.2 0 0-10.1 4.5-13.5-6.8 0 0 10.5 24.9-24 41.6l2.5-24s-14.3-2.8-16.9-19.9c-2-12.8-2.4-20.6-5.3-27.2z" class="st9"/><path d="M613.8 214.9a13.6 13.6 0 0 1 2.1-5c.5-.8 1.2-1.5 1.9-2.1.8-.6 1.7-1.1 2.6-1.4 1-.3 2-.4 3-.3 1 .1 2 .3 2.9.7a15 15 0 0 1 4.6 3.3 68.5 68.5 0 0 1 6.7 8.5c1.1 1.4 2.1 2.9 3.3 4.1l2 1.6 1.1.6 1.1.6c3.1 1.5 6.5 2.4 9.8 3.4a14.3 14.3 0 0 1 5.3 2.4 11 11 0 0 1 2.1 2.2c.6.9 1 1.8 1.2 2.8.4 1.9.5 3.8.4 5.6s-.4 3.6-.6 5.3c-.5 3.5-.8 7-.2 10.5l-.2.1a24 24 0 0 1-1.2-5.3c-.1-1.8-.2-3.6-.1-5.4l.2-5.3c0-1.7-.1-3.4-.6-4.9-.2-.7-.6-1.4-1-2a8 8 0 0 0-3.6-2.7l-2.4-.8-2.6-.8-1.3-.4-1.3-.5c-1.7-.6-3.4-1.4-4.9-2.3-1.6-.9-3-2.2-4.2-3.7l-3-4.5a30.6 30.6 0 0 0-7.2-7.6 23 23 0 0 0-4.3-2.5c-.7-.3-1.5-.5-2.2-.6s-1.5-.1-2.2.1a8.2 8.2 0 0 0-4 2.5 20.2 20.2 0 0 0-3 4.2l-.2-.4zM615.5 236.6c-1.9-1-4-1.1-6-.9-2 .3-4 .9-5.9 1.8a25 25 0 0 0-10 7.5l-1 1.2-1 1.3-1.9 2.5-1.8 2.6-.9 1.3-.9 1.3-6.8 10.8-.1-.1a65.2 65.2 0 0 1 9.3-16.9 49 49 0 0 1 9.1-9.1 18.8 18.8 0 0 1 8.2-5l1.6-.4 1.7-.2c1.1-.1 2.2 0 3.3.3s2.1.8 2.9 1.6l.2.4zM642 288.8c-2.8.3-5.7 0-8.4-.7a19.7 19.7 0 0 1-7.5-4.1c-2.1-2-3.5-4.6-4.5-7.2a34.5 34.5 0 0 1-1.7-16.7c.3-2.7.5-5.5.5-8.2A32 32 0 0 0 618 240c-.6-1.2-1.4-2.4-2.4-3.3l.1-.1a11 11 0 0 1 2.9 3.1l1.1 1.9.8 2c.9 2.7 1.4 5.6 1.4 8.4 0 2.8-.2 5.7-.7 8.5-.4 2.7-.7 5.5-.7 8.2 0 2.8.5 5.5 1.5 8.1.5 1.3 1.2 2.5 2.1 3.5a19.4 19.4 0 0 0 6.1 5.2 24.8 24.8 0 0 0 11.8 3.3zM533.8 259.4l-1.1-2.3-.7-2.4-.5-2.5-.1-2.5c.1-1.7.6-3.4.9-5l.9-5 .3-1.3.4-1.2.6-1.2.7-1.1c.9-1.5 2.1-2.8 3.6-3.9 1.4-1 3-1.8 4.7-2.3s3.4-.7 5.1-.5v.2c-1.5.6-3 1.3-4.4 2.1-1.3.8-2.6 1.6-3.8 2.6a20 20 0 0 0-3.3 3.2l-.7.9-.7 1c-.4.6-.9 1.3-1.2 2-.4.7-.7 1.5-.9 2.2-.2.8-.4 1.6-.4 2.4-.2 1.6.2 3.3.4 4.8l.2 2.4.2 2.4.1 2.4v2.5l-.3.1z" class="st9"/><path d="M640.6 313.1h2.1c4.2 0 7.7-3.4 7.7-7.7v-13.7c0-4.2-3.4-7.7-7.7-7.7h-2.1a7.7 7.7 0 0 0-7.7 7.7v13.7a7.8 7.8 0 0 0 7.7 7.7z" class="st10"/><path d="M639.3 288.7c.7-.1 1.5-.1 2.2.1s1.5.5 2.1.9c1.3.9 2.3 2.1 2.9 3.6.3.7.4 1.5.4 2.3l-.1 2.2-.4 4.4-.4-4.4-.1-2.2c0-.7-.2-1.4-.4-2a5 5 0 0 0-.9-1.8c-.4-.6-.9-1.1-1.4-1.5l-1.8-1.1a16 16 0 0 0-2.1-.5zM642.2 304.4l-1.1-.8c-.3-.3-.5-.7-.7-1.2-.2-.4-.2-.9-.3-1.3 0-.5.1-.9.3-1.3l.5 1.2.4 1.1.4 1.1.5 1.2z" class="st11"/><path d="M662.7 270.6c1.1 1.1 1.9 2.4 2.6 3.8l.9 2.1c.3.7.4 1.5.6 2.2.2 1.5.1 3.1.2 4.6l.5 4.5.1 1.2v1.2l-.1 1.2-.1 1.2-.5 2.3-.8 2.2c-.6 1.4-1.5 2.8-2.6 4l-.8.9-.9.8-.9.7-1 .6-.2-.2a48 48 0 0 0 4-7.8l.8-2c.2-.7.5-1.3.6-2l.3-1 .3-1.1.2-1.1.2-1.1c.3-1.5.3-3 .1-4.4-.2-1.5-.9-2.8-1.4-4.2l-.6-2.1-.6-2.1-1-4.4h.1zM592.5 200.9l-5.2 1.7-2.5 1-.6.2-.6.3-1.2.5-2.5 1-1.2.6-1.2.7a2 2 0 0 0-.6.4l-.5.4-1 .9-.9 1-.9 1-1.6 2.2-1.8 2.2-2 2.1a13 13 0 0 1-2.3 1.8c-1.7 1.1-3.7 1.7-5.7 1.8s-4.1-.5-5.5-2l.2-.2a8.9 8.9 0 0 0 7.4-.6l.3-.1.3-.2.5-.3.5-.3.5-.4 2.1-1.5 1-.8 1-.9 1.9-1.9 1.1-1 1.1-.9 2.2-1.7 1.1-.9.5-.4.6-.4 1.1-.9 1.1-.9 2.3-1.7 1.3-.7.6-.3.7-.2 2.7-.8c.9-.2 1.9-.3 2.8-.3 1-.1 1.9 0 2.9.2v.3z" class="st9"/><path d="M543.8 227.8a27.6 27.6 0 0 0 8 .7 25.8 25.8 0 0 0 11.4-3.3l1.7-1 .8-.6.8-.6c2.1-1.6 4.1-3.5 5.9-5.6a29 29 0 0 1-5.4 6.2l-1.6 1.3-1.7 1.1a23.6 23.6 0 0 1-19.9 1.8zM535.4 279.9c.6-.6 1.1-1.4 1.4-2.2.4-.8.6-1.6.8-2.4l.4-2.5.1-1.3v-1.3l-.1-1.3-.1-1.3-.4-2.6-.5-2.6-.5-2.6 1 2.5.8 2.6.5 2.6.1 1.3.1 1.3a14.4 14.4 0 0 1-1.8 7.9c-.4.7-1 1.4-1.8 1.9zM569.4 277a25.9 25.9 0 0 1-16.2 8 16 16 0 0 1-6.1-.7c2 .2 4 .2 6 0 1-.1 2-.3 2.9-.6a33.2 33.2 0 0 0 8.2-3.4c1.9-1 3.6-2.1 5.2-3.3zM594.6 228.4a22.6 22.6 0 0 0-8.5 8c-1.1 1.7-2 3.4-2.8 5.2l-2.3 5.5c-1.4 3.7-2.7 7.5-4.3 11.1-.8 1.8-1.7 3.6-2.8 5.3-1 1.7-2.3 3.3-3.8 4.6 1.3-1.5 2.5-3.1 3.4-4.8.9-1.7 1.8-3.5 2.5-5.4 1.5-3.7 2.7-7.5 4.2-11.2 1.4-3.7 3.1-7.4 5.4-10.7a21.5 21.5 0 0 1 9-7.6z" class="st4"/><path d="m594.6 228.4 2.6-1.3c.9-.3 1.8-.7 2.8-.9l1.4-.3.7-.1.7-.1 1.5-.1 1.5.1.7.1.7.1 1.4.4.7.2.7.3.7.3.6.4c1.7 1 3.1 2.5 4 4.3a14 14 0 0 0-9.7-5.2l-1.4-.1H602.1l-.7.1-1.4.2-1.4.3-1.4.3c-.7.4-1.6.7-2.6 1zM665 285.5a37 37 0 0 0-.7-5.7c-.4-1.9-1-3.7-1.9-5.4l-1.2-2.6-1-2.7a29 29 0 0 1-1.2-5.7l1.9 5.5c.7 1.8 1.6 3.5 2.4 5.2l1.1 2.7.2.7.2.7.2.7.1.7c.2 2 .2 4-.1 5.9zM648.4 284.1a29.9 29.9 0 0 1-13.9-11.3 31.2 31.2 0 0 1-4-8.2c-.9-2.9-1.5-5.9-1.7-8.9a52.4 52.4 0 0 0 4.2 12.6l1.1 1.9 1.2 1.9a37.2 37.2 0 0 0 13.1 12zM615.6 219.9c-.3-1.5-.4-3-.1-4.5.2-.8.5-1.5 1-2.2s1.3-1.1 2.1-1.3a5 5 0 0 1 2.4.3l2 1c1.3.8 2.4 1.7 3.4 2.8l-3.8-2.2c-1.3-.6-2.7-1.2-3.9-1-.6.1-1.2.4-1.6.9a5 5 0 0 0-.9 1.8c-.3 1.5-.6 2.9-.6 4.4zM613.9 223.6c-.7-1.4-1.6-2.7-2.8-3.8a26 26 0 0 0-3.6-3 24.3 24.3 0 0 0-22.5-1.4 21 21 0 0 0-4.2 2.2c2.5-2.1 5.4-3.6 8.5-4.4a23.9 23.9 0 0 1 14.3.7c1.5.6 3 1.3 4.3 2.3a14 14 0 0 1 6 7.4zM546.2 265.2a6.7 6.7 0 0 1-2.9-3.3l-.3-1.1-.2-1.1v-2.2l.2-1.1.2-1.1.4-1 .4-1 1-2 1.2-1.8-.8 2-.7 2-.6 2-.3 2.1c-.2 1.4-.1 2.8.3 4.1.3 1.3 1 2.5 2.1 3.5z" class="st4"/><path d="M551.1 265.9c-.6.3-1.3.4-2 .3s-1.4-.4-1.9-.8c-.5-.5-1-1-1.2-1.7l-.3-1-.2-1 .9-.1v1.8l-.2 1.8-.4-1.8-.3-1.8.9-.1.2.9.3.8a3.8 3.8 0 0 0 2.4 2.3l1.8.4zM560.9 238a48.8 48.8 0 0 0-5.2 5.9 34.5 34.5 0 0 0-3.9 6.7c-.5 1.2-.9 2.4-1.2 3.7l-.4 1.9-.2 1.9v1.9l.2 1.9.8 3.8a17 17 0 0 1-1.3-3.8c-.2-.6-.2-1.3-.3-2l-.1-2c0-1.4.1-2.7.4-4a29 29 0 0 1 3-7.5l2.3-3.3a48 48 0 0 1 5.9-5.1zM582.8 240.6a77 77 0 0 1-12.2 19.7 40.7 40.7 0 0 1-8.8 7.7c-1.7 1-3.5 1.8-5.3 2.4-1.9.6-3.8.8-5.8.6 1.9 0 3.8-.4 5.6-1.1s3.5-1.5 5.1-2.6a44 44 0 0 0 8.4-7.7c1.3-1.4 2.5-2.9 3.6-4.5a81.2 81.2 0 0 0 6.4-9.6c1.2-1.5 2.1-3.2 3-4.9zM655.4 303.5l-1.6 2.7-1.4 2.7a10.8 10.8 0 0 0-.7 6c-.6-.9-.9-2-.9-3.1s.2-2.2.6-3.2c.4-1 1-1.9 1.7-2.8.7-.9 1.5-1.6 2.3-2.3zM655.4 251.9c-.7 8.7-.3 17.5 1.1 26.2l.6 3.2.7 3.2.7 3.2.5 3.3a19 19 0 0 1-.4 6.7c-.6 2.2-1.8 4.1-3.3 5.7a20 20 0 0 0 1.6-2.8c.5-1 .8-2 1-3.1.4-2.1.3-4.3.1-6.4-.3-2.2-.7-4.3-1.2-6.4l-.7-3.2-.6-3.3a98 98 0 0 1-1.1-13.2v-3.3l.2-3.3.8-6.5zM670.2 278.7c-1 .1-2-.1-3-.5a8.7 8.7 0 0 1-4.5-4l-.7-1.4-.4-1.4.9 1.2.4.6.4.6a36 36 0 0 0 1.9 2.1c1.5 1.3 3.2 2.2 5 2.8zM631.7 238c1.9 1.6 3.6 3.3 5.3 5.1 1.6 1.8 3.1 3.8 4.3 6s2.1 4.5 2.6 6.9.6 4.9.3 7.3a30 30 0 0 0-3.8-13.8 39.8 39.8 0 0 0-4.1-6l-4.6-5.5zM616 226a17.6 17.6 0 0 1 1.4-5.9c.3-.7.8-1.2 1.4-1.6.4-.2.8-.2 1.1-.2l1 .4 1.6 1.3a11 11 0 0 1 2.1 3.6l1.2 3.9.6 1.9.8 1.8c1.2 2.4 2.7 4.6 4.4 6.7a21.1 21.1 0 0 1-6.8-10.1l-1.1-3.9a9.9 9.9 0 0 0-1.7-3.4l-1.4-1.3-.8-.4c-.3-.1-.6 0-.9.1-.6.3-1 .8-1.3 1.3l-.8 1.8-.8 4zM637.7 219.9c.4.8.9 1.6 1.5 2.3l.9 1 1 .9c1.4 1.2 2.9 2.2 4.5 3.1l2.4 1.3 2.5 1.1 2.6 1 2.6 1a25.6 25.6 0 0 1-8-2.3l-2.5-1.2-1.2-.7-1.2-.8-2.1-1.8-.9-1-.8-1.1a8.6 8.6 0 0 1-1.3-2.8z" class="st4"/><g class="st13"><path d="M626.8 542.5s-9.9 1.3-6.8 12.3c3.2 11 18.5-9.1 18.5-9.1s-2.9-4.9-11.7-3.2z" class="st14"/></g><g class="st13"><path d="M759 527s-11.5-10.6-24-12.5c.1 0 25.2 2.3 24 12.5z" class="st14"/></g><g class="st13"><path d="M773.9 521s-7.3-15.3-21.4-14.8c-.1 0 22-.7 21.4 14.8z" class="st14"/></g><g class="st13"><path d="M756.6 454.4s-2.4-11-15.5-1.1c0-.1 11.1-6.6 15.5 1.1z" class="st14"/></g><g class="st13"><path d="M715 524s-5.7 3.7-7.2-8.9c0 0-8.9-27.8-10.9-39.6 0 0 6.6 41.9 8.5 51.2-.1 0 6.2-.7 9.6-2.7z" class="st14"/></g><g class="st13"><path d="M668.3 536.8s10.6-16.8 13.9-34.2c0 0-8.9 24.1-22.6 35.5l8.7-1.3z" class="st14"/></g><g class="st13"><path d="m600.2 467.3-.4-.4.4.4z" class="st4"/></g><g class="st13"><path d="M639.3 476.8c-.2 1-.6 2-1.1 2.9a8 8 0 0 1-2.3 2.2c-.9.6-1.9.9-3 1s-2.1 0-3.1-.3a88.6 88.6 0 0 1-29.6-15.3 162.6 162.6 0 0 0 40.5 26.7l.3-8 1.3-38.1c-.1 0-1 16.4-3 28.9z" class="st4"/></g><g class="st13"><path d="m580.7 417.1-4.5-29.8 50.7-8.5c5.6 29.2-37.4 37-46.2 38.3z" class="st4"/></g><g class="st13"><path d="M590.8 558.1c1.9-11.4 1.7-29.3.3-49.8l-.2-2.9 5.6 50.5-5.7 2.2z" class="st4"/></g><g class="st13"><path d="M554.1 494c8.7 1.6-.2 31-14.2 57.1l8.4-3.8s21.2-31.7 9.3-53.3l12.3-32.5c.7-1.8.7-3.8.2-5.7a8.8 8.8 0 0 0-3.4-4.6c-2 11.7-11.3 26.8-12.6 42.8z" class="st14"/></g><g class="st13"><path d="M568.9 523.4s8.1 25.1 14.7 35.4l2.3-7.9-1.4-21.4s.1 7.6-.7 10.2c-.9 3-2.9 3-4.9 1.2-3.8-3.6-10-17.5-10-17.5z" class="st14"/></g><path d="m507.3 459.8-3.9 4.7-1.9 2.4-1.9 2.4-3.8 4.8-1.9 2.4-1.8 2.4-1.8 2.5-1.8 2.5-1.8 2.5-1.7 2.5-1.7 2.6-.8 1.3-.8 1.3-.8 1.3-.8 1.3-1.5 2.7c1.7-3.7 3.6-7.3 5.8-10.7a179.5 179.5 0 0 1 14.5-19.7l8.4-9.2zM526.1 425.4l-.5.3-.5.4-.5.4-.4.4-.8.9-.8 1c-1 1.3-1.9 2.7-2.7 4.1l-.6 1.1-.6 1.1-1.2 2.2-1.1 2.2-.6 1.1-.5 1.1-2.1 4.5-2 4.6-3.8 9.2 1.6-4.7.4-1.2.4-1.2.9-2.3 1.9-4.6 2-4.5.5-1.1.6-1.1 1.1-2.2 1.2-2.2 1.3-2.1a41 41 0 0 1 2.9-4l.8-.9.9-.9c.7-.8 1.4-1.4 2.2-1.6zM488.5 436.3a61 61 0 0 1 14.8-6.3l2-.5 2-.4 2-.4 1-.2 1-.1 2-.2 2-.1h2l2 .1-2 .1-1 .1-1 .1-2 .2-2 .3a72.5 72.5 0 0 0-15.4 4.2l-1.9.7-1.9.8c-1.2.4-2.4 1-3.6 1.6zM509.5 376a51.7 51.7 0 0 1 14.5 11.6l1.4 1.5 2.7 3.2.6.8.6.8 1.2 1.7 1.1 1.7 1.1 1.8a103.9 103.9 0 0 0-23.2-23.1z" class="st14"/><path d="M638.1 381.4a45.5 45.5 0 0 1-25.3 15c-2.5.5-5 .7-7.5.7l-1.9-.1-1.9-.2-.9-.1-.9-.1-1.8-.3-3.6-.9-1.8-.6-1.8-.7-.9-.3-.8-.4-1.7-.8-3.3-1.8 1.7.8.8.4.8.4 1.7.7.9.4.9.3 1.8.6 1.8.5c1.2.4 2.4.6 3.6.8l1.8.3.9.1.9.1 1.8.1h1.9a37 37 0 0 0 14.5-2.7 58.6 58.6 0 0 0 12.9-7.4c1.8-1.3 3.7-3 5.4-4.8zM640.6 494a164 164 0 0 1-31.7-18.9c-3.2-2.5-6.3-5.3-9.2-8.2l2.3 2 1.2 1 1.2 1 2.4 1.9 2.4 1.9 1.2.9 1.2.9 2.5 1.8 2.5 1.7 2.6 1.7c3.4 2.2 6.9 4.4 10.5 6.4l2.7 1.5 2.7 1.5 5.5 2.9zM596.1 522.3c2.4 1.7 4.9 3.1 7.4 4.6s5.1 2.7 7.8 3.9a90.7 90.7 0 0 0 16.4 5.8l-2.1-.4-2.1-.5-2.1-.5-2.1-.6-4.1-1.4-2-.8-1-.4-1-.4a58 58 0 0 1-15.1-9.3z" class="st8"/><path d="M485.7 453.6c.1-.7.3-1.4.6-2l.8-1.9a27 27 0 0 1 8-9.6l3.5-2.3 3.7-1.9c2.6-1.1 5.2-1.9 7.9-2.5-2.6.8-5.2 1.8-7.7 3-1.2.6-2.5 1.2-3.6 1.9l-3.4 2.3a31.8 31.8 0 0 0-8.1 9.2c-.7 1.3-1.3 2.5-1.7 3.8zM554.1 494c.6.1 1.2.4 1.7.8.5.5.8 1 1.1 1.6.5 1.2.7 2.5.8 3.8a33 33 0 0 1-.7 7.7 93.5 93.5 0 0 1-4.2 15 181 181 0 0 1-5.9 14.4l-3.4 7-3.7 6.8a151 151 0 0 0 6.6-14 179.5 179.5 0 0 0 10-29.2c.6-2.5.8-5.1.9-7.6a12 12 0 0 0-.6-3.8c-.2-.6-.6-1.2-1-1.6-.3-.5-.9-.8-1.6-.9zM707.7 515.1a39.6 39.6 0 0 0 2 6.4c.2.5.5 1 .9 1.4.3.4.7.8 1.2 1s1 .4 1.5.4a5 5 0 0 0 1.7-.3c-.5.3-1.1.5-1.6.6-.6.1-1.2 0-1.8-.2s-1.1-.6-1.5-1.1l-1-1.5a14.2 14.2 0 0 1-1.4-6.7zM707.7 515.1a37.3 37.3 0 0 1 1.1-16.3l.5-2 .1-.5.2-.5.3-1a42.6 42.6 0 0 1 2.2-5.7l.9-1.9.9-1.8 1-1.8-1.6 3.7-.7 1.9-.7 1.9-.7 1.9-.2.5-.2.5-.3 1-.6 1.9-.5 2c-.7 2.6-1.2 5.3-1.5 8l-.2 2-.1 1v1l.1 4.2zM727.3 513.4a50.3 50.3 0 0 1 18.8-7.2c2.2-.3 4.5-.4 6.8-.3 2.3.2 4.5.6 6.6 1.4l.8.3.8.3.8.4.8.4 1.5.9 1.4 1a27.3 27.3 0 0 1 6.7 7.6l.8 1.5.8 1.5-.9-1.4-.9-1.4-2-2.7a25.5 25.5 0 0 0-10.8-7.6c-2.1-.7-4.3-1.2-6.5-1.3a48.2 48.2 0 0 0-25.5 6.6z" class="st14"/><path d="M720.4 518.6c.6-.7 1.3-1.3 2-1.8l2.4-1.3c.8-.4 1.7-.6 2.6-.9.9-.2 1.8-.4 2.7-.4 1.8-.2 3.6-.1 5.4.2l1.3.2 1.3.3 2.6.8a44 44 0 0 1 9.7 4.8 67 67 0 0 1 8.6 6.5 86.7 86.7 0 0 0-18.5-10.6l-2.5-.8-1.3-.3-1.3-.2a23.3 23.3 0 0 0-10.5.7c-1.7.7-3.2 1.6-4.5 2.8zM676.2 541.1c1.5 2.8 2.8 5.7 3.8 8.7s1.7 6.1 2 9.3a25.3 25.3 0 0 1-2.3 14c-.8 1.4-1.7 2.7-2.8 3.8a20.6 20.6 0 0 0 4.6-13 48.5 48.5 0 0 0-3.6-18.4c-.5-1.5-1-2.9-1.7-4.4zM643.4 554.8l-2.4-5.3-1.4-2.5c-.5-.8-1.1-1.5-1.8-2.2a8.9 8.9 0 0 0-5.1-2.3c-1.9-.2-3.9-.2-5.8-.1 1.9-.4 3.9-.6 5.8-.4 1 .1 2 .3 2.9.7s1.8.9 2.5 1.6c1.5 1.4 2.5 3.1 3.3 4.9.8 1.9 1.4 3.7 2 5.6zM718.4 478.3l3.9-5.4 4.1-5.2 4.3-5c1.5-1.6 3-3.3 4.6-4.8a104.8 104.8 0 0 1 7.7-6.3 16.4 16.4 0 0 1 6.1-2.6l.8-.1h1.2l.4.1.4.1.4.1a6 6 0 0 1 2.6 2.2c.6.9 1.1 1.9 1.4 3-.4-1-.9-2-1.5-2.9s-1.5-1.6-2.5-2l-.4-.1-.4-.1-.4-.1h-.2.1-.8l-.8.1a16 16 0 0 0-3.1 1c-2 1-3.8 2.2-5.5 3.6s-3.4 2.8-5 4.4c-3.2 3-6.2 6.3-9 9.7l-4.2 5.1-4.2 5.2zM688.6 410a83.7 83.7 0 0 1 1.3-14 113.5 113.5 0 0 1 7.9-27 59 59 0 0 1 7.4-11.9 72.6 72.6 0 0 0-11.7 25.3l-1.7 6.8-1.4 6.9-1.1 6.9-.7 7zM707.7 515.1a315.4 315.4 0 0 1-13.1-48.2l-.6-3.1-.6-3.1-1.1-6.2-.5-3.1-.5-3.1-.5-3.1-.4-3.1-.7-6.2-.5-6.2-.3-3.1-.2-3.1-.3-6.2.5 6.2.2 3.1.3 3.1.6 6.2.8 6.2.4 3.1.5 3.1.5 3.1.5 3.1 1.1 6.1.6 3.1.6 3.1c1.6 8.2 3.5 16.3 5.6 24.3l1.6 6 1.7 6c1.4 4 2.6 8 3.8 12zM511.3 467a46 46 0 0 0 6.5 11.4c1.3 1.7 2.7 3.4 4.2 5s3.1 3 4.9 4.3c3.5 2.6 7.4 4.5 11.6 5.6l.8.2.8.2.8.2.8.1 1.6.2.4.1h4.4l1.6-.1 1.6-.1a34 34 0 0 1-13.1-.3l-1.6-.4-1.6-.5-1.5-.6-1.5-.7a33 33 0 0 1-5.7-3.4 43.2 43.2 0 0 1-12.5-15.1l-2.5-6.1zM564.1 507.2l1.9 6.7 2 6.6c1.4 4.4 2.8 8.8 4.4 13.1a284 284 0 0 0 8 19.1l3.2 6.1c-1.2-2-2.4-3.9-3.5-6l-3.1-6.2-1.4-3.2-.7-1.6-.7-1.6-1.3-3.2-1.2-3.2c-1.5-4.4-3-8.7-4.3-13.2-.6-2.2-1.3-4.4-1.8-6.7l-.8-3.3-.7-3.4zM688.3 474c-.3 2.7-.8 5.5-1.3 8.2l-1.6 8.1-1.9 8.1-2.2 8-2.5 7.9-.7 2-.7 1.9-.7 1.9-.8 1.9c-1.1 2.5-2.2 5.1-3.5 7.5-1.3 2.5-2.7 4.8-4.2 7.2a102.2 102.2 0 0 0 7.2-14.9 289.1 289.1 0 0 0 9.5-31.7l1.8-8.1 1.6-8zM656.1 397.8l-.4 17.6-.6 17.6-.7 17.6-.2 8.8-.2 8.8-.3 17.6-.3 17.6-.8 35.2h-.1V521l.1-8.8.1-8.8.4-17.6.6-17.6.6-17.6.1-4.4.1-4.4.2-8.8.3-8.8.3-8.8c.2-5.9.4-11.7.8-17.6zM566.9 406.4a375.5 375.5 0 0 1 8.9 44.7l.7 4.5.3 2.3.3 2.3 1.3 9 1.3 9 .3 2.3.3 2.3.6 4.5 1.1 9.1 1 9.1.4 4.5.4 4.5.4 4.5.2 2.3.1 2.3.6 9.1.4 9.1.3 9.1h-.1l-.6-9.1-.6-9.1-1.5-18.2c-1-12.1-2.3-24.2-3.7-36.3l-1.1-9-1.3-9-1.5-9-.8-4.5-.8-4.5a869 869 0 0 0-6.9-35.8zM653.2 353.9c1.2 2.8 2 5.8 2.6 8.8s.9 6 1.1 9.1c.2 3.1.3 6.1.2 9.2-.1 3-.2 6.1-.6 9.1l.1-4.6V378.6l-.1-2.3-.1-2.3-.1-2.3-.2-2.3-.1-1.1-.1-1.1-.3-2.3-.3-2.3-.4-2.2-.2-1.1-.3-1.1-.3-1.1-.1-.6-.2-.5-.6-2.1zM564.4 441.9c1 .7 1.7 1.6 2.1 2.7l.5 1.7.2 1.7c0 1.2-.1 2.3-.3 3.5l-.7 3.3c-.6 2.2-1.4 4.4-2.2 6.5l-2.3 6.4-2.3 6.4-2.2 6.5-1.9 6.5a52 52 0 0 0-1.1 6.7h-.1a54.8 54.8 0 0 1 2.4-13.5l2.3-6.5 2.5-6.4a70 70 0 0 0 2.4-6.4l1-3.3.9-3.3c.5-2.2 1-4.4 1-6.7l-.1-1.7-.4-1.6c-.3-.8-.9-1.7-1.7-2.5z" class="st14"/><path d="m637.3 538.1 2.2.1 1.1.1h1.1l2.2.1H650.5l4.3-.2 8.7-.9c2.9-.4 5.8-.8 8.6-1.4-2.8.8-5.7 1.5-8.6 1.9l-2.2.3-2.2.3-4.4.4-4.4.2h-4.4c-2.8-.1-5.7-.4-8.6-.9zM672.9 535.6a23.5 23.5 0 0 1 5.2-3.5 50.4 50.4 0 0 1 20.9-5.4l3.1-.1a60 60 0 0 0 6.1-.6l3-.7 2.9-1 2.7-1.5 1.2-1 1-1.2c-.5.9-1.2 1.7-2 2.3-.8.7-1.7 1.2-2.6 1.7-1.9.9-3.9 1.5-5.9 1.9s-4.1.7-6.2.8l-3.1.1-3.1.2c-4.1.4-8.1 1.2-12 2.6-1.9.7-3.9 1.4-5.7 2.3-2.1.9-3.8 1.9-5.5 3.1z" class="st14"/><path d="M652 364.9h-6.5l-.4-.1-.1-.4.1-.4.4-.1h6.5l.4.1.1.4-.1.4-.4.1zM652.8 412.9h-6.5l-.4-.1-.1-.4.1-.4.4-.1h6.5l.4.1.1.4-.1.4-.4.1zM651 472.5h-6.5l-.4-.1-.1-.4.1-.4.4-.1h6.5l.4.1.1.4-.1.4-.4.1zM586.1 479.1h-4.6l-.4-.1-.1-.4.1-.4.4-.1h4.6l.4.1.1.4-.1.4-.4.1zM578.7 418h-6.6l-.4-.1-.1-.4.1-.4.4-.1h6.6l.4.1.1.4-.1.4-.4.1zM649.2 532.2h-6.5l-.4-.1-.1-.4.1-.4.4-.1h6.5l.4.1.1.4-.1.4-.4.1zM589.8 536.4h-3.2l-.4-.1-.1-.4.1-.4.4-.1h3.2l.4.1.1.4-.1.4-.4.1z" class="st2"/><path d="M623.4 428.3v3.6H621v-3.6h2.4zm.2-.2h-2.7v3.9h2.7v-3.9zM612 432h7.8v-3.9H612v3.9zM610.8 428.3v3.6h-5v-3.6h5zm.2-.2h-5.3v3.9h5.3v-3.9zM599.7 432h4.9v-3.9h-4.9v3.9zM614.9 438.1h8.7v-3.9h-8.7v3.9zM613.7 434.4v3.6H608v-3.6h5.7zm.2-.2h-6v3.9h6v-3.9zM602.6 438.1h4.2v-3.9h-4.2v3.9zM599.7 438.1h1.9v-3.9h-1.9v3.9z" class="st0"/><path d="M558.9 362.6s4.2-11.5 1.9-24.5c0 0 1.3-8.4-.5-15.1-.7-2.6 2.2-4.7 4.5-3.3 2.9 1.7 5.6 5.5 5.5 13.7l1.8 5.8c.1.1-1.4 19.2-13.2 23.4zM579.2 336.1l30.1-1.9a6.4 6.4 0 0 1 4.8 1.8l6.5 6.4a7 7 0 0 1 1.7 3c.6 2.4 1.8 6.8 3.3 10.5.2.6.3 1.2.2 1.9-.1.6-.4 1.2-.9 1.7s-1 .8-1.6 1-1.3.1-1.9-.1c-2.6-.9-5.2-3-6.5-7.7l-5.5-5.8-9.9 2.5-20.3-13.3z" class="st10"/><path d="m548.8 338.8-.6 4 9.6 1.4.6-4-9.6-1.4zM557 333.8l-.3 2 9.6 1.4.3-2-9.6-1.4z" class="st4"/><path d="m556.9 343.6 2 .3 1.4-9.6-2-.3-1.4 9.6z" class="st4"/><path d="m553.3 345.7 84.2 12.3 9.8-2.7-8.7-5.4-84.2-12.3-1.1 8.1z" class="st2"/><path d="m562.6 338.8-1.2 8.1 2 .3 1.2-8.1-2-.3zM566.7 339.4l-1.2 8.1 2 .3 1.2-8.1-2-.3zM645.5 354.2l1.8 1.1-2 .6.2-1.7z" class="st4"/><path d="M524.9 427.4s1.2 9.7 10.2 18.4c5.7 5.5 14 7.4 21.4 4.5 2.8-1.1 5.4-2.9 7.2-5.8l8.2-31.3s22.9-12.8 31.5-25.3l9.1-4.2s-.4 5.7 5.6 5.6c0 0 1.8 3.1 4.6 3.5h.9l.8-.4c.3-.2.5-.4.6-.7l.3-.9.6-7 .8.5.9.1.5-.2.4-.4.2-.5v-.6c-.8-2.8-2.9-10.1-3.6-15.4a6.2 6.2 0 0 0-2.4-4.2 56.3 56.3 0 0 1-9.2-8.7 6.3 6.3 0 0 0-2.6-2 47.2 47.2 0 0 1-17.1-11.3 63 63 0 0 1-11-4c-1.6-.8-3.5-1-5.3-.7s-3.5 1.1-4.8 2.4c-15.9 15.5-13.3 34.2-26.3 50.1a89.3 89.3 0 0 0-10.1 15.7l-11.4 22.8zM638.5 545.7s18.2 23.2-7 34.3l-12.2 1s-26.3 15.2-53.6 4.2l-8.9-1.9-11.7 5.9s-6.8 6.6-13.8 5.3c-.6-.1-1.2-.4-1.7-.9s-.8-1-.9-1.7a4 4 0 0 1 .1-1.9c.2-.6.6-1.2 1.2-1.5a81 81 0 0 0 7.6-6.1c1.2-1.1 2.5-1.9 4-2.5a11 11 0 0 0 3.5-2l-8.8.3-14.3 9.9s-18.2 15.7-21.8 3.6c0 0-3.7 3.9-7.4 2.9-2.6-.7-3.5-4-1.7-6a114 114 0 0 0 11.2-14.2c2.6-2.2 9.6-8.6 13.8-14.2a8 8 0 0 1 3.6-2.7c4.9-1.8 16.6-6.4 24.9-12.3 1.6-1.1 3.4-1.8 5.3-2.1 1.9-.3 3.8 0 5.7.6 11.2 4.2 35.5 11.4 55.6 5 2.5-.8 5.1-1.2 7.7-1.1 4.7 0 12.4-.2 19.6-1.9z" class="st10"/><path d="m600.2 353.9 5.2 2.1 2.6 1.1a20.3 20.3 0 0 0 5.3 1.8l2.8.5 2.7.8 1.3.6 1.1.8a8 8 0 0 0-2.5-1.1l-2.7-.6-1.4-.2-1.4-.2-2.8-.7-2.6-1.1-2.5-1.2-5.1-2.6zM605.3 365.4c1.2.8 2.5 1.6 3.9 2.3l4 1.9 2 .9 1 .4 1.1.4 2.1.7 1.1.3c.4.1.7.3 1 .6.6.5 1.1 1.1 1.4 1.9l.3 1.2v1.2l-.2 2.2-.1 1.1-.3 1.2-.5 1.1-.3.5-.3.5-1.1 1.9-.9 2.1-.2.5-.2.5-.4.4-.6.1v-.1l.5-.2c.1-.1.3-.2.3-.4l.1-.5.1-.5.7-2.2 1-2.1.3-.5.3-.5.4-.9.2-1 .1-1.1.3-2.2.1-.6v-.6l-.2-1-.4-1-.7-.8-.9-.6-1-.4-2.1-.7-4.3-1.4a31 31 0 0 1-4.1-2c-1.2-.6-2.4-1.5-3.5-2.6z" class="st11"/><path d="m616.7 382.2-2.5 1.2-2.5 1.1-2.5 1-2.6 1c.8-.5 1.5-1 2.4-1.4l1.2-.6 1.3-.6c.9-.3 1.7-.7 2.6-.9.8-.4 1.7-.6 2.6-.8zM586.2 341.8c1.5-.6 3.1-.8 4.8-.6l1.2.2.6.2.6.2 1.1.5.5.3.5.3c1.4.8 2.7 1.8 3.9 2.8l3.8 2.9c-1.4-.7-2.8-1.6-4.1-2.5l-3.9-2.6c-1.3-.8-2.8-1.4-4.3-1.7-1.6-.4-3.2-.3-4.7 0zM625.5 369.3l.5 4.1.4 4.1.1 1 .1 1c.1.7 0 1.4-.1 2.1l-.4 2-.4 2 .1-2.1.1-1 .1-1-.1-2a59.1 59.1 0 0 1-.4-10.2zM592.6 355.4c-.1-.6.1-1.2.5-1.6a3 3 0 0 1 1.5-1l.9-.2h.8l.8.2.8.3h-1.6l-.8.1-.7.2c-.5.1-.9.4-1.3.7a5 5 0 0 0-.9 1.3zM600.8 364.9c-.7.1-1.3.3-2 .6l-1.7 1c-.5.4-.9.9-1.3 1.5l-.5.9a3 3 0 0 0-.4 1l.1-1.1.3-1c.3-.7.7-1.3 1.3-1.7a5 5 0 0 1 1.9-1c.9-.3 1.6-.3 2.3-.2z" class="st11"/><path d="m612.5 383.8.3.8.2.8.1.8.1.8c-.5-.4-.8-.9-.9-1.5l-.1-.9c0-.3.1-.6.3-.8zM565.7 347.5l-1.1 2.4-1.2 2.4-1.2 2.4-1.3 2.4.8-2.6 1.1-2.5 1.3-2.3 1.6-2.2zM627.6 378.7a29 29 0 0 1-1.2-3.9c-.4-1.3-.7-2.7-.9-4l-.3-2c-.1-.7-.1-1.4-.3-2-.3-1.3-1-2.5-2.1-3.3l-3.3-2.5-3.1-2.7-2.8-3.1-.6-.8-.7-.7c-.5-.5-1-.9-1.7-1.2v-.1a4 4 0 0 1 1.8 1l.8.7.7.8 2.8 2.9 3 2.8 3.1 2.7c1 1 1.7 2.2 2.1 3.6l.2 1 .2 1 .5 2 .9 4c.5 1.1.8 2.4.9 3.8zM561.2 333.1c-.1-3.2-.3-6.4-1-9.6l-.1-.6v-1l.1-.3.2-.6c.4-.8 1.1-1.3 1.9-1.6l1.2-.2 1.2.3a9 9 0 0 1 2 1.4c1.2 1.1 2.1 2.5 2.7 4.1a16 16 0 0 1 1.1 4.8l.1 1.2.1 1.2.3 2.4a74.5 74.5 0 0 0 1.2 4.6h-.1l-.9-2.3-.7-2.3-.5-2.4-.1-1.2-.1-1.2c-.2-1.6-.5-3.1-1-4.6s-1.3-2.9-2.4-4.1l-.9-.8-.5-.4-.3-.2-.3-.1a2 2 0 0 0-1.1-.3c-.4 0-.8 0-1.1.2-.4.1-.7.4-1 .6a2 2 0 0 0-.6 1l-.2.5v.6l.1.6.1.3.1.3a26.5 26.5 0 0 1 .5 9.7zM625.8 356.3c.2.6.3 1.3.1 2s-.6 1.3-1.1 1.7c-.5.5-1.2.8-1.9.9h-.5l-.5-.1-.5-.1-.5-.2-1.8-.9-1.5-1.3c-.9-1-1.5-2.1-1.9-3.4.6 1.1 1.4 2.1 2.3 3 .9.9 2 1.5 3.1 2l.4.2.4.1.4.1h.4c.6-.1 1.1-.3 1.6-.6.5-.4.9-.9 1.1-1.5.4-.7.5-1.3.4-1.9z" class="st11"/><path d="M622.7 346.9c-.3-1-.5-2-1.1-2.9l-.9-1.2-1.1-1.1-4.5-4.3-1.1-1.1-1.1-1c-.8-.6-1.8-.9-2.8-1h-1.5l-1.5.1-3.1.2-6.2.5-6.2.5c-4.1.3-8.2.6-12.4.7h-.3v-.3l.3.3c-.7 0-1.5 0-2.2.2l-2.1.7a8 8 0 0 0-1.9 1.3l-1.7 1.6h-.1l1.6-1.7c.5-.6 1.2-1 1.8-1.4a9.7 9.7 0 0 1 4.5-1.2h.3v.3l-.3-.3 12.4-.8 6.2-.3 6.2-.3 3.1-.2 1.5-.1 1.6-.1c1.6.1 3.2.7 4.3 1.9l1.1 1.1 4.4 4.4 1.1 1.1c.4.4.6.8.9 1.3l.5 1.5.3 1.6z" class="st11"/><path d="M557.1 596.3H367.9c-1.1 0-2.2-.3-3-1a5 5 0 0 1-1.9-2.6l-1.5-4.5-38.8-118.8a5 5 0 0 1-.2-2.4c.1-.8.4-1.6.9-2.2.5-.7 1.1-1.2 1.8-1.6.7-.4 1.5-.6 2.4-.6h189.2c1.1 0 2.2.3 3 1a5 5 0 0 1 1.9 2.6L562 589.5c.3.8.3 1.6.2 2.4-.1.8-.4 1.6-.9 2.2a5 5 0 0 1-4.2 2.2z" class="st5"/><path d="M646.3 587.6h-97.5v8.7h94.6a5.8 5.8 0 0 0 5.8-5.8c0-.8-.3-1.5-.9-2.1-.4-.5-1.2-.8-2-.8z" class="st5"/><path d="M559.5 591.8c.2 0 .3-.1.3-.2v-.3l-40.3-123.4a6.3 6.3 0 0 0-2-2.8 5.5 5.5 0 0 0-3.3-1.1H327l-.3.1-.1.3.1.3.3.1h187.3a4.7 4.7 0 0 1 4.5 3.3l40.3 123.4.1.2.3.1zM572.5 593.4H583v-2.2h-10.5v2.2zM584.5 593.4H595v-2.2h-10.5v2.2zM605.7 593.4h-8l-1.3-1.1v-1.1h10.5v1.1l-1.2 1.1zM640.8 594.6a2 2 0 0 0 1.3-.4c.4-.3.7-.6.9-1.1.2-.4.2-.9.1-1.4-.1-.5-.3-.9-.6-1.2s-.7-.6-1.2-.6c-.5-.1-.9 0-1.4.1-.4.2-.8.5-1.1.9s-.4.8-.4 1.3c0 .6.2 1.2.7 1.7.5.5 1.1.7 1.7.7zm0-4.3c.4 0 .8.1 1.1.3s.6.5.7.9c.1.4.2.8.1 1.1l-.5 1c-.3.3-.6.5-1 .5a2 2 0 0 1-1.1-.1c-.4-.2-.7-.4-.9-.7a2 2 0 0 1 .3-2.5c.2-.3.7-.5 1.3-.5z" class="st8"/><path d="m642.4 592.3-.3.9c-.2.3-.4.5-.7.6s-.6.2-.9.1l-.8-.4c-.2-.2-.4-.5-.4-.8-.1-.3 0-.6.1-.9.1-.3.3-.6.6-.7l.9-.3c.4 0 .8.2 1.1.5.2.2.4.6.4 1zM637.3 592.3c0 .4-.1.8-.4 1.2-.2.4-.6.6-1 .8s-.8.2-1.2.1c-.4-.1-.8-.3-1.1-.6s-.5-.7-.6-1.1c-.1-.4 0-.9.1-1.2.2-.4.4-.7.8-1 .4-.2.8-.4 1.2-.4a2 2 0 0 1 1.5.6c.5.5.7 1 .7 1.6zM515.2 596.3H406.6c-.5 0-1-.1-1.4-.4s-.7-.7-.9-1.2c-.4-1.4.7-2.7 2.3-2.7h108.7c.5 0 1 .1 1.4.4.4.3.7.7.9 1.2.3 1.4-.8 2.7-2.4 2.7zM558 596.3h-23.5c-.5 0-1.1-.1-1.5-.5-.5-.3-.8-.7-1-1.2l-1.1-3.2c-.6-1.6.7-3.2 2.5-3.2h23.5a2.6 2.6 0 0 1 2.5 1.6l1.1 3.2c.5 1.7-.7 3.3-2.5 3.3zM386.4 596.3H368c-1.1 0-2.2-.3-3-1a5 5 0 0 1-1.9-2.6l-1.5-4.5h23.7c.5 0 1.1.1 1.5.5.5.3.8.7 1 1.3l1.1 3.2c.5 1.5-.7 3.1-2.5 3.1z" class="st8"/></svg>