<svg id="Layer_1" data-name="Layer 1" xmlns="http://www.w3.org/2000/svg" viewBox="0 0 24 24"><defs><style>.cls-1{fill:#333;}</style></defs><title>experience</title><path class="cls-1" d="M22.57,9.21H16.23a.2.2,0,0,0-.2.2V10.6a.2.2,0,0,0,.2.2h6.34a.2.2,0,0,0,.2-.2V9.41A.2.2,0,0,0,22.57,9.21Zm-3.32,3.37h-3a.2.2,0,0,0-.2.2V14a.2.2,0,0,0,.2.2h3a.2.2,0,0,0,.2-.2V12.78A.2.2,0,0,0,19.25,12.58ZM11,7H9.91a.29.29,0,0,0-.28.28v6.15a.25.25,0,0,0,.12.22l3.69,2.69a.26.26,0,0,0,.38-.06l.64-.87h0A.28.28,0,0,0,14.4,15l-3.14-2.27V7.27A.29.29,0,0,0,11,7Z"/><path class="cls-1" d="M19.1,15.7H17.67a.42.42,0,0,0-.35.19,7.67,7.67,0,0,1-1.1,1.38A7.9,7.9,0,0,1,3.36,8.62a7.87,7.87,0,0,1,4.2-4.21,7.94,7.94,0,0,1,6.15,0,7.81,7.81,0,0,1,3.61,3.08.45.45,0,0,0,.35.19H19.1a.22.22,0,0,0,.2-.33,9.69,9.69,0,1,0,0,8.68A.22.22,0,0,0,19.1,15.7Z"/></svg>