<svg width="32" height="32" viewBox="0 0 32 32" fill="none" xmlns="http://www.w3.org/2000/svg">
<path d="M15.9992 4.79995C15.3627 4.79995 14.7522 5.05281 14.3022 5.5029C13.8521 5.95298 13.5992 6.56343 13.5992 7.19995C13.5992 7.83647 13.8521 8.44692 14.3022 8.89701C14.7522 9.3471 15.3627 9.59995 15.9992 9.59995C16.6357 9.59995 17.2462 9.3471 17.6963 8.89701C18.1464 8.44692 18.3992 7.83647 18.3992 7.19995C18.3992 6.56343 18.1464 5.95298 17.6963 5.5029C17.2462 5.05281 16.6357 4.79995 15.9992 4.79995ZM11.9992 7.19995C11.9992 6.13909 12.4206 5.12167 13.1708 4.37152C13.9209 3.62138 14.9384 3.19995 15.9992 3.19995C17.0601 3.19995 18.0775 3.62138 18.8276 4.37152C19.5778 5.12167 19.9992 6.13909 19.9992 7.19995C19.9992 8.26082 19.5778 9.27823 18.8276 10.0284C18.0775 10.7785 17.0601 11.2 15.9992 11.2C14.9384 11.2 13.9209 10.7785 13.1708 10.0284C12.4206 9.27823 11.9992 8.26082 11.9992 7.19995ZM24.7992 6.39995C24.3749 6.39995 23.9679 6.56852 23.6678 6.86858C23.3678 7.16864 23.1992 7.5756 23.1992 7.99995C23.1992 8.4243 23.3678 8.83126 23.6678 9.13132C23.9679 9.43138 24.3749 9.59995 24.7992 9.59995C25.2236 9.59995 25.6305 9.43138 25.9306 9.13132C26.2306 8.83126 26.3992 8.4243 26.3992 7.99995C26.3992 7.5756 26.2306 7.16864 25.9306 6.86858C25.6305 6.56852 25.2236 6.39995 24.7992 6.39995ZM21.5992 7.99995C21.5992 7.15126 21.9364 6.33733 22.5365 5.73721C23.1366 5.13709 23.9505 4.79995 24.7992 4.79995C25.6479 4.79995 26.4618 5.13709 27.062 5.73721C27.6621 6.33733 27.9992 7.15126 27.9992 7.99995C27.9992 8.84864 27.6621 9.66258 27.062 10.2627C26.4618 10.8628 25.6479 11.2 24.7992 11.2C23.9505 11.2 23.1366 10.8628 22.5365 10.2627C21.9364 9.66258 21.5992 8.84864 21.5992 7.99995ZM5.59922 7.99995C5.59922 7.5756 5.76779 7.16864 6.06785 6.86858C6.36791 6.56852 6.77487 6.39995 7.19922 6.39995C7.62357 6.39995 8.03053 6.56852 8.33059 6.86858C8.63065 7.16864 8.79922 7.5756 8.79922 7.99995C8.79922 8.4243 8.63065 8.83126 8.33059 9.13132C8.03053 9.43138 7.62357 9.59995 7.19922 9.59995C6.77487 9.59995 6.36791 9.43138 6.06785 9.13132C5.76779 8.83126 5.59922 8.4243 5.59922 7.99995ZM7.19922 4.79995C6.35053 4.79995 5.53659 5.13709 4.93648 5.73721C4.33636 6.33733 3.99922 7.15126 3.99922 7.99995C3.99922 8.84864 4.33636 9.66258 4.93648 10.2627C5.53659 10.8628 6.35053 11.2 7.19922 11.2C8.04791 11.2 8.86184 10.8628 9.46196 10.2627C10.0621 9.66258 10.3992 8.84864 10.3992 7.99995C10.3992 7.15126 10.0621 6.33733 9.46196 5.73721C8.86184 5.13709 8.04791 4.79995 7.19922 4.79995ZM8.15922 23.9968C7.72599 24.0184 7.29288 23.9518 6.88619 23.8009C6.47951 23.6501 6.10774 23.4181 5.79348 23.1191C5.47922 22.8201 5.22903 22.4603 5.05811 22.0617C4.88719 21.663 4.79911 21.2337 4.79922 20.8V14.8C4.79922 14.6939 4.84136 14.5921 4.91638 14.5171C4.99139 14.4421 5.09313 14.4 5.19922 14.4H8.02162C8.08562 13.8128 8.29362 13.2672 8.60562 12.8H5.19922C4.09522 12.8 3.19922 13.696 3.19922 14.8V20.8C3.19914 21.4849 3.34568 22.162 3.62898 22.7857C3.91228 23.4093 4.32579 23.9651 4.84171 24.4157C5.35763 24.8663 5.96402 25.2013 6.62012 25.3981C7.27623 25.5949 7.96687 25.649 8.64562 25.5568C8.43027 25.0549 8.26727 24.5321 8.15922 23.9968ZM23.3528 25.5568C24.0316 25.649 24.7222 25.5949 25.3783 25.3981C26.0344 25.2013 26.6408 24.8663 27.1567 24.4157C27.6727 23.9651 28.0862 23.4093 28.3695 22.7857C28.6528 22.162 28.7993 21.4849 28.7992 20.8V14.8C28.7992 13.696 27.9032 12.8 26.7992 12.8H23.3928C23.7064 13.2672 23.9128 13.8128 23.9768 14.4H26.7992C26.9053 14.4 27.007 14.4421 27.0821 14.5171C27.1571 14.5921 27.1992 14.6939 27.1992 14.8V20.8C27.1993 21.2337 27.1112 21.663 26.9403 22.0617C26.7694 22.4603 26.5192 22.8201 26.205 23.1191C25.8907 23.4181 25.5189 23.6501 25.1122 23.8009C24.7056 23.9518 24.2724 24.0184 23.8392 23.9968C23.7311 24.5321 23.5681 25.0548 23.3528 25.5568ZM11.5992 12.8C10.4952 12.8 9.59922 13.696 9.59922 14.8V22.4C9.59922 24.0973 10.2735 25.7252 11.4737 26.9254C12.674 28.1257 14.3018 28.8 15.9992 28.8C17.6966 28.8 19.3245 28.1257 20.5247 26.9254C21.7249 25.7252 22.3992 24.0973 22.3992 22.4V14.8C22.3992 13.696 21.5032 12.8 20.3992 12.8H11.5992ZM11.1992 14.8C11.1992 14.6939 11.2414 14.5921 11.3164 14.5171C11.3914 14.4421 11.4931 14.4 11.5992 14.4H20.3992C20.5053 14.4 20.607 14.4421 20.6821 14.5171C20.7571 14.5921 20.7992 14.6939 20.7992 14.8V22.4C20.7992 23.673 20.2935 24.8939 19.3933 25.7941C18.4932 26.6942 17.2723 27.2 15.9992 27.2C14.7262 27.2 13.5053 26.6942 12.6051 25.7941C11.7049 24.8939 11.1992 23.673 11.1992 22.4V14.8Z" fill="#333333"/>
</svg>
