<svg width="32" height="32" viewBox="0 0 32 32" fill="none" xmlns="http://www.w3.org/2000/svg">
<path d="M8.66482 7.53595C10.4913 5.94785 12.7848 4.99707 15.1992 4.82715V7.19995C15.1992 7.41212 15.2835 7.61561 15.4335 7.76564C15.5836 7.91567 15.787 7.99995 15.9992 7.99995C16.2114 7.99995 16.4149 7.91567 16.5649 7.76564C16.7149 7.61561 16.7992 7.41212 16.7992 7.19995V4.82875C19.3485 5.01152 21.7587 6.06035 23.63 7.80124C25.5013 9.54214 26.7211 11.8705 27.0872 14.4H23.9992C23.787 14.4 23.5836 14.4842 23.4335 14.6343C23.2835 14.7843 23.1992 14.9878 23.1992 15.2C23.1992 15.4121 23.2835 15.6156 23.4335 15.7656C23.5836 15.9157 23.787 16 23.9992 16H27.1992C27.1973 17.546 26.8829 19.0757 26.275 20.4971C25.6671 21.9186 24.7782 23.2026 23.6616 24.272C23.5146 24.4192 23.4307 24.6179 23.4277 24.8259C23.4248 25.034 23.503 25.235 23.6458 25.3864C23.7886 25.5377 23.9847 25.6274 24.1926 25.6365C24.4005 25.6457 24.6037 25.5734 24.7592 25.4352C26.0344 24.2164 27.0497 22.7522 27.744 21.1306C28.4383 19.5091 28.7972 17.7639 28.7992 16C28.7992 12.6052 27.4507 9.34945 25.0502 6.94898C22.6497 4.54852 19.394 3.19995 15.9992 3.19995C12.6044 3.19995 9.34872 4.54852 6.94825 6.94898C4.54779 9.34945 3.19922 12.6052 3.19922 16C3.19922 19.672 4.83122 23.104 7.30002 25.4352C7.3765 25.5072 7.46643 25.5635 7.56467 25.6008C7.66291 25.6382 7.76754 25.6558 7.87258 25.6526C7.97762 25.6495 8.08102 25.6257 8.17687 25.5827C8.27272 25.5396 8.35915 25.478 8.43122 25.4016C8.50329 25.3251 8.55959 25.2351 8.5969 25.1369C8.63422 25.0387 8.65182 24.934 8.6487 24.829C8.64558 24.7239 8.6218 24.6206 8.57872 24.5247C8.53564 24.4289 8.4741 24.3424 8.39762 24.2704C6.23122 22.224 4.79922 19.2048 4.79922 16H7.99922C8.21139 16 8.41488 15.9157 8.5649 15.7656C8.71493 15.6156 8.79922 15.4121 8.79922 15.2C8.79922 14.9878 8.71493 14.7843 8.5649 14.6343C8.41488 14.4842 8.21139 14.4 7.99922 14.4H4.91122C5.21644 12.2765 6.1275 10.286 7.53522 8.66715L9.83282 10.9664C9.98304 11.1166 10.1868 11.201 10.3992 11.201C10.6117 11.201 10.8154 11.1166 10.9656 10.9664C11.1158 10.8161 11.2002 10.6124 11.2002 10.4C11.2002 10.1875 11.1158 9.98377 10.9656 9.83355L8.66482 7.53595ZM21.5176 9.29115C21.663 9.17568 21.844 9.11437 22.0297 9.11774C22.2153 9.12111 22.394 9.18895 22.5351 9.30963C22.6762 9.43031 22.771 9.59631 22.8031 9.77918C22.8352 9.96205 22.8027 10.1504 22.7112 10.312L22.5352 10.6256C21.8918 11.7617 21.2443 12.8956 20.5928 14.0272C20.072 14.9327 19.544 15.834 19.0088 16.7312C18.8083 17.0687 18.6035 17.4036 18.3944 17.736C18.2344 17.9872 18.0776 18.2256 17.9624 18.36C17.5491 18.8441 16.9604 19.1443 16.3258 19.1944C15.6911 19.2445 15.0626 19.0405 14.5784 18.6272C14.0942 18.2138 13.7941 17.6251 13.744 16.9905C13.6939 16.3559 13.8979 15.7273 14.3112 15.2432C14.4264 15.1088 14.636 14.9152 14.86 14.7184C15.1 14.5056 15.4088 14.2448 15.756 13.952C16.4536 13.3696 17.3272 12.656 18.1784 11.968C19.1937 11.1467 20.2124 10.3296 21.2344 9.51675L21.5176 9.29275V9.29115Z" fill="#333333"/>
</svg>
