<svg width="22" height="22" viewBox="0 0 22 22" fill="none" xmlns="http://www.w3.org/2000/svg">
<path d="M9.34995 4.40002H12.65C12.65 3.96242 12.4761 3.54273 12.1667 3.2333C11.8572 2.92386 11.4376 2.75002 11 2.75002C10.5623 2.75002 10.1427 2.92386 9.83322 3.2333C9.52379 3.54273 9.34995 3.96242 9.34995 4.40002ZM8.24995 4.40002C8.24995 3.67068 8.53968 2.97121 9.05541 2.45548C9.57113 1.93976 10.2706 1.65002 11 1.65002C11.7293 1.65002 12.4288 1.93976 12.9445 2.45548C13.4602 2.97121 13.75 3.67068 13.75 4.40002H19.25C19.3958 4.40002 19.5357 4.45797 19.6389 4.56112C19.742 4.66426 19.8 4.80416 19.8 4.95002C19.8 5.09589 19.742 5.23579 19.6389 5.33893C19.5357 5.44208 19.3958 5.50002 19.25 5.50002H18.0906L16.7772 16.8784C16.6843 17.6827 16.299 18.4248 15.6946 18.9636C15.0902 19.5023 14.3088 19.8 13.4992 19.8H8.50075C7.6911 19.8 6.90973 19.5023 6.3053 18.9636C5.70088 18.4248 5.31559 17.6827 5.22275 16.8784L3.90935 5.50002H2.74995C2.60408 5.50002 2.46419 5.44208 2.36104 5.33893C2.2579 5.23579 2.19995 5.09589 2.19995 4.95002C2.19995 4.80416 2.2579 4.66426 2.36104 4.56112C2.46419 4.45797 2.60408 4.40002 2.74995 4.40002H8.24995ZM6.31505 16.753C6.37712 17.2892 6.6341 17.7838 7.03711 18.1428C7.44012 18.5018 7.96103 18.7001 8.50075 18.7H13.4992C14.0389 18.7001 14.5598 18.5018 14.9628 18.1428C15.3658 17.7838 15.6228 17.2892 15.6849 16.753L16.9829 5.50002H5.01705L6.31505 16.753ZM9.34995 8.25002C9.49582 8.25002 9.63572 8.30797 9.73886 8.41112C9.84201 8.51426 9.89995 8.65416 9.89995 8.80002V15.4C9.89995 15.5459 9.84201 15.6858 9.73886 15.7889C9.63572 15.8921 9.49582 15.95 9.34995 15.95C9.20408 15.95 9.06419 15.8921 8.96104 15.7889C8.8579 15.6858 8.79995 15.5459 8.79995 15.4V8.80002C8.79995 8.65416 8.8579 8.51426 8.96104 8.41112C9.06419 8.30797 9.20408 8.25002 9.34995 8.25002ZM13.2 8.80002C13.2 8.65416 13.142 8.51426 13.0389 8.41112C12.9357 8.30797 12.7958 8.25002 12.65 8.25002C12.5041 8.25002 12.3642 8.30797 12.261 8.41112C12.1579 8.51426 12.1 8.65416 12.1 8.80002V15.4C12.1 15.5459 12.1579 15.6858 12.261 15.7889C12.3642 15.8921 12.5041 15.95 12.65 15.95C12.7958 15.95 12.9357 15.8921 13.0389 15.7889C13.142 15.6858 13.2 15.5459 13.2 15.4V8.80002Z" fill="#333333"/>
</svg>
