<svg width="48" height="48" viewBox="0 0 48 48" fill="none" xmlns="http://www.w3.org/2000/svg">
<path d="M3 10.5C3 9.30653 3.47411 8.16193 4.31802 7.31802C5.16193 6.47411 6.30653 6 7.5 6H28.5C29.6935 6 30.8381 6.47411 31.682 7.31802C32.5259 8.16193 33 9.30653 33 10.5V25.5C33 26.6935 32.5259 27.8381 31.682 28.682C30.8381 29.5259 29.6935 30 28.5 30H7.5C6.30653 30 5.16193 29.5259 4.31802 28.682C3.47411 27.8381 3 26.6935 3 25.5V10.5ZM7.5 9C7.10218 9 6.72064 9.15804 6.43934 9.43934C6.15804 9.72064 6 10.1022 6 10.5V25.5C6 25.8978 6.15804 26.2794 6.43934 26.5607C6.72064 26.842 7.10218 27 7.5 27H28.5C28.8978 27 29.2794 26.842 29.5607 26.5607C29.842 26.2794 30 25.8978 30 25.5V10.5C30 10.1022 29.842 9.72064 29.5607 9.43934C29.2794 9.15804 28.8978 9 28.5 9H7.5ZM15.255 39C15.5655 39.8776 16.1405 40.6374 16.9007 41.1746C17.661 41.7119 18.5691 42.0003 19.5 42H28.5C37.611 42 45 34.6125 45 25.5V22.5C45.0003 21.5691 44.7119 20.661 44.1746 19.9007C43.6374 19.1405 42.8776 18.5655 42 18.255V25.5C42 29.0804 40.5777 32.5142 38.0459 35.0459C35.5142 37.5777 32.0804 39 28.5 39H15.255ZM13.5 36C12.5691 36.0003 11.661 35.7119 10.9007 35.1746C10.1405 34.6374 9.56552 33.8776 9.255 33H28.5C29.4849 33 30.4602 32.806 31.3701 32.4291C32.2801 32.0522 33.1069 31.4997 33.8033 30.8033C34.4997 30.1069 35.0522 29.2801 35.4291 28.3701C35.806 27.4602 36 26.4849 36 25.5V12.255C37.746 12.873 39 14.541 39 16.5V25.5C39 28.2848 37.8938 30.9555 35.9246 32.9246C33.9555 34.8938 31.2848 36 28.5 36H13.5Z" fill="black"/>
</svg>
