<?xml version="1.0" encoding="utf-8"?>
<!-- Generator: Adobe Illustrator 23.1.0, SVG Export Plug-In . SVG Version: 6.00 Build 0)  -->
<svg version="1.1" id="Layer_1" xmlns="http://www.w3.org/2000/svg" xmlns:xlink="http://www.w3.org/1999/xlink" x="0px" y="0px"
	 viewBox="0 0 962.7 599.2" style="enable-background:new 0 0 962.7 599.2;" xml:space="preserve">
<style type="text/css">
	.st0{opacity:0.1;fill:#008080;enable-background:new    ;}
	.st1{fill:#FE8E9C;}
	.st2{clip-path:url(#SVGID_2_);fill:#E57492;}
	.st3{opacity:0.52;}
	.st4{fill:#096866;}
	.st5{opacity:0.3;clip-path:url(#SVGID_4_);fill:#096866;enable-background:new    ;}
	.st6{opacity:0.3;clip-path:url(#SVGID_6_);fill:#096866;enable-background:new    ;}
	.st7{clip-path:url(#SVGID_8_);fill:#096866;}
	.st8{clip-path:url(#SVGID_10_);fill:#096866;}
	.st9{clip-path:url(#SVGID_12_);fill:#096866;}
	.st10{opacity:0.3;clip-path:url(#SVGID_14_);fill:#096866;enable-background:new    ;}
	.st11{opacity:0.3;clip-path:url(#SVGID_16_);fill:#096866;enable-background:new    ;}
	.st12{clip-path:url(#SVGID_18_);fill:#096866;}
	.st13{clip-path:url(#SVGID_20_);fill:#096866;}
	.st14{clip-path:url(#SVGID_22_);fill:#096866;}
	.st15{fill:#1B3D9E;}
	.st16{clip-path:url(#SVGID_24_);fill:#1C056D;}
	.st17{clip-path:url(#SVGID_26_);fill:#1C056D;}
	.st18{fill:#A36F68;}
	.st19{clip-path:url(#SVGID_28_);fill:#8E5C57;}
	.st20{clip-path:url(#SVGID_30_);fill:#1C056D;}
	.st21{clip-path:url(#SVGID_32_);fill:#8E5C57;}
	.st22{fill:#0F0F0F;}
	.st23{clip-path:url(#SVGID_34_);}
	.st24{fill:#F99747;}
	.st25{clip-path:url(#SVGID_36_);fill:#DB7D37;}
	.st26{fill:#008080;}
	.st27{clip-path:url(#SVGID_38_);fill:#008080;}
	.st28{clip-path:url(#SVGID_40_);fill:#008080;}
	.st29{fill:#FFFCF8;}
	.st30{opacity:0.37;clip-path:url(#SVGID_42_);fill:#D4DFFF;enable-background:new    ;}
	.st31{fill:#FFFFFF;}
	.st32{clip-path:url(#SVGID_44_);fill:#A36F68;}
	.st33{clip-path:url(#SVGID_46_);fill:#A36F68;}
	.st34{fill:#DB7D37;}
	.st35{clip-path:url(#SVGID_48_);fill:#DB7D37;}
	.st36{fill:#181936;}
	.st37{clip-path:url(#SVGID_50_);fill:#181936;}
	.st38{fill:#D4DFFF;}
	.st39{clip-path:url(#SVGID_52_);fill:#096866;}
	.st40{fill:#FC476A;}
	.st41{clip-path:url(#SVGID_54_);fill:#E57492;}
	.st42{fill:#1C056D;}
	.st43{clip-path:url(#SVGID_56_);fill:#E57492;}
	.st44{clip-path:url(#SVGID_58_);fill:#E57492;}
	.st45{clip-path:url(#SVGID_60_);fill:#E57492;}
	.st46{clip-path:url(#SVGID_62_);fill:#FFFFFF;}
	.st47{clip-path:url(#SVGID_64_);fill:#E57492;}
	.st48{clip-path:url(#SVGID_66_);fill:#F99747;}
	.st49{clip-path:url(#SVGID_68_);fill:#F99747;}
	.st50{clip-path:url(#SVGID_70_);fill:#F99747;}
	.st51{fill:#FFE0C1;}
	.st52{clip-path:url(#SVGID_72_);fill:#008080;}
	.st53{clip-path:url(#SVGID_74_);fill:#008080;}
	.st54{clip-path:url(#SVGID_76_);fill:#096866;}
	.st55{clip-path:url(#SVGID_78_);fill:#0F0F0F;}
</style>
<g>
	<path class="st0" d="M314.3,501.2c44.1,4.5,88.5,6.3,132.1,7c102.7,1.8,205.6-6.6,306.7-25c69.5-12.6,129.7-41.2,141.7-116.9
		C910.3,268,862.3,143.8,755,125.4c-33.2-5.7-67.7-5.4-99.5-16.3C608.1,92.9,571.2,54.4,521,45.2c-51.3-9.3-108.3,1.7-149.5,36
		c-18.1,15.1-33.6,32.8-48.1,51.3c-11.2,14.4-21.6,32.3-38.6,40.4c-20.9,9.9-45.2,2.1-68.1-1c-39.3-5.2-85.6,7.5-114.9,34.8
		C71,235.4,61.9,288.3,66,328c5.4,52,31.1,100.8,75.6,129.6C191.9,490,256.3,495.3,314.3,501.2z"/>
	<ellipse class="st0" cx="223.2" cy="548.8" rx="100.2" ry="8.3"/>
	<ellipse class="st0" cx="690.8" cy="547.3" rx="86" ry="9"/>
	<g>
		<g>
			<path id="XMLID_404_" class="st1" d="M340.1,315.3c0,0,9.1-6.8,9.5-6c0.4,0.8-3.2,4.8-2.9,5.2s12.2-1.8,13.4,0s2.9,9,1.2,9.5
				c-1.6,0.5-10.9,1.3-12.2,1.3c-1.3,0-9.4-1.3-9.4-1.3L340.1,315.3z"/>
		</g>
		<g>
			<defs>
				<path id="SVGID_1_" d="M340.1,315.3c0,0,9.1-6.8,9.5-6c0.4,0.8-3.2,4.8-2.9,5.2s12.2-1.8,13.4,0s2.9,9,1.2,9.5
					c-1.6,0.5-10.9,1.3-12.2,1.3c-1.3,0-9.4-1.3-9.4-1.3L340.1,315.3z"/>
			</defs>
			<clipPath id="SVGID_2_">
				<use xlink:href="#SVGID_1_"  style="overflow:visible;"/>
			</clipPath>
			<path class="st2" d="M349.2,311.7c0,0,0.1,12,7.5,16.1c0,0,10.4-1.7,10.8-3.1c0.4-1.4-7.9-16.1-7.9-16.1L349.2,311.7z"/>
		</g>
	</g>
	<g class="st3">
		<g>
			<g>
				<path id="XMLID_403_" class="st4" d="M591.4,499.4c-10.7,0.9-21.3,3.2-31.4,6.7c11.3-14.7,18.1-33.4,24.3-50.9
					c-14.6,6.5-29.1,13.6-42,22.7c3.1-14.4,3.3-29.6,2.9-44.2c-13.1,13.4-24.8,28.4-33.2,45.2c-3.5,7.1-6.6,14.6-8.8,22.3l0,0
					c0,0,0,0.1-0.1,0.2c-1.1,3.7-2,7.5-2.7,11.3c-1.6,8-3.2,19.1-3.2,30c0,0,23.3,2.7,38.9-3.1l0,0
					C558.5,533.5,579.3,518.6,591.4,499.4z"/>
			</g>
			<g>
				<defs>
					<path id="SVGID_3_" d="M591.4,499.4c-10.7,0.9-21.3,3.2-31.4,6.7c11.3-14.7,18.1-33.4,24.3-50.9c-14.6,6.5-29.1,13.6-42,22.7
						c3.1-14.4,3.3-29.6,2.9-44.2c-13.1,13.4-24.8,28.4-33.2,45.2c-3.5,7.1-6.6,14.6-8.8,22.3l0,0c0,0,0,0.1-0.1,0.2
						c-1.1,3.7-2,7.5-2.7,11.3c-1.6,8-3.2,19.1-3.2,30c0,0,23.3,2.7,38.9-3.1l0,0C558.5,533.5,579.3,518.6,591.4,499.4z"/>
				</defs>
				<clipPath id="SVGID_4_">
					<use xlink:href="#SVGID_3_"  style="overflow:visible;"/>
				</clipPath>
				<path class="st5" d="M542.1,477.9c0,0-37.4,34.8-45,64.7c-7.5,29.9,0,0,0,0s16.1-51.3,47.1-72.3c31-20.9,0,0,0,0L542.1,477.9"/>
			</g>
			<g>
				<defs>
					<path id="SVGID_5_" d="M591.4,499.4c-10.7,0.9-21.3,3.2-31.4,6.7c11.3-14.7,18.1-33.4,24.3-50.9c-14.6,6.5-29.1,13.6-42,22.7
						c3.1-14.4,3.3-29.6,2.9-44.2c-13.1,13.4-24.8,28.4-33.2,45.2c-3.5,7.1-6.6,14.6-8.8,22.3l0,0c0,0,0,0.1-0.1,0.2
						c-1.1,3.7-2,7.5-2.7,11.3c-1.6,8-3.2,19.1-3.2,30c0,0,23.3,2.7,38.9-3.1l0,0C558.5,533.5,579.3,518.6,591.4,499.4z"/>
				</defs>
				<clipPath id="SVGID_6_">
					<use xlink:href="#SVGID_5_"  style="overflow:visible;"/>
				</clipPath>
				<path class="st6" d="M560,506.1c0,0-17.3,21.7-46.5,37c-29.2,15.5,0,0,0,0s42.1-19.5,52-38.8c9.8-19.3,0,0,0,0L560,506.1"/>
			</g>
			<g>
				<defs>
					<path id="SVGID_7_" d="M591.4,499.4c-10.7,0.9-21.3,3.2-31.4,6.7c11.3-14.7,18.1-33.4,24.3-50.9c-14.6,6.5-29.1,13.6-42,22.7
						c3.1-14.4,3.3-29.6,2.9-44.2c-13.1,13.4-24.8,28.4-33.2,45.2c-3.5,7.1-6.6,14.6-8.8,22.3l0,0c0,0,0,0.1-0.1,0.2
						c-1.1,3.7-2,7.5-2.7,11.3c-1.6,8-3.2,19.1-3.2,30c0,0,23.3,2.7,38.9-3.1l0,0C558.5,533.5,579.3,518.6,591.4,499.4z"/>
				</defs>
				<clipPath id="SVGID_8_">
					<use xlink:href="#SVGID_7_"  style="overflow:visible;"/>
				</clipPath>
				<path class="st7" d="M500.5,539.1c-0.1,0-0.2,0-0.3-0.1c-0.1-0.1-0.1-0.3,0.1-0.4c9.1-6,26.4-22.4,50.2-47.3
					c17.9-18.8,33.4-36.1,33.6-36.3c0.1-0.1,0.3-0.1,0.4,0c0.1,0.1,0.1,0.3,0,0.4c-0.2,0.2-15.6,17.4-33.6,36.3
					C520.9,523.2,507,535,500.5,539.1L500.5,539.1z"/>
			</g>
			<g>
				<defs>
					<path id="SVGID_9_" d="M591.4,499.4c-10.7,0.9-21.3,3.2-31.4,6.7c11.3-14.7,18.1-33.4,24.3-50.9c-14.6,6.5-29.1,13.6-42,22.7
						c3.1-14.4,3.3-29.6,2.9-44.2c-13.1,13.4-24.8,28.4-33.2,45.2c-3.5,7.1-6.6,14.6-8.8,22.3l0,0c0,0,0,0.1-0.1,0.2
						c-1.1,3.7-2,7.5-2.7,11.3c-1.6,8-3.2,19.1-3.2,30c0,0,23.3,2.7,38.9-3.1l0,0C558.5,533.5,579.3,518.6,591.4,499.4z"/>
				</defs>
				<clipPath id="SVGID_10_">
					<use xlink:href="#SVGID_9_"  style="overflow:visible;"/>
				</clipPath>
				<path class="st8" d="M503.4,537L503.4,537c-0.2,0-0.3-0.2-0.3-0.3c3.1-23.5,14.2-50.3,23-68.6c9.6-19.9,18.5-34.4,18.6-34.5
					c0.1-0.1,0.3-0.2,0.4-0.1c0.1,0.1,0.2,0.3,0.1,0.4c-0.1,0.1-9.1,14.6-18.6,34.5c-8.8,18.3-19.9,45-22.9,68.4
					C503.7,536.9,503.6,537,503.4,537z"/>
			</g>
			<g>
				<defs>
					<path id="SVGID_11_" d="M591.4,499.4c-10.7,0.9-21.3,3.2-31.4,6.7c11.3-14.7,18.1-33.4,24.3-50.9c-14.6,6.5-29.1,13.6-42,22.7
						c3.1-14.4,3.3-29.6,2.9-44.2c-13.1,13.4-24.8,28.4-33.2,45.2c-3.5,7.1-6.6,14.6-8.8,22.3l0,0c0,0,0,0.1-0.1,0.2
						c-1.1,3.7-2,7.5-2.7,11.3c-1.6,8-3.2,19.1-3.2,30c0,0,23.3,2.7,38.9-3.1l0,0C558.5,533.5,579.3,518.6,591.4,499.4z"/>
				</defs>
				<clipPath id="SVGID_12_">
					<use xlink:href="#SVGID_11_"  style="overflow:visible;"/>
				</clipPath>
				<path class="st9" d="M513.9,538.8c-0.1,0-0.3-0.1-0.3-0.2c0-0.2,0.1-0.3,0.2-0.4c36.6-10.1,77-38.7,77.5-39
					c0.1-0.1,0.3-0.1,0.4,0.1c0.1,0.1,0.1,0.3-0.1,0.4C591.2,500,550.6,528.6,513.9,538.8L513.9,538.8z"/>
			</g>
		</g>
		<g>
			<g>
				<path id="XMLID_402_" class="st4" d="M448.5,448.4c0,0,0.3,30.4,10.8,51.2c-6.1-9.9-21.9-31.7-45.8-40.3c0,0-1.3,29.7,23,52.8
					c-6.2-3.2-16.5-6.8-33.7-8.7c0,0,20.1,35.3,57.2,37.2l27.5-6.2C487.6,534.4,482.8,466.5,448.5,448.4z"/>
			</g>
			<g>
				<defs>
					<path id="SVGID_13_" d="M448.5,448.4c0,0,0.3,30.4,10.8,51.2c-6.1-9.9-21.9-31.7-45.8-40.3c0,0-1.3,29.7,23,52.8
						c-6.2-3.2-16.5-6.8-33.7-8.7c0,0,20.1,35.3,57.2,37.2l27.5-6.2C487.6,534.4,482.8,466.5,448.5,448.4z"/>
				</defs>
				<clipPath id="SVGID_14_">
					<use xlink:href="#SVGID_13_"  style="overflow:visible;"/>
				</clipPath>
				<path class="st10" d="M436.5,512.1c0,0,16.9,16.8,38.8,23.6c0,0-34.7-0.3-46.3-26.9c-11.6-26.6,0,0,0,0L436.5,512.1"/>
			</g>
			<g>
				<defs>
					<path id="SVGID_15_" d="M448.5,448.4c0,0,0.3,30.4,10.8,51.2c-6.1-9.9-21.9-31.7-45.8-40.3c0,0-1.3,29.7,23,52.8
						c-6.2-3.2-16.5-6.8-33.7-8.7c0,0,20.1,35.3,57.2,37.2l27.5-6.2C487.6,534.4,482.8,466.5,448.5,448.4z"/>
				</defs>
				<clipPath id="SVGID_16_">
					<use xlink:href="#SVGID_15_"  style="overflow:visible;"/>
				</clipPath>
				<path class="st11" d="M459.3,499.6c0,0,11.7,15.4,21.3,34.8l2.8-4.5C483.4,529.7,468.8,507.7,459.3,499.6"/>
			</g>
			<g>
				<defs>
					<path id="SVGID_17_" d="M448.5,448.4c0,0,0.3,30.4,10.8,51.2c-6.1-9.9-21.9-31.7-45.8-40.3c0,0-1.3,29.7,23,52.8
						c-6.2-3.2-16.5-6.8-33.7-8.7c0,0,20.1,35.3,57.2,37.2l27.5-6.2C487.6,534.4,482.8,466.5,448.5,448.4z"/>
				</defs>
				<clipPath id="SVGID_18_">
					<use xlink:href="#SVGID_17_"  style="overflow:visible;"/>
				</clipPath>
				<path class="st12" d="M480.6,534.7C480.5,534.7,480.5,534.7,480.6,534.7c-18.3-10.2-35.6-30.1-47-45
					c-12.3-16.1-20.4-29.9-20.4-30.1c-0.1-0.1,0-0.3,0.1-0.4s0.3,0,0.4,0.1s8.2,14,20.4,30c11.3,14.9,28.6,34.7,46.7,44.8
					c0.1,0.1,0.2,0.3,0.1,0.4C480.8,534.6,480.7,534.7,480.6,534.7z"/>
			</g>
			<g>
				<defs>
					<path id="SVGID_19_" d="M448.5,448.4c0,0,0.3,30.4,10.8,51.2c-6.1-9.9-21.9-31.7-45.8-40.3c0,0-1.3,29.7,23,52.8
						c-6.2-3.2-16.5-6.8-33.7-8.7c0,0,20.1,35.3,57.2,37.2l27.5-6.2C487.6,534.4,482.8,466.5,448.5,448.4z"/>
				</defs>
				<clipPath id="SVGID_20_">
					<use xlink:href="#SVGID_19_"  style="overflow:visible;"/>
				</clipPath>
				<path class="st13" d="M482.1,537.2L482.1,537.2c-0.2,0-0.3-0.2-0.3-0.3c1.5-20.8-33.2-87.7-33.5-88.3c-0.1-0.1,0-0.3,0.1-0.4
					s0.3,0,0.4,0.1c0.4,0.7,35.1,67.8,33.6,88.7C482.4,537.1,482.2,537.2,482.1,537.2z"/>
			</g>
			<g>
				<defs>
					<path id="SVGID_21_" d="M448.5,448.4c0,0,0.3,30.4,10.8,51.2c-6.1-9.9-21.9-31.7-45.8-40.3c0,0-1.3,29.7,23,52.8
						c-6.2-3.2-16.5-6.8-33.7-8.7c0,0,20.1,35.3,57.2,37.2l27.5-6.2C487.6,534.4,482.8,466.5,448.5,448.4z"/>
				</defs>
				<clipPath id="SVGID_22_">
					<use xlink:href="#SVGID_21_"  style="overflow:visible;"/>
				</clipPath>
				<path class="st14" d="M475.3,536L475.3,536c-37.8-7.3-72.3-32.1-72.7-32.4c-0.1-0.1-0.2-0.3-0.1-0.4s0.3-0.2,0.4-0.1
					c0.3,0.3,34.8,25,72.4,32.3c0.2,0,0.3,0.2,0.2,0.4C475.6,535.9,475.5,536,475.3,536z"/>
			</g>
		</g>
	</g>
	<g>
		<g>
			<g>
				<path id="XMLID_393_" class="st15" d="M677,534.7c0,0-20.1,7.4-20.2,7.8s-2.2,5.3-1.5,5.4s39.5-0.4,39.8-0.8
					c0.3-0.4,1.4-5.4,1.2-6.6s-3.2-5.8-3.2-5.8H677z"/>
			</g>
			<g>
				<defs>
					<path id="SVGID_23_" d="M677,534.7c0,0-20.1,7.4-20.2,7.8s-2.2,5.3-1.5,5.4s39.5-0.4,39.8-0.8c0.3-0.4,1.4-5.4,1.2-6.6
						s-3.2-5.8-3.2-5.8H677z"/>
				</defs>
				<clipPath id="SVGID_24_">
					<use xlink:href="#SVGID_23_"  style="overflow:visible;"/>
				</clipPath>
				<path class="st16" d="M680,547.6c0,0,2.1-3.6,3.7-5.3c1.6-1.8,11.7-5.8,11.7-5.8s2.2,3.7,2,4.9s-2.4,5.8-2.4,5.8L680,547.6"/>
			</g>
			<g>
				<defs>
					<path id="SVGID_25_" d="M677,534.7c0,0-20.1,7.4-20.2,7.8s-2.2,5.3-1.5,5.4s39.5-0.4,39.8-0.8c0.3-0.4,1.4-5.4,1.2-6.6
						s-3.2-5.8-3.2-5.8H677z"/>
				</defs>
				<clipPath id="SVGID_26_">
					<use xlink:href="#SVGID_25_"  style="overflow:visible;"/>
				</clipPath>
				<path class="st17" d="M653.9,545.9c0,0,42-1.3,42.4-0.8s1.8,2.7,0,2.9c-1.8,0.2-42.3,1.5-42.5,0.7
					C653.6,547.8,653.9,545.9,653.9,545.9z"/>
			</g>
		</g>
		<g>
			<g>
				<path id="XMLID_392_" class="st18" d="M697.4,455c0,0-21-1.7-21,3.2s4.2,72.9,4.2,72.9s-9.1,5.3-8.7,5.4s10.9,2.4,14.9,1.6
					c3.8-0.9,6.2-3.3,6.2-3.3l-0.5-3.5c0,0,4.7-21.8,6.1-41.1C700.1,470.5,697.4,455,697.4,455z"/>
			</g>
			<g>
				<defs>
					<path id="SVGID_27_" d="M697.4,455c0,0-21-1.7-21,3.2s4.2,72.9,4.2,72.9s-9.1,5.3-8.7,5.4s10.9,2.4,14.9,1.6
						c3.8-0.9,6.2-3.3,6.2-3.3l-0.5-3.5c0,0,4.7-21.8,6.1-41.1C700.1,470.5,697.4,455,697.4,455z"/>
				</defs>
				<clipPath id="SVGID_28_">
					<use xlink:href="#SVGID_27_"  style="overflow:visible;"/>
				</clipPath>
				<path class="st19" d="M670.7,474.1c0,0,23.3,2.7,34.6-6.4c0,0,0.9-19.5,0.2-19.5c-0.7,0-33.6,1.1-33.6,1.1L670.7,474.1z"/>
			</g>
		</g>
	</g>
	<g>
		<g>
			<g>
				<path id="XMLID_391_" class="st15" d="M705.5,534.7c0,0-20.1,7.4-20.2,7.8s-2.2,5.3-1.5,5.4s39.5-0.4,39.8-0.8
					c0.3-0.4,1.4-5.4,1.2-6.6c-0.3-1.2-3.2-5.8-3.2-5.8H705.5z"/>
			</g>
			<g>
				<defs>
					<path id="SVGID_29_" d="M705.5,534.7c0,0-20.1,7.4-20.2,7.8s-2.2,5.3-1.5,5.4s39.5-0.4,39.8-0.8c0.3-0.4,1.4-5.4,1.2-6.6
						c-0.3-1.2-3.2-5.8-3.2-5.8H705.5z"/>
				</defs>
				<clipPath id="SVGID_30_">
					<use xlink:href="#SVGID_29_"  style="overflow:visible;"/>
				</clipPath>
				<path class="st20" d="M682.4,545.9c0,0,42-1.3,42.4-0.8s1.8,2.7,0,2.9c-1.8,0.2-42.3,1.5-42.5,0.7S682.4,545.9,682.4,545.9z"/>
			</g>
		</g>
		<g>
			<g>
				<path id="XMLID_390_" class="st18" d="M726,455c0,0-21-1.7-21,3.2s4.2,72.9,4.2,72.9s-9.1,5.3-8.7,5.4s10.9,2.4,14.9,1.6
					c3.9-0.8,6.2-3.3,6.2-3.3l-0.5-3.5c0,0,4.7-21.8,6.1-41.1C728.6,470.5,726,455,726,455z"/>
			</g>
			<g>
				<defs>
					<path id="SVGID_31_" d="M726,455c0,0-21-1.7-21,3.2s4.2,72.9,4.2,72.9s-9.1,5.3-8.7,5.4s10.9,2.4,14.9,1.6
						c3.9-0.8,6.2-3.3,6.2-3.3l-0.5-3.5c0,0,4.7-21.8,6.1-41.1C728.6,470.5,726,455,726,455z"/>
				</defs>
				<clipPath id="SVGID_32_">
					<use xlink:href="#SVGID_31_"  style="overflow:visible;"/>
				</clipPath>
				<path class="st21" d="M699.3,474.1c0,0,23.3,2.7,34.6-6.4c0,0,0.9-19.5,0.2-19.5s-33.6,1.1-33.6,1.1L699.3,474.1z"/>
			</g>
		</g>
	</g>
	<g>
		<g>
			<path id="XMLID_389_" class="st22" d="M690,231.4c-1.2,2.9,0.1,6.2-0.9,9.2c-0.5,1.4-1.4,2.6-2.3,3.8c-2.3,3.2-4,7-4.4,11
				c-0.4,3.9,0.7,8.2,3.3,11.1c0.8,0.9,1.7,1.6,2.7,2.1c1.6,0.7,3.3,0.9,5,0.9c3.5-0.1,7.2-1.1,10.1-3.1c3-2,5.4-4.8,6.6-8.3
				c0.8-2.3,1-4.6,1.1-7c0.3-6.8-0.1-13.7-1.2-20.4c-0.3-1.8-0.7-3.7-2-5c-1.4-1.4-3.5-1.8-5.5-1.4c-1.2,0.2-2.3,0.6-3.2,1.1
				c-0.9,0.4-1.6,0.9-2.6,1c-0.9,0.1-1.9,0.6-2.7,1c-0.9,0.4-1.7,0.9-2.4,1.6C691.1,229.6,690.4,230.4,690,231.4z"/>
		</g>
		<g>
			<defs>
				<path id="SVGID_33_" d="M690,231.4c-1.2,2.9,0.1,6.2-0.9,9.2c-0.5,1.4-1.4,2.6-2.3,3.8c-2.3,3.2-4,7-4.4,11
					c-0.4,3.9,0.7,8.2,3.3,11.1c0.8,0.9,1.7,1.6,2.7,2.1c1.6,0.7,3.3,0.9,5,0.9c3.5-0.1,7.2-1.1,10.1-3.1c3-2,5.4-4.8,6.6-8.3
					c0.8-2.3,1-4.6,1.1-7c0.3-6.8-0.1-13.7-1.2-20.4c-0.3-1.8-0.7-3.7-2-5c-1.4-1.4-3.5-1.8-5.5-1.4c-1.2,0.2-2.3,0.6-3.2,1.1
					c-0.9,0.4-1.6,0.9-2.6,1c-0.9,0.1-1.9,0.6-2.7,1c-0.9,0.4-1.7,0.9-2.4,1.6C691.1,229.6,690.4,230.4,690,231.4z"/>
			</defs>
			<clipPath id="SVGID_34_">
				<use xlink:href="#SVGID_33_"  style="overflow:visible;"/>
			</clipPath>
			<path class="st23" d="M696.9,226.3c0,0-7.9,18.7-8.7,26.7c-0.7,8.1,2.4,15.1,13.8,13c11.4-2,0,0,0,0s4.1-39.1,2.5-39.8
				C702.7,225.5,696.9,226.3,696.9,226.3"/>
		</g>
	</g>
	<g>
		<g>
			<path id="XMLID_388_" class="st24" d="M702.3,273.7c0,0-15.4,7.9-21.4,18l0,0c0,0-28.8,38.9-31.5,42.3c-2.8,3.3-39.4,32-39.4,32
				l7.5,10.2c0,0,47-21.9,51.5-27.6c3.1-3.7,9.4-12.2,13.3-17.4c2,10.9,3.8,20.6,3.6,22.8c-0.3,4.8-8.9,15-4.2,18.4
				c4.6,3.4,10.5,3.7,10.5,3.7l13.1-4.7L702.3,273.7z"/>
		</g>
		<g>
			<defs>
				<path id="SVGID_35_" d="M702.3,273.7c0,0-15.4,7.9-21.4,18l0,0c0,0-28.8,38.9-31.5,42.3c-2.8,3.3-39.4,32-39.4,32l7.5,10.2
					c0,0,47-21.9,51.5-27.6c3.1-3.7,9.4-12.2,13.3-17.4c2,10.9,3.8,20.6,3.6,22.8c-0.3,4.8-8.9,15-4.2,18.4
					c4.6,3.4,10.5,3.7,10.5,3.7l13.1-4.7L702.3,273.7z"/>
			</defs>
			<clipPath id="SVGID_36_">
				<use xlink:href="#SVGID_35_"  style="overflow:visible;"/>
			</clipPath>
			<path class="st25" d="M685.1,376.3c0,0,5.6-18.3,5.7-23.7c0.2-5.4-10.3-36.2-10.8-45.5c-0.4-9.3-0.2-17.6,4.8-23.9
				c5-6.3,20.6-13.1,20.6-13.1s6.9,107.8,1,109.4C700.5,381,685.1,376.3,685.1,376.3z"/>
		</g>
	</g>
	<g>
		<g>
			<path id="XMLID_387_" class="st26" d="M696.1,351.8c0,0,40.6-1.6,43.4,0c2.9,1.6,14.7,25.4,14.4,41.2
				c-0.3,13.5-16.2,55.3-20.8,67.1c-0.8,1.9-2.5,3.2-4.4,3.6c-9.6,1.7-39.4,8.8-52.2-0.9c-12.9-9.7,15.6-84.3,16.8-92.7
				C694.6,361.7,696.1,351.8,696.1,351.8z"/>
		</g>
		<g>
			<defs>
				<path id="SVGID_37_" d="M696.1,351.8c0,0,40.6-1.6,43.4,0c2.9,1.6,14.7,25.4,14.4,41.2c-0.3,13.5-16.2,55.3-20.8,67.1
					c-0.8,1.9-2.5,3.2-4.4,3.6c-9.6,1.7-39.4,8.8-52.2-0.9c-12.9-9.7,15.6-84.3,16.8-92.7C694.6,361.7,696.1,351.8,696.1,351.8z"/>
			</defs>
			<clipPath id="SVGID_38_">
				<use xlink:href="#SVGID_37_"  style="overflow:visible;"/>
			</clipPath>
			<path class="st27" d="M680.5,379.5c0,0,64.3-15.6,65.1-20.7l-0.9-7.2c0,0-50.1-1.9-52.1,0C690.6,353.6,680.5,379.5,680.5,379.5z"
				/>
		</g>
		<g>
			<defs>
				<path id="SVGID_39_" d="M696.1,351.8c0,0,40.6-1.6,43.4,0c2.9,1.6,14.7,25.4,14.4,41.2c-0.3,13.5-16.2,55.3-20.8,67.1
					c-0.8,1.9-2.5,3.2-4.4,3.6c-9.6,1.7-39.4,8.8-52.2-0.9c-12.9-9.7,15.6-84.3,16.8-92.7C694.6,361.7,696.1,351.8,696.1,351.8z"/>
			</defs>
			<clipPath id="SVGID_40_">
				<use xlink:href="#SVGID_39_"  style="overflow:visible;"/>
			</clipPath>
			<path class="st28" d="M724,355.3c0,0,0.9,31.1,8.6,32.6c7.7,1.5,22.2-10.4,22.2-10.4l-7.1-22.9L724,355.3z"/>
		</g>
	</g>
	<g>
		<g>
			<path id="XMLID_386_" class="st29" d="M702.3,273.9c0,0-20.3,16-19.6,25.5s11.4,50.3,13.5,52.3c2.1,2,40.1,2,43.4,0
				c3.3-2,7.7-60.2,3.3-67.5c-4.3-7.3-20.8-11.5-20.8-11.5L702.3,273.9z"/>
		</g>
		<g>
			<defs>
				<path id="SVGID_41_" d="M702.3,273.9c0,0-20.3,16-19.6,25.5s11.4,50.3,13.5,52.3c2.1,2,40.1,2,43.4,0c3.3-2,7.7-60.2,3.3-67.5
					c-4.3-7.3-20.8-11.5-20.8-11.5L702.3,273.9z"/>
			</defs>
			<clipPath id="SVGID_42_">
				<use xlink:href="#SVGID_41_"  style="overflow:visible;"/>
			</clipPath>
			<path class="st30" d="M686,316.5c0,0,18.8,28.9,45.2,29.3c26.4,0.6,9.6,11.2,9.6,11.2s-43.8,10.3-49.8,1.7
				C684.8,350.1,686,316.5,686,316.5"/>
		</g>
	</g>
	<path class="st4" d="M694.9,348.7c0,0-0.1,6,1.3,7s45.3,1,46.1-0.7c0.7-1.7,0.8-6.4-1.4-6.3C738.7,348.8,694.9,348.7,694.9,348.7z"
		/>
	<path class="st31" d="M709.1,347.8c0,0-0.6,9.2,1,9.5c1.7,0.3,6.5,1.3,6.6,0c0.1-1.3,0.2-9.3-0.8-9.5
		C715.1,347.7,710.2,346.9,709.1,347.8z"/>
	<g>
		<path class="st18" d="M606.3,369.6c0,0-2.9,5.8-3.1,6c-0.2,0.1-13,10.2-10.6,9.8c2.4-0.4,9.9-5.5,9.9-5.5s-7,6.7-6.6,7.3
			c0.4,0.6,11.4-7.7,12.2-8.5c0.7-0.8,2.1-5.4,2.1-5.4L606.3,369.6z"/>
		<path class="st18" d="M613.7,368.8c0,0-11.4-4.6-12.7-3.2c-1.6,1.7,6.2,4.2,5.3,6.2c-0.8,2-2.1,4.5-2.3,4.8
			c-0.3,0.3-10.7,3.3-9.8,4.2c0.8,0.9,12.7-0.5,13.6-1.1c0.9-0.5,8.2-6.3,8.2-6.3L613.7,368.8z"/>
	</g>
	<g>
		<path class="st18" d="M823.4,272.7c0,0,4.7-4.5,4.8-4.7c0.1-0.2,5.6-10.3,6-8.8c0.5,2.4-2.1,6.8-2.1,6.8s4.2-8.7,5-8.5
			c1.5,0.5-3.9,13.2-4.4,14.2c-0.5,0.9-4.5,3.5-4.5,3.5L823.4,272.7z"/>
		<path class="st18" d="M822.3,277.4c0,0-1.6-12.2,0.2-13.1c2-1.1,2.6,7.1,4.6,6.8c2.1-0.3,4.8-0.9,5.2-1c0.4-0.2,6-9.5,6.6-8.5
			c0.6,1-3.7,12.1-4.5,12.9c-0.8,0.8-8.2,6.3-8.2,6.3L822.3,277.4z"/>
	</g>
	<g>
		<g>
			<g>
				<g>
					<path id="XMLID_361_" class="st18" d="M725.3,229.4c-3-5.8-21.8-13.9-26.3-2.5c-5.2,12.4-17.1,36.9,3.2,32.2
						c-0.5,5.4,0.3,21.8,0.4,23.5c0.1,2.5,20-5.4,19.8-9.3c-0.2-3.3-5.9-21.5-5.9-21.5C718.8,248.8,727.8,233.9,725.3,229.4z"/>
				</g>
				<g>
					<defs>
						<path id="SVGID_43_" d="M725.3,229.4c-3-5.8-21.8-13.9-26.3-2.5c-5.2,12.4-17.1,36.9,3.2,32.2c-0.5,5.4,0.3,21.8,0.4,23.5
							c0.1,2.5,20-5.4,19.8-9.3c-0.2-3.3-5.9-21.5-5.9-21.5C718.8,248.8,727.8,233.9,725.3,229.4z"/>
					</defs>
					<clipPath id="SVGID_44_">
						<use xlink:href="#SVGID_43_"  style="overflow:visible;"/>
					</clipPath>
					<path class="st32" d="M694.9,231.4c0,0,12.7,1.4,15.8-2.3l0.7-7.3c0,0-12.8-1-13.5,0.1S694.9,231.4,694.9,231.4z"/>
				</g>
				<g>
					<defs>
						<path id="SVGID_45_" d="M725.3,229.4c-3-5.8-21.8-13.9-26.3-2.5c-5.2,12.4-17.1,36.9,3.2,32.2c-0.5,5.4,0.3,21.8,0.4,23.5
							c0.1,2.5,20-5.4,19.8-9.3c-0.2-3.3-5.9-21.5-5.9-21.5C718.8,248.8,727.8,233.9,725.3,229.4z"/>
					</defs>
					<clipPath id="SVGID_46_">
						<use xlink:href="#SVGID_45_"  style="overflow:visible;"/>
					</clipPath>
					<path class="st33" d="M695.1,249.9c0,0,2.2,1.4,5.2-1.4c0,0-0.6,3.7-3.1,3.7C694.2,252.2,695.1,249.9,695.1,249.9z"/>
				</g>
			</g>
			<path class="st18" d="M703.1,234c0,0-8.4,5.8-7,7.3c1.4,1.5,7.2,0.3,7.2,0.3c-0.6,2.4-8.3,1.7-8.3,0
				C694.4,238.4,703.1,234,703.1,234z"/>
			<path class="st18" d="M702.3,259.2c0,0,4-1.2,6.7-3.2c0,0-0.9,8.3-6.9,10.1L702.3,259.2z"/>
		</g>
	</g>
	<path class="st34" d="M704.4,283c0,0,3.1,8.7,7,8.2c3.9-0.6,14.5-12.5,10.7-18.6C722.2,272.5,715.5,278.5,704.4,283z"/>
	<path class="st34" d="M702.7,282.7c0,0-4.5,3.9-6.5,3.2c-2-0.8,0.6-7.3,0.6-7.3l5.4-4.8C702.3,273.7,702.5,281.3,702.7,282.7z"/>
	<g>
		<g>
			<path id="XMLID_360_" class="st24" d="M820,270.8c0,0-42,30.5-44.1,30.1s-34.7-21.3-34.7-21.3l0,0c-3.2-2.5-7.7-4.3-13.6-5.3
				c0,0-5.1,13.3-4.6,31c0.5,17.6,8.7,74.1,11.3,74.1c2.7,0,23.9-6.6,24.9-10.5s-13.1-34.8-12.5-47.9c0.1-1.8,0.4-3.7,0.7-5.9
				c9.9,4.5,23.7,13.5,30.8,11.4c5.4-1.6,50.3-43.4,50.3-43.4L820,270.8z"/>
		</g>
		<g>
			<defs>
				<path id="SVGID_47_" d="M820,270.8c0,0-42,30.5-44.1,30.1s-34.7-21.3-34.7-21.3l0,0c-3.2-2.5-7.7-4.3-13.6-5.3
					c0,0-5.1,13.3-4.6,31c0.5,17.6,8.7,74.1,11.3,74.1c2.7,0,23.9-6.6,24.9-10.5s-13.1-34.8-12.5-47.9c0.1-1.8,0.4-3.7,0.7-5.9
					c9.9,4.5,23.7,13.5,30.8,11.4c5.4-1.6,50.3-43.4,50.3-43.4L820,270.8z"/>
			</defs>
			<clipPath id="SVGID_48_">
				<use xlink:href="#SVGID_47_"  style="overflow:visible;"/>
			</clipPath>
			<path class="st35" d="M747.5,315.2c0,0-7.8-9.5-8.7-14.3c0,0-3.7,17,0.4,26.3c4.1,9.3,14.7,18.8,14.7,18.8s-5.5-17.2-5.6-21.7
				C748.2,319.8,747.5,315.2,747.5,315.2"/>
		</g>
	</g>
	<g>
		<g>
			<path id="XMLID_359_" class="st36" d="M736.3,250.3c0.9-2.9,0.7-6.1-0.5-9c-0.5-1.2-1.3-2.4-1.7-3.5c-1.2-3.3-0.3-7.2-1.3-10.6
				c-1.4-4.7-6.1-7.9-10.9-9.1c-1.1-0.3-2.3-0.5-3.3-0.4c-0.9,0.1-1.8,0.5-2.7,0.9c-0.3,0.1-0.5,0.3-0.8,0.5
				c-0.2-2.1-1.6-4.1-3.6-4.9c-2.6-1-5.7,0-7.5,2.1c-0.3,0.3-0.5,0.7-0.9,0.9c-0.6,0.4-1.4,0.3-2.1,0.3c-2,0-3.9,0.9-5.2,2.4
				c-1.3,1.5-2,3.5-1.7,5.5c0.1,0.9,0.5,1.8,1.2,2.3c0.9,0.6,2.1,0.5,3.2,0.5c1.6,0.1,3.2,0.6,4.8,0.6c1.2,0,2.3-0.3,3.3-0.7
				c1-0.4,1.8-1,2.6-1.7l0.1-0.1c-1.3,3.3-1.1,7.3,0.6,10.5c1.3,2.5,3.4,4.6,3.8,7.4c0.4,2.4-0.7,4.7-1.1,7.1
				c-0.5,2.9-0.1,5.8,0.8,8.6c0.4,1.2,0.8,2.4,1.6,3.2c0.7,0.8,1.6,1.5,2.5,2.1c2.7,1.8,5.4,3.6,8.5,4.4c3.1,0.8,6.7,0.4,9-1.9
				c0.6-0.5,1-1.2,1.3-1.9c0.9-2.8-1.6-5.4-1.9-8.3C734.1,255.1,735.5,252.7,736.3,250.3z"/>
		</g>
		<g>
			<defs>
				<path id="SVGID_49_" d="M736.3,250.3c0.9-2.9,0.7-6.1-0.5-9c-0.5-1.2-1.3-2.4-1.7-3.5c-1.2-3.3-0.3-7.2-1.3-10.6
					c-1.4-4.7-6.1-7.9-10.9-9.1c-1.1-0.3-2.3-0.5-3.3-0.4c-0.9,0.1-1.8,0.5-2.7,0.9c-0.3,0.1-0.5,0.3-0.8,0.5
					c-0.2-2.1-1.6-4.1-3.6-4.9c-2.6-1-5.7,0-7.5,2.1c-0.3,0.3-0.5,0.7-0.9,0.9c-0.6,0.4-1.4,0.3-2.1,0.3c-2,0-3.9,0.9-5.2,2.4
					c-1.3,1.5-2,3.5-1.7,5.5c0.1,0.9,0.5,1.8,1.2,2.3c0.9,0.6,2.1,0.5,3.2,0.5c1.6,0.1,3.2,0.6,4.8,0.6c1.2,0,2.3-0.3,3.3-0.7
					c1-0.4,1.8-1,2.6-1.7l0.1-0.1c-1.3,3.3-1.1,7.3,0.6,10.5c1.3,2.5,3.4,4.6,3.8,7.4c0.4,2.4-0.7,4.7-1.1,7.1
					c-0.5,2.9-0.1,5.8,0.8,8.6c0.4,1.2,0.8,2.4,1.6,3.2c0.7,0.8,1.6,1.5,2.5,2.1c2.7,1.8,5.4,3.6,8.5,4.4c3.1,0.8,6.7,0.4,9-1.9
					c0.6-0.5,1-1.2,1.3-1.9c0.9-2.8-1.6-5.4-1.9-8.3C734.1,255.1,735.5,252.7,736.3,250.3z"/>
			</defs>
			<clipPath id="SVGID_50_">
				<use xlink:href="#SVGID_49_"  style="overflow:visible;"/>
			</clipPath>
			<path class="st37" d="M714.8,219.6c0,0-5.4,9.7-1,17c4.4,7.4,2,11.1,0,16.4c-2,5.3-2.2,7.9-2.2,7.9s-0.5-14,0.4-16.6
				s-4.9-7.3-5.1-11.8S714.8,219.6,714.8,219.6z"/>
		</g>
	</g>
	<path class="st26" d="M324.6,168.9c0,0,16.1-56.3,90.6-95.7C415.2,73.2,341.8,93.4,324.6,168.9z"/>
	<path class="st38" d="M605,101.7c0,0,40.2,29.9,61.7,86.2C666.7,187.8,661,135.8,605,101.7z"/>
	<path class="st38" d="M355.9,363.5c0,0,27.8,40.9,80.8,52.7C436.8,416.2,388.7,394.9,355.9,363.5z"/>
	<g>
		<g>
			<g>
				<g>
					<path id="XMLID_401_" class="st26" d="M502.6,533.5V301.3H478v232.2c-38.1,0.6-67.3,3.7-67.3,7.6c0,4.2,35.5,7.7,79.5,7.7
						c43.9,0,79.5-3.4,79.5-7.7C569.8,537.3,540.7,534.1,502.6,533.5z"/>
				</g>
				<g>
					<defs>
						<path id="SVGID_51_" d="M502.6,533.5V301.3H478v232.2c-38.1,0.6-67.3,3.7-67.3,7.6c0,4.2,35.5,7.7,79.5,7.7
							c43.9,0,79.5-3.4,79.5-7.7C569.8,537.3,540.7,534.1,502.6,533.5z"/>
					</defs>
					<clipPath id="SVGID_52_">
						<use xlink:href="#SVGID_51_"  style="overflow:visible;"/>
					</clipPath>
					<path class="st39" d="M472.5,384.6v31.6c0,0,19.9,18.1,41.4,12.6V382L472.5,384.6z"/>
				</g>
			</g>
			<g>
				<path class="st4" d="M494.2,76.9c-0.1,0-0.2,0-0.3,0c-89.9,0-162.8,72.9-162.8,162.8S404,402.5,493.9,402.5c0.1,0,0.2,0,0.3,0
					c89.7-0.2,162.5-73,162.5-162.8S584,77.1,494.2,76.9z"/>
				<g>
					<path class="st31" d="M490.3,398.7c87.6-0.2,158.5-71.2,158.5-158.8H490.3V398.7z"/>
					<path class="st24" d="M331.1,239.7c0,87.7,71.1,158.8,158.8,158.8c0.1,0,0.2,0,0.3,0V239.7H331.1z"/>
					<path class="st24" d="M490.3,80.9v158.8h158.5C648.9,152.1,578,81,490.3,80.9z"/>
					<path class="st31" d="M490.3,80.9c-0.1,0-0.2,0-0.3,0c-87.7,0-158.8,71.1-158.8,158.8h159.2L490.3,80.9L490.3,80.9z"/>
				</g>
				<ellipse class="st4" cx="490.3" cy="239.7" rx="12.3" ry="12.3"/>
				<path class="st26" d="M467.9,71l22.5,55.7l22.5-55.4l0,0c-14.1-6.6-30.3-6.7-44.6-0.5L467.9,71z"/>
			</g>
		</g>
		<g>
			<g>
				<g>
					<path class="st31" d="M400.5,335.2l2.3-2.6c0.5,0.3,0.9,0.5,1.2,0.6c0.6,0.1,1.2-0.1,1.7-0.6c0.4-0.4,0.6-0.7,0.6-1.1
						s-0.1-0.7-0.3-0.9c-0.2-0.2-0.5-0.3-0.9-0.3c-0.4,0-1,0.3-1.8,0.8c-1.4,0.9-2.5,1.4-3.3,1.4c-0.9,0.1-1.7-0.2-2.4-0.9
						c-0.4-0.4-0.7-1-0.8-1.6c-0.1-0.6-0.1-1.3,0.2-2c0.3-0.7,0.9-1.5,1.7-2.4c1.1-1.1,2.1-1.7,3-1.9s1.9,0.1,2.9,0.9l-2.3,2.6
						c-0.4-0.3-0.9-0.5-1.2-0.4c-0.4,0-0.8,0.2-1.1,0.6c-0.3,0.3-0.5,0.6-0.5,0.9s0.1,0.5,0.2,0.7c0.1,0.1,0.3,0.2,0.5,0.2
						s0.6-0.2,1.2-0.6c1.4-0.9,2.4-1.5,3.2-1.7c0.7-0.2,1.4-0.3,2-0.1c0.6,0.1,1.1,0.4,1.6,0.9s0.9,1.2,1,1.9
						c0.2,0.8,0.1,1.5-0.2,2.3c-0.3,0.8-0.9,1.6-1.7,2.4c-1.4,1.4-2.7,2.1-3.7,2.1C402.4,336.3,401.4,336,400.5,335.2z"/>
					<path class="st31" d="M409.1,315.5l2.6-2.6l4.9,4.9c0.5,0.5,0.9,1,1.2,1.6c0.3,0.6,0.4,1.2,0.4,1.9c0,0.7-0.1,1.2-0.3,1.7
						c-0.3,0.7-0.8,1.4-1.5,2.1c-0.4,0.4-0.9,0.8-1.4,1.3c-0.5,0.4-1.1,0.7-1.6,0.9c-0.5,0.2-1,0.2-1.6,0.2s-1.1-0.2-1.5-0.4
						c-0.7-0.4-1.2-0.8-1.7-1.2l-4.9-4.9l2.6-2.6l5,5c0.5,0.5,0.9,0.7,1.5,0.7c0.5,0,1-0.2,1.4-0.7c0.4-0.4,0.7-0.9,0.7-1.4
						c0-0.5-0.2-1-0.7-1.5L409.1,315.5z"/>
					<path class="st31" d="M423.8,310.7l3-1.6c0.5,0.8,0.8,1.6,0.9,2.3c0.1,0.8,0,1.5-0.3,2.2s-0.8,1.4-1.5,2.2
						c-0.9,0.9-1.8,1.5-2.6,1.8c-0.8,0.3-1.8,0.3-2.9,0.1c-1.1-0.2-2.2-0.9-3.2-1.9c-1.4-1.4-2.1-2.8-2.1-4.2c0-1.5,0.7-2.9,2-4.1
						c1.1-1.1,2.1-1.7,3.1-1.9c1-0.2,2.1,0,3.2,0.6l-1.8,2.8c-0.3-0.2-0.6-0.3-0.8-0.3c-0.3-0.1-0.7,0-1,0.1s-0.6,0.3-0.9,0.5
						c-0.6,0.6-0.8,1.3-0.6,2.1c0.1,0.6,0.5,1.3,1.3,2c0.9,0.9,1.7,1.4,2.3,1.5c0.6,0.1,1.2-0.2,1.7-0.7c0.5-0.5,0.7-1,0.7-1.5
						C424.4,311.9,424.2,311.3,423.8,310.7z"/>
					<path class="st31" d="M432.7,301.8l3-1.6c0.5,0.8,0.8,1.6,0.9,2.3c0.1,0.8,0,1.5-0.3,2.2s-0.8,1.4-1.5,2.2
						c-0.9,0.9-1.8,1.5-2.6,1.8c-0.8,0.3-1.8,0.3-2.9,0.1c-1.1-0.2-2.2-0.9-3.2-1.9c-1.4-1.4-2.1-2.8-2.1-4.2c0-1.5,0.7-2.9,2-4.2
						c1.1-1.1,2.1-1.7,3.1-1.9c1-0.2,2.1,0,3.2,0.6l-1.8,2.8c-0.3-0.2-0.6-0.3-0.8-0.3c-0.3-0.1-0.7,0-1,0.1s-0.6,0.3-0.9,0.5
						c-0.6,0.6-0.8,1.3-0.6,2.1c0.1,0.6,0.5,1.3,1.3,2c0.9,0.9,1.7,1.4,2.3,1.5c0.6,0.1,1.2-0.2,1.7-0.7c0.5-0.5,0.7-1,0.7-1.5
						C433.3,302.9,433.1,302.4,432.7,301.8z"/>
					<path class="st31" d="M431.3,293.4l6.8-6.8l1.8,1.8l-4.2,4.2l1.3,1.3l3.9-3.9l1.7,1.7l-3.9,3.9l1.7,1.7l4.4-4.4l1.9,1.9l-7,7
						L431.3,293.4z"/>
					<path class="st31" d="M444.7,291l2.3-2.6c0.5,0.3,0.9,0.5,1.2,0.6c0.6,0.1,1.2-0.1,1.7-0.6c0.4-0.4,0.6-0.7,0.6-1.1
						s-0.1-0.7-0.3-0.9c-0.2-0.2-0.5-0.3-0.9-0.3s-1,0.3-1.8,0.8c-1.4,0.9-2.5,1.4-3.3,1.4c-0.9,0.1-1.7-0.2-2.4-0.9
						c-0.4-0.4-0.7-1-0.8-1.6c-0.1-0.6-0.1-1.3,0.2-2c0.3-0.7,0.9-1.5,1.7-2.4c1.1-1.1,2.1-1.7,3-1.9c1-0.2,1.9,0.1,2.9,0.9
						l-2.3,2.6c-0.4-0.3-0.9-0.5-1.2-0.4c-0.4,0-0.8,0.2-1.1,0.6c-0.3,0.3-0.5,0.6-0.5,0.9s0.1,0.5,0.2,0.7c0.1,0.1,0.3,0.2,0.5,0.2
						s0.6-0.2,1.2-0.6c1.4-0.9,2.4-1.5,3.2-1.7c0.7-0.2,1.4-0.3,2-0.1c0.6,0.1,1.1,0.4,1.6,0.9c0.5,0.5,0.9,1.2,1,1.9
						c0.2,0.8,0.1,1.5-0.2,2.3c-0.3,0.8-0.9,1.6-1.7,2.4c-1.4,1.4-2.7,2.1-3.7,2.1C446.6,292.1,445.6,291.7,444.7,291z"/>
					<path class="st31" d="M453,282.7l2.3-2.6c0.5,0.3,0.9,0.5,1.2,0.6c0.6,0.1,1.2-0.1,1.7-0.6c0.4-0.4,0.6-0.7,0.6-1.1
						s-0.1-0.7-0.3-0.9c-0.2-0.2-0.5-0.3-0.9-0.3s-1,0.3-1.8,0.8c-1.4,0.9-2.5,1.4-3.3,1.4c-0.9,0.1-1.7-0.2-2.4-0.9
						c-0.4-0.4-0.7-1-0.8-1.6c-0.1-0.6-0.1-1.3,0.2-2c0.3-0.7,0.9-1.5,1.7-2.4c1.1-1.1,2.1-1.7,3-1.9c1-0.2,1.9,0.1,2.9,0.9
						l-2.3,2.6c-0.4-0.3-0.9-0.5-1.2-0.4c-0.4,0-0.8,0.2-1.1,0.6c-0.3,0.3-0.5,0.6-0.5,0.9s0.1,0.5,0.2,0.7c0.1,0.1,0.3,0.2,0.5,0.2
						s0.6-0.2,1.2-0.6c1.4-0.9,2.4-1.5,3.2-1.7c0.7-0.2,1.4-0.3,2-0.1c0.6,0.1,1.1,0.4,1.6,0.9c0.5,0.5,0.9,1.2,1,1.9
						c0.2,0.8,0.1,1.5-0.2,2.3c-0.3,0.8-0.9,1.6-1.7,2.4c-1.4,1.4-2.7,2.1-3.7,2.1C455,283.8,454,283.4,453,282.7z"/>
				</g>
				<g>
					<path class="st31" d="M525.5,207.4l2.3-2.6c0.5,0.3,0.9,0.5,1.2,0.6c0.6,0.1,1.2-0.1,1.7-0.6c0.4-0.4,0.6-0.7,0.6-1.1
						c0-0.4-0.1-0.7-0.3-0.9s-0.5-0.3-0.9-0.3s-1,0.3-1.8,0.8c-1.4,0.9-2.5,1.4-3.3,1.4c-0.9,0.1-1.7-0.2-2.4-0.9
						c-0.4-0.4-0.7-1-0.8-1.6c-0.1-0.6-0.1-1.3,0.2-2c0.3-0.7,0.9-1.5,1.7-2.4c1.1-1.1,2.1-1.7,3-1.9c1-0.2,1.9,0.1,2.9,0.9
						l-2.3,2.6c-0.4-0.3-0.9-0.5-1.2-0.4c-0.4,0-0.8,0.2-1.1,0.6c-0.3,0.3-0.5,0.6-0.5,0.9c0,0.3,0.1,0.5,0.2,0.7
						c0.1,0.1,0.3,0.2,0.5,0.2s0.6-0.2,1.2-0.6c1.4-0.9,2.4-1.5,3.2-1.7c0.7-0.2,1.4-0.3,2-0.1c0.6,0.1,1.1,0.4,1.6,0.9
						c0.5,0.5,0.9,1.2,1,1.9c0.2,0.8,0.1,1.5-0.2,2.3c-0.3,0.8-0.9,1.6-1.7,2.4c-1.4,1.4-2.7,2.1-3.7,2.1
						C527.5,208.5,526.5,208.2,525.5,207.4z"/>
					<path class="st31" d="M534.2,187.7l2.6-2.6l4.9,4.9c0.5,0.5,0.9,1,1.2,1.6s0.4,1.2,0.4,1.9s-0.1,1.2-0.3,1.7
						c-0.3,0.7-0.8,1.4-1.5,2.1c-0.4,0.4-0.9,0.8-1.4,1.3c-0.5,0.4-1.1,0.7-1.6,0.9s-1,0.2-1.6,0.2s-1.1-0.2-1.5-0.4
						c-0.7-0.4-1.2-0.8-1.7-1.2l-4.9-4.9l2.6-2.6l5,5c0.5,0.5,0.9,0.7,1.5,0.7c0.5,0,1-0.2,1.4-0.7c0.4-0.4,0.7-0.9,0.7-1.4
						s-0.2-1-0.7-1.5L534.2,187.7z"/>
					<path class="st31" d="M548.7,182.9l3-1.6c0.5,0.8,0.8,1.6,0.9,2.3c0.1,0.8,0,1.5-0.3,2.2c-0.3,0.7-0.8,1.4-1.5,2.2
						c-0.9,0.9-1.8,1.5-2.6,1.8s-1.8,0.3-2.9,0.1c-1.1-0.2-2.2-0.9-3.2-1.9c-1.4-1.4-2.1-2.8-2.1-4.2c0-1.5,0.7-2.9,2-4.1
						c1.1-1.1,2.1-1.7,3.1-1.9s2.1,0,3.2,0.6l-1.8,2.8c-0.3-0.2-0.6-0.3-0.8-0.3c-0.3-0.1-0.7,0-1,0.1s-0.6,0.3-0.9,0.5
						c-0.6,0.6-0.8,1.3-0.6,2.1c0.1,0.6,0.5,1.3,1.3,2c0.9,0.9,1.7,1.4,2.3,1.5c0.6,0.1,1.2-0.2,1.7-0.7c0.5-0.5,0.7-1,0.7-1.5
						C549.4,184.1,549.1,183.5,548.7,182.9z"/>
					<path class="st31" d="M557.7,173.9l3-1.6c0.5,0.8,0.8,1.6,0.9,2.3c0.1,0.8,0,1.5-0.3,2.2c-0.3,0.7-0.8,1.4-1.5,2.2
						c-0.9,0.9-1.8,1.5-2.6,1.8s-1.8,0.3-2.9,0.1c-1.1-0.2-2.2-0.9-3.2-1.9c-1.4-1.4-2.1-2.8-2.1-4.2c0-1.5,0.7-2.9,2-4.2
						c1.1-1.1,2.1-1.7,3.1-1.9s2.1,0,3.2,0.6l-1.8,2.8c-0.3-0.2-0.6-0.3-0.8-0.3c-0.3-0.1-0.7,0-1,0.1s-0.6,0.3-0.9,0.5
						c-0.6,0.6-0.8,1.3-0.6,2.1c0.1,0.6,0.5,1.3,1.3,2c0.9,0.9,1.7,1.4,2.3,1.5c0.6,0.1,1.2-0.2,1.7-0.7s0.7-1,0.7-1.5
						C558.4,175.1,558.2,174.5,557.7,173.9z"/>
					<path class="st31" d="M556.3,165.6l6.8-6.8l1.8,1.8l-4.2,4.2l1.3,1.3l3.9-3.9l1.7,1.7l-3.9,3.9l1.7,1.7l4.4-4.4l1.9,1.9l-7,7
						L556.3,165.6z"/>
					<path class="st31" d="M569.7,163.2l2.3-2.6c0.5,0.3,0.9,0.5,1.2,0.6c0.6,0.1,1.2-0.1,1.7-0.6c0.4-0.4,0.6-0.7,0.6-1.1
						c0-0.4-0.1-0.7-0.3-0.9s-0.5-0.3-0.9-0.3s-1,0.3-1.8,0.8c-1.4,0.9-2.5,1.4-3.3,1.4c-0.9,0.1-1.7-0.2-2.4-0.9
						c-0.4-0.4-0.7-1-0.8-1.6c-0.1-0.6-0.1-1.3,0.2-2c0.3-0.7,0.9-1.5,1.7-2.4c1.1-1.1,2.1-1.7,3-1.9c1-0.2,1.9,0.1,2.9,0.9
						l-2.3,2.6c-0.4-0.3-0.9-0.5-1.2-0.4c-0.4,0-0.8,0.2-1.1,0.6c-0.3,0.3-0.5,0.6-0.5,0.9c0,0.3,0.1,0.5,0.2,0.7
						c0.1,0.1,0.3,0.2,0.5,0.2s0.6-0.2,1.2-0.6c1.4-0.9,2.4-1.5,3.2-1.7c0.7-0.2,1.4-0.3,2-0.1c0.6,0.1,1.1,0.4,1.6,0.9
						c0.5,0.5,0.9,1.2,1,1.9c0.2,0.8,0.1,1.5-0.2,2.3c-0.3,0.8-0.9,1.6-1.7,2.4c-1.4,1.4-2.7,2.1-3.7,2.1
						C571.7,164.3,570.7,163.9,569.7,163.2z"/>
					<path class="st31" d="M578.1,154.8l2.3-2.6c0.5,0.3,0.9,0.5,1.2,0.6c0.6,0.1,1.2-0.1,1.7-0.6c0.4-0.4,0.6-0.7,0.6-1.1
						s-0.1-0.7-0.3-0.9s-0.5-0.3-0.9-0.3s-1,0.3-1.8,0.8c-1.4,0.9-2.5,1.4-3.3,1.4c-0.9,0.1-1.7-0.2-2.4-0.9c-0.4-0.4-0.7-1-0.8-1.6
						s-0.1-1.3,0.2-2c0.3-0.7,0.9-1.5,1.7-2.4c1.1-1.1,2.1-1.7,3-1.9c1-0.2,1.9,0.1,2.9,0.9l-2.3,2.6c-0.4-0.3-0.9-0.5-1.2-0.4
						c-0.4,0-0.8,0.2-1.1,0.6c-0.3,0.3-0.5,0.6-0.5,0.9c0,0.3,0.1,0.5,0.2,0.7c0.1,0.1,0.3,0.2,0.5,0.2s0.6-0.2,1.2-0.6
						c1.4-0.9,2.4-1.5,3.2-1.7c0.7-0.2,1.4-0.3,2-0.1c0.6,0.1,1.1,0.4,1.6,0.9s0.9,1.2,1,1.9c0.2,0.8,0.1,1.5-0.2,2.3
						c-0.3,0.8-0.9,1.6-1.7,2.4c-1.4,1.4-2.7,2.1-3.7,2.1C579.9,156,579,155.6,578.1,154.8z"/>
				</g>
			</g>
			<g>
				<g>
					<path class="st40" d="M398.2,148.7l2.6,2.3c-0.3,0.5-0.5,0.9-0.6,1.2c-0.1,0.6,0.1,1.2,0.6,1.7c0.4,0.4,0.7,0.6,1.1,0.6
						s0.7-0.1,0.9-0.3c0.2-0.2,0.3-0.5,0.3-0.9c0-0.4-0.3-1-0.8-1.8c-0.9-1.4-1.4-2.5-1.4-3.3c-0.1-0.9,0.2-1.7,0.9-2.4
						c0.4-0.4,1-0.7,1.6-0.8s1.3-0.1,2,0.2c0.7,0.3,1.5,0.9,2.4,1.7c1.1,1.1,1.7,2.1,1.9,3c0.2,1-0.1,1.9-0.9,2.9l-2.6-2.3
						c0.3-0.4,0.5-0.9,0.4-1.2c0-0.4-0.2-0.8-0.6-1.1c-0.3-0.3-0.6-0.5-0.9-0.5c-0.3,0-0.5,0.1-0.7,0.2c-0.1,0.1-0.2,0.3-0.2,0.5
						s0.2,0.6,0.6,1.2c0.9,1.4,1.5,2.4,1.7,3.2c0.2,0.7,0.3,1.4,0.1,2c-0.1,0.6-0.4,1.1-0.9,1.6s-1.2,0.9-1.9,1
						c-0.8,0.2-1.5,0.1-2.3-0.2s-1.6-0.9-2.4-1.7c-1.4-1.4-2.1-2.7-2.1-3.7C397.1,150.6,397.5,149.6,398.2,148.7z"/>
					<path class="st40" d="M417.9,157.3l2.6,2.6l-4.9,4.9c-0.5,0.5-1,0.9-1.6,1.2c-0.6,0.3-1.2,0.4-1.9,0.4c-0.7,0-1.2-0.1-1.7-0.3
						c-0.7-0.3-1.4-0.8-2.1-1.5c-0.4-0.4-0.8-0.9-1.3-1.4c-0.4-0.5-0.7-1.1-0.9-1.6c-0.2-0.5-0.2-1-0.2-1.6c0-0.6,0.2-1.1,0.4-1.5
						c0.4-0.7,0.8-1.2,1.2-1.7l4.9-4.9l2.6,2.6l-5,5c-0.5,0.5-0.7,0.9-0.7,1.5c0,0.5,0.2,1,0.7,1.4c0.4,0.4,0.9,0.7,1.4,0.7
						s1-0.2,1.5-0.7L417.9,157.3z"/>
					<path class="st40" d="M422.8,172l1.6,3c-0.8,0.5-1.6,0.8-2.3,0.9c-0.8,0.1-1.5,0-2.2-0.3s-1.4-0.8-2.2-1.5
						c-0.9-0.9-1.5-1.8-1.8-2.6c-0.3-0.8-0.3-1.8-0.1-2.9c0.2-1.1,0.9-2.2,1.9-3.2c1.4-1.4,2.8-2.1,4.2-2.1s2.9,0.7,4.1,2
						c1.1,1.1,1.7,2.1,1.9,3.1c0.2,1,0,2.1-0.6,3.2l-2.8-1.8c0.2-0.3,0.3-0.6,0.3-0.8c0.1-0.3,0-0.7-0.1-1s-0.3-0.6-0.5-0.9
						c-0.6-0.6-1.3-0.8-2.1-0.6c-0.6,0.1-1.3,0.5-2,1.3c-0.9,0.9-1.4,1.7-1.5,2.3c-0.1,0.6,0.2,1.2,0.7,1.7c0.5,0.5,1,0.7,1.5,0.7
						C421.5,172.6,422.1,172.4,422.8,172z"/>
					<path class="st40" d="M431.7,180.9l1.6,3c-0.8,0.5-1.6,0.8-2.3,0.9c-0.8,0.1-1.5,0-2.2-0.3c-0.7-0.3-1.4-0.8-2.2-1.5
						c-0.9-0.9-1.5-1.8-1.8-2.6c-0.3-0.8-0.3-1.8-0.1-2.9c0.2-1.1,0.9-2.2,1.9-3.2c1.4-1.4,2.8-2.1,4.2-2.1s2.9,0.7,4.2,2
						c1.1,1.1,1.7,2.1,1.9,3.1c0.2,1,0,2.1-0.6,3.2l-2.8-1.8c0.2-0.3,0.3-0.6,0.3-0.8c0.1-0.3,0-0.7-0.1-1s-0.3-0.6-0.5-0.9
						c-0.6-0.6-1.3-0.8-2.1-0.6c-0.6,0.1-1.3,0.5-2,1.3c-0.9,0.9-1.4,1.7-1.5,2.3c-0.1,0.6,0.2,1.2,0.7,1.7c0.5,0.5,1,0.7,1.5,0.7
						C430.5,181.5,431.1,181.3,431.7,180.9z"/>
					<path class="st40" d="M440,179.6l6.8,6.8l-1.8,1.8l-4.2-4.2l-1.3,1.3l3.9,3.9l-1.7,1.7l-3.9-3.9l-1.7,1.7l4.4,4.4l-1.9,1.9
						l-7-7L440,179.6z"/>
					<path class="st40" d="M442.5,192.9l2.6,2.3c-0.3,0.5-0.5,0.9-0.6,1.2c-0.1,0.6,0.1,1.2,0.6,1.7c0.4,0.4,0.7,0.6,1.1,0.6
						s0.7-0.1,0.9-0.3s0.3-0.5,0.3-0.9c0-0.4-0.3-1-0.8-1.8c-0.9-1.4-1.4-2.5-1.4-3.3c-0.1-0.9,0.2-1.7,0.9-2.4
						c0.4-0.4,1-0.7,1.6-0.8s1.3-0.1,2,0.2s1.5,0.9,2.4,1.7c1.1,1.1,1.7,2.1,1.9,3c0.2,1-0.1,1.9-0.9,2.9l-2.6-2.3
						c0.3-0.4,0.5-0.9,0.4-1.2c0-0.4-0.2-0.8-0.6-1.1c-0.3-0.3-0.6-0.5-0.9-0.5s-0.5,0.1-0.7,0.2c-0.1,0.1-0.2,0.3-0.2,0.5
						s0.2,0.6,0.6,1.2c0.9,1.4,1.5,2.4,1.7,3.2c0.2,0.7,0.3,1.4,0.1,2c-0.1,0.6-0.4,1.1-0.9,1.6s-1.2,0.9-1.9,1
						c-0.8,0.2-1.5,0.1-2.3-0.2s-1.6-0.9-2.4-1.7c-1.4-1.4-2.1-2.7-2.1-3.7C441.3,194.8,441.7,193.8,442.5,192.9z"/>
					<path class="st40" d="M450.7,201.3l2.6,2.3c-0.3,0.5-0.5,0.9-0.6,1.2c-0.1,0.6,0.1,1.2,0.6,1.7c0.4,0.4,0.7,0.6,1.1,0.6
						s0.7-0.1,0.9-0.3c0.2-0.2,0.3-0.5,0.3-0.9s-0.3-1-0.8-1.8c-0.9-1.4-1.4-2.5-1.4-3.3c-0.1-0.9,0.2-1.7,0.9-2.4
						c0.4-0.4,1-0.7,1.6-0.8c0.6-0.1,1.3-0.1,2,0.2s1.5,0.9,2.4,1.7c1.1,1.1,1.7,2.1,1.9,3c0.2,1-0.1,1.9-0.9,2.9l-2.6-2.3
						c0.3-0.4,0.5-0.9,0.4-1.2c0-0.4-0.2-0.8-0.6-1.1c-0.3-0.3-0.6-0.5-0.9-0.5s-0.5,0.1-0.7,0.2c-0.1,0.1-0.2,0.3-0.2,0.5
						s0.2,0.6,0.6,1.2c0.9,1.4,1.5,2.4,1.7,3.2c0.2,0.7,0.3,1.4,0.1,2c-0.1,0.6-0.4,1.1-0.9,1.6c-0.5,0.5-1.2,0.9-1.9,1
						c-0.8,0.2-1.5,0.1-2.3-0.2s-1.6-0.9-2.4-1.7c-1.4-1.4-2.1-2.7-2.1-3.7C449.7,203.2,450,202.2,450.7,201.3z"/>
				</g>
				<g>
					<path class="st40" d="M526,273.7l2.6,2.3c-0.3,0.5-0.5,0.9-0.6,1.2c-0.1,0.6,0.1,1.2,0.6,1.7c0.4,0.4,0.7,0.6,1.1,0.6
						c0.4,0,0.7-0.1,0.9-0.3c0.2-0.2,0.3-0.5,0.3-0.9s-0.3-1-0.8-1.8c-0.9-1.4-1.4-2.5-1.4-3.3c-0.1-0.9,0.2-1.7,0.9-2.4
						c0.4-0.4,1-0.7,1.6-0.8c0.6-0.1,1.3-0.1,2,0.2c0.7,0.3,1.5,0.9,2.4,1.7c1.1,1.1,1.7,2.1,1.9,3c0.2,1-0.1,1.9-0.9,2.9l-2.6-2.3
						c0.3-0.4,0.5-0.9,0.4-1.2c0-0.4-0.2-0.8-0.6-1.1c-0.3-0.3-0.6-0.5-0.9-0.5c-0.3,0-0.5,0.1-0.7,0.2c-0.1,0.1-0.2,0.3-0.2,0.5
						s0.2,0.6,0.6,1.2c0.9,1.4,1.5,2.4,1.7,3.2c0.2,0.7,0.3,1.4,0.1,2c-0.1,0.6-0.4,1.1-0.9,1.6s-1.2,0.9-1.9,1
						c-0.8,0.2-1.5,0.1-2.3-0.2c-0.8-0.3-1.6-0.9-2.4-1.7c-1.4-1.4-2.1-2.7-2.1-3.7C524.9,275.7,525.3,274.7,526,273.7z"/>
					<path class="st40" d="M545.7,282.4l2.6,2.6l-4.9,4.9c-0.5,0.5-1,0.9-1.6,1.2c-0.6,0.3-1.2,0.4-1.9,0.4s-1.2-0.1-1.7-0.3
						c-0.7-0.3-1.4-0.8-2.1-1.5c-0.4-0.4-0.8-0.9-1.3-1.4c-0.4-0.5-0.7-1.1-0.9-1.6s-0.2-1-0.2-1.6c0-0.6,0.2-1.1,0.4-1.5
						c0.4-0.7,0.8-1.2,1.2-1.7l4.9-4.9l2.6,2.6l-5,5c-0.5,0.5-0.7,0.9-0.7,1.5c0,0.5,0.2,1,0.7,1.4c0.4,0.4,0.9,0.7,1.4,0.7
						s1-0.2,1.5-0.7L545.7,282.4z"/>
					<path class="st40" d="M550.6,296.9l1.6,3c-0.8,0.5-1.6,0.8-2.3,0.9c-0.8,0.1-1.5,0-2.2-0.3s-1.4-0.8-2.2-1.5
						c-0.9-0.9-1.5-1.8-1.8-2.6c-0.3-0.8-0.3-1.8-0.1-2.9c0.2-1.1,0.9-2.2,1.9-3.2c1.4-1.4,2.8-2.1,4.2-2.1s2.9,0.7,4.1,2
						c1.1,1.1,1.7,2.1,1.9,3.1c0.2,1,0,2.1-0.6,3.2l-2.8-1.8c0.2-0.3,0.3-0.6,0.3-0.8c0.1-0.3,0-0.7-0.1-1s-0.3-0.6-0.5-0.9
						c-0.6-0.6-1.3-0.8-2.1-0.6c-0.6,0.1-1.3,0.5-2,1.3c-0.9,0.9-1.4,1.7-1.5,2.3c-0.1,0.6,0.2,1.2,0.7,1.7c0.5,0.5,1,0.7,1.5,0.7
						C549.3,297.6,549.9,297.4,550.6,296.9z"/>
					<path class="st40" d="M559.6,306l1.6,3c-0.8,0.5-1.6,0.8-2.3,0.9c-0.8,0.1-1.5,0-2.2-0.3s-1.4-0.8-2.2-1.5
						c-0.9-0.9-1.5-1.8-1.8-2.6c-0.3-0.8-0.3-1.8-0.1-2.9c0.2-1.1,0.9-2.2,1.9-3.2c1.4-1.4,2.8-2.1,4.2-2.1s2.9,0.7,4.2,2
						c1.1,1.1,1.7,2.1,1.9,3.1c0.2,1,0,2.1-0.6,3.2l-2.8-1.8c0.2-0.3,0.3-0.6,0.3-0.8c0.1-0.3,0-0.7-0.1-1s-0.3-0.6-0.5-0.9
						c-0.6-0.6-1.3-0.8-2.1-0.6c-0.6,0.1-1.3,0.5-2,1.3c-0.9,0.9-1.4,1.7-1.5,2.3c-0.1,0.6,0.2,1.2,0.7,1.7c0.5,0.5,1,0.7,1.5,0.7
						C558.3,306.6,558.9,306.4,559.6,306z"/>
					<path class="st40" d="M567.8,304.5l6.8,6.8l-1.8,1.8l-4.2-4.2l-1.3,1.3l3.9,3.9l-1.7,1.8l-3.9-3.9l-1.7,1.7l4.4,4.4l-1.9,1.9
						l-7-7L567.8,304.5z"/>
					<path class="st40" d="M570.2,318l2.6,2.3c-0.3,0.5-0.5,0.9-0.6,1.2c-0.1,0.6,0.1,1.2,0.6,1.7c0.4,0.4,0.7,0.6,1.1,0.6
						c0.4,0,0.7-0.1,0.9-0.3c0.2-0.2,0.3-0.5,0.3-0.9s-0.3-1-0.8-1.8c-0.9-1.4-1.4-2.5-1.4-3.3c-0.1-0.9,0.2-1.7,0.9-2.4
						c0.4-0.4,1-0.7,1.6-0.8c0.6-0.1,1.3-0.1,2,0.2c0.7,0.3,1.5,0.9,2.4,1.7c1.1,1.1,1.7,2.1,1.9,3c0.2,1-0.1,1.9-0.9,2.9l-2.6-2.3
						c0.3-0.4,0.5-0.9,0.4-1.2c0-0.4-0.2-0.8-0.6-1.1c-0.3-0.3-0.6-0.5-0.9-0.5c-0.3,0-0.5,0.1-0.7,0.2c-0.1,0.1-0.2,0.3-0.2,0.5
						s0.2,0.6,0.6,1.2c0.9,1.4,1.5,2.4,1.7,3.2c0.2,0.7,0.3,1.4,0.1,2c-0.1,0.6-0.4,1.1-0.9,1.6s-1.2,0.9-1.9,1
						c-0.8,0.2-1.5,0.1-2.3-0.2c-0.8-0.3-1.6-0.9-2.4-1.7c-1.4-1.4-2.1-2.7-2.1-3.7C569.1,319.9,569.5,318.9,570.2,318z"/>
					<path class="st40" d="M578.6,326.3l2.6,2.3c-0.3,0.5-0.5,0.9-0.6,1.2c-0.1,0.6,0.1,1.2,0.6,1.7c0.4,0.4,0.7,0.6,1.1,0.6
						c0.4,0,0.7-0.1,0.9-0.3c0.2-0.2,0.3-0.5,0.3-0.9c0-0.4-0.3-1-0.8-1.8c-0.9-1.4-1.4-2.5-1.4-3.3c-0.1-0.9,0.2-1.7,0.9-2.4
						c0.4-0.4,1-0.7,1.6-0.8c0.6-0.1,1.3-0.1,2,0.2c0.7,0.3,1.5,0.9,2.4,1.7c1.1,1.1,1.7,2.1,1.9,3c0.2,1-0.1,1.9-0.9,2.9l-2.6-2.3
						c0.3-0.4,0.5-0.9,0.4-1.2c0-0.4-0.2-0.8-0.6-1.1c-0.3-0.3-0.6-0.5-0.9-0.5c-0.3,0-0.5,0.1-0.7,0.2c-0.1,0.1-0.2,0.3-0.2,0.5
						s0.2,0.6,0.6,1.2c0.9,1.4,1.5,2.4,1.7,3.2c0.2,0.7,0.3,1.4,0.1,2c-0.1,0.6-0.4,1.1-0.9,1.6s-1.2,0.9-1.9,1
						c-0.8,0.2-1.5,0.1-2.3-0.2c-0.8-0.3-1.6-0.9-2.4-1.7c-1.4-1.4-2.1-2.7-2.1-3.7C577.5,328.2,577.8,327.2,578.6,326.3z"/>
				</g>
			</g>
		</g>
	</g>
	<g>
		<g>
			<path id="XMLID_400_" class="st1" d="M246,520.3c0,0-0.9,8.7-1.5,9.9c-0.5,1.3-2.7,3.9-2.7,3.9s7.7,3.9,11.7,2.8
				c4.1-1.2,8.1-4.1,8.1-4.1s-1.8-3.2-1.7-3.8c0.1-0.6,1-7.9,1-7.9L246,520.3z"/>
		</g>
		<g>
			<defs>
				<path id="SVGID_53_" d="M246,520.3c0,0-0.9,8.7-1.5,9.9c-0.5,1.3-2.7,3.9-2.7,3.9s7.7,3.9,11.7,2.8c4.1-1.2,8.1-4.1,8.1-4.1
					s-1.8-3.2-1.7-3.8c0.1-0.6,1-7.9,1-7.9L246,520.3z"/>
			</defs>
			<clipPath id="SVGID_54_">
				<use xlink:href="#SVGID_53_"  style="overflow:visible;"/>
			</clipPath>
			<path class="st41" d="M243.9,527.5c0.2,0,9.6,4.2,17.5-1.4v-10.2l-17.9,0.7L243.9,527.5z"/>
		</g>
	</g>
	<g>
		<path class="st42" d="M242,534.2c0,0,12.8,2.5,19.9-1.4c0,0,7.1,5.6,10.7,6.1c3.7,0.5,11.1,3.6,11.4,8.4h-42
			C242,547.3,239.5,538,242,534.2z"/>
		<path class="st15" d="M263.5,534.1c0,0-2.4,2.8-2.1,3.2s0.8,0.8,1,0.6c0.2-0.2,2.3-3.1,2.1-3.1S263.5,534.1,263.5,534.1z"/>
		<path class="st15" d="M266.6,536c0,0-2.2,2.9-1.9,3.3c0.3,0.5,0.9,0.7,1.1,0.6c0.2-0.2,2.1-3.2,2-3.2
			C267.6,536.6,266.6,536,266.6,536z"/>
		<path class="st15" d="M269.4,537.6c0,0-2.1,3-1.8,3.4s0.9,0.7,1.1,0.5s1.9-3.2,1.8-3.2C270.3,538.2,269.4,537.6,269.4,537.6z"/>
	</g>
	<g>
		<g>
			<path id="XMLID_399_" class="st1" d="M176.2,520c0,0-0.9,8.7-1.5,9.9c-0.5,1.3-2.7,3.9-2.7,3.9s7.7,3.9,11.7,2.8
				c4.1-1.2,8.1-4.1,8.1-4.1s-1.8-3.2-1.7-3.8s1-7.9,1-7.9L176.2,520z"/>
		</g>
		<g>
			<defs>
				<path id="SVGID_55_" d="M176.2,520c0,0-0.9,8.7-1.5,9.9c-0.5,1.3-2.7,3.9-2.7,3.9s7.7,3.9,11.7,2.8c4.1-1.2,8.1-4.1,8.1-4.1
					s-1.8-3.2-1.7-3.8s1-7.9,1-7.9L176.2,520z"/>
			</defs>
			<clipPath id="SVGID_56_">
				<use xlink:href="#SVGID_55_"  style="overflow:visible;"/>
			</clipPath>
			<path class="st43" d="M172.6,525.2c0,0,10.7,6.9,20.1,1.6l1-6.5l-19.4-1.4L172.6,525.2z"/>
		</g>
	</g>
	<path class="st4" d="M249.3,284.1c0,0,30.5,23.8,35.5,24.6s57,3.6,57,3.6V326c0,0-56.3,9.9-61.3,8.1c-4.9-1.9-32.5-11.9-34.1-16.4
		c-1.6-4.5-2.4-33.4-2.4-33.4L249.3,284.1L249.3,284.1z"/>
	<g>
		<g>
			<path id="XMLID_398_" class="st1" d="M331,226.4c0.6-2.3,0.9-3.5,0.9-3.5c4.3-4.2,13.2-13.5,11.8-13.4c-1.4,0.1-6.1,3.2-6.1,3.2
				s7.4-12,6.3-12.2c-1.1-0.2-6.8,7.5-6.8,7.5s5.6-13.4,4-12.4c-2.6,1.6-6.3,10-6.8,10.4s2.1-11,1.5-11.4c-1.2-0.7-7.1,14-7.1,14
				s-5.7-9.9-5.5-7.2c0.9,10.6,0.2,18.8,0.2,18.8c-0.5,0.7-1,1.4-1.6,2.1L331,226.4z"/>
		</g>
		<g>
			<defs>
				<path id="SVGID_57_" d="M331,226.4c0.6-2.3,0.9-3.5,0.9-3.5c4.3-4.2,13.2-13.5,11.8-13.4c-1.4,0.1-6.1,3.2-6.1,3.2
					s7.4-12,6.3-12.2c-1.1-0.2-6.8,7.5-6.8,7.5s5.6-13.4,4-12.4c-2.6,1.6-6.3,10-6.8,10.4s2.1-11,1.5-11.4c-1.2-0.7-7.1,14-7.1,14
					s-5.7-9.9-5.5-7.2c0.9,10.6,0.2,18.8,0.2,18.8c-0.5,0.7-1,1.4-1.6,2.1L331,226.4z"/>
			</defs>
			<clipPath id="SVGID_58_">
				<use xlink:href="#SVGID_57_"  style="overflow:visible;"/>
			</clipPath>
			<path class="st44" d="M257.1,287.4c0.7-0.2,46.2-1.5,53.6,0.7c7.5,2.2-32.9,12.2-38.8,12C266.1,299.9,257.1,287.4,257.1,287.4z"
				/>
		</g>
	</g>
	<g>
		<g>
			<g>
				<path id="XMLID_397_" class="st1" d="M243.2,234.2c-4.6-1.9-5.6-13.6-5.6-13.6c-2-8.8-19.5-4.7-22.5,1.4
					c-3,6.1,6.5,22.4,8.1,24.8c0.1,0.1,0.1,0.2,0.2,0.2c-1,3-5.9,17.8-3,19.3c3.2,1.6,19.8,0.2,19.6-2.1c-0.1-1.4-1.9-7.9-3.2-12.9
					c2.5,0.4,4.5,0.5,5.8,0.2c4-0.9,0.7-9.2,1.2-10.7c0.5-1.6,3.6-0.4,6.1-2C252.2,237.2,247.7,236.1,243.2,234.2z"/>
			</g>
			<g>
				<defs>
					<path id="SVGID_59_" d="M243.2,234.2c-4.6-1.9-5.6-13.6-5.6-13.6c-2-8.8-19.5-4.7-22.5,1.4c-3,6.1,6.5,22.4,8.1,24.8
						c0.1,0.1,0.1,0.2,0.2,0.2c-1,3-5.9,17.8-3,19.3c3.2,1.6,19.8,0.2,19.6-2.1c-0.1-1.4-1.9-7.9-3.2-12.9c2.5,0.4,4.5,0.5,5.8,0.2
						c4-0.9,0.7-9.2,1.2-10.7c0.5-1.6,3.6-0.4,6.1-2C252.2,237.2,247.7,236.1,243.2,234.2z"/>
				</defs>
				<clipPath id="SVGID_60_">
					<use xlink:href="#SVGID_59_"  style="overflow:visible;"/>
				</clipPath>
				<path class="st45" d="M236.8,251.3c0,0-0.9-0.1-3.1-2.3c0,0,0.4,5,4.4,7.7L236.8,251.3"/>
			</g>
			<g>
				<defs>
					<path id="SVGID_61_" d="M243.2,234.2c-4.6-1.9-5.6-13.6-5.6-13.6c-2-8.8-19.5-4.7-22.5,1.4c-3,6.1,6.5,22.4,8.1,24.8
						c0.1,0.1,0.1,0.2,0.2,0.2c-1,3-5.9,17.8-3,19.3c3.2,1.6,19.8,0.2,19.6-2.1c-0.1-1.4-1.9-7.9-3.2-12.9c2.5,0.4,4.5,0.5,5.8,0.2
						c4-0.9,0.7-9.2,1.2-10.7c0.5-1.6,3.6-0.4,6.1-2C252.2,237.2,247.7,236.1,243.2,234.2z"/>
				</defs>
				<clipPath id="SVGID_62_">
					<use xlink:href="#SVGID_61_"  style="overflow:visible;"/>
				</clipPath>
				<path class="st46" d="M244.2,243.3c0,0-5.6-1.1-6.2-0.7c-0.6,0.4,2.9,3.9,4.9,3.4c2.1-0.5,2.4-1.1,2.4-1.1L244.2,243.3z"/>
			</g>
			<g>
				<defs>
					<path id="SVGID_63_" d="M243.2,234.2c-4.6-1.9-5.6-13.6-5.6-13.6c-2-8.8-19.5-4.7-22.5,1.4c-3,6.1,6.5,22.4,8.1,24.8
						c0.1,0.1,0.1,0.2,0.2,0.2c-1,3-5.9,17.8-3,19.3c3.2,1.6,19.8,0.2,19.6-2.1c-0.1-1.4-1.9-7.9-3.2-12.9c2.5,0.4,4.5,0.5,5.8,0.2
						c4-0.9,0.7-9.2,1.2-10.7c0.5-1.6,3.6-0.4,6.1-2C252.2,237.2,247.7,236.1,243.2,234.2z"/>
				</defs>
				<clipPath id="SVGID_64_">
					<use xlink:href="#SVGID_63_"  style="overflow:visible;"/>
				</clipPath>
				<path class="st47" d="M239.6,227.4c0,0-4.7,1.9-8.8,0.2c0,0-0.6,3.8-5.1,5.2c-4.5,1.3,0,0,0,0s1.1-8.5,1.7-8.9
					c0.7-0.5,11.2-2.3,11.2-2.3L239.6,227.4z"/>
			</g>
		</g>
	</g>
	<g>
		<g>
			<g>
				<path id="XMLID_396_" class="st24" d="M257.9,358.1c0,0,11,161,7.7,163.1c-3.3,2-20.8,6.6-24.6,2.3
					c-3.8-4.3-17.8-125.5-17.8-125.5s-21.9,125.9-28.9,126.3s-21.3,3.3-23-4.6c-1.8-8.1,19.6-160.6,19.6-160.6L257.9,358.1z"/>
			</g>
			<g>
				<defs>
					<path id="SVGID_65_" d="M257.9,358.1c0,0,11,161,7.7,163.1c-3.3,2-20.8,6.6-24.6,2.3c-3.8-4.3-17.8-125.5-17.8-125.5
						s-21.9,125.9-28.9,126.3s-21.3,3.3-23-4.6c-1.8-8.1,19.6-160.6,19.6-160.6L257.9,358.1z"/>
				</defs>
				<clipPath id="SVGID_66_">
					<use xlink:href="#SVGID_65_"  style="overflow:visible;"/>
				</clipPath>
				<path class="st48" d="M185.2,372.6c0,0,46.4,11,75.1-9.1l0.7-5.4H186L185.2,372.6z"/>
			</g>
			<g>
				<defs>
					<path id="SVGID_67_" d="M257.9,358.1c0,0,11,161,7.7,163.1c-3.3,2-20.8,6.6-24.6,2.3c-3.8-4.3-17.8-125.5-17.8-125.5
						s-21.9,125.9-28.9,126.3s-21.3,3.3-23-4.6c-1.8-8.1,19.6-160.6,19.6-160.6L257.9,358.1z"/>
				</defs>
				<clipPath id="SVGID_68_">
					<use xlink:href="#SVGID_67_"  style="overflow:visible;"/>
				</clipPath>
				<path class="st49" d="M256.1,530.8c-0.2,0-0.3-0.1-0.3-0.3c0-0.6-3.4-55.5-5.5-81c-2.1-25.3-10.8-83.5-12.1-85.3
					c-0.1-0.1-0.1-0.3,0-0.4s0.3-0.1,0.4,0c1.1,1.1,5.4,30.3,5.9,33.7c3.1,21.1,5.5,40.5,6.4,52c2.2,25.5,5.5,80.5,5.5,81
					C256.4,530.6,256.2,530.7,256.1,530.8L256.1,530.8z"/>
			</g>
			<g>
				<defs>
					<path id="SVGID_69_" d="M257.9,358.1c0,0,11,161,7.7,163.1c-3.3,2-20.8,6.6-24.6,2.3c-3.8-4.3-17.8-125.5-17.8-125.5
						s-21.9,125.9-28.9,126.3s-21.3,3.3-23-4.6c-1.8-8.1,19.6-160.6,19.6-160.6L257.9,358.1z"/>
				</defs>
				<clipPath id="SVGID_70_">
					<use xlink:href="#SVGID_69_"  style="overflow:visible;"/>
				</clipPath>
				<path class="st50" d="M180.7,528.7L180.7,528.7c-0.2,0-0.3-0.2-0.3-0.4c0.2-0.8,15.7-81.6,17.1-93c1.5-11.3,2.8-68.7,2.8-69.3
					c0-0.2,0.1-0.3,0.3-0.3s0.3,0.1,0.3,0.3c0,0.6-1.3,58.1-2.8,69.4s-16.9,92.2-17.1,93C181,528.6,180.9,528.7,180.7,528.7z"/>
			</g>
		</g>
		<path class="st34" d="M223.1,398c0,0-4.4-1.8-9.5-15.4c0,0-3.2,19.7,7.4,27.2L223.1,398z"/>
	</g>
	<path class="st51" d="M216.3,263.9c0,0,1.3-4.8,2.3-5.4c1-0.6,7.2-2.5,11.2-2.4c4,0.1,10.4,0.9,10.9,1.6c0.5,0.7,0.5,3.2,0.5,3.2
		S229.6,261.1,216.3,263.9z"/>
	<g>
		<g>
			<path id="XMLID_395_" class="st26" d="M205.4,270.7c0,0,3.3-9.1,23.7-9.9c5.6-0.3,58.7,1.4,61,0c2.3-1.4,31.3-43.9,31.3-43.9
				l13.8,6.4c0,0-19.2,60.6-30.4,67c-11.3,6.4-48.5,5.3-48.5,5.3s11.6,64.3,8.2,66.1c-3.4,1.9-42.1,16.4-78.3,5.8l10.9-46.8
				C197,320.8,196.2,284.1,205.4,270.7z"/>
		</g>
		<g>
			<defs>
				<path id="SVGID_71_" d="M205.4,270.7c0,0,3.3-9.1,23.7-9.9c5.6-0.3,58.7,1.4,61,0c2.3-1.4,31.3-43.9,31.3-43.9l13.8,6.4
					c0,0-19.2,60.6-30.4,67c-11.3,6.4-48.5,5.3-48.5,5.3s11.6,64.3,8.2,66.1c-3.4,1.9-42.1,16.4-78.3,5.8l10.9-46.8
					C197,320.8,196.2,284.1,205.4,270.7z"/>
			</defs>
			<clipPath id="SVGID_72_">
				<use xlink:href="#SVGID_71_"  style="overflow:visible;"/>
			</clipPath>
			<path class="st52" d="M256.2,295.9c-0.2,0-0.3-0.1-0.3-0.3c-2.3-23.1-10.9-34.4-11-34.5c-0.1-0.1-0.1-0.3,0-0.4s0.3-0.1,0.4,0
				c0.1,0.1,8.9,11.5,11.1,34.9C256.5,295.7,256.4,295.9,256.2,295.9L256.2,295.9z"/>
		</g>
		<g>
			<defs>
				<path id="SVGID_73_" d="M205.4,270.7c0,0,3.3-9.1,23.7-9.9c5.6-0.3,58.7,1.4,61,0c2.3-1.4,31.3-43.9,31.3-43.9l13.8,6.4
					c0,0-19.2,60.6-30.4,67c-11.3,6.4-48.5,5.3-48.5,5.3s11.6,64.3,8.2,66.1c-3.4,1.9-42.1,16.4-78.3,5.8l10.9-46.8
					C197,320.8,196.2,284.1,205.4,270.7z"/>
			</defs>
			<clipPath id="SVGID_74_">
				<use xlink:href="#SVGID_73_"  style="overflow:visible;"/>
			</clipPath>
			<path class="st53" d="M270,278.4c-8.9,0-16.5-0.2-17.2-0.2c-0.2,0-0.3-0.1-0.3-0.3c0-0.2,0.1-0.3,0.3-0.3c0.4,0,39.3,1,44-1.5
				c4.7-2.5,31.4-55.4,31.7-56c0.1-0.1,0.3-0.2,0.4-0.1c0.1,0.1,0.2,0.3,0.1,0.4c-1.1,2.2-27.1,53.7-32,56.2
				C294.4,278,281.4,278.4,270,278.4z"/>
		</g>
		<g>
			<defs>
				<path id="SVGID_75_" d="M205.4,270.7c0,0,3.3-9.1,23.7-9.9c5.6-0.3,58.7,1.4,61,0c2.3-1.4,31.3-43.9,31.3-43.9l13.8,6.4
					c0,0-19.2,60.6-30.4,67c-11.3,6.4-48.5,5.3-48.5,5.3s11.6,64.3,8.2,66.1c-3.4,1.9-42.1,16.4-78.3,5.8l10.9-46.8
					C197,320.8,196.2,284.1,205.4,270.7z"/>
			</defs>
			<clipPath id="SVGID_76_">
				<use xlink:href="#SVGID_75_"  style="overflow:visible;"/>
			</clipPath>
			<path class="st54" d="M197,320.8c0,0,4.2,11.3,15.5,12.4c0,0-13.7,4.1-18.5-4.4C193.9,328.7,193.1,323,197,320.8"/>
		</g>
	</g>
	<g>
		<g>
			<path id="XMLID_394_" class="st22" d="M238.1,220.9c0,0-0.8,4.6-10.4,4.4c0,0,0.2,5-2,7.4c0,0-0.5-3.5-2.9-3.6
				c-2.4-0.1-3.4,7,2.1,8.5c0,0,0.4,7.5-1.7,9.7c-2.1,2.1,0,0,0,0s-12.4-9.4-12.8-20.1c-0.4-10.7,9-16.4,13.6-17.2
				c4.6-0.7,19.5-0.1,20.9-1.3c1.4-1.2-0.6,5-3.7,5.6c0,0,5.5-1.3,5.5,0.8s-7.1,3.8-7.1,3.8s5.3,0.2,4.3,1.9"/>
		</g>
		<g>
			<defs>
				<path id="SVGID_77_" d="M238.1,220.9c0,0-0.8,4.6-10.4,4.4c0,0,0.2,5-2,7.4c0,0-0.5-3.5-2.9-3.6c-2.4-0.1-3.4,7,2.1,8.5
					c0,0,0.4,7.5-1.7,9.7c-2.1,2.1,0,0,0,0s-12.4-9.4-12.8-20.1c-0.4-10.7,9-16.4,13.6-17.2c4.6-0.7,19.5-0.1,20.9-1.3
					c1.4-1.2-0.6,5-3.7,5.6c0,0,5.5-1.3,5.5,0.8s-7.1,3.8-7.1,3.8s5.3,0.2,4.3,1.9"/>
			</defs>
			<clipPath id="SVGID_78_">
				<use xlink:href="#SVGID_77_"  style="overflow:visible;"/>
			</clipPath>
			<path class="st55" d="M209.6,224.9c0,0,6.2,11.7,10.8,13.2c4.5,1.5,6.5,0.6,6.5,0.6s-0.5,8.1-4.1,10c0,0-8-2.9-10.7-10.5
				C209.4,230.5,209.6,224.9,209.6,224.9z"/>
		</g>
	</g>
	<g>
		<path class="st42" d="M172.2,533.9c0,0,12.8,2.5,19.9-1.4c0,0,7.1,5.6,10.7,6.1c3.7,0.5,11.1,3.6,11.4,8.4h-42
			C172.2,547,169.7,537.7,172.2,533.9z"/>
		<path class="st15" d="M193.7,533.8c0,0-2.4,2.8-2.1,3.2c0.3,0.5,0.8,0.8,1,0.6s2.3-3.1,2.1-3.1
			C194.5,534.6,193.7,533.8,193.7,533.8z"/>
		<path class="st15" d="M196.8,535.7c0,0-2.2,2.9-1.9,3.3c0.3,0.5,0.9,0.7,1.1,0.6c0.2-0.2,2.1-3.2,2-3.2S196.8,535.7,196.8,535.7z"
			/>
		<path class="st15" d="M199.5,537.3c0,0-2.1,3-1.8,3.4s0.9,0.7,1.1,0.5s1.9-3.2,1.8-3.2C200.5,537.9,199.5,537.3,199.5,537.3z"/>
	</g>
</g>
</svg>
