<?xml version="1.0" encoding="utf-8"?>
<!-- Generator: Adobe Illustrator 23.1.0, SVG Export Plug-In . SVG Version: 6.00 Build 0)  -->
<svg version="1.1" id="Layer_1" xmlns="http://www.w3.org/2000/svg" xmlns:xlink="http://www.w3.org/1999/xlink" x="0px" y="0px"
	 viewBox="0 0 962.7 599.2" style="enable-background:new 0 0 962.7 599.2;" xml:space="preserve">
<style type="text/css">
	.st0{display:none;opacity:0.1;fill:#008080;enable-background:new    ;}
	.st1{opacity:0.11;fill-rule:evenodd;clip-rule:evenodd;fill:#008080;enable-background:new    ;}
	.st2{opacity:0.43;fill-rule:evenodd;clip-rule:evenodd;fill:#008080;enable-background:new    ;}
	.st3{opacity:0.43;fill:#008080;enable-background:new    ;}
	.st4{fill:#008080;}
	.st5{fill:#FFFFFF;}
	.st6{fill:#096B68;}
	.st7{fill-rule:evenodd;clip-rule:evenodd;fill:#EF8F48;}
	.st8{fill-rule:evenodd;clip-rule:evenodd;fill:#F99747;}
	.st9{fill-rule:evenodd;clip-rule:evenodd;fill:#FFFFFF;}
	.st10{fill-rule:evenodd;clip-rule:evenodd;fill:#096B68;}
	.st11{fill-rule:evenodd;clip-rule:evenodd;fill:#008080;}
	.st12{fill-rule:evenodd;clip-rule:evenodd;fill:#F4A989;}
	.st13{fill-rule:evenodd;clip-rule:evenodd;fill:#F8C8A2;}
	.st14{fill-rule:evenodd;clip-rule:evenodd;fill:#D67243;}
	.st15{fill-rule:evenodd;clip-rule:evenodd;fill:#F08F65;}
	.st16{fill-rule:evenodd;clip-rule:evenodd;fill:#1E639A;}
	.st17{fill-rule:evenodd;clip-rule:evenodd;fill:#001A36;}
	.st18{fill-rule:evenodd;clip-rule:evenodd;fill:#FF6D00;}
	.st19{fill-rule:evenodd;clip-rule:evenodd;fill:#FD9502;}
</style>
<path class="st0" d="M311.7,504.2c44.8,4.6,89.9,6.4,134.1,7.1c104.3,1.8,208.8-6.7,311.5-25.4c70.6-12.8,131.7-41.8,143.9-118.7
	c15.8-99.8-33-225.9-141.9-244.6c-33.7-5.8-68.7-5.5-101-16.6c-48.2-16.4-85.7-55.5-136.7-64.8c-52.1-9.4-110,1.7-151.8,36.6
	c-18.4,15.3-34.1,33.3-48.8,52.1c-11.4,14.6-21.9,32.8-39.2,41c-21.2,10.1-45.9,2.1-69.2-1c-39.9-5.3-86.9,7.6-116.7,35.3
	C64.7,234.3,55.4,288,59.6,328.3c5.5,52.8,31.6,102.4,76.8,131.6C187.4,492.9,252.8,498.2,311.7,504.2z"/>
<g>
	<path class="st1" d="M804.9,511.9c0,0,57.8-44.6,69.7-108.5c15.8-84.7-49.8-121.8-105.5-126.2c-24.2-1.9-104.2,13.7-112.9-66.5
		c-20.3-185-146.1-143.8-193.5-92.2c-66,71.7-166.4-11.8-248.4,26.9c-101.8,48-0.9,151-99.6,204.9c-77.4,42.3-26.5,161.6,34.8,161.6
		H804.9z"/>
	<path class="st2" d="M782.9,263.1c86.4,21.3,113.5,59.3,110.8,130.4C929,325.1,870,269.8,782.9,263.1L782.9,263.1z"/>
	<path class="st2" d="M70.6,459.4c-16.1-72.1,2.1-106.1,56-130.7C62.7,327.8,43.4,392.1,70.6,459.4L70.6,459.4z"/>
	<path class="st3" d="M599,493.2c0,0,7.9-9.3,0.5-15.2c0,0-5.4-3.3-9.8-3c0,0,6.2,10.6,4.2,11.7c-2,1.1-6.1-12.3-6.1-12.3
		s-12.5-1.2-16.4,0.7c0,0,10.7,8.7,8.4,9.2c-2.3,0.5-13.7-7.9-13.7-7.9s-11.6,1.9-10.9,9c0.6,7,4.6,9.2,6.4,9
		c1.7-0.2,11.9-4.1,12.2-2.6c0.3,1.4-6,6.1-10.3,6.3c0,0,8.2,9,13.6,6.4c5.4-2.6,5.9-6.8,9.2-8.2c3.3-1.5,6.2-1.5,4.9,0
		c-1.4,1.6-7.5,3.2-9.5,6.6c-1.9,3.3-3.6,5.7,2,4.9c5.6-0.9,14.7-5,15.1-9.7C599,493.2,599,493.2,599,493.2L599,493.2z"/>
	<path class="st4" d="M560.7,485.5c0,0,31.4-1.2,38.3,7.8c0,0,1.5,4.6,6.2,8.8l0.7,2c0,0-5.4-5.7-7.4-6.1
		C598.7,497.9,601.7,486.7,560.7,485.5L560.7,485.5z"/>
	<path class="st4" d="M605.3,502c0,0,6.8,5,7.2,13.9l-1.2,0.1c0,0-2.2-9.2-6.1-12.8C601.4,499.5,605.3,502,605.3,502L605.3,502z"/>
	<path class="st3" d="M617.2,481.5c0,0-12.6-7-6.8-16.7c0,0,4.8-6,9.8-7.4c0,0-2.7,14.4,0,14.7s1.9-16.2,1.9-16.2s13.4-6.4,18.6-6
		c0,0-8.3,14-5.6,13.6c2.7-0.3,11.9-14.5,11.9-14.5s13.7-2.5,15.9,5.6c2.2,8.1-1.4,12.2-3.3,12.6c-2,0.5-15,0.4-14.7,2
		c0.3,1.7,9.1,4.4,14,2.9c0,0-5.4,13.3-12.5,12.6c-7-0.7-9.3-5.1-13.7-5.4c-4.3-0.4-7.6,0.8-5.4,2c2.2,1.2,9.7,0.4,13.2,3.3
		c3.5,3,6.4,4.9-0.2,6.2c-6.6,1.4-18.4,0.5-20.8-4.5C617.2,481.5,617.2,481.5,617.2,481.5L617.2,481.5z"/>
	<path class="st4" d="M656.7,457.2c0,0-35.4,11.5-39.5,24.3c0,0,0.2,5.8-3.3,12.3v2.5c0,0,3.7-8.7,5.7-9.8
		C619.5,486.5,611.6,475.4,656.7,457.2L656.7,457.2z"/>
	<path class="st4" d="M613.8,493.9c0,0-5.5,8.3-2.3,18.4l1.4-0.4c0,0-1.4-11.1,1.5-16.8C617.2,489.5,613.8,493.9,613.8,493.9
		L613.8,493.9z"/>
	<path class="st3" d="M606.7,471.7c0,0,16.7-9.3,8.9-22c0,0-6.2-7.8-12.9-9.8c0,0,3.6,19,0,19.4c-3.5,0.4-2.4-21.3-2.4-21.3
		s-17.6-8.5-24.5-7.9c0,0,10.9,18.5,7.4,18.1c-3.5-0.5-15.8-19.2-15.8-19.2s-18.1-3.3-20.9,7.4c-2.9,10.7,1.7,16,4.4,16.6
		c2.7,0.7,19.8,0.5,19.4,2.7c-0.5,2.3-12,5.8-18.4,3.8c0,0,7,17.6,16.4,16.7c9.3-0.9,12.3-6.7,18.1-7.1c5.8-0.4,10,1.1,7,2.7
		c-2.9,1.5-12.6,0.5-17.3,4.4c-4.6,4-8.4,6.4,0.3,8.2c8.7,1.7,24.3,0.6,27.4-6.1C606.7,471.7,606.7,471.7,606.7,471.7L606.7,471.7z"
		/>
	<path class="st4" d="M554.6,439.6c0,0,46.7,15.2,52,32.1c0,0-0.3,7.6,4.4,16.3v3.3c0,0-4.9-11.4-7.6-12.9
		C603.6,478.4,614,463.7,554.6,439.6L554.6,439.6z"/>
	<path class="st4" d="M611.1,488c0,0,7.2,10.9,3.1,24.3l-1.9-0.5c0,0,1.8-14.6-2-22C606.6,482.3,611.1,488,611.1,488L611.1,488z"/>
	<path class="st3" d="M333,481.3c0,0-12.5-14.5-0.8-23.8c0,0,8.6-5.1,15.5-4.8c0,0-9.8,16.5-6.7,18.2c3.2,1.7,9.7-19.2,9.7-19.2
		s19.4-1.9,25.7,1.2c0,0-16.6,13.6-13.1,14.4c3.5,0.8,21.4-12.6,21.4-12.6s18.2,3.1,17.2,14.1c-1,11-7.2,14.5-9.9,14.2
		c-2.7-0.4-18.8-6.4-19.1-4.2c-0.4,2.2,9.3,9.6,16,9.9c0,0-12.7,14.1-21.2,10c-8.5-4.1-9.2-10.5-14.5-12.9c-5.2-2.4-9.8-2.4-7.6,0.1
		c2.2,2.4,11.7,4.8,14.7,10.1c3,5.3,5.8,8.9-3,7.7c-8.8-1.4-23-7.7-23.7-15.1C333,481.3,333,481.3,333,481.3L333,481.3z"/>
	<path class="st4" d="M393,469.2c0,0-49.1-1.9-60,12.1c0,0-2.4,7.2-9.8,13.7l-1.2,3.2c0,0,8.5-9,11.6-9.5
		C333.5,488.7,328.7,471.3,393,469.2L393,469.2z"/>
	<path class="st4" d="M323.1,495c0,0-10.6,7.8-11.3,21.7l1.9,0.2c0,0,3.3-14.4,9.5-20.1C329.4,491.2,323.1,495,323.1,495L323.1,495z
		"/>
	<path class="st3" d="M304.6,463c0,0,19.9-11.1,10.7-26.1c0,0-7.4-9.3-15.4-11.7c0,0,4.2,22.5,0,23c-4.2,0.5-3-25.4-3-25.4
		s-20.9-10-29-9.2c0,0,12.9,22,8.7,21.4c-4.2-0.5-18.8-22.8-18.8-22.8s-21.4-4-24.8,8.8c-3.4,12.6,2.1,19,5.2,19.8
		c3.2,0.8,23.5,0.5,22.9,3.2c-0.5,2.6-14.3,6.9-22,4.4c0,0,8.5,20.9,19.6,19.9c11.1-1.1,14.5-7.9,21.4-8.5s11.8,1.4,8.4,3.2
		c-3.4,1.9-15,0.6-20.6,5.3c-5.5,4.7-10,7.7,0.3,9.8c10.3,2.1,28.8,0.8,32.5-7.1C304.6,463,304.6,463,304.6,463L304.6,463z"/>
	<path class="st4" d="M242.7,425c0,0,55.5,18,61.8,38c0,0-0.3,9,5.3,19.3v4c0,0-5.9-13.5-9-15.4C300.9,471,313.4,453.6,242.7,425
		L242.7,425z"/>
	<path class="st4" d="M309.9,482.3c0,0,8.5,13,3.6,28.8l-2.2-0.5c0,0,2.2-17.4-2.3-26.2C304.5,475.6,309.9,482.3,309.9,482.3
		L309.9,482.3z"/>
	<path class="st3" d="M320.9,447.7c0,0-26.1-14.6-13.9-34.5c0,0,9.8-12.2,20.2-15.4c0,0-5.6,29.6,0,30.3c5.6,0.7,3.8-33.4,3.8-33.4
		s27.6-13.3,38.4-12.2c0,0-17.2,28.9-11.6,28.2c5.6-0.7,24.8-30,24.8-30s28.2-5.2,32.7,11.5c4.5,16.7-2.8,25.1-7,26.1
		c-4.2,1.1-31,0.7-30.3,4.2c0.7,3.5,18.8,9,28.9,6c0,0-11.1,27.6-25.7,26.1c-14.6-1.4-19.2-10.5-28.3-11.1c-9-0.7-15.7,1.7-11.1,4.2
		c4.5,2.4,19.9,0.8,27.2,7c7.3,6.2,13.3,10-0.4,12.8c-13.6,2.8-38,1.1-42.9-9.4C320.9,447.7,320.9,447.7,320.9,447.7L320.9,447.7z"
		/>
	<path class="st4" d="M402.5,397.5c0,0-73.2,23.7-81.6,50.1c0,0,0.4,11.8-7,25.4v5.2c0,0,7.7-17.8,11.8-20.2
		C325.8,458.2,309.4,435.2,402.5,397.5L402.5,397.5z"/>
	<path class="st4" d="M313.9,473.2c0,0-11.3,17.2-4.8,37.9l2.9-0.7c0,0-2.8-22.9,3.1-34.5C321,464.3,313.9,473.2,313.9,473.2
		L313.9,473.2z"/>
	<path class="st3" d="M216.7,496.8c-2.2,6.8,1.4,12.7,4.7,16.6c0.6-0.1,1,0.1,1.7,0.1c6.1,0.7,8.7-0.4,14.6-0.7
		c1.4-0.1,5-1.5,6.4-2.2l2.7-1.4c0,0,3.1-16-5.3-19.3c-8.4-3.3-7.3-19-7.7-27.5c-0.3-5.1-1.9-7.6-2.3-9.5c-4-20.1,0.9-26.8-4.2-32.7
		c-5.6-6.5-13.1-0.3-19.5-7c-7.2-7.6-2.5-20.7-10.8-26.4c-1.4-1-2.9-2-5.1-2.3c-5.4-1.1-9.2,2.7-13.5-1.4
		c-8.7-8.4-21.3-10.1-27.6,0.3c-6,10.3,5.1,28,28.7,40.3c16,10.8,16.6,14.5,16.6,23.8c0,6.5-4,23.9,5.5,29.6
		C211.6,482.8,219.2,489.2,216.7,496.8L216.7,496.8z"/>
	<path class="st5" d="M234.7,513.5l0.4-0.1c-0.6-2.5-1.4-5.1-2-7.6c-5.1-18.5-11.9-35.9-20-51.6c-6.9-13.4-14.7-25.7-23.5-36.7
		c-7-8.9-14.7-16.9-22.7-23.9c-4.9-4.3-9.9-8.2-14.9-11.6c-0.1,0.1-0.1,0.3-0.3,0.4c5,3.3,10,7.2,14.9,11.6c8,7,15.6,15,22.7,23.8
		c8.7,10.9,16.6,23.3,23.5,36.6c8,15.7,14.8,33.1,20,51.5C233.3,508.5,234.1,511,234.7,513.5L234.7,513.5z"/>
	<path class="st5" d="M199.3,431.7l0.4-0.3c-8.7-13.8-7.6-39.7-7.1-46.7c-0.1-0.1-0.3-0.1-0.4-0.1
		C191.6,391.7,190.5,417.8,199.3,431.7L199.3,431.7z"/>
	<path class="st5" d="M223.6,478.9l0.4-0.2c-4.8-10-23-16.3-28.4-17.9c0,0.2,0,0.3,0,0.5C201.1,463,219,469.2,223.6,478.9
		L223.6,478.9z"/>
	<path class="st5" d="M226.2,485.8l0.5-0.2c-2.3-8.1-1-20.4,3.6-34.6v-0.1c-0.1-0.2-0.2-0.3-0.3-0.5c-0.1,0.1-0.1,0.3-0.1,0.4
		C225.2,465.2,223.9,477.6,226.2,485.8L226.2,485.8z"/>
	<path class="st5" d="M233.4,508.9l0.4-0.3c-4.2-6.6-14.3-8.9-17.6-9.3c-0.1,0.1-0.1,0.3-0.1,0.4
		C219.4,500.4,229.4,502.5,233.4,508.9L233.4,508.9z"/>
	<path class="st5" d="M235.3,513.5c0.7-7.2,3.5-14.5,8.4-22.1c-0.1-0.1-0.3-0.2-0.4-0.3c-5,7.7-7.7,15.1-8.4,22.3L235.3,513.5z"/>
	<path class="st5" d="M171.2,398.3l0.4-0.3c-5.6-7.9-9.8-17.2-11.5-21.3c-0.2,0.1-0.3,0.1-0.5,0.1
		C161.4,380.9,165.6,390.3,171.2,398.3L171.2,398.3z"/>
	<path class="st5" d="M183.2,410.6l0.3-0.4c-6.4-4.9-20.6-4-26-3.4c0.1,0.1,0.3,0.3,0.4,0.4C163.5,406.8,177.1,406.1,183.2,410.6
		L183.2,410.6z"/>
	<path class="st3" d="M204.3,512.4c0.1,0,0.3,0.1,0.4,0.1c7.2,2.1,15.5,3.2,24.9,2.3c1.9-0.3,3.6-0.5,5.5-0.8c1-4.5,1.2-9-4.6-10
		c-8.9-1.6-10.9-16.9-9.2-22.5c2.2-7,7-23.5-6.9-26.2c-11.5-2.3-19.4-1.4-21.9-15.5c-2.4-14.3-11.3-22.3-24.1-20
		c-13.6,2.4-26.8-14.5-37.3-7c-18.2,12.8,3,42.4,27.7,48.8c24.8,6.4,12.1,16.5,12.8,28.4c0.9,16.1,22.1,10.1,28.6,15.8
		C202.5,507.6,203.7,509.9,204.3,512.4L204.3,512.4z"/>
	<path class="st5" d="M218.2,514.9l0.5-0.3c-14.4-44-49.5-81-92.2-97.3c-0.1,0.2-0.3,0.4-0.4,0.5C168.7,434.1,203.8,471,218.2,514.9
		L218.2,514.9z"/>
	<path class="st5" d="M208,491l0.6-0.1c-1.8-15.3,7.4-29,10.8-33.5c-0.2-0.1-0.4-0.3-0.5-0.4C215.5,461.7,206.2,475.5,208,491
		L208,491z"/>
	<path class="st5" d="M215.2,506.7l0.5-0.4c-9.3-13.4-36.2-13.9-43.7-13.9c0.1,0.3,0.1,0.5,0.2,0.6
		C179.8,493,206.1,493.7,215.2,506.7L215.2,506.7z"/>
	<path class="st5" d="M180.4,453.6l0.5-0.4c-6-10.3-3.2-26.4-1.7-32.7c-0.2-0.1-0.4-0.1-0.5-0.2C177.1,426.6,174.3,443,180.4,453.6
		L180.4,453.6z"/>
	<path class="st5" d="M157.2,434.2l0.3-0.5c-10.8-5-24.6-2.9-32.1-1.1c0.1,0.2,0.2,0.4,0.3,0.5C133.1,431.3,146.6,429.3,157.2,434.2
		L157.2,434.2z"/>
	<path class="st3" d="M710.2,489c3.2,9.8-2.1,18.6-6.9,24.4c-0.9-0.1-1.5,0.1-2.4,0.3c-8.9,1-12.7-0.5-21.5-1.1
		c-1.9-0.1-7.2-2.2-9.4-3.2l-4-1.9c0,0-4.5-23.6,7.8-28.4c12.4-4.8,10.8-27.8,11.3-40.3c0.4-7.6,2.8-11.1,3.3-13.9
		c5.8-29.5-1.4-39.4,6.1-48c8.2-9.5,19.2-0.4,28.5-10.3c10.7-11.2,3.6-30.4,15.8-38.7c2.1-1.4,4.2-2.8,7.4-3.5
		c7.9-1.5,13.4,3.9,19.8-2.2c12.7-12.2,31.3-14.9,40.2,0.5c8.9,15.2-7.4,41-42.1,59.1c-23.4,15.8-24.4,21.2-24.5,34.9
		c0,9.6,6,35.1-8,43.4C717.7,468.5,706.7,477.8,710.2,489L710.2,489z"/>
	<path class="st5" d="M684,513.5l-0.6-0.2c0.9-3.7,1.9-7.4,3-11.1c7.6-27.2,17.4-52.6,29.4-75.6c10-19.5,21.6-37.6,34.5-53.7
		c10.3-12.9,21.5-24.8,33.2-35.1c7.2-6.2,14.5-11.9,21.9-17c0.1,0.2,0.3,0.4,0.4,0.5c-7.2,5-14.5,10.6-21.8,16.9
		c-11.7,10.2-22.9,22-33.2,35c-12.7,16.1-24.4,34.1-34.3,53.6c-11.8,23-21.7,48.4-29.3,75.5C685.9,506,684.9,509.8,684,513.5
		L684,513.5z"/>
	<path class="st5" d="M735.7,393.6l-0.5-0.4c12.7-20.2,11.1-58.2,10.5-68.5c0.3-0.1,0.4-0.1,0.6-0.1
		C747,334.8,748.6,373.2,735.7,393.6L735.7,393.6z"/>
	<path class="st5" d="M700,462.7l-0.5-0.3c7-14.6,33.9-23.8,41.6-26.1c0,0.3,0,0.4,0,0.6C733.2,439.4,707,448.4,700,462.7L700,462.7
		z"/>
	<path class="st5" d="M696.2,472.8l-0.6-0.2c3.3-11.9,1.4-30-5.3-50.8v-0.1c0.2-0.3,0.3-0.5,0.5-0.7c0.1,0.2,0.1,0.4,0.2,0.5
		C697.7,442.6,699.6,460.8,696.2,472.8L696.2,472.8z"/>
	<path class="st5" d="M685.8,506.7l-0.5-0.3c6-9.7,20.9-12.9,25.8-13.7c0.1,0.3,0.1,0.4,0.1,0.6
		C706.2,494.1,691.5,497.4,685.8,506.7L685.8,506.7z"/>
	<path class="st5" d="M683,513.5c-1.1-10.6-5.1-21.2-12.3-32.4c0.2-0.1,0.4-0.3,0.5-0.4c7.2,11.3,11.3,22,12.4,32.7L683,513.5z"/>
	<path class="st5" d="M776.9,344.5l-0.5-0.4c8.2-11.5,14.3-25.2,16.9-31.3c0.3,0.1,0.4,0.1,0.6,0.2
		C791.3,319,785.1,332.9,776.9,344.5L776.9,344.5z"/>
	<path class="st5" d="M759.3,362.8l-0.4-0.5c9.4-7.1,30.2-5.9,38.1-5.1c-0.2,0.2-0.4,0.4-0.5,0.5C788.2,357.1,768.2,356,759.3,362.8
		L759.3,362.8z"/>
	<path class="st3" d="M728.3,511.8c-0.3,0.1-0.4,0.1-0.5,0.2c-10.6,3.2-22.7,4.6-36.5,3.5c-2.7-0.4-5.3-0.8-8-1.2
		c-1.5-6.7-1.7-13.3,6.8-14.7c13.2-2.3,16-24.8,13.5-33.1c-3.2-10.3-10.1-34.4,10.1-38.4c16.9-3.3,28.5-2,32.1-22.9
		c3.5-20.9,16.5-32.6,35.3-29.2c19.9,3.6,39.4-21.2,54.7-10.4c26.8,18.8-4.3,62.1-40.7,71.5c-36.3,9.4-17.8,24.2-18.9,41.5
		c-1.4,23.6-32.5,15-41.9,23.2C731,504.8,729.3,508.3,728.3,511.8L728.3,511.8z"/>
	<path class="st5" d="M708.1,515.4l-0.9-0.3c21.1-64.6,72.7-118.8,135.2-142.6c0.2,0.3,0.4,0.5,0.5,0.8
		C780.4,397.1,729.1,451.1,708.1,515.4L708.1,515.4z"/>
	<path class="st5" d="M722.9,480.4l-0.9-0.1c2.6-22.3-10.9-42.5-16-49c0.3-0.3,0.5-0.4,0.8-0.5C712,437.5,725.6,457.8,722.9,480.4
		L722.9,480.4z"/>
	<path class="st5" d="M712.4,503.4l-0.7-0.5c13.7-19.6,53.1-20.4,64.1-20.3c-0.1,0.4-0.2,0.7-0.3,1
		C764.4,483.4,725.8,484.4,712.4,503.4L712.4,503.4z"/>
	<path class="st5" d="M763.5,425.6l-0.8-0.5c8.8-15.2,4.6-38.8,2.5-47.9c0.3-0.1,0.5-0.3,0.9-0.4
		C768.2,386.1,772.5,410.1,763.5,425.6L763.5,425.6z"/>
	<path class="st5" d="M797.3,397.2l-0.4-0.8c15.8-7.3,36-4.2,47.1-1.6c-0.1,0.3-0.2,0.5-0.3,0.9C832.7,393,812.9,390.1,797.3,397.2
		L797.3,397.2z"/>
	<path class="st2" d="M476.3,524.4c205.7,0,373.6-4.2,373.6-9.5c0-5.2-167.9-9.5-373.6-9.5c-205.8,0-373.6,4.2-373.6,9.5
		C102.7,520.1,270.5,524.4,476.3,524.4L476.3,524.4z"/>
	<path class="st6" d="M595.1,444.3c13.6,6.6,27,13.1,40.6,19.7c13.5,6.6,26.9,13.1,40.4,19.8c9.1,4.4,19.6-1.2,23.4-12.7
		c13.6-41.6,27.4-83.3,41.1-125c13.7-41.6,27.4-83.4,41.2-125c3.8-11.5-0.3-25.4-15.4-28.8l-82.9-15.8c-9.8-2.3-25.1,0.5-28.5,10.8
		c-12.5,37.8-20.4,79.5-32.9,117.2c-12.5,37.8-29.3,71.5-41.6,109.2C575.9,426.6,582.2,437.8,595.1,444.3L595.1,444.3z"/>
	<path class="st4" d="M628,260c-0.5-0.1-0.9-0.3-1.4-0.4c-0.6-0.3-1-1.1-0.7-1.8c3.3-9.8,6.4-19.6,9.7-29.5c0.3-0.7,1-1.1,1.7-0.9
		c0.4,0.2,0.9,0.3,1.3,0.4C635.1,238.5,631.5,249.2,628,260L628,260z"/>
	<path class="st4" d="M586.8,439.6c13.6,6.6,27,13.1,40.6,19.7c13.5,6.6,26.9,13.1,40.4,19.8c9.1,4.4,19.6-1.2,23.4-12.7
		c13.7-41.6,27.4-83.4,41.1-125c13.7-41.6,27.4-83.3,41.2-125c3.8-11.5-1.2-22.6-11-24.8c-14.6-3.3-29.2-6.6-43.7-9.8
		c-14.5-3.3-29.1-6.6-43.6-9.8c-9.8-2.3-20.7,4.4-24,14.7c-12.5,37.8-24.8,75.5-37.3,113.2c-12.5,37.8-24.8,75.4-37.2,113.2
		C572.9,423.1,577.6,435,586.8,439.6L586.8,439.6z"/>
	<path class="st4" d="M686.5,464.7c13.7-41.6,27.5-83.4,41.2-125c13.7-41.7,27.5-83.4,41.2-125.1c2.7-8.3-0.9-16.4-7.9-18
		c-14.7-3.3-29.3-6.8-43.9-10.1c-14.6-3.3-29.3-6.8-43.9-10.1c-7-1.5-14.9,3.2-17.3,10.7c-12.6,38-25.1,76.2-37.6,114.1
		c-12.5,37.9-25,76.1-37.5,114c-2.5,7.6,0.9,16.2,7.5,19.4c13.6,6.6,27.2,13.1,40.7,19.6c13.6,6.6,27.2,13.1,40.7,19.7
		C676.2,477,683.8,472.9,686.5,464.7L686.5,464.7z"/>
	<path class="st5" d="M685.6,464.3c13.1-39.9,26.2-79.9,39.4-119.8c13.1-39.9,26.3-79.9,39.4-119.8c-18.4-4.7-36.9-9.3-55.5-14.1
		c-18.4-4.6-36.9-9.3-55.5-13.9c-12,36.5-24,73-36,109.4c-12,36.5-24,72.9-36,109.4c-2.3,7,0.8,15,6.9,17.9
		c13.6,6.6,27.2,13.1,40.8,19.6c13.6,6.6,27.2,13.1,40.8,19.7C676.1,475.8,683.1,471.9,685.6,464.3L685.6,464.3z"/>
	<path class="st5" d="M652.9,198.7c18.4,4.7,36.9,9.3,55.5,14c18.4,4.7,36.9,9.4,55.4,14.1c1.4-4.2,2.8-8.4,4.2-12.6
		c2.5-7.6-0.8-15-7.4-16.5c-14.6-3.4-29.3-6.8-43.9-10.1c-14.6-3.4-29.4-6.8-43.9-10.1c-6.6-1.5-13.7,2.8-16,9.8
		C655.3,191,654.1,194.9,652.9,198.7L652.9,198.7z"/>
	<path class="st5" d="M585.3,403.9c17.4,7.9,34.9,15.8,52.2,23.8c17.4,7.9,34.9,15.8,52.2,23.8c11.9-36.1,23.8-72.4,35.8-108.6
		c11.9-36.1,23.8-72.4,35.7-108.6c-18.4-4.8-36.9-9.6-55.3-14.4c-18.4-4.8-36.9-9.5-55.3-14.4c-10.8,33.1-21.8,66.2-32.6,99.2
		C607.1,337.7,596.2,370.9,585.3,403.9L585.3,403.9z"/>
	<path class="st5" d="M685.6,464.3c0.7-2.3,1.5-4.9,2.3-7.2c-17.4-8-34.8-16.1-52.2-24c-17.3-8-34.7-16-52-24
		c-0.7,2.2-1.5,4.4-2.2,6.6c-2.3,7,0.8,15,6.9,17.9c13.6,6.6,27.2,13.1,40.8,19.6c13.6,6.6,27.2,13.1,40.8,19.7
		C676.1,475.8,683.1,471.9,685.6,464.3L685.6,464.3z"/>
	<path class="st4" d="M579.3,416.9c12.8-38.7,25.5-77.3,38.2-116c12.7-38.7,25.4-77.4,38.1-116.1c1.6-4.9,5.2-8.7,9.5-10.8
		c-5.1,1.6-9.7,6-11.7,11.7c-12.6,38.2-25.1,76.4-37.7,114.6c-12.6,38.3-25.1,76.4-37.7,114.6c-1.9,5.6-0.8,11.9,2.3,16.5
		C578.3,427.1,577.8,421.8,579.3,416.9L579.3,416.9z"/>
	<path class="st4" d="M686.3,467.2c14-42.5,27.9-84.9,41.9-127.3c13.9-42.5,27.9-84.9,41.9-127.4c1.7-5.4,1.2-10.7-1.2-14.5
		c3.3,3.9,4.5,10.1,2.4,16.4c-13.8,42-27.6,84.1-41.5,126.1c-13.8,42.1-27.7,84.1-41.5,126.1c-2,6.2-6.6,10.4-11.5,11.4
		C681,476.3,684.6,472.5,686.3,467.2L686.3,467.2z"/>
	<path class="st2" d="M689.1,251.6c-22.3-1.9-47.2,31.1-55.5,73.5c-8.2,42.5,3.2,78.4,25.6,80.2c22.3,1.9,47.2-31,55.5-73.4
		C722.9,289.3,711.5,253.4,689.1,251.6L689.1,251.6z"/>
	<path class="st7" d="M667.2,247c0,0-74.5,42.5-102.4,53.9c-30.7,12.7-25.1,17.9-20.9,46.3c4.3,28.5,11.7,50.8,43.2,38.9
		c31.6-11.9,60.9-16.8,97.7-30.4C721.5,342.1,735.6,243,667.2,247L667.2,247z"/>
	<path class="st8" d="M667.2,247c0,0-74.5,42.5-102.4,53.9c-25.4,10.5-26,15.9-22.9,33.5c6.2,8.4,8.5,14.3,32.5,5.2
		c23.9-9,71.3-20.6,97.7-30.4c26.4-9.8,27.7-28,30.2-50.9C694.4,250.7,683.1,246,667.2,247L667.2,247z"/>
	<path class="st7" d="M550.2,318.1l-26.3,8.6c0,0-4.7,11.3-0.4,33c4.2,21.7,20.4,34.6,20.4,34.6l27.2-10.9
		C571.1,383.4,580,344.7,550.2,318.1L550.2,318.1z"/>
	<path class="st9" d="M550.2,318.1l-26.3,8.6c12.1,1.7,22.4,17.2,24.9,28.5c6.8-2.5,12.7-7.9,17.6-14.9
		C563,332.7,557.8,325.1,550.2,318.1L550.2,318.1z"/>
	<path class="st6" d="M349.7,437.7c-14.3,5.1-28.5,10.2-42.8,15.4c-14.3,5.1-28.5,10.2-42.8,15.4c-9.7,3.4-20.1-3.6-23.3-15.8
		c-11.7-44.4-23.4-88.9-35.1-133.3c-11.7-44.4-23.5-88.9-35.1-133.3c-3.3-12.3,1.7-26,17.6-27.7l86.4-6.2
		c10.3-1.2,25.8,3.5,28.7,14.5c10.7,40.3,16.4,84,27,124.2c10.7,40.2,26,76.9,36.6,117.1C370.5,421.9,363.2,432.6,349.7,437.7
		L349.7,437.7z"/>
	<path class="st4" d="M326.5,244.4c0.5,0,0.9-0.1,1.4-0.2c0.7-0.2,1.1-0.9,0.9-1.7c-2.8-10.5-5.5-21-8.3-31.4
		c-0.2-0.7-0.9-1.3-1.6-1.2c-0.5,0.1-0.9,0.1-1.4,0.2C320.4,221.6,323.4,233,326.5,244.4L326.5,244.4z"/>
	<path class="st4" d="M358.6,433.8c-14.3,5.1-28.5,10.2-42.8,15.4c-14.2,5.1-28.5,10.3-42.7,15.4c-9.7,3.4-20.1-3.6-23.4-15.9
		c-11.7-44.4-23.5-88.9-35.1-133.3c-11.7-44.4-23.5-88.9-35.1-133.3c-3.3-12.3,2.5-23,12.8-24.3c15.2-1.6,30.4-3.3,45.5-4.9
		c15.2-1.6,30.4-3.3,45.5-4.9c10.3-1.2,21,7,23.9,18c10.7,40.3,21.2,80.5,31.9,120.7c10.7,40.3,21.2,80.5,31.8,120.7
		C373.8,418.5,368.2,430.3,358.6,433.8L358.6,433.8z"/>
	<path class="st4" d="M254.4,447.6c-11.7-44.4-23.5-89-35.1-133.3c-11.7-44.4-23.4-89-35.1-133.4c-2.3-8.8,1.9-16.6,9.2-17.4
		c15.3-1.7,30.5-3.4,45.7-5.1c15.4-1.7,30.6-3.4,45.9-5.1c7.4-0.8,15.2,5,17.3,13.1c10.7,40.6,21.4,81.1,32.1,121.7
		c10.7,40.6,21.3,81.1,32.1,121.6c2.2,8-1.8,16.5-8.9,19.1c-14.4,5.1-28.8,10.1-43.1,15.3c-14.4,5.1-28.7,10.2-43.1,15.4
		C264.2,461.5,256.7,456.5,254.4,447.6L254.4,447.6z"/>
	<path class="st5" d="M255.3,447.4c-11.1-42.6-22.4-85.1-33.6-127.7c-11.2-42.6-22.5-85.1-33.7-127.7c19.2-2.6,38.6-5.1,57.9-7.7
		c19.3-2.5,38.7-5.1,57.9-7.7c10.3,38.9,20.6,77.9,30.8,116.7c10.3,38.9,20.6,77.8,30.8,116.7c2,7.4-1.7,15.3-8.1,17.5
		c-14.4,5.1-28.8,10.1-43.2,15.3c-14.4,5.1-28.7,10.1-43.1,15.3C264.4,460.2,257.5,455.5,255.3,447.4L255.3,447.4z"/>
	<path class="st5" d="M304.4,178.6c-19.3,2.5-38.6,5.1-57.9,7.7c-19.2,2.6-38.6,5.2-57.9,7.9c-1.2-4.4-2.3-8.9-3.5-13.4
		c-2.2-8.1,1.6-15.4,8.5-16.2c15.3-1.7,30.6-3.5,45.9-5.1c15.3-1.7,30.5-3.5,45.9-5.1c6.9-0.8,13.9,4.6,15.9,12
		C302.3,170.3,303.3,174.4,304.4,178.6L304.4,178.6z"/>
	<path class="st5" d="M362.1,397.4c-18.3,6.1-36.8,12.1-55.2,18.2c-18.4,6.1-36.8,12.1-55.2,18.2c-10.2-38.6-20.4-77.2-30.5-115.7
		c-10.2-38.6-20.4-77.2-30.5-115.8c19.2-2.7,38.5-5.4,57.8-8.2c19.2-2.7,38.6-5.4,57.8-8c9.3,35.2,18.6,70.6,27.8,105.8
		C343.5,326.8,352.9,362.1,362.1,397.4L362.1,397.4z"/>
	<path class="st5" d="M255.3,447.4c-0.6-2.5-1.3-5.1-2-7.7c18.3-6.1,36.7-12.4,55.1-18.4c18.3-6.1,36.8-12.2,55.1-18.4
		c0.6,2.3,1.3,4.7,1.9,7c2,7.4-1.7,15.3-8.1,17.5c-14.4,5.1-28.8,10.1-43.2,15.3c-14.4,5.1-28.7,10.1-43.1,15.3
		C264.4,460.2,257.5,455.5,255.3,447.4L255.3,447.4z"/>
	<path class="st4" d="M367.5,411.4c-10.9-41.2-21.8-82.5-32.6-123.7c-10.9-41.2-21.8-82.5-32.6-123.7c-1.4-5.2-4.9-9.6-9.1-12.2
		c5.2,2.3,9.7,7.2,11.3,13.3c10.8,40.7,21.5,81.5,32.3,122.2c10.8,40.7,21.5,81.5,32.3,122.2c1.5,6,0.1,12.3-3.3,16.6
		C367.9,422,368.9,416.6,367.5,411.4L367.5,411.4z"/>
	<path class="st4" d="M254.4,450.1c-11.9-45.2-23.8-90.5-35.9-135.8c-11.9-45.3-23.8-90.6-35.9-135.8c-1.5-5.8-0.5-11.1,2.1-14.7
		c-3.7,3.6-5.2,9.8-3.5,16.4c11.8,44.8,23.7,89.7,35.5,134.5c11.7,44.8,23.7,89.6,35.5,134.4c1.7,6.7,6.1,11.5,11.2,13.1
		C259.4,460.2,255.9,455.9,254.4,450.1L254.4,450.1z"/>
	<path class="st2" d="M248.2,231.3c22-4.6,50.6,25,64.1,66.1c13.4,41.2,6.4,78.2-15.5,82.8c-22,4.6-50.6-25-64.1-66.1
		C219.2,273.1,226.2,235.9,248.2,231.3L248.2,231.3z"/>
	<path class="st10" d="M280.4,219.9c0,0,70.6,48.7,97.3,62.6c29.5,15.4,23.6,20.1,16.8,48c-6.8,28-16,49.6-46.3,35.1
		c-30.4-14.5-59.3-22-94.7-38.8C218,310,212.6,210.1,280.4,219.9L280.4,219.9z"/>
	<path class="st11" d="M280.4,219.9c0,0,70.6,48.7,97.3,62.6c24.5,12.7,24.6,18.2,20.1,35.5c-7,7.8-9.8,13.5-32.9,2.3
		s-69.2-26.7-94.7-38.8s-25.2-30.3-25.7-53.2C252.9,221.2,264.7,217.7,280.4,219.9L280.4,219.9z"/>
	<path class="st11" d="M390.8,301l25.4,10.8c0,0,3.7,11.7-2.3,32.9c-6.1,21.2-23.4,32.7-23.4,32.7l-26.2-13.2
		C364.3,364.2,358.8,324.9,390.8,301L390.8,301z"/>
	<path class="st9" d="M390.8,301l25.4,10.8c-12.2,0.7-23.8,15.2-27.3,26.2c-6.5-3.1-11.9-8.9-16.2-16.4
		C376.8,314.4,382.6,307.2,390.8,301L390.8,301z"/>
	<path class="st12" d="M415.6,324.1l26.1,16.4c0,0,25.9-1.4,28.4,3.6c2.3,5-1.6,15.4-1.6,15.4l37.7,30.8c0,0-28.6,36.3-44.4,27.6
		c-15.8-8.7-44.4-28.8-44.4-28.8l-7.2-16.5l-15.5-9C384.7,357.3,399.3,314.7,415.6,324.1L415.6,324.1z"/>
	<path class="st13" d="M415.6,324.1l26.1,16.4c0,0,25.8-1.7,28.4,3.6c2.5,5.2-0.4,7.9-1.1,12.1c-7.2,3.8-21.5,11-30.8,11.9
		c-12.7,1.2-16.4-14.8-24.6-23.9C405.3,334.9,415.6,324.1,415.6,324.1L415.6,324.1z"/>
	<path class="st14" d="M528.1,337.7l-33.4,8.7c0,0-17.8-5.1-24.7-2.3c-6.9,2.8-31.8,24-31.8,24s-4.4,5.8,8.5,3.8
		c12.9-1.9,25.5-9.3,25.5-9.3s21.9,23.4,33.9,27.7c12.1,4.3,36.4-12.6,36.4-12.6S548.2,349.3,528.1,337.7L528.1,337.7z"/>
	<path class="st15" d="M528.1,337.7l-33.4,8.7c0,0-17.8-5.1-24.7-2.3c-6.9,2.8-31.8,24-31.8,24c12.8-1.2,35.2-14.4,35.2-14.4
		s9.5,16,28.5,14.7C521,367.1,533.3,345.7,528.1,337.7L528.1,337.7z"/>
	<path class="st14" d="M418.6,390.2c0,0,22.5-8.4,25.9-8c3.4,0.3,6.1,4.6,2.3,7.4c-3.6,2.8-16.5,9.9-18.2,10.8
		C426.9,401.3,418,398.4,418.6,390.2L418.6,390.2z"/>
	<path class="st14" d="M428,399.4c0,0,22.3-9.5,25.7-9.2c3.4,0.3,6.1,4.6,2.3,7.4c-3.6,2.8-17,10.2-17,10.2S427.3,407.4,428,399.4
		L428,399.4z"/>
	<path class="st14" d="M439.1,407.2c0,0,21.2-10.2,24.4-10c3.1,0.3,5.5,4.2,2.2,6.8c-3.3,2.5-15.4,9.3-15.4,9.3
		S438.4,414.4,439.1,407.2L439.1,407.2z"/>
	<path class="st14" d="M450,411.4c0,0,15.8-5.1,17.8-4.4c2,0.6,2.9,4.2,0.3,5.7c-2.7,1.6-11.7,5.2-11.7,5.2S448.3,417,450,411.4
		L450,411.4z"/>
	<path class="st8" d="M443.3,295.7L443.3,295.7c16.4,0.1,29.8,13.5,29.8,29.8l0,0c0-16.4,13.4-29.8,29.8-29.8v-0.1
		c-16.4,0-29.8-13.4-29.8-29.8l0,0C473.1,282.4,459.7,295.7,443.3,295.7L443.3,295.7z"/>
	<path class="st8" d="M496.2,272.5L496.2,272.5c11.5,0,21,9.5,21,21l0,0c0-11.6,9.4-21,21-21l0,0c-11.6,0-21-9.4-21-21l0,0
		C517.2,263.1,507.7,272.5,496.2,272.5L496.2,272.5z"/>
	<path class="st11" d="M783.5,514.9c0,0,32.1-33.9,16-33.9s-23.9,16.2-40.1,11.1c-16.2-5.1,17.5-29,2.2-32.6
		c-24.9-5.9-33.2,22.4-44.1,25c-10.9,2.5-8.5-35.6-31.8-31.2c-9.2,1.7,3.8,28.4-5,33.1c-13.4,7.2-20.1-29.3-27.2-26.1
		c-10.1,4.5,4.8,27.7-21.3,22.1c-26.2-5.4,9.8,13.6-11.5,16c-21.2,2.3,3.5,16.4,3.5,16.4L783.5,514.9L783.5,514.9z"/>
	<path class="st11" d="M693.3,457.4c0,0-9.5-14-13.8-18.3c-4.3-4.3-6.4-9-9.1-14.8s-7.6-11.4-9.9-12.5c-2.3-1.1-3.3-2-1.4,1.8
		c1.8,3.9,7.4,11.4,9.1,17.1c1.7,5.8,4.3,13.6,5.8,16c1.4,2.3,5.6,6.8,9,9.3c3.5,2.5,7,4.4,8.7,6
		C693.3,463.3,700.1,467.5,693.3,457.4L693.3,457.4z"/>
	<path class="st5" d="M659.7,412.3c0,0,4.2,3,7.2,9.6c7,17.6,11.7,23.1,15.8,27.9c0.6,0.7,1.3,1.4,1.9,2.2l0,0h0.1l0.9,1
		c4.5,4.3,13.1,12.6,17.3,20.2l0.4-0.4c-4.2-7.8-12.7-16-17.3-20.4l-0.9-0.9c-0.6-0.7-1.3-1.4-1.9-2.2c-4.2-4.8-8.9-10.2-15.8-27.7
		c-1.4-3.4-4.8-7.8-7.5-9.7C658.5,410.9,658.1,410.7,659.7,412.3L659.7,412.3z"/>
	<path class="st11" d="M742.4,466.4c0,0,14.1-32.6,22.3-44c8.2-11.4,9.8-21.3,12.6-33.7c2.8-12.5,11.4-26.4,16.7-30.3
		c5.2-4,7.2-6.6,5.4,1.7c-1.7,8.4-10.8,26.3-10.8,37.7c0,11.5-0.5,27.4-2.3,32.8c-1.8,5.3-9.7,16.8-16.9,24.1
		c-7.2,7.4-15.1,13.9-18.6,18C747.3,476.6,732.2,489.9,742.4,466.4L742.4,466.4z"/>
	<path class="st5" d="M796.2,358.7c0,0-8.7,8.9-11.6,22.9c-4.4,36.7-12.8,50.4-20.1,62.3c-1.2,1.9-2.3,3.6-3.3,5.6l0,0v0.1l-1.9,2.5
		c-8.7,11.5-25.1,33.2-30.1,50.3l-1.4-0.3c5.1-17.2,21.5-39.1,30.3-50.6l1.8-2.4c1.1-1.9,2.2-3.6,3.3-5.6
		c7.2-11.8,15.6-25.5,20.1-62c1-7.2,6.5-17.7,12.2-23.5C798.5,355.1,799.4,354.5,796.2,358.7L796.2,358.7z"/>
	<path class="st11" d="M728.9,458.8c0,0,7.4-5.1,6.7-14.2c-0.8-9-0.2-12.5,4.4-31.2c4.5-18.7,3.2-36.5-4.9-49.6
		c-8-13.1-6.8-12.9-9-18c-2.3-5-4.2-9.3-4.2-1.6s4.3,38.2,2,44.3c-2.2,6.1-11.8,21.9-8.1,29.8c3.6,7.9,7.7,14.1,7.4,18.7
		c-0.3,4.1,0.1,22,4.1,22.5c-0.6,10.2-0.1,27.5,7,48.9l1.3-0.5c-7.2-21.6-7.6-38.9-7-48.9L728.9,458.8z"/>
	<path class="st11" d="M731.6,434.7c0,0,5.6-0.9,7.6-6.1c2-5.2,3.3-7,10.8-16.4c7.6-9.3,11.6-19.6,10.6-29.1
		c-1-9.5-0.3-9.1-0.3-12.5c0.1-3.4,0.1-6.4-2-2.1c-2.1,4.3-7.8,22.6-10.7,25.4c-2.9,2.8-12.6,9.1-12.6,14.5c0,5.4,0.5,10-0.8,12.6
		c-1.2,2.2-5.9,12.4-3.7,13.6c-3.1,5.6-12.9,66.4-14.7,80.3h0.9C718.6,500.9,728.4,440.2,731.6,434.7L731.6,434.7z"/>
	<path class="st11" d="M720.3,448.8c0.4-0.7,2.2-4.7-0.1-8.2c-2.5-3.9-5.1-4.8-6.2-8c-1.2-3.2-3.5-8.2-6.6-11
		c-3.2-2.8-6.1-7.7-5.4-4.3s1.9,8.9,2,11c0.1,2.2,1,8.8,3.6,11.7c2.4,2.8,6.8,11.8,12.1,9.5c1.5,4,9.2,47.3,7.5,65.6h1
		C729.9,496.2,721.8,452.7,720.3,448.8L720.3,448.8z"/>
	<path class="st11" d="M705.6,465.5c0,0-5.9-25.4-9.9-34.5c-4.1-9.2-4.2-16.6-4.8-26.1c-0.5-9.5-4.6-20.6-7.6-23.8
		c-2.9-3.3-3.9-5.4-3.5,0.9c0.4,6.3,4.3,20.4,3.3,28.8c-1.1,8.5-2.1,20.5-1.5,24.7c0.6,4.2,4.4,13.3,8.3,19.2
		c3.8,6.1,8.1,11.5,9.9,14.8C701.7,472.8,709.8,483.8,705.6,465.5L705.6,465.5z"/>
	<path class="st5" d="M682,381.1c0,0.1,4.6,7.4,5.1,18.1c-0.5,27.7,3.4,38.6,6.9,48c0.5,1.5,1.1,2.9,1.5,4.4l0,0v0.1l0.9,2
		c4.3,9.2,12.6,26.7,14.1,39.7l0.8-0.1c-1.5-13.2-9.8-30.8-14.2-40l-0.9-2c-0.5-1.4-1-2.9-1.5-4.4c-3.4-9.4-7.4-20.2-6.8-47.7
		c0-5.4-2.4-13.7-5.4-18.4C680.9,378.3,680.3,377.8,682,381.1L682,381.1z"/>
	<path class="st2" d="M694.7,478.2c0-0.7-0.1-5.5-4-7.9c-4.2-2.5-7-2.2-9.7-4.7s-7.2-6.1-11.5-7.3c-4.3-1.2-9.4-4.4-7.2-1.5
		c2.2,2.9,6,7.5,7,9.5c1.2,2,5.1,7.9,8.9,9.3c3.6,1.4,11.9,8,15.8,3.3c2.7,1.6,7.7,5.8,10.6,16.1c4.2,14.8,4.9,19.8,4.9,19.8
		l0.9-0.1c0,0-0.7-5.1-4.9-19.9C702.7,484.4,697.6,480,694.7,478.2L694.7,478.2z"/>
	<path class="st10" d="M654.2,514.9c0,0-15.7-16.6-7.9-16.6s11.7,7.9,19.6,5.4c7.9-2.5-8.5-14.2-1.1-15.9
		c12.3-2.9,16.3,10.9,21.7,12.3c5.3,1.2,4.2-17.4,15.5-15.3c4.5,0.8-1.9,13.9,2.4,16.2c6.6,3.5,9.8-14.4,13.3-12.7
		c5,2.2-2.3,13.6,10.5,10.8s-4.8,6.7,5.6,7.9c10.4,1.2-1.7,8-1.7,8L654.2,514.9L654.2,514.9z"/>
	<path class="st11" d="M281.8,514.9c0,0,19.6-20.7,9.8-20.7c-9.8,0-14.6,9.8-24.5,6.8c-9.8-3.2,10.7-17.6,1.4-19.9
		c-15.2-3.5-20.2,13.7-26.9,15.2c-6.7,1.5-5.1-21.7-19.3-19c-5.6,1.1,2.3,17.3-3,20.1c-8.2,4.4-12.3-17.8-16.6-15.8
		c-6.1,2.8,3,16.9-13,13.6c-15.9-3.3,6,8.3-7,9.8c-12.9,1.4,2.2,9.9,2.2,9.9L281.8,514.9L281.8,514.9z"/>
	<path class="st10" d="M226.7,479.8c0,0-5.8-8.5-8.4-11.2c-2.7-2.6-3.9-5.5-5.6-9c-1.7-3.5-4.6-6.9-6.1-7.6c-1.4-0.6-2-1.2-0.9,1.1
		c1.1,2.3,4.5,6.9,5.6,10.4c1.1,3.5,2.7,8.3,3.5,9.8c0.9,1.4,3.4,4.2,5.5,5.7c2.1,1.5,4.2,2.7,5.2,3.6
		C226.7,483.5,231,486,226.7,479.8L226.7,479.8z"/>
	<path class="st5" d="M206.4,452.5c0,0,2.5,1.9,4.3,5.9c4.2,10.7,7.1,14.1,9.7,17c0.4,0.5,0.7,0.9,1.2,1.4l0,0l0,0l0.5,0.5
		c2.7,2.6,7.9,7.6,10.5,12.3l0.3-0.3c-2.5-4.7-7.8-9.8-10.6-12.4l-0.5-0.5c-0.4-0.5-0.7-0.9-1.2-1.4c-2.5-2.8-5.4-6.2-9.6-16.8
		c-0.9-2.1-2.9-4.8-4.6-6C205.6,451.6,205.3,451.5,206.4,452.5L206.4,452.5z"/>
	<path class="st11" d="M256.6,485.4c0,0,8.6-19.9,13.6-26.7c5-7,6-13,7.6-20.6c1.7-7.6,7-16.1,10.1-18.4c3.3-2.3,4.4-4,3.3,1.1
		c-1.1,5.1-6.6,16-6.6,22.9c0,6.9-0.4,16.6-1.4,19.9c-1.1,3.3-5.9,10.2-10.3,14.7c-4.4,4.4-9.2,8.5-11.3,10.9
		C259.6,491.6,250.5,499.6,256.6,485.4L256.6,485.4z"/>
	<path class="st5" d="M289.4,419.8c0,0-5.2,5.4-7,14c-2.7,22.3-7.9,30.6-12.3,37.9c-0.7,1.1-1.4,2.2-2,3.3H268v0.1l-1.1,1.5
		c-5.2,7-15.3,20.2-18.3,30.6l-0.7-0.2c3.1-10.5,13.1-23.8,18.4-30.8l1.1-1.4c0.6-1.2,1.4-2.3,2-3.4c4.4-7.2,9.5-15.5,12.2-37.7
		c0.6-4.4,4-10.8,7.4-14.3C290.9,417.6,291.4,417.2,289.4,419.8L289.4,419.8z"/>
	<path class="st11" d="M248.5,480.7c0,0,4.5-3.2,4.1-8.7c-0.5-5.5-0.1-7.6,2.7-19c2.8-11.4,1.9-22.1-3-30.2
		c-4.9-7.9-4.2-7.9-5.5-10.9c-1.4-3-2.5-5.7-2.6-1c0,4.7,2.6,23.3,1.3,26.9c-1.4,3.7-7.2,13.4-5,18.2c2.3,4.8,4.7,8.6,4.5,11.4
		c-0.1,2.5,0.1,13.4,2.5,13.7c-0.4,6.1,0,16.7,4.3,29.7l0.8-0.3C248.2,497.4,248.1,486.8,248.5,480.7L248.5,480.7z"/>
	<path class="st11" d="M250.1,466.1c0,0,3.3-0.5,4.6-3.8c1.2-3.3,2-4.3,6.6-9.9s7-11.9,6.4-17.7c-0.6-5.8-0.3-5.5-0.2-7.6
		c0-2.1,0.1-3.9-1.2-1.3c-1.3,2.7-4.8,13.7-6.5,15.4s-7.6,5.6-7.6,8.9c-0.1,3.3,0.3,6.1-0.5,7.6c-0.7,1.4-3.6,7.5-2.3,8.3
		c-1.9,3.3-7.9,40.4-8.9,48.9h0.5C242.2,506.4,248.2,469.4,250.1,466.1L250.1,466.1L250.1,466.1z"/>
	<path class="st10" d="M243.2,474.7c0.3-0.5,1.4-2.9,0-5.1c-1.5-2.3-3.2-2.9-3.8-4.9c-0.7-2-2.2-5-4.1-6.8c-1.9-1.7-3.6-4.7-3.3-2.7
		c0.4,2.1,1.2,5.4,1.2,6.8c0.1,1.4,0.5,5.3,2.2,7c1.5,1.7,4.2,7.2,7.4,5.8c1,2.3,5.6,28.8,4.6,39.9h0.5
		C249.1,503.5,244.2,477,243.2,474.7L243.2,474.7z"/>
	<path class="st11" d="M234.3,484.8c0,0-3.5-15.4-6.1-21c-2.5-5.6-2.5-10.1-2.9-15.9c-0.4-5.8-2.8-12.5-4.6-14.5
		c-1.7-2-2.3-3.3-2.2,0.5c0.3,3.8,2.6,12.4,2,17.6c-0.6,5.1-1.3,12.5-0.9,15c0.4,2.5,2.7,8,5.1,11.7c2.3,3.6,5,7,6.1,9
		C231.9,489.2,236.9,495.9,234.3,484.8L234.3,484.8z"/>
	<path class="st5" d="M220,433.4c0,0,2.8,4.4,3.1,10.9c-0.4,16.8,2.1,23.5,4.2,29.3c0.4,0.9,0.7,1.7,1,2.7l0,0l0,0l0.5,1.2
		c2.6,5.6,7.6,16.3,8.6,24.2l0.5-0.1c-0.9-8-6-18.8-8.6-24.4l-0.5-1.2c-0.3-0.9-0.6-1.8-0.9-2.7c-2.1-5.8-4.5-12.3-4.2-29.1
		c0-3.3-1.5-8.3-3.3-11.2C219.2,431.7,218.9,431.4,220,433.4L220,433.4z"/>
	<path class="st11" d="M227.6,492.6c0.1-0.4,0-3.3-2.3-4.8c-2.5-1.5-4.3-1.4-6-2.9c-1.5-1.5-4.3-3.7-7-4.4c-2.6-0.7-5.7-2.7-4.3-0.9
		c1.4,1.8,3.6,4.6,4.3,5.8c0.7,1.2,3.1,4.8,5.4,5.7c2.2,0.9,7.3,4.9,9.7,2c1.7,1,4.7,3.5,6.4,9.8c2.5,9,3,12,3,12l0.5-0.1
		c0,0-0.4-3.1-3-12.1C232.5,496.3,229.5,493.7,227.6,492.6L227.6,492.6z"/>
	<path class="st10" d="M203,514.9c0,0-9.6-10.1-4.8-10.1s7.1,4.8,11.9,3.3c4.8-1.5-5.2-8.7-0.6-9.8c7.4-1.7,9.8,6.8,13.2,7.5
		c3.3,0.7,2.5-10.7,9.5-9.3c2.7,0.5-1.2,8.5,1.4,9.8c4,2.2,6-8.7,8.1-7.8c3,1.4-1.4,8.2,6.4,6.6c7.8-1.6-3,4.1,3.3,4.8
		c6.4,0.7-1.1,4.9-1.1,4.9L203,514.9L203,514.9z"/>
	<path class="st16" d="M456.1,97.2l45.8-0.1c3.4,0,5.9,2.5,6.2,6l2.4,23.3c0.4,3-2.1,5.7-5.1,6.4c0.7-1.1,1.2-2.3,1.1-3.6l-2.2-21.8
		c-0.3-3.2-2.3-5.6-5.3-5.6l-39.4,0.1c-3,0-5.1,2.9-5.3,6.1l-1.9,23.5c-0.1,1.3,0.3,2.5,0.9,3.4c-3.2-0.2-6-2.7-5.6-6l2.2-25.2
		C450.2,100.2,452.8,97.2,456.1,97.2L456.1,97.2z"/>
	<path class="st17" d="M460.2,97.2l45.7-0.1c3.4,0,5.9,2.5,6.2,6l2.4,23.3c0.4,3-2.1,5.7-5.1,6.4c0.7-1.1,1.2-2.3,1-3.6l-2.1-21.8
		c-0.3-3.2-2.4-5.6-5.3-5.6l-39.4,0.1c-3,0-5.1,2.9-5.4,6.1l-1.9,23.5c-0.1,1.3,0.3,2.5,0.9,3.4c-3.2-0.2-6-2.7-5.6-6l2.2-25.2
		C454.2,100.2,456.8,97.2,460.2,97.2L460.2,97.2z"/>
	<path class="st18" d="M506.1,111.9h13.1c2.4,0,4.4,2,4.4,4.4l0,0c0,2.4-2,4.4-4.4,4.4h-13.1c-2.5,0-4.4-2-4.4-4.4l0,0
		C501.7,113.9,503.6,111.9,506.1,111.9L506.1,111.9z"/>
	<path class="st18" d="M448.1,111.9h13.1c2.5,0,4.4,2,4.4,4.4l0,0c0,2.4-2,4.4-4.4,4.4h-13.1c-2.4,0-4.4-2-4.4-4.4l0,0
		C443.7,113.9,445.6,111.9,448.1,111.9L448.1,111.9z"/>
	<path class="st8" d="M419.9,116.4h115c5,0,8.1,4.1,8.7,8.9l9.7,80c0.5,4.9-4.2,8.5-9.2,8.9l-131.5,12.4c-4.9,0.5-9-4.1-8.7-8.9
		l6.9-92.4C411.1,120.4,415,116.4,419.9,116.4L419.9,116.4z"/>
	<path class="st19" d="M429.6,116.4h115c5,0,8.2,4.1,8.9,8.9l11.5,80c0.7,4.9-4.1,8.5-8.9,8.9L425,226.7c-4.9,0.5-9.2-4.1-8.9-8.9
		l4.7-92.4C421,120.4,424.8,116.4,429.6,116.4L429.6,116.4z"/>
	<path class="st7" d="M429.6,116.4h38.6c11.2,12.5,19.8,28.3,23.8,46.3c4.9,22,0.3,43-10.1,58.5l-57,5.4c-4.9,0.5-9.2-4.1-8.9-8.9
		l4.7-92.4C421,120.4,424.8,116.4,429.6,116.4L429.6,116.4z"/>
	<path class="st7" d="M429.6,116.4h115c5,0,8.2,4.1,8.9,8.9l1.8,12.6l0,0l-63.3,24.9l-72.2-22l0,0l0.8-15.5
		C421,120.4,424.8,116.4,429.6,116.4L429.6,116.4z"/>
	<path class="st7" d="M429.6,116.4h38.6c11.2,12.5,19.8,28.3,23.8,46.3l-72.2-22l0,0l0.8-15.5C421,120.4,424.8,116.4,429.6,116.4
		L429.6,116.4z"/>
	<polygon class="st11" points="419.9,140.8 495.5,173.2 555.8,140.3 555.4,137.9 492.1,162.8 	"/>
	<path class="st11" d="M419.9,140.8l73.7,31.6c-0.4-3.2-0.9-6.4-1.5-9.7L419.9,140.8z"/>
	<path class="st17" d="M575.5,232.6c17.6,0,31.9-14.4,31.9-31.9c0-17.6-14.4-31.9-31.9-31.9s-32,14.4-32,31.9
		S557.8,232.6,575.5,232.6L575.5,232.6z"/>
	<path class="st11" d="M571.7,229.1c17.6,0,31.9-14.4,31.9-31.9c0-17.6-14.4-31.9-31.9-31.9c-17.6,0-32,14.4-32,31.9
		C539.7,214.7,554.1,229.1,571.7,229.1L571.7,229.1z"/>
	<polygon class="st5" points="594.9,184.3 565.8,212.9 563.5,215.2 561.2,212.9 545.8,197.5 550.5,192.8 563.5,205.8 590.2,179.6 	
		"/>
	<path class="st19" d="M453.1,460.3L453.1,460.3c11.7,0,21.3,9.6,21.3,21.3l0,0c0-11.7,9.6-21.3,21.3-21.3l0,0
		c-11.7,0-21.3-9.6-21.3-21.3l0,0C474.5,450.8,464.9,460.3,453.1,460.3L453.1,460.3z"/>
	<path class="st19" d="M487.8,432.6L487.8,432.6c8.2,0,15,6.8,15,15l0,0c0-8.2,6.8-15,15-15l0,0c-8.2,0-15-6.8-15-15l0,0
		C502.8,425.9,496.1,432.6,487.8,432.6L487.8,432.6z"/>
</g>
</svg>
