<svg width="48" height="48" viewBox="0 0 48 48" fill="none" xmlns="http://www.w3.org/2000/svg">
<path fill-rule="evenodd" clip-rule="evenodd" d="M14 6C13.4696 6 12.9609 6.21071 12.5858 6.58579C12.2107 6.96086 12 7.46957 12 8V36C12 36.5304 12.2107 37.0391 12.5858 37.4142C12.9609 37.7893 13.4696 38 14 38H25V40H14C12.9391 40 11.9217 39.5786 11.1716 38.8284C10.4214 38.0783 10 37.0609 10 36V8C10 6.93913 10.4214 5.92172 11.1716 5.17157C11.9217 4.42143 12.9391 4 14 4H34C35.0609 4 36.0783 4.42143 36.8284 5.17157C37.5786 5.92172 38 6.93913 38 8V36C38 37.0609 37.5786 38.0783 36.8284 38.8284C36.0783 39.5786 35.0609 40 34 40H31V38H34C34.5304 38 35.0391 37.7893 35.4142 37.4142C35.7893 37.0391 36 36.5304 36 36V8C36 7.46957 35.7893 6.96086 35.4142 6.58579C35.0391 6.21071 34.5304 6 34 6H14Z" fill="black"/>
<path fill-rule="evenodd" clip-rule="evenodd" d="M18 11C18 10.7348 18.1054 10.4804 18.2929 10.2929C18.4804 10.1054 18.7348 10 19 10H29C29.2652 10 29.5196 10.1054 29.7071 10.2929C29.8946 10.4804 30 10.7348 30 11C30 11.2652 29.8946 11.5196 29.7071 11.7071C29.5196 11.8946 29.2652 12 29 12H19C18.7348 12 18.4804 11.8946 18.2929 11.7071C18.1054 11.5196 18 11.2652 18 11ZM14 17C14 16.7348 14.1054 16.4804 14.2929 16.2929C14.4804 16.1054 14.7348 16 15 16H33C33.2652 16 33.5196 16.1054 33.7071 16.2929C33.8946 16.4804 34 16.7348 34 17C34 17.2652 33.8946 17.5196 33.7071 17.7071C33.5196 17.8946 33.2652 18 33 18H15C14.7348 18 14.4804 17.8946 14.2929 17.7071C14.1054 17.5196 14 17.2652 14 17ZM14 21C14 20.7348 14.1054 20.4804 14.2929 20.2929C14.4804 20.1054 14.7348 20 15 20H33C33.2652 20 33.5196 20.1054 33.7071 20.2929C33.8946 20.4804 34 20.7348 34 21C34 21.2652 33.8946 21.5196 33.7071 21.7071C33.5196 21.8946 33.2652 22 33 22H15C14.7348 22 14.4804 21.8946 14.2929 21.7071C14.1054 21.5196 14 21.2652 14 21ZM14 25C14 24.7348 14.1054 24.4804 14.2929 24.2929C14.4804 24.1054 14.7348 24 15 24H33C33.2652 24 33.5196 24.1054 33.7071 24.2929C33.8946 24.4804 34 24.7348 34 25C34 25.2652 33.8946 25.5196 33.7071 25.7071C33.5196 25.8946 33.2652 26 33 26H15C14.7348 26 14.4804 25.8946 14.2929 25.7071C14.1054 25.5196 14 25.2652 14 25ZM28 35C28.5304 35 29.0391 34.7893 29.4142 34.4142C29.7893 34.0391 30 33.5304 30 33C30 32.4696 29.7893 31.9609 29.4142 31.5858C29.0391 31.2107 28.5304 31 28 31C27.4696 31 26.9609 31.2107 26.5858 31.5858C26.2107 31.9609 26 32.4696 26 33C26 33.5304 26.2107 34.0391 26.5858 34.4142C26.9609 34.7893 27.4696 35 28 35ZM28 37C29.0609 37 30.0783 36.5786 30.8284 35.8284C31.5786 35.0783 32 34.0609 32 33C32 31.9391 31.5786 30.9217 30.8284 30.1716C30.0783 29.4214 29.0609 29 28 29C26.9391 29 25.9217 29.4214 25.1716 30.1716C24.4214 30.9217 24 31.9391 24 33C24 34.0609 24.4214 35.0783 25.1716 35.8284C25.9217 36.5786 26.9391 37 28 37Z" fill="black"/>
<path fill-rule="evenodd" clip-rule="evenodd" d="M27 35H25V44L28 42.5L31 44V35H29V40.764L28 40.264L27 40.764V35Z" fill="black"/>
</svg>
