<svg width="128" height="128" viewBox="0 0 128 128" fill="none" xmlns="http://www.w3.org/2000/svg">
<path d="M63.6 124.8C38.79 124.8 12 109.24 12 75.0899C12 40.9399 38.79 25.3799 63.6 25.3799C77.38 25.3799 90.1 29.9099 99.53 38.1799C109.75 47.2599 115.18 60.0599 115.18 75.0899C115.18 90.1199 109.75 102.84 99.53 111.91C90.1 120.18 77.29 124.8 63.6 124.8Z" fill="url(#paint0_radial_170_3300)"/>
<path d="M106.19 45.54C111.07 53.64 113.57 62.96 113.4 72.42C113.4 87.42 107.97 100.17 97.7505 109.24C88.3205 117.51 75.5205 122.13 61.8205 122.13C45.7605 122.13 28.8905 115.6 18.9805 101.73C28.5505 117.44 46.5405 124.8 63.6005 124.8C77.2905 124.8 90.1005 120.18 99.5305 111.91C109.75 102.83 115.18 90.12 115.18 75.09C115.18 63.76 112.09 53.69 106.19 45.54Z" fill="#EB8F00"/>
<path opacity="0.8" d="M33.8008 88.1001C43.4658 88.1001 51.3008 80.7128 51.3008 71.6001C51.3008 62.4874 43.4658 55.1001 33.8008 55.1001C24.1358 55.1001 16.3008 62.4874 16.3008 71.6001C16.3008 80.7128 24.1358 88.1001 33.8008 88.1001Z" fill="url(#paint1_radial_170_3300)"/>
<path opacity="0.8" d="M94.1992 88.1001C103.864 88.1001 111.699 80.7128 111.699 71.6001C111.699 62.4874 103.864 55.1001 94.1992 55.1001C84.5342 55.1001 76.6992 62.4874 76.6992 71.6001C76.6992 80.7128 84.5342 88.1001 94.1992 88.1001Z" fill="url(#paint2_radial_170_3300)"/>
<path d="M24 20C27.866 20 31 17.7614 31 15C31 12.2386 27.866 10 24 10C20.134 10 17 12.2386 17 15C17 17.7614 20.134 20 24 20Z" fill="#FF00A2"/>
<path d="M53.4473 29.2698C55.0875 27.6296 54.6759 24.5587 52.528 22.4109C50.38 20.263 47.3092 19.8515 45.669 21.4918C44.0288 23.132 44.4405 26.2028 46.5884 28.3507C48.7363 30.4985 51.8072 30.91 53.4473 29.2698Z" fill="#FD3B3B"/>
<path d="M74.8974 21.296C78.566 18.4565 80.4713 14.7738 79.153 13.0705C77.8346 11.3672 73.7918 12.2883 70.1232 15.1278C66.4545 17.9674 64.5492 21.6501 65.8676 23.3534C67.1859 25.0567 71.2287 24.1356 74.8974 21.296Z" fill="#00EEFF"/>
<path d="M25.9587 87.3059C27.3458 86.5051 27.0151 83.3356 25.2202 80.2267C23.4253 77.1178 20.8458 75.2467 19.4587 76.0476C18.0717 76.8484 18.4023 80.0178 20.1973 83.1267C21.9922 86.2356 24.5717 88.1067 25.9587 87.3059Z" fill="#0048FF"/>
<path d="M96.5 116C98.433 116 100 113.538 100 110.5C100 107.462 98.433 105 96.5 105C94.567 105 93 107.462 93 110.5C93 113.538 94.567 116 96.5 116Z" fill="#F63BBE"/>
<path d="M116.534 58.731C119.469 56.6646 121.333 54.2573 120.698 53.354C120.062 52.4508 117.167 53.3937 114.231 55.4601C111.296 57.5265 109.431 59.9339 110.067 60.8371C110.703 61.7403 113.598 60.7974 116.534 58.731Z" fill="#00CC00"/>
<path d="M22.4797 121.036C23.6342 120.279 23.0964 117.419 21.2786 114.648C19.4608 111.878 17.0513 110.246 15.8969 111.003C14.7425 111.761 15.2803 114.621 17.0981 117.391C18.9159 120.162 21.3253 121.794 22.4797 121.036Z" fill="#0048FF"/>
<path d="M15.1762 101.495C18.4816 101.261 21.0821 99.9545 20.9845 98.5772C20.887 97.1999 18.1283 96.2733 14.8229 96.5074C11.5175 96.7416 8.91698 98.0479 9.01455 99.4251C9.11211 100.802 11.8708 101.729 15.1762 101.495Z" fill="#7ACDED"/>
<path d="M24.1185 88.3981C28.0862 88.1345 31.2522 87.1614 31.19 86.2246C31.1278 85.2878 27.8609 84.742 23.8931 85.0056C19.9254 85.2692 16.7594 86.2423 16.8217 87.1792C16.8839 88.116 20.1508 88.6617 24.1185 88.3981Z" fill="#FF82B2"/>
<path d="M118.901 78.1999C118.051 75.2599 116.021 72.7999 113.301 71.3999C108.701 68.8999 102.941 70.6099 100.451 75.2099C100.431 75.2399 100.421 75.2699 100.401 75.2999C99.4008 77.1845 99.1866 79.388 99.8048 81.4299C100.423 83.4718 101.823 85.1864 103.701 86.1999C105.251 87.0699 107.071 87.3199 108.801 86.8999C110.581 86.4999 112.081 85.3299 112.901 83.6999C113.791 81.8199 113.711 79.6199 112.701 77.7999C112.298 77.0134 111.701 76.3431 110.965 75.853C110.23 75.3628 109.382 75.0691 108.501 74.9999C107.471 74.9799 106.631 75.7999 106.611 76.8299C106.601 77.7599 107.281 78.5599 108.201 78.6999C108.711 78.7299 109.171 79.0399 109.401 79.4999C109.751 80.2099 109.821 81.0399 109.601 81.7999C109.434 82.1311 109.195 82.4202 108.9 82.6453C108.606 82.8705 108.264 83.0259 107.901 83.0999C107.091 83.3099 106.231 83.1999 105.501 82.7999C104.501 82.2699 103.751 81.3699 103.401 80.2999C103.101 79.1999 103.211 78.0299 103.701 76.9999C104.046 76.3259 104.526 75.7297 105.111 75.2482C105.696 74.7666 106.373 74.4099 107.101 74.1999C108.571 73.7799 110.131 73.9199 111.501 74.5999C113.291 75.5799 114.621 77.2399 115.201 79.1999C115.811 81.1699 115.591 83.2999 114.601 85.0999C112.701 88.6999 109.001 91.0999 103.601 91.0999C100.501 91.0999 82.0508 90.5999 82.0508 90.5999L82.2708 95.1999L103.401 94.8999C109.701 94.8999 114.901 92.3999 117.901 86.7999C119.481 84.2199 119.841 81.0699 118.901 78.1999Z" fill="url(#paint3_linear_170_3300)"/>
<path d="M69.9995 93C70.6095 93.65 71.0795 94.41 71.3995 95.24L82.8494 95.17C82.8494 93.67 82.6495 92.17 82.6495 90.57C79.6495 90.47 73.4695 90.37 71.5495 90.3C71.2736 91.3319 70.7161 92.2668 69.9395 93H69.9995Z" fill="#7F0099"/>
<path d="M104.799 54.7999L108.299 55.2999L109.199 51.7999L109.699 49.7999L89.5992 46.9999C98.6992 53.8999 104.199 54.7999 104.799 54.7999ZM120.899 5.3999L112.799 9.9999L110.799 11.0999L119.199 12.2999C119.799 9.7999 120.899 5.3999 120.899 5.3999ZM102.999 15.4999L94.6992 20.1999L116.399 23.2999L117.799 17.5999L102.999 15.4999ZM79.2992 28.8999H79.1992L113.699 33.8999L114.999 28.5999L86.8992 24.5999L79.2992 28.8999ZM82.1992 40.3999L110.999 44.4999L112.399 39.0999L77.6992 34.0999C78.0992 35.1999 79.2992 37.3999 82.1992 40.3999Z" fill="#FF4545"/>
<path d="M86.9008 24.6L115.001 28.6L116.401 23.3L94.7008 20.2L86.9008 24.6ZM118.601 14.5C118.601 14.5 118.901 13.1 119.101 12.4L110.701 11.2L102.901 15.6L117.701 17.7L118.601 14.5ZM76.3008 30.5L77.4008 33.7C77.4408 33.88 77.5108 34.05 77.6008 34.2L112.301 39.2L113.601 33.9L79.1008 29L76.3008 30.5ZM89.2008 46.7C89.3008 46.7999 89.5008 46.9 89.6008 47L109.701 49.9L111.001 44.5999L82.2008 40.5C84.3908 42.7199 86.7308 44.79 89.2008 46.7Z" fill="#FF9C9C"/>
<path d="M120.8 11.3C123.451 11.3 125.6 9.15092 125.6 6.49995C125.6 3.84898 123.451 1.69995 120.8 1.69995C118.149 1.69995 116 3.84898 116 6.49995C116 9.15092 118.149 11.3 120.8 11.3Z" fill="#C93737"/>
<path d="M71.8391 91.8301C73.31 90.5584 74.2311 88.7664 74.4091 86.8301C74.6891 84.8801 74.1091 82.9101 72.8091 81.4301C70.4791 78.3701 63.9991 79.1301 63.9991 79.1301C62.2591 79.2001 60.2491 80.0301 60.4991 82.0301C60.6601 82.5937 60.9697 83.1037 61.3955 83.5066C61.8212 83.9094 62.3475 84.1904 62.9191 84.3201C65.4791 84.9301 69.1291 84.3201 69.2291 86.9201C69.3491 89.8401 64.8691 88.6401 64.5091 91.7301C64.1491 94.8201 69.2291 94.4101 69.2291 96.5401C69.2291 98.1701 67.5591 98.4501 65.7991 98.8201C64.2891 99.1301 61.3891 99.6001 61.1591 101.33C60.9291 103.06 61.9191 105.19 65.9991 104.57C72.4191 103.57 74.5791 100.08 74.5791 97.9201C74.6191 95.5801 73.6191 93.3501 71.8391 91.8301ZM49.8591 65.4301L49.7091 65.2401L49.3091 64.7301L48.7991 64.1801C48.5991 63.9601 48.3591 63.7201 48.1191 63.4801C47.8691 63.2401 47.6091 63.0101 47.3291 62.8001C47.0791 62.6101 46.8191 62.4401 46.5391 62.2901C46.3491 62.1801 46.1391 62.1001 45.9191 62.0601C45.8528 62.0501 45.7854 62.0501 45.7191 62.0601H45.6391H45.8191H45.2991C45.1691 62.0601 45.2991 62.0601 45.2991 62.0601H45.3691C45.4491 62.0601 45.3691 62.0601 45.3691 62.0601C45.3331 62.0501 45.2951 62.0501 45.2591 62.0601C45.0391 62.1001 44.8291 62.1801 44.6391 62.2901C44.3591 62.4401 44.0991 62.6101 43.8491 62.8001C43.5891 63.0001 43.3191 63.2401 43.0591 63.4801C42.5691 63.9601 42.1391 64.4801 41.8391 64.7901L41.3591 65.3601L41.1391 65.6101C40.4812 66.3382 39.5784 66.7988 38.6028 66.9039C37.6272 67.009 36.647 66.7514 35.8491 66.1801C34.7991 65.4501 34.2591 64.1801 34.4591 62.9101C34.4591 62.9101 34.5291 62.5301 34.7091 61.9101C34.9891 60.9501 35.3891 60.0301 35.8891 59.1701C36.6691 57.7501 37.7291 56.5001 38.9991 55.5001C39.8691 54.8401 40.8291 54.3101 41.8591 53.9401C42.1391 53.8301 42.4391 53.7401 42.7291 53.6701C43.0591 53.5701 43.3891 53.5001 43.7291 53.4501L44.3091 53.3701H46.5291C46.8391 53.3701 47.1591 53.4501 47.4691 53.5001C49.1549 53.8052 50.7447 54.5041 52.1091 55.5401C53.3991 56.5201 54.4891 57.7501 55.2891 59.1601C55.5791 59.6501 55.8391 60.1701 56.0491 60.7001C56.2391 61.1401 56.3791 61.6101 56.4991 61.9601C56.6191 62.3101 56.6091 62.4801 56.6491 62.6501V62.8801C56.778 63.8082 56.5335 64.7495 55.9692 65.4975C55.4049 66.2456 54.5669 66.7392 53.6391 66.8701C53.5991 66.8801 53.5591 66.8801 53.5291 66.8801C52.1391 67.0901 50.7291 66.5401 49.8591 65.4301ZM86.9991 65.4301L86.8491 65.2401L86.4491 64.7301L85.9991 64.1801C85.7991 63.9601 85.5591 63.7201 85.3191 63.4801C85.0691 63.2401 84.8091 63.0101 84.5291 62.8001C84.2791 62.6101 84.0191 62.4401 83.7391 62.2901C83.5491 62.1801 83.3391 62.1001 83.1291 62.0601C83.0628 62.0501 82.9954 62.0501 82.9291 62.0601H82.8491H82.9991H82.4791C82.3391 62.0601 82.4791 62.0601 82.4791 62.0601H82.5491C82.6291 62.0601 82.5491 62.0601 82.5491 62.0601H82.4391C82.2291 62.1001 82.0191 62.1801 81.8291 62.2901C81.5491 62.4401 81.2891 62.6101 81.0391 62.8001C80.7591 63.0101 80.4991 63.2401 80.2491 63.4801C79.7491 63.9601 79.3291 64.4801 79.0191 64.7901L78.5391 65.3601L78.3191 65.6101C77.6612 66.3382 76.7584 66.7988 75.7828 66.9039C74.8072 67.009 73.827 66.7514 73.0291 66.1801C71.9791 65.4501 71.4391 64.1801 71.6391 62.9101C71.6391 62.9101 71.7091 62.5301 71.8991 61.9101C72.1491 60.9401 72.5191 60.0001 72.9991 59.1201C73.7991 57.7101 74.8891 56.4801 76.1791 55.5001C77.0491 54.8401 78.0191 54.3101 79.0491 53.9401C79.3291 53.8301 79.6191 53.7401 79.9091 53.6701C80.2391 53.5701 80.5691 53.5001 80.9091 53.4501L81.4891 53.3701H83.7091C84.0291 53.3701 84.3391 53.4501 84.6491 53.5001C86.3391 53.7901 87.9291 54.4801 89.2991 55.5001C90.5891 56.4801 91.6691 57.7101 92.4791 59.1201C92.7691 59.6101 93.0191 60.1301 93.2291 60.6601C93.4091 61.0701 93.5591 61.4901 93.6791 61.9201C93.7491 62.1501 93.7991 62.3801 93.8291 62.6101V62.8401C93.8953 63.2972 93.8706 63.7628 93.7566 64.2103C93.6426 64.6579 93.4414 65.0785 93.1646 65.4482C92.8878 65.8179 92.5408 66.1294 92.1435 66.3648C91.7462 66.6002 91.3063 66.7549 90.8491 66.8201C90.8091 66.8301 90.7691 66.8301 90.7191 66.8401C89.3191 67.0601 87.8991 66.5301 86.9991 65.4301Z" fill="#422B0D"/>
<defs>
<radialGradient id="paint0_radial_170_3300" cx="0" cy="0" r="1" gradientUnits="userSpaceOnUse" gradientTransform="translate(63.59 75.0899) scale(50.659 50.659)">
<stop offset="0.5" stop-color="#FDE030"/>
<stop offset="0.92" stop-color="#F7C02B"/>
<stop offset="1" stop-color="#F4A223"/>
</radialGradient>
<radialGradient id="paint1_radial_170_3300" cx="0" cy="0" r="1" gradientUnits="userSpaceOnUse" gradientTransform="translate(33.8011 75.119) scale(19.0473 17.1037)">
<stop stop-color="#ED7770"/>
<stop offset="0.9" stop-color="#ED7770" stop-opacity="0"/>
</radialGradient>
<radialGradient id="paint2_radial_170_3300" cx="0" cy="0" r="1" gradientUnits="userSpaceOnUse" gradientTransform="translate(126.519 1172.59) scale(19.43)">
<stop stop-color="#ED7770"/>
<stop offset="0.9" stop-color="#ED7770" stop-opacity="0"/>
</radialGradient>
<linearGradient id="paint3_linear_170_3300" x1="82.1908" y1="82.7259" x2="119.381" y2="82.7259" gradientUnits="userSpaceOnUse">
<stop stop-color="#004054"/>
<stop offset="0.99" stop-color="#45A4FF"/>
</linearGradient>
</defs>
</svg>
