<svg width="128" height="128" viewBox="0 0 128 128" fill="none" xmlns="http://www.w3.org/2000/svg">
<path d="M63.5996 118.8C35.6996 118.8 5.59961 101.3 5.59961 62.9C5.59961 24.5 35.6996 7 63.5996 7C79.0996 7 93.3996 12.1 104 21.4C115.5 31.6 121.6 46 121.6 62.9C121.6 79.8 115.5 94.1 104 104.3C93.3996 113.6 78.9996 118.8 63.5996 118.8Z" fill="url(#paint0_radial_170_3320)"/>
<path d="M111.49 29.6699C116.82 38.2699 119.6 48.5099 119.6 59.8999C119.6 76.7999 113.5 91.0999 102 101.3C91.3999 110.6 76.9999 115.8 61.5999 115.8C43.5399 115.8 24.5999 108.45 13.4199 92.8599C24.1799 110.52 44.4199 118.8 63.5999 118.8C78.9999 118.8 93.3999 113.6 104 104.3C115.5 94.0999 121.6 79.7999 121.6 62.8999C121.6 50.1599 118.13 38.8399 111.49 29.6699Z" fill="#EB8F00"/>
<path d="M53 95H75" stroke="#35220B" stroke-width="8" stroke-linecap="round" stroke-linejoin="round"/>
<path d="M49.5996 64L49.3996 64.2L48.8996 64.7C48.6996 64.9 48.4996 65 48.1996 65.3C47.8796 65.56 47.5496 65.79 47.1996 66C46.7996 66.2 46.3996 66.5 45.9996 66.7C45.5996 66.9 45.0996 67.1 44.5996 67.3C44.1096 67.48 43.6096 67.61 43.0996 67.7C42.5696 67.79 42.0396 67.82 41.4996 67.8H40.5996C40.3996 67.8 40.0996 67.7 39.8996 67.7C39.3896 67.61 38.8896 67.48 38.3996 67.3C37.9096 67.16 37.4396 66.96 36.9996 66.7C36.5796 66.5 36.1796 66.27 35.7996 66C35.0996 65.5 34.4996 65 34.0996 64.7L33.4996 64.1L33.2996 63.9C32.675 63.3385 31.8746 63.0115 31.0355 62.975C30.1963 62.9385 29.3706 63.1948 28.6996 63.7C28.2285 64.0678 27.8939 64.5826 27.749 65.1624C27.604 65.7422 27.6571 66.3538 27.8996 66.9L27.9996 67.2C28.1096 67.48 28.2496 67.74 28.3996 68C29.0096 69.03 29.7496 69.97 30.5996 70.8C31.1896 71.38 31.8296 71.92 32.4996 72.4C33.2896 72.95 34.1196 73.42 34.9996 73.8C35.9596 74.24 36.9696 74.57 37.9996 74.8C38.4996 74.9 39.0996 75 39.6996 75.1C39.9996 75.1 40.3996 75.2 40.4996 75.2H41.2996C42.4096 75.2 43.5096 75.1 44.5996 74.9C45.6396 74.69 46.6396 74.35 47.5996 73.9C48.4796 73.52 49.3096 73.05 50.0996 72.5C50.8196 72.07 51.4596 71.53 51.9996 70.9C52.4896 70.45 52.9296 69.95 53.2996 69.4C53.4996 69.2 53.5996 68.9 53.7996 68.7C53.9996 68.5 54.0996 68.3 54.1996 68.1C54.3696 67.86 54.5096 67.59 54.5996 67.3L54.6996 67.1C54.9959 66.4248 55.0129 65.6597 54.7468 64.972C54.4807 64.2843 53.9532 63.7299 53.2796 63.43C53.1596 63.38 53.0296 63.33 52.8996 63.3C52.343 63.0709 51.7302 63.0151 51.1414 63.14C50.5526 63.2649 50.0152 63.5646 49.5996 64ZM94.5096 64.37L94.3096 64.57C94.1496 64.75 93.9796 64.92 93.7996 65.07L93.1096 65.64C92.8196 65.86 92.4896 66.1 92.1096 66.34C91.7296 66.58 91.3396 66.81 90.9096 67.03C90.4696 67.25 90.0096 67.44 89.5396 67.6C89.0496 67.75 88.5496 67.87 88.0396 67.97C87.5196 68.05 86.9996 68.09 86.4696 68.09H85.5896L84.8896 68C84.3796 67.9 83.8796 67.78 83.3896 67.63C82.9096 67.45 82.4496 67.24 81.9996 67C81.5696 66.78 81.1696 66.54 80.7996 66.31C80.2096 65.92 79.6596 65.48 79.1396 65L78.5096 64.42L78.2596 64.17C77.6419 63.604 76.8431 63.2761 76.0059 63.2449C75.1686 63.2138 74.3476 63.4814 73.6896 64C73.2077 64.371 72.8674 64.8958 72.7254 65.4872C72.5835 66.0786 72.6485 66.7008 72.9096 67.25L73.0596 67.55C73.1896 67.84 73.3396 68.12 73.4996 68.39C74.5334 70.1097 75.929 71.5838 77.5896 72.71C78.3796 73.26 79.2196 73.73 80.0996 74.11C81.0796 74.54 82.0996 74.88 83.1496 75.11C83.6996 75.21 84.2096 75.31 84.8796 75.37C85.1896 75.37 85.5496 75.43 85.7096 75.43H86.4896C87.6096 75.41 88.7196 75.3 89.8196 75.08C90.8696 74.85 91.8896 74.51 92.8696 74.08C93.7496 73.7 94.5896 73.23 95.3796 72.68C96.6211 71.8382 97.7185 70.8015 98.6296 69.61L99.1096 68.94L99.5096 68.31C99.6596 68.07 99.7896 67.81 99.8996 67.54L100.01 67.29C100.61 65.86 99.9296 64.21 98.4996 63.61C98.3996 63.57 98.2996 63.53 98.1996 63.51C97.566 63.291 96.8834 63.2555 96.2305 63.4076C95.5776 63.5598 94.9811 63.8934 94.5096 64.37ZM23.3996 46.8C21.1996 47.2 21.0996 50.4 23.4996 50.5C28.7996 50.57 33.9196 48.6 37.7996 45C39.2796 43.72 40.5296 42.2 41.4996 40.5C42.0796 39.67 41.8796 38.53 41.0496 37.95C40.2196 37.37 39.0796 37.57 38.4996 38.4L38.3996 38.5C34.4802 42.881 29.1934 45.8064 23.3996 46.8ZM89.4996 38.4C89.3618 38.2029 89.1865 38.0349 88.9837 37.9056C88.781 37.7764 88.5547 37.6883 88.3179 37.6465C88.0811 37.6047 87.8383 37.61 87.6035 37.6621C87.3688 37.7142 87.1465 37.812 86.9496 37.95C86.7525 38.0878 86.5845 38.2631 86.4552 38.4659C86.3259 38.6687 86.2379 38.8949 86.1961 39.1318C86.1543 39.3686 86.1596 39.6113 86.2117 39.8461C86.2637 40.0809 86.3616 40.3031 86.4996 40.5C87.4696 42.2 88.7196 43.72 90.1996 45C94.0996 48.57 99.2096 50.54 104.5 50.5C107 50.4 106.8 47.2 104.6 46.8C98.7432 45.8395 93.4041 42.8694 89.4996 38.4Z" fill="#422B0D"/>
<defs>
<radialGradient id="paint0_radial_170_3320" cx="0" cy="0" r="1" gradientUnits="userSpaceOnUse" gradientTransform="translate(63.5996 62.9) scale(56.96 56.96)">
<stop offset="0.5" stop-color="#FDE030"/>
<stop offset="0.92" stop-color="#F7C02B"/>
<stop offset="1" stop-color="#F4A223"/>
</radialGradient>
</defs>
</svg>
