<svg id="Layer_1" data-name="Layer 1" xmlns="http://www.w3.org/2000/svg" viewBox="0 0 24 24"><title>Untitled-11</title><path d="M6.22,7.17a4.18,4.18,0,1,1,1.23,2.95A4.14,4.14,0,0,1,6.22,7.17ZM10.39,4A3.12,3.12,0,0,0,7.27,7.17a3.15,3.15,0,0,0,.91,2.21A3.13,3.13,0,1,0,10.39,4ZM3.1,14.47a2.09,2.09,0,0,1,2.09-2.09H11.7a6,6,0,0,0-.68,1H5.19a1,1,0,0,0-1.05,1.05,3.49,3.49,0,0,0,1.74,3.07,8.46,8.46,0,0,0,4.51,1.1l.62,0a5.53,5.53,0,0,0,.65,1c-.42,0-.84.06-1.27.06a9.47,9.47,0,0,1-5.07-1.26A4.53,4.53,0,0,1,3.1,14.47ZM20.82,16a4.69,4.69,0,1,1-1.38-3.32A4.71,4.71,0,0,1,20.82,16ZM18.58,14.1a.66.66,0,0,0-.17-.12.52.52,0,0,0-.4,0,.66.66,0,0,0-.17.12l-2.76,2.76-.67-.68a.53.53,0,0,0-.74,0,.53.53,0,0,0,0,.74l1.05,1a.48.48,0,0,0,.16.12l.2,0a.64.64,0,0,0,.2,0,.52.52,0,0,0,.17-.12l3.13-3.13a.36.36,0,0,0,.11-.16.51.51,0,0,0,0-.2.45.45,0,0,0,0-.2A.39.39,0,0,0,18.58,14.1Z" style="fill:#333"/></svg>