<?xml version="1.0" encoding="utf-8"?>
<!-- Generator: Adobe Illustrator 23.1.0, SVG Export Plug-In . SVG Version: 6.00 Build 0)  -->
<svg version="1.1" id="Layer_1" xmlns="http://www.w3.org/2000/svg" xmlns:xlink="http://www.w3.org/1999/xlink" x="0px" y="0px"
	 viewBox="0 0 962.7 599.2" style="enable-background:new 0 0 962.7 599.2;" xml:space="preserve">
<style type="text/css">
	.st0{clip-path:url(#SVGID_2_);}
	.st1{clip-path:url(#SVGID_4_);fill:#F9F9F9;}
	.st2{clip-path:url(#SVGID_6_);fill:#F9F9F9;}
	.st3{clip-path:url(#SVGID_8_);fill:#008080;}
	.st4{clip-path:url(#SVGID_10_);fill:#07AAA5;}
	.st5{clip-path:url(#SVGID_12_);fill:#FFFFFF;}
	.st6{clip-path:url(#SVGID_14_);fill:#102A54;}
	.st7{clip-path:url(#SVGID_16_);fill:#F9F9F9;}
	.st8{clip-path:url(#SVGID_18_);fill:#F9F9F9;}
	.st9{clip-path:url(#SVGID_20_);fill:#F9F9F9;}
	.st10{clip-path:url(#SVGID_22_);fill:#F9F9F9;}
	.st11{clip-path:url(#SVGID_24_);fill:#F9F9F9;}
	.st12{clip-path:url(#SVGID_26_);fill:#F9F9F9;}
	.st13{clip-path:url(#SVGID_28_);fill:#102A54;}
	.st14{clip-path:url(#SVGID_30_);fill:#FFFFFF;}
	.st15{opacity:0.61;clip-path:url(#SVGID_32_);fill:#F9F9F9;enable-background:new    ;}
	.st16{opacity:0.26;clip-path:url(#SVGID_34_);fill:#3C94F8;enable-background:new    ;}
	.st17{opacity:0.18;clip-path:url(#SVGID_36_);fill:#3C94F8;enable-background:new    ;}
	.st18{opacity:0.1;clip-path:url(#SVGID_38_);fill:#3C94F8;enable-background:new    ;}
	.st19{opacity:0.14;clip-path:url(#SVGID_40_);fill:#3C94F8;enable-background:new    ;}
	.st20{clip-path:url(#SVGID_42_);fill:#F9F9F9;}
	.st21{clip-path:url(#SVGID_44_);fill:#102A54;}
	.st22{clip-path:url(#SVGID_46_);fill:#102A54;}
	.st23{clip-path:url(#SVGID_48_);fill:#6CB597;}
	.st24{clip-path:url(#SVGID_50_);fill:#102A54;}
	.st25{clip-path:url(#SVGID_52_);fill:#102A54;}
	.st26{clip-path:url(#SVGID_54_);fill:#6CB597;}
	.st27{clip-path:url(#SVGID_56_);fill:#102A54;}
	.st28{clip-path:url(#SVGID_58_);fill:#F99747;}
	.st29{clip-path:url(#SVGID_60_);fill:#FFC0B1;}
	.st30{clip-path:url(#SVGID_62_);fill:#006663;}
	.st31{clip-path:url(#SVGID_64_);fill:#008080;}
	.st32{clip-path:url(#SVGID_66_);fill:#0C203F;}
	.st33{clip-path:url(#SVGID_68_);fill:#102A54;}
	.st34{clip-path:url(#SVGID_70_);fill:#FFC0B1;}
	.st35{clip-path:url(#SVGID_72_);fill:#102A54;}
	.st36{clip-path:url(#SVGID_74_);fill:#FFFFFF;}
	.st37{clip-path:url(#SVGID_76_);fill:#102A54;}
	.st38{clip-path:url(#SVGID_78_);fill:#102A54;}
	.st39{clip-path:url(#SVGID_80_);fill:#FFC0B1;}
	.st40{clip-path:url(#SVGID_82_);fill:#102A54;}
	.st41{clip-path:url(#SVGID_84_);fill:#F99747;}
	.st42{clip-path:url(#SVGID_86_);fill:#102A54;}
	.st43{clip-path:url(#SVGID_88_);fill:#F99747;}
	.st44{clip-path:url(#SVGID_90_);fill:#102A54;}
	.st45{clip-path:url(#SVGID_92_);fill:#102A54;}
	.st46{clip-path:url(#SVGID_94_);fill:#FFC0B1;}
	.st47{clip-path:url(#SVGID_96_);fill:#FFC0B1;}
	.st48{clip-path:url(#SVGID_98_);fill:#102A54;}
	.st49{clip-path:url(#SVGID_100_);fill:#7FC0FF;}
	.st50{clip-path:url(#SVGID_102_);fill:#7FC0FF;}
	.st51{clip-path:url(#SVGID_104_);fill:#102A54;}
	.st52{clip-path:url(#SVGID_106_);fill:#D2FFFE;}
	.st53{clip-path:url(#SVGID_108_);fill:#008080;}
	.st54{clip-path:url(#SVGID_110_);fill:#04AFAA;}
	.st55{fill:none;}
	.st56{fill:#2F3050;}
	.st57{fill:#1A1924;}
	.st58{fill:#4C4F81;}
	.st59{fill:#222231;}
	.st60{fill:#FFFFFF;}
	.st61{fill:#00B0C2;}
	.st62{fill:#E64645;}
	.st63{fill:#009EE2;}
	.st64{fill:#93C01F;}
	.st65{fill:#273C5C;}
	.st66{fill:#3D3F68;}
	.st67{fill:#7FC0FF;}
	.st68{fill:#102A54;}
	.st69{fill:#181936;}
	.st70{fill:#006663;}
	.st71{fill:#2A2F58;}
	.st72{fill:#008080;}
	.st73{fill:#06183C;}
	.st74{fill:#673438;}
	.st75{fill:#21263D;}
	.st76{fill:#F99747;}
	.st77{fill:#7E9BC1;}
	.st78{fill:#6E85B4;}
	.st79{fill:#9CB6E0;}
	.st80{fill:#A36F68;}
	.st81{fill:#8E5C57;}
	.st82{display:none;opacity:0.1;fill:#008080;}
	.st83{opacity:0.1;fill:#008080;}
	.st84{clip-path:url(#XMLID_2_);fill:#E57492;}
	.st85{opacity:0.52;}
	.st86{opacity:0.3;clip-path:url(#XMLID_3_);fill:#096866;}
	.st87{clip-path:url(#XMLID_3_);fill:#096866;}
	.st88{opacity:0.3;clip-path:url(#XMLID_4_);fill:#096866;}
	.st89{clip-path:url(#XMLID_4_);fill:#096866;}
	.st90{clip-path:url(#XMLID_5_);fill:#1C056D;}
	.st91{clip-path:url(#XMLID_6_);fill:#8E5C57;}
	.st92{clip-path:url(#XMLID_7_);fill:#1C056D;}
	.st93{clip-path:url(#XMLID_8_);fill:#8E5C57;}
	.st94{clip-path:url(#XMLID_9_);}
	.st95{clip-path:url(#XMLID_10_);fill:#DB7D37;}
	.st96{clip-path:url(#XMLID_11_);fill:#008080;}
	.st97{opacity:0.37;clip-path:url(#XMLID_12_);fill:#D4DFFF;}
	.st98{fill:#096866;}
	.st99{clip-path:url(#XMLID_13_);fill:#A36F68;}
	.st100{fill:#DB7D37;}
	.st101{clip-path:url(#XMLID_14_);fill:#DB7D37;}
	.st102{clip-path:url(#XMLID_15_);fill:#181936;}
	.st103{fill:#D4DFFF;}
	.st104{clip-path:url(#XMLID_16_);fill:#096866;}
	.st105{fill:#FC476A;}
	.st106{clip-path:url(#XMLID_17_);fill:#E57492;}
	.st107{fill:#1C056D;}
	.st108{fill:#1B3D9E;}
	.st109{clip-path:url(#XMLID_18_);fill:#E57492;}
	.st110{clip-path:url(#XMLID_19_);fill:#E57492;}
	.st111{clip-path:url(#XMLID_20_);fill:#E57492;}
	.st112{clip-path:url(#XMLID_20_);fill:#FFFFFF;}
	.st113{clip-path:url(#XMLID_21_);fill:#F99747;}
	.st114{fill:#FFE0C1;}
	.st115{clip-path:url(#XMLID_22_);fill:#008080;}
	.st116{clip-path:url(#XMLID_22_);fill:#096866;}
	.st117{clip-path:url(#XMLID_23_);fill:#0F0F0F;}
	.st118{opacity:0.12;fill:#008080;}
	.st119{opacity:0.41;}
	.st120{opacity:0.21;}
	.st121{fill:#F6BBBA;}
	.st122{fill:#232E33;}
	.st123{fill:#60C1D4;}
	.st124{fill:#FFDC80;}
	.st125{fill:#FEDA80;}
	.st126{fill:#F08974;}
	.st127{fill:#EA8080;}
	.st128{fill:#7E5A54;}
	.st129{fill:#54322D;}
	.st130{fill:#FBD4B9;}
	.st131{fill:#A54667;}
	.st132{fill:#F7B283;}
	.st133{fill:#F6B699;}
	.st134{opacity:0.12;clip-path:url(#SVGID_112_);fill-rule:evenodd;clip-rule:evenodd;fill:#008080;}
	.st135{clip-path:url(#SVGID_112_);fill-rule:evenodd;clip-rule:evenodd;fill:#CAE7E4;}
	.st136{clip-path:url(#SVGID_112_);fill-rule:evenodd;clip-rule:evenodd;fill:#9FC9D0;}
	.st137{clip-path:url(#SVGID_112_);fill-rule:evenodd;clip-rule:evenodd;fill:#243A9D;}
	.st138{clip-path:url(#SVGID_112_);fill-rule:evenodd;clip-rule:evenodd;fill:#1486CF;}
	.st139{clip-path:url(#SVGID_112_);fill-rule:evenodd;clip-rule:evenodd;fill:#08A4DD;}
	.st140{clip-path:url(#SVGID_112_);fill-rule:evenodd;clip-rule:evenodd;fill:#ED7D65;}
	.st141{clip-path:url(#SVGID_112_);fill-rule:evenodd;clip-rule:evenodd;fill:#EA684D;}
	.st142{clip-path:url(#SVGID_112_);fill-rule:evenodd;clip-rule:evenodd;fill:#F69B6E;}
	.st143{clip-path:url(#SVGID_112_);fill-rule:evenodd;clip-rule:evenodd;fill:#FFFFFF;}
	.st144{fill:#F5F5F5;}
	.st145{fill:#E0E0E0;}
	.st146{opacity:0.1;}
	.st147{fill:#333333;}
	.st148{fill:#27DEBF;}
	.st149{opacity:0.2;fill:#333333;enable-background:new    ;}
	.st150{opacity:0.15;fill:#333333;enable-background:new    ;}
	.st151{fill:#37474F;}
	.st152{fill:#263238;}
	.st153{fill:#455A64;}
	.st154{opacity:0.75;fill:#FFFFFF;enable-background:new    ;}
	.st155{opacity:0.5;fill:#333333;enable-background:new    ;}
	.st156{opacity:0.3;fill:#333333;enable-background:new    ;}
	.st157{opacity:0.6;fill:#333333;enable-background:new    ;}
	.st158{opacity:0.4;fill:#333333;enable-background:new    ;}
	.st159{opacity:0.45;fill:#333333;enable-background:new    ;}
	.st160{opacity:0.15;fill:#27DEBF;enable-background:new    ;}
	.st161{opacity:0.3;fill:#27DEBF;enable-background:new    ;}
	.st162{fill:#FAFAFA;}
	.st163{fill:#EBEBEB;}
	.st164{opacity:0.5;}
	.st165{opacity:0.6;fill:#FFFFFF;enable-background:new    ;}
	.st166{fill:#F28F8F;}
	.st167{opacity:0.8;fill:#455A64;enable-background:new    ;}
	.st168{opacity:0.4;}
	.st169{fill:#FFA8A7;}
	.st170{fill:none;stroke:#E0E0E0;stroke-width:0.5;stroke-linecap:round;stroke-linejoin:round;}
	.st171{fill:#FAFAFA;stroke:#E0E0E0;stroke-width:0.92;stroke-miterlimit:10;}
	.st172{opacity:0.1;fill:#333333;enable-background:new    ;}
	.st173{opacity:0.5;fill:#FFFFFF;enable-background:new    ;}
	.st174{opacity:0.2;}
	.st175{fill:#F0F0F0;}
	.st176{opacity:0.4;fill:#FFFFFF;enable-background:new    ;}
	.st177{fill:#B16668;}
	.st178{opacity:0.85;fill:#FFFFFF;enable-background:new    ;}
	.st179{opacity:0.6;}
	.st180{opacity:3.000000e-02;fill:#FFFFFF;enable-background:new    ;}
	.st181{fill:#EAF2FC;}
	.st182{clip-path:url(#XMLID_24_);fill:#D4DFFF;}
	.st183{clip-path:url(#XMLID_25_);fill:#FFFFFF;}
	.st184{clip-path:url(#XMLID_25_);fill:#008080;}
	.st185{opacity:0.3;clip-path:url(#XMLID_26_);fill:#6880E4;}
	.st186{opacity:0.3;clip-path:url(#XMLID_27_);fill:#6880E4;}
	.st187{clip-path:url(#XMLID_28_);fill:#F99747;}
	.st188{clip-path:url(#XMLID_29_);fill:#8E5C57;}
	.st189{clip-path:url(#XMLID_29_);fill:#FFFFFF;}
	.st190{clip-path:url(#XMLID_30_);fill:#8E5C57;}
	.st191{clip-path:url(#XMLID_31_);fill:#008080;}
	.st192{fill:#FE8E9C;}
	.st193{clip-path:url(#XMLID_32_);fill:#008080;}
	.st194{clip-path:url(#XMLID_33_);fill:#1C056D;}
	.st195{clip-path:url(#XMLID_34_);fill:#E57492;}
	.st196{fill:#E57492;}
	.st197{clip-path:url(#XMLID_35_);fill:#F99747;}
	.st198{opacity:0.3;clip-path:url(#XMLID_36_);fill:#F99747;}
	.st199{opacity:0.27;}
	.st200{opacity:0.3;}
	.st201{opacity:0;fill:#190C00;}
	.st202{opacity:4.166667e-02;fill:#190C00;}
	.st203{opacity:8.333334e-02;fill:#190C00;}
	.st204{opacity:0.125;fill:#190C00;}
	.st205{opacity:0.1667;fill:#190C00;}
	.st206{opacity:0.2083;fill:#190C00;}
	.st207{opacity:0.25;fill:#190C00;}
	.st208{opacity:0.2917;fill:#190C00;}
	.st209{opacity:0.3333;fill:#190C00;}
	.st210{opacity:0.375;fill:#190C00;}
	.st211{opacity:0.4167;fill:#190C00;}
	.st212{opacity:0.4583;fill:#190C00;}
	.st213{opacity:0.5;fill:#190C00;}
	.st214{opacity:0.5417;fill:#190C00;}
	.st215{opacity:0.5833;fill:#190C00;}
	.st216{opacity:0.625;fill:#190C00;}
	.st217{opacity:0.6667;fill:#190C00;}
	.st218{opacity:0.7083;fill:#190C00;}
	.st219{opacity:0.75;fill:#190C00;}
	.st220{opacity:0.7917;fill:#190C00;}
	.st221{opacity:0.8333;fill:#190C00;}
	.st222{opacity:0.875;fill:#190C00;}
	.st223{opacity:0.9167;fill:#190C00;}
	.st224{opacity:0.9583;fill:#190C00;}
	.st225{fill:#190C00;}
	.st226{fill:url(#SVGID_113_);}
	.st227{fill:url(#SVGID_114_);}
	.st228{fill:url(#SVGID_115_);}
	.st229{fill:url(#SVGID_116_);}
	.st230{fill:url(#SVGID_117_);}
	.st231{fill:url(#SVGID_118_);}
	.st232{fill:url(#SVGID_119_);}
	.st233{fill:url(#SVGID_120_);}
	.st234{fill:url(#SVGID_121_);}
	.st235{fill:url(#SVGID_122_);}
	.st236{fill:url(#SVGID_123_);}
	.st237{fill:url(#SVGID_124_);}
	.st238{fill:url(#SVGID_125_);}
	.st239{fill:url(#SVGID_126_);}
	.st240{fill:url(#SVGID_127_);}
	.st241{fill:url(#SVGID_128_);}
	.st242{fill:url(#SVGID_129_);}
	.st243{fill:url(#SVGID_130_);}
	.st244{fill:url(#SVGID_131_);stroke:#A0A0A0;stroke-width:2;stroke-miterlimit:10;}
	.st245{fill:url(#SVGID_132_);stroke:#A0A0A0;stroke-width:2;stroke-miterlimit:10;}
	.st246{fill:url(#SVGID_133_);stroke:#A0A0A0;stroke-width:2;stroke-miterlimit:10;}
	.st247{fill:url(#SVGID_134_);stroke:#A0A0A0;stroke-width:2;stroke-miterlimit:10;}
	.st248{fill:url(#SVGID_135_);stroke:#A0A0A0;stroke-width:2;stroke-miterlimit:10;}
	.st249{fill:url(#SVGID_136_);stroke:#A0A0A0;stroke-width:2;stroke-miterlimit:10;}
	.st250{fill:url(#SVGID_137_);stroke:#A0A0A0;stroke-width:2;stroke-miterlimit:10;}
	.st251{fill:url(#SVGID_138_);stroke:#A0A0A0;stroke-width:2;stroke-miterlimit:10;}
	.st252{fill:url(#SVGID_139_);stroke:#A0A0A0;stroke-width:2;stroke-miterlimit:10;}
	.st253{fill:url(#SVGID_140_);stroke:#A0A0A0;stroke-width:2;stroke-miterlimit:10;}
	.st254{fill:url(#SVGID_141_);stroke:#A0A0A0;stroke-width:2;stroke-miterlimit:10;}
	.st255{fill:url(#SVGID_142_);stroke:#A0A0A0;stroke-width:2;stroke-miterlimit:10;}
	.st256{fill:url(#SVGID_143_);}
	.st257{fill:url(#SVGID_144_);}
	.st258{fill:url(#SVGID_145_);}
	.st259{fill:url(#SVGID_146_);}
	.st260{fill:#525575;}
	.st261{fill:url(#SVGID_147_);}
	.st262{fill:url(#SVGID_148_);}
	.st263{fill:url(#SVGID_149_);}
	.st264{fill:url(#SVGID_150_);}
	.st265{fill:url(#SVGID_151_);}
	.st266{fill:url(#SVGID_152_);}
	.st267{fill:url(#SVGID_153_);}
	.st268{fill:url(#SVGID_154_);}
	.st269{fill:url(#SVGID_155_);}
	.st270{fill:url(#SVGID_156_);}
	.st271{fill:url(#SVGID_157_);}
	.st272{fill:url(#SVGID_158_);}
	.st273{fill:url(#SVGID_159_);}
	.st274{fill:url(#SVGID_160_);}
	.st275{fill:url(#SVGID_161_);}
	.st276{fill:url(#SVGID_162_);}
	.st277{fill:url(#SVGID_163_);}
	.st278{fill:url(#SVGID_164_);}
	.st279{fill:url(#SVGID_165_);}
	.st280{fill:url(#SVGID_166_);}
	.st281{fill:url(#SVGID_167_);}
	.st282{fill:url(#SVGID_168_);}
	.st283{fill:url(#SVGID_169_);}
	.st284{fill:url(#SVGID_170_);}
	.st285{fill:url(#SVGID_171_);}
	.st286{fill:url(#SVGID_172_);}
	.st287{fill:#E6E6E6;}
	.st288{fill:#373A5A;}
	.st289{fill:#F5CDBD;}
	.st290{fill:#EB8568;}
	.st291{fill:#FFCE8F;}
	.st292{fill:#FFF1E9;}
	.st293{fill:#F7BE4A;}
	.st294{fill:#FF9158;}
	.st295{fill:#FF9768;}
	.st296{fill:#FFCBB7;}
	.st297{fill:#54476C;}
	.st298{fill:#BDD2F5;}
	.st299{fill:#FFC799;}
	.st300{fill:#FFB798;}
	.st301{fill:#FFC19F;}
	.st302{fill:#FFEAD8;}
	.st303{fill:#FFA55C;}
	.st304{fill:#676982;}
	.st305{fill:#51546F;}
	.st306{fill:#FF7B58;}
	.st307{fill:#F7B245;}
	.st308{fill:#7F8195;}
	.st309{fill:url(#SVGID_173_);}
	.st310{filter:url(#Adobe_OpacityMaskFilter);}
	.st311{mask:url(#SVGID_174_);}
</style>
<path class="st82" d="M311.7,504.2c44.8,4.6,89.9,6.4,134.1,7.1c104.3,1.8,208.8-6.7,311.5-25.4c70.6-12.8,131.7-41.8,143.9-118.7
	c15.8-99.8-33-225.9-141.9-244.6c-33.7-5.8-68.7-5.5-101-16.6c-48.2-16.4-85.7-55.5-136.7-64.8c-52.1-9.4-110,1.7-151.8,36.6
	c-18.4,15.3-34.1,33.3-48.8,52.1c-11.4,14.6-21.9,32.8-39.2,41c-21.2,10.1-45.9,2.1-69.2-1c-39.9-5.3-86.9,7.6-116.7,35.3
	C64.7,234.3,55.4,288,59.6,328.3c5.5,52.8,31.6,102.4,76.8,131.6C187.4,492.9,252.8,498.2,311.7,504.2z"/>
<g>
	<g>
		<g>
			<path class="st287" d="M177,422.6c4.6,2.7,12.3,2.6,17.2-0.2l227.3-131.2c4.8-2.8,5-7.2,0.4-9.9c-4.6-2.7-12.3-2.6-17.2,0.2
				L177.3,412.7C172.5,415.5,172.3,420,177,422.6z"/>
		</g>
		<path class="st290" d="M159.9,324.9c0,5.6,4,7.9,8.9,5.1l235.8-136.1c4.9-2.8,8.9-9.7,8.9-15.4l0-166c0-5.6-4-7.9-8.9-5.1
			L168.8,143.6c-4.9,2.8-8.9,9.7-8.9,15.4L159.9,324.9z"/>
		<path class="st291" d="M421.6,182.6c0,5.6-4,12.5-8.9,15.4L177,334.1c-4.9,2.8-8.9,0.5-8.9-5.1l0-166c0-5.6,4-12.5,8.9-15.4
			L412.8,11.5c4.9-2.8,8.9-0.5,8.9,5.1L421.6,182.6z"/>
		<polygon class="st292" points="414.2,188.1 175.5,326 175.5,157.6 414.2,19.7 		"/>
		<g>
			<g>
				<polygon class="st293" points="198.3,301.9 189.5,307 189.5,288.6 198.3,283.5 				"/>
			</g>
			<g>
				<polygon class="st293" points="227.4,285.1 218.5,290.2 218.5,256 227.4,250.9 				"/>
			</g>
			<g>
				<polygon class="st293" points="256.4,268.4 247.5,273.5 247.5,222.4 256.4,217.3 				"/>
			</g>
			<g>
				<polygon class="st293" points="285.4,251.6 276.6,256.7 276.6,213.8 285.4,208.7 				"/>
			</g>
			<g>
				<polygon class="st293" points="314.4,234.9 305.6,240 305.6,174.9 314.4,169.8 				"/>
			</g>
			<g>
				<polygon class="st293" points="343.5,218.1 334.6,223.2 334.6,146.6 343.5,141.5 				"/>
			</g>
			<g>
				<polygon class="st293" points="372.5,201.3 363.6,206.5 363.6,136.6 372.5,131.5 				"/>
			</g>
			<g>
				<polygon class="st293" points="401.5,184.6 392.7,189.7 392.7,92.8 401.5,87.7 				"/>
			</g>
		</g>
		<path class="st294" d="M193.8,272.8c0,0,3.2-3.6,8.9-9.9c2.8-3.2,6.2-7,10.2-11.4c2-2.2,4.1-4.5,6.3-7c1.1-1.2,2.2-2.5,3.4-3.8
			c0.5-0.6,1.1-1.3,1.7-2c0.6-0.7,1.1-1.4,1.7-2.1c4.6-5.7,9.4-12.2,14.9-18.7c2.7-3.2,5.6-6.6,8.8-9.5c0.4-0.4,0.8-0.7,1.2-1
			l0.6-0.5l0.3-0.2l0.2-0.1l0.2-0.1l1.2-0.8c0.4-0.2,0.9-0.4,1.3-0.6c1.7-0.8,3.4-1.2,5-1.6c3.2-0.7,6.4-1.1,9.6-1.6
			c1.6-0.3,3.2-0.5,4.9-1c1.6-0.4,3.3-0.9,4.9-1.8c0.4-0.2,0.8-0.5,1.2-0.7l0.6-0.4l0.6-0.5c0.4-0.4,0.9-0.7,1.2-1.1l1.1-1.2
			c1.5-1.7,3-3.5,4.5-5.5c2.9-3.9,5.7-8,8.5-12.2c2.8-4.2,5.5-8.4,8.5-12.5c1.5-2.1,3-4.1,4.6-6c1.6-1.8,3.2-3.6,4.8-5.3
			c6.5-7,12.9-13.6,19.5-19.3c0.8-0.7,1.6-1.4,2.5-2l1.3-0.9l0.6-0.5l0.3-0.2l0.1-0.1l0.1-0.1l0.2-0.1l1.2-0.7l1.3-0.6
			c0.9-0.4,1.7-0.6,2.5-0.9c3.2-1,6.2-1.5,9.1-2.1c2.9-0.6,5.7-1.1,8.5-2.1c1.4-0.5,2.8-1,4.1-1.8c0.7-0.3,1.3-0.9,1.9-1.3
			c0,0,0.1-0.1,0.1,0l0.1-0.1l0.2-0.2l0.5-0.5c0.3-0.3,0.7-0.6,0.9-0.9c0.6-0.6,1.1-1.3,1.7-1.9c0.5-0.7,1.1-1.4,1.6-2.1
			c1-1.4,2.1-2.8,3-4.2c1.9-2.8,3.6-5.6,5.2-8.2c3.2-5.2,5.9-9.8,8.2-13.6c2.3-3.8,4.1-6.7,5.5-8.7c0.6-1,1.2-1.7,1.5-2.2
			c0.4-0.5,0.5-0.7,0.5-0.7c0.1-0.2,0.3-0.2,0.4-0.1c0.1,0.1,0.1,0.3-0.1,0.5l0,0c0,0-0.2,0.3-0.5,0.7c-0.3,0.5-0.9,1.2-1.5,2.2
			c-1.3,1.9-3.1,4.9-5.3,8.7c-2.2,3.8-4.9,8.4-8,13.7c-1.6,2.6-3.3,5.4-5.2,8.3c-1.9,2.9-4,5.9-6.6,8.7c-0.3,0.3-0.6,0.6-1,0.9
			l-0.5,0.5l-0.2,0.2l-0.1,0.1c-0.1,0.1-0.1,0.1-0.2,0.1c-0.7,0.5-1.5,1.2-2.2,1.5c-1.5,0.9-2.9,1.5-4.4,2c-2.9,1-5.7,1.6-8.7,2.3
			c-2.9,0.6-5.9,1.2-9,2.2c-0.8,0.3-1.6,0.5-2.3,0.9l-1.1,0.5l-1.2,0.7c-0.7,0.5-1.6,1.1-2.3,1.7c-0.8,0.5-1.6,1.3-2.4,1.9
			c-6.4,5.5-12.8,12.1-19.2,19c-1.6,1.7-3.2,3.5-4.8,5.3c-1.5,1.8-3,3.7-4.4,5.7c-2.8,4-5.6,8.2-8.4,12.4c-2.8,4.2-5.6,8.4-8.6,12.4
			c-1.5,2-3.1,3.9-4.8,5.8l-1.3,1.4c-0.4,0.5-0.9,0.8-1.3,1.2l-0.3,0.3l-0.2,0.1l-0.1,0.1c0,0-0.1,0.1-0.1,0.1l-0.7,0.5
			c-0.5,0.3-1,0.7-1.4,0.9c-1.9,1-3.6,1.5-5.3,2c-1.7,0.4-3.3,0.7-5,1c-3.2,0.5-6.4,0.8-9.5,1.5c-1.6,0.3-3.2,0.8-4.7,1.4
			c-0.4,0.2-0.7,0.3-1.1,0.5l-1.2,0.7l-0.1,0c0,0-0.1,0.1,0,0l-0.1,0.1l-0.3,0.2l-0.6,0.4c-0.4,0.3-0.7,0.6-1.1,0.9
			c-3,2.7-5.8,5.9-8.5,9c-5.4,6.4-10.2,12.8-14.9,18.6c-0.6,0.7-1.2,1.4-1.8,2.1c-0.6,0.7-1.1,1.3-1.8,2c-1.2,1.3-2.3,2.5-3.4,3.7
			c-2.2,2.4-4.3,4.7-6.3,6.9c-4,4.3-7.4,8.1-10.3,11.2c-5.7,6.2-9,9.8-9,9.8c-0.1,0.2-0.3,0.2-0.4,0.1
			C193.6,273.2,193.7,273,193.8,272.8z"/>
		<g>
			<g>
				<polygon class="st295" points="373.5,72.4 397.2,58.8 397.2,69.9 391,69.9 373.5,79.9 				"/>
			</g>
			<g>
				<polygon class="st295" points="344.4,112.4 368.1,98.8 368.1,109.9 361.9,109.9 344.4,119.9 				"/>
			</g>
			<g>
				<polygon class="st295" points="315.4,115.4 339,101.7 339,112.8 332.8,112.8 315.4,122.9 				"/>
			</g>
			<g>
				<polygon class="st295" points="286.4,151.5 310,137.8 310,148.9 303.8,148.9 286.4,159 				"/>
			</g>
			<g>
				<polygon class="st295" points="257.4,185.6 281,172 281,183.1 274.8,183.1 257.4,193.1 				"/>
			</g>
			<g>
				<polygon class="st295" points="227.5,189 251.1,175.3 251.1,186.4 244.9,186.4 227.5,196.5 				"/>
			</g>
			<g>
				<polygon class="st295" points="199.3,223.7 222.9,210.1 222.9,221.2 216.7,221.2 199.3,231.3 				"/>
			</g>
		</g>
	</g>
	<g>
		<g>
			<path class="st287" d="M537.1,545.7c12-6.9,29.2-8.9,44.2-5.9l-133.5-79c-5.7-3.4-6.3-9.8-1.3-14.1l135.6-117.5
				c5-4.4,13.6-4.7,18.9-0.7l135,100.7c16.2-5,36.9-3.6,50.6,4.3c16.8,9.7,16.8,25.4,0,35c-0.4,0.2-0.7,0.4-1.1,0.6
				c0.4,2.9-1.1,5.7-4.4,7.8l-139.7,86c-5.7,3.5-15,3.6-20.8,0.2l-12.3-7.3c4.6,8.5,1.1,18.2-10.6,25c-16.8,9.7-43.9,9.7-60.7,0
				C520.3,571.1,520.3,555.4,537.1,545.7z"/>
			<path class="st287" d="M436.9,490.8c16.8-9.7,43.9-9.7,60.7,0c16.8,9.7,16.8,25.4,0,35c-16.8,9.7-43.9,9.7-60.7,0
				C420.2,516.1,420.2,500.5,436.9,490.8z"/>
		</g>
		<g>
			<path class="st288" d="M795.2,455.6c-2.8-5.4-5.5-10.9-8.2-16.4l-4-8.2l-4-8.3c-5.3-11-10.5-22.1-15.6-33.2l3.2,1l-9.9,5.8l1.1-2
				l-0.1,21.1c-0.1,7-0.1,14.1-0.3,21.1c-0.1,7-0.3,14.1-0.5,21.1c-0.3,7-0.4,14.1-0.7,21.1c0,0.4-0.4,0.7-0.8,0.7
				c-0.4,0-0.7-0.3-0.7-0.7c-0.3-7-0.5-14.1-0.7-21.1c-0.2-7-0.3-14.1-0.5-21.1c-0.1-7-0.2-14.1-0.3-21.1l-0.1-21.1l0-1.3l1.2-0.7
				l10-5.7l2.2-1.2l1,2.3c5.1,11.1,10,22.3,14.9,33.6l3.6,8.4l3.6,8.5c2.3,5.7,4.7,11.3,7,17c0.1,0.4,0,0.8-0.4,0.9
				C795.8,456.1,795.4,456,795.2,455.6z"/>
			<path class="st288" d="M749.3,431.4c0-4.1,0.2-8.1,0.3-12.2c0.1-4.1,0.3-8.1,0.5-12.2l0.6-12.2l0.8-12.2l3.3,2.1l-9.9,5.8l1-1.1
				c-2.3,5.6-4.8,11.1-7.2,16.7l-3.7,8.3l-3.7,8.3c-2.5,5.5-5,11-7.6,16.5l-3.9,8.2c-1.3,2.7-2.6,5.5-4,8.2c-0.2,0.4-0.6,0.5-1,0.3
				c-0.3-0.2-0.5-0.6-0.4-0.9c1-2.9,2.1-5.7,3.2-8.5l3.2-8.5c2.2-5.6,4.5-11.3,6.7-16.9l3.5-8.4l3.5-8.4c2.4-5.6,4.7-11.2,7.1-16.7
				l0.3-0.7l0.6-0.4l10-5.7l3.7-2.1l-0.4,4.2l-1.1,12.2l-1.2,12.1c-0.4,4-0.9,8.1-1.4,12.1c-0.5,4-0.9,8.1-1.5,12.1
				c-0.1,0.4-0.4,0.7-0.8,0.6C749.6,432.1,749.3,431.8,749.3,431.4z"/>
			<path class="st290" d="M707,378.8c2.2,4.2,18,15.1,27.1,17.6c9.1,2.4,32.2,0,42.2-4.9c10-4.9,14.4-13.1,19.3-30.2
				c4.9-17.1,7.1-32.5,7.1-47.6c0-15.1-4.9-22.9-11.8-29.8c-6.9-6.9-22.5-13.9-37.6-9.6c-1.2,0.3-2.6,1-4.1,2.1
				c-4.1,2.9-8.6,8.7-9.9,19.1c-1.8,14.2-4,38.7-5.1,41.8c-1.1,3.1-7.1,4-12.4,6.4c-4.7,2.1-12,5.3-15.6,11.1v0
				c-0.5,0.8-1,1.7-1.3,2.7C702.4,365,704.8,374.6,707,378.8z"/>
			<path class="st291" d="M735.7,385.3c8.2,2,24-0.5,39.8-11.3c5.7-3.9,8.9-12.2,12-20.9c3.1-8.7,7.6-36.4,7.6-43.6
				c0-7.1-5.8-17.8-14.2-26.2c-8.4-8.4-24.7-9.5-31.4-6.8c-4.1,2.9-8.6,8.7-9.9,19.1c-1.8,14.2-4,38.7-5.1,41.8
				c-1.1,3.1-7.1,4-12.4,6.4c-4.7,2.1-12,5.3-15.6,11.1v0C699.6,373.9,727.5,383.3,735.7,385.3z"/>
		</g>
		<g>
			<path class="st288" d="M682.8,395.3c-2.8-5.4-5.5-10.9-8.2-16.4l-4-8.2l-4-8.3c-5.3-11-10.5-22.1-15.6-33.2l3.2,1l-9.9,5.8l1.1-2
				l-0.1,21.1c-0.1,7-0.1,14.1-0.3,21.1c-0.1,7-0.3,14.1-0.5,21.1c-0.3,7-0.4,14.1-0.7,21.1c0,0.4-0.4,0.7-0.8,0.7
				c-0.4,0-0.7-0.3-0.7-0.7c-0.3-7-0.5-14.1-0.7-21.1c-0.2-7-0.4-14.1-0.5-21.1c-0.1-7-0.2-14.1-0.3-21.1l-0.1-21.1l0-1.3l1.1-0.7
				l10-5.7l2.2-1.2l1,2.3c5.1,11.1,10,22.3,14.9,33.6l3.6,8.4l3.6,8.5c2.3,5.7,4.7,11.3,7,17c0.1,0.4,0,0.8-0.4,0.9
				C683.3,395.8,682.9,395.6,682.8,395.3z"/>
			<path class="st288" d="M636.9,371.1c0-4.1,0.2-8.1,0.3-12.2c0.1-4.1,0.3-8.1,0.5-12.2l0.6-12.2l0.8-12.2l3.3,2.1l-9.9,5.8l1-1.1
				c-2.3,5.6-4.8,11.1-7.2,16.7l-3.7,8.3l-3.7,8.3c-2.5,5.5-5,11-7.6,16.5l-3.9,8.2c-1.3,2.7-2.6,5.5-4,8.2c-0.2,0.4-0.6,0.5-1,0.3
				c-0.3-0.2-0.5-0.6-0.4-0.9c1-2.9,2.1-5.7,3.2-8.5l3.2-8.5c2.2-5.6,4.5-11.3,6.7-16.9l3.5-8.4l3.5-8.4c2.4-5.6,4.7-11.2,7.1-16.7
				l0.3-0.7l0.6-0.4l10-5.7l3.7-2.1l-0.4,4.2l-1.1,12.2l-1.2,12.1c-0.4,4-0.9,8.1-1.4,12.1c-0.5,4-0.9,8.1-1.5,12.1
				c-0.1,0.4-0.4,0.7-0.8,0.6C637.1,371.8,636.9,371.4,636.9,371.1z"/>
			<path class="st290" d="M594.6,318.5c2.2,4.2,18,15.1,27.1,17.6c9.1,2.4,32.2,0,42.2-4.9c10-4.9,14.4-13.1,19.3-30.2
				c4.9-17.1,7.1-32.4,7.1-47.6c0-15.1-4.9-22.9-11.8-29.8c-6.9-6.9-22.5-13.9-37.6-9.6c-1.2,0.3-2.6,1-4.1,2.1
				c-4.1,2.9-8.6,8.7-9.9,19.1c-1.8,14.2-4,38.7-5.1,41.8c-1.1,3.1-7.1,4-12.4,6.4c-4.7,2.1-12,5.3-15.6,11.1v0
				c-0.5,0.8-1,1.7-1.3,2.7C589.9,304.7,592.3,314.3,594.6,318.5z"/>
			<path class="st291" d="M623.2,324.9c8.2,2,24-0.4,39.8-11.3c5.7-3.9,8.9-12.2,12-20.9c3.1-8.7,7.6-36.4,7.6-43.6
				c0-7.1-5.8-17.8-14.2-26.2c-8.4-8.4-24.7-9.5-31.4-6.8c-4.1,2.9-8.6,8.7-9.9,19.1c-1.8,14.2-4,38.7-5.1,41.8
				c-1.1,3.1-7.1,4-12.4,6.4c-4.7,2.1-12,5.3-15.6,11.1v0C587.2,313.6,615,322.9,623.2,324.9z"/>
		</g>
		<g>
			<g>
				<path class="st288" d="M698.6,438.9c0.6,2.2,3.3,6.9,2,9.1c-1.3,2.2-14.1,9.9-17.7,11c-3.6,1.2-7.6,2-9,0.8
					c-1.4-1.3-0.9-5.4,0-6.6c0.8-1.2,9.3-12.5,10.9-14.4c1.5-1.9,5.3-4.6,7.5-4.1C694.5,435.3,698.6,438.9,698.6,438.9z"/>
				<path class="st296" d="M684.8,438.9c0,0-3.2,6.8-1.5,7.8c1.7,1,8.7-1,10.9-2.7c2.2-1.7,3.9-4.7,3.9-4.7s-2.4-4-5.4-3.1
					c-1.1,0.3-5.7,1.4-7,1.9L684.8,438.9z"/>
				<path class="st288" d="M736.2,454.6c0.4,2.3,1.8,4.5,1.1,7.4c-0.7,2.9-8.7,11.4-11.1,13.6c-2.4,2.2-5.4,3.2-8.2,1.7
					c-2.7-1.5-1.7-4.4-1.2-7.1c0.5-2.7,4.5-13.2,6.4-15.5c1.8-2.3,5.5-3.5,7.9-3C733.5,452.1,736.2,454.6,736.2,454.6z"/>
				<path class="st296" d="M723.2,454.6c0,0-1.4,4.6-1.4,7.7c0,3.1,1.3,5.6,5.1,3.1c3.8-2.5,7.2-5.1,7.7-6.3c0.5-1.2,0-5.8,0-5.8
					L723.2,454.6z"/>
				<path class="st297" d="M771.1,375.9c-1.8,3.7-3.1,5.1-14.7,14.2c-9,10.6-18.7,12.3-18.9,14.9c0.3,5.4-0.2,46.6-0.2,48.6
					c-2.6,2.8-6.6,2.8-8.9,2.8c-1.6,0-4-1.2-5.2-1.8c-0.4-0.2-0.6-0.4-0.7-0.4c0,0,0,0,0,0c0,0-6.5-43.6-7.8-50.7
					c-0.4-7.6,6.4-15.6,9.7-25.2c-11.4,11.9-21.3,9.5-21.7,14.2c0.4,4.7-2.6,44.6-3.1,45.9c-2.4,1.9-14,2.7-16.2-2.8l0,0
					c-0.3-4.5-0.8-50.1-0.9-53.7c-0.2-5.7,29.2-27.7,33.9-33.3c4.7-5.6,15.1-15.3,20.2-15.3c5,0,22.9,8.7,30.5,14.3
					c2,1.5,3.3,2.7,3.5,3.6C771.9,356.4,774.1,369.9,771.1,375.9z"/>
				<path class="st298" d="M771.1,375.9c-1.8,3.7-4.3,5.9-14.7,14.2c-9,10.6-18.7,12.3-18.9,14.9c0.3,5.4-0.2,46.6-0.2,48.6
					c-2.6,2.8-6.6,2.8-8.9,2.8c-1.6,0-4-1.2-5.2-1.8c7.2-0.6,10.1-2.1,10-7.7c-0.1-5.5,0-39.9,1.4-42.8c1.4-2.9,12.3-12.7,23.8-24.5
					c11.5-11.8,10.4-15.3,9.8-19.3c-0.6-4-11.8,1.1-17.9-0.1c0,0,8.5-7.9,16.8-12.7c2,1.5,3.3,2.7,3.5,3.6
					C771.9,356.4,774.1,369.9,771.1,375.9z"/>
				<path class="st299" d="M727.6,369.8l-3.2,8.5c0,0,0,0,0,0c-11.4,11.9-21.3,9.5-21.7,14.2c0.4,4.7-2.6,44.6-3.1,45.9
					c-2.4,1.9-14,2.7-16.2-2.8c0.4,0.1,8.8,2.4,11.3,0.5c2.6-2,4.9-31.1,4.8-38.6c-0.1-7.5,2.1-11.4,7.7-14.8
					C712.8,379.2,727.1,370.3,727.6,369.8z"/>
			</g>
		</g>
		<g>
			<path class="st294" d="M720.6,324.9c-1,5.4-2.4,13.1-3.9,23.6c4.7,5.1,14.6,8.7,22.7,10.5c4.8,1,8.9,1.5,10.9,1.2
				c5.4-0.7,13.6-2.7,20.6-9.2c0.5-4.2-3.4-13.9-2.8-19.5c0.3-3,2.4-8,4.5-12.6c1.8-3.9,3.6-7.6,4.4-9.8c1.9-4.9,1.2-13.6,0-17.2
				c-1.2-3.6-15.6-16.5-19-20.4c0,0-13.4-5.3-20.2-5.7c-6.8-0.4-16.4,0.2-19.3,2.6c-2.9,2.4-5.7,11.8-6.2,23.1
				c-0.5,11.4,6.1,17,8.3,19.4C722.8,313.4,721.7,319.5,720.6,324.9z"/>
			<path class="st289" d="M739.4,359.1c4.8,1,8.9,1.5,10.9,1.2c5.4-0.7,13.6-2.7,20.6-9.2c0.5-4.2-3.4-13.9-2.8-19.5
				c0.3-3,2.4-8,4.5-12.6c-1.7-7.7-3.5-14.1-5.1-14.8c-3.9-1.7-5.6-9.9-5.6-9.9c-2.4,5.7-1.6,18.5-0.8,22.5c0.9,4-0.4,15.1-2.2,17.3
				c-1.8,2.2,7.5,13.1,5.7,17C762.1,356.3,748.6,356.9,739.4,359.1z"/>
			<path class="st288" d="M760.1,259.6c-7.9-4.6-3.6-31.2-3.6-31.2c0.4-0.5,7.6-8.1,13.2-3.4c5.6,4.7,4.7,19.7,1.7,31.6
				c-2,7.9-2.6,17.9-2.3,23.1C756,272.3,765.1,262.4,760.1,259.6z"/>
			<path class="st300" d="M757.3,260.7c0,0,0,10.4,0,12.4c0,2-6.1,4.6-10,4.1c-3.9-0.5-5.8-2.7-5.8-2.7V268c0,0,0.7-6.3,4.4-7.3
				C749.7,259.7,757.3,260.7,757.3,260.7z"/>
			<path class="st60" d="M757.3,273.1c0,0,0,0.1,0,0.2c0,0.1,0,0.3-0.1,0.6c-0.1,0.3-0.2,0.6-0.5,0.9c-0.2,0.3-0.5,0.6-0.9,0.9
				c-0.7,0.6-1.6,1.2-2.6,1.6c-0.5,0.2-1.1,0.4-1.6,0.6c-0.6,0.2-1.2,0.3-1.8,0.4c-0.6,0.1-1.2,0.1-1.8,0.1c-0.3,0-0.6-0.1-1-0.1
				c-0.3-0.1-0.5-0.1-0.8-0.2c-0.5-0.1-1.1-0.4-1.5-0.6c-0.5-0.2-0.9-0.5-1.3-0.8c-0.7-0.6-1.2-1.1-1.5-1.5
				c-0.3-0.4-0.4-0.7-0.4-0.7s0.3,0.2,0.7,0.4c0.2,0.1,0.5,0.2,0.8,0.3c0.3,0.1,0.7,0.2,1,0.4c0.4,0.1,0.8,0.2,1.2,0.3
				c0.4,0.1,0.8,0.2,1.4,0.2c0.3,0,0.5,0.1,0.8,0.1c0.1,0,0.4,0,0.6,0c0.5,0,1,0,1.5-0.1c0.5-0.1,1-0.2,1.5-0.2
				c0.5-0.1,1-0.2,1.5-0.3c0.5-0.1,0.9-0.3,1.4-0.4c0.4-0.1,0.8-0.3,1.2-0.4c0.4-0.2,0.7-0.3,1-0.5c0.3-0.2,0.5-0.3,0.7-0.5
				c0.1-0.1,0.3-0.3,0.3-0.4C757.3,273.2,757.3,273.1,757.3,273.1z"/>
			<path class="st296" d="M762.3,258.3c2.5-6.1,0.3-18.2-5.9-22.8c-6.3-4.6-25.8,0.7-26.7,8.2c-0.9,7.5,2.4,23.5,7.8,26.2
				c5.4,2.7,7.4,1.6,10.8,0.4C757.3,267,762.3,258.3,762.3,258.3z"/>
			<path class="st288" d="M730,252.7c-1.3-3.5-3.1-10.4-2.1-16.6c1-6.2,5.9-13.3,15.2-15.3c9.3-2,16.4,2.3,17.8,3.9
				c2.7,2.9,8.3,11.3,6.2,22.3c-2,11-5.4,15.3-9.8,17.4c-2.6-4-3.1-9.9-3.7-11.7c-4.2-12.3-15-2.4-24.1-7.6
				C729.5,245.1,729.6,249,730,252.7z"/>
			<path class="st296" d="M751.4,252.7c0,0,0.8-6.9,4.4-5.8c3.7,1.1,2.4,11.6-1,10.9C751.4,257.1,751.4,252.7,751.4,252.7z"/>
			<path class="st289" d="M720.6,311c2.4,2.8,11,6.6,15.6,6.9c3.2,3.2,14.4,9.9,19,8.9c4.6-1,5.9-1.8,5.9-1.8s-4.2,2.6-6.8,2.6
				c-6.2,0-13.3-5.1-17.7-7.8c-5.3-1.1-13.9-4.4-15-6.6L720.6,311z"/>
		</g>
		<g>
			<g>
				<path class="st288" d="M588.4,371.2c0.2,1.2,0.1,6.5-0.9,7.4c-1.1,0.9-5.8,2-7.7,0.7c-3.1,1.8-7.7,6-14.6,5.8
					c-6.9-0.3-6.1-3.8-4.7-5.6c1.4-1.8,14.7-11.9,16.6-12.6c2-0.7,6-1.1,7.1-0.4C585.2,367.2,588.4,371.2,588.4,371.2z"/>
				<path class="st287" d="M589.3,369.2l-0.9,2c0,0-3.7,0.6-7-0.7c-3.2-1.3-4.3-3.7-4.3-3.7l0.3-1.4c0,0,6.3-1.4,8.3-0.3
					C587.6,366.3,589.3,369.2,589.3,369.2z"/>
				<path class="st288" d="M622.1,391.5c0.7,0.6,0.5,5.4-0.2,6.6c-0.7,1.2-3.6,3.6-5.1,2.7c0,0-5.6,10-10.1,10.5
					c-1.6,0.2-7.7,0-7-3.2c0.7-3.2,8.1-16.1,9.4-18.5c1.4-2.4,5.7-1.7,6.9-1.4C617.3,388.4,622.1,391.5,622.1,391.5z"/>
				<path class="st287" d="M622.6,389l-0.5,2.5c0,0-3.9,1.5-7.3,0.8c-3.4-0.7-5.6-2.6-5.6-2.6l0.3-1.6c0,0,3.2-2.6,5.6-1.9
					C617.6,386.7,622.6,389,622.6,389z"/>
				<path class="st297" d="M669,307.4c-1.7,3.4-6.4,12.7-16.7,20.9c-10.2,8.2-19.8,14.2-20.5,16.6c-0.6,5.1-8.4,43-8.8,44.9
					c-2.9,2.1-6.6,1.4-8.7,1c-1.5-0.3-3.5-1.8-4.5-2.6c-0.3-0.3-0.5-0.5-0.6-0.5c0,0,0,0,0,0c0,0,1.7-41.4,1.8-48.2
					c0.9-7.1,9.9-19.7,14.6-28c-12.6,9-22.6,11.4-23.8,15.7c-0.5,4.4-10.3,40.8-11,41.9c-2.6,1.3-13.4,0-14.4-5.4l0,0
					c0.5-4.2,8.2-46.4,8.7-49.7c0.9-5.3,27.9-26.8,32.4-32.1c4.4-5.3,11.7-8.8,16.3-8.8c4.5,0,24.2,2.5,31.4,7.8
					c1.9,1.4,3.1,2.6,3.3,3.4C669.7,289.1,671.8,301.8,669,307.4z"/>
				<path class="st298" d="M669,307.4c-1.7,3.4-6.4,12.7-16.7,20.9c-10.2,8.2-19.8,14.2-20.5,16.6c-0.6,5.1-8.4,43-8.8,44.9
					c-2.9,2.1-6.6,1.4-8.7,1c-1.5-0.3-3.5-1.8-4.5-2.6c6.8,0.7,9.7-0.2,10.6-5.3c0.9-5.1,7.1-36.9,8.9-39.3
					c1.8-2.4,14-15.7,26.7-24.6c12.7-8.8,10.8-22.5,10.2-26.2c-0.5-3.7-11.1,1-16.8-0.1c0,0,8-7.4,15.8-12c1.9,1.4,3.1,2.6,3.3,3.4
					C669.7,289.1,671.8,301.8,669,307.4z"/>
				<path class="st298" d="M630.1,304.2l-4.4,7.2c0,0,0,0,0,0c-12.6,9-22.6,11.4-23.8,15.7c-0.5,4.4-10.3,40.8-11,41.9
					c-2.6,1.3-13.4,0-14.4-5.4c0.3,0.2,7.7,3.8,10.4,2.4c2.8-1.4,10.1-27.9,11.3-34.8c1.2-6.9,3.9-10.2,9.7-12.3
					C613.6,316.7,629.6,304.6,630.1,304.2z"/>
			</g>
			<g>
				<path class="st293" d="M668.8,256.2c-0.4,2-0.8,4-1.2,5.9c-1.5,7.7,1.6,9.3,1.5,11.7c-0.1,3-0.1,9-0.6,10.3
					c-3.7,2.8-12.1,6-17.2,6.2c-1.5,0.1-4.8-0.4-8.8-1.3c-9.1-2-21.7-5.9-24.6-9.8c-0.1-0.4-0.1-1-0.2-1.9c-0.1-2.5-2.1-1.3-2.1-5.5
					c-0.1-5.3-0.2-11-0.3-14c-0.4-6.3-2.8-18.3-2.9-25.1c-0.1-5.2-0.4-11.6,1.2-15.6c0-0.1,0.1-0.1,0.1-0.2c0.1-0.2,0.2-0.3,0.2-0.5
					c0.5-1,1.1-1.8,1.9-2.3c5.5-3.6,17.1-2.4,17.1-2.4l19.7,6.1c3.2,2.6,13.7,12.4,15.6,15.9C670.2,237.3,670.8,246.4,668.8,256.2z"
					/>
				<path class="st300" d="M652.6,210.3c0,0,0,6.1,0,7.6c0,1.5-3,4.3-7.4,4.3c-4.4,0-7.5-2.3-7.9-3c-0.4-0.6,0-6.2,0-6.2
					L652.6,210.3z"/>
				<path class="st289" d="M646.7,214.6c0,0-3.6,6.4-7.7,5.8h0c-0.9-0.5-1.4-1-1.6-1.3c-0.4-0.6,0-6.2,0-6.2l2.8-0.5
					C643.8,212.9,646.7,214.6,646.7,214.6z"/>
				<path class="st60" d="M652.6,217.9c0,0,0,0.1,0,0.2c0,0.1,0,0.4,0,0.6c-0.1,0.5-0.4,1.3-1.1,1.9c-0.3,0.4-0.7,0.7-1.1,1
					c-0.4,0.3-0.9,0.6-1.4,0.8c-0.5,0.2-1.1,0.5-1.7,0.6c-0.6,0.1-1.2,0.2-1.8,0.2l-0.2,0l-0.1,0l-0.1,0l-0.1,0l-0.4,0l-0.8-0.1
					c-0.6-0.1-1.2-0.3-1.7-0.4c-1.1-0.4-2-0.8-2.7-1.4c-0.7-0.5-1.2-1.1-1.5-1.5c-0.3-0.4-0.4-0.7-0.4-0.7c0,0,0.1,0,0.2,0.1
					c0.1,0.1,0.3,0.1,0.5,0.2c0.2,0.1,0.5,0.2,0.8,0.3c0.3,0.1,0.7,0.2,1,0.3c0.4,0.1,0.8,0.2,1.2,0.3c0.4,0.1,0.9,0.2,1.4,0.3
					c0.5,0,0.9,0.1,1.4,0.1l0.8,0l0.4,0l0.1,0l0,0l0,0l0,0c0,0,0.1,0-0.1,0l0,0l0.2,0c1,0,2-0.2,2.9-0.4c0.9-0.2,1.7-0.6,2.4-0.9
					c0.3-0.2,0.6-0.4,0.9-0.6c0.2-0.2,0.5-0.4,0.6-0.6c0.1-0.2,0.3-0.3,0.3-0.4C652.6,218,652.6,217.9,652.6,217.9z"/>
				<path class="st301" d="M627.3,192.2c-0.6,6-0.1,21.3,4.2,24c5.6,3.5,10.1,2.7,11.1,2.2c1.5-0.7,7.9-3.1,9.8-4.8
					c1.9-1.7,7.3-20.7-2.5-23.4C640.1,187.6,627.3,192.2,627.3,192.2z"/>
				<path class="st288" d="M636,195c5,0,13,1.3,13.3,8.4c0.1,2.4-0.8,8.2,2.3,11c1.9-1.5,8.2-10.2,9.5-14.9
					c1.2-4.3,2.1-12.1,0.8-16.4c-0.7-2.3-5.5-9.4-10.3-10.2c-11.8-2.1-20.1,2.5-24.9,5.3c-2.7,1.6-4.5,5.5-4,7.2
					c0.5,1.8,1.1,7,5,8.1C632.3,194.8,636,195,636,195z"/>
				<path class="st301" d="M647.3,200c0,0,1.3-4.3,3.4-3.1c2.1,1.1,2.4,9.5-2.2,9.6C644,206.5,647.3,200,647.3,200z"/>
				<path class="st289" d="M667.6,262.1c-1.5,7.7,1.6,9.3,1.5,11.7c-0.1,3-0.1,9-0.6,10.3c-3.7,2.8-12.1,6-17.2,6.2
					c-1.5,0.1-4.8-0.4-8.8-1.3c0,0,9.4-7.3,11.9-10.7c2.8-3.7,1.6-10,1.3-12.7c-0.4-2.7-1.5-15.3-0.3-21.5c0,0,8.3,4.7,11.2,14.1
					C667,259.4,667.3,260.7,667.6,262.1z"/>
			</g>
		</g>
		<g>
			<path class="st288" d="M790.6,470.4c-2.8-6.9-5.5-13.9-8.1-20.9c-2.7-7-5.2-14-7.8-21l-7.6-21l-7.4-21.1l5.2,1.8l-106.1,64
				l1.6-2.3l-6.5,29.5c-2.3,9.8-4.4,19.7-6.8,29.5c-2.3,9.8-4.7,19.6-7.1,29.4c-2.5,9.8-4.9,19.6-7.5,29.3c-0.2,0.6-0.8,1-1.4,0.8
				c-0.6-0.2-0.9-0.7-0.8-1.3c1.6-10,3.4-19.9,5.2-29.8c1.8-9.9,3.7-19.8,5.7-29.7c1.9-9.9,4-19.8,6-29.7l6.2-29.6l0.3-1.5l1.3-0.8
				l106.2-63.9l3.8-2.3l1.4,4.2l6.9,21.3l6.7,21.3c2.2,7.1,4.4,14.2,6.5,21.4c2.2,7.1,4.2,14.3,6.3,21.5c0.2,0.6-0.2,1.2-0.8,1.4
				C791.4,471.2,790.8,470.9,790.6,470.4z"/>
			<path class="st288" d="M597.8,356.3c-2.8-6.9-5.5-13.9-8.1-20.9c-2.7-7-5.2-14-7.8-21l-7.6-21l-7.4-21.1l5.2,1.8l-106.1,64
				l1.6-2.3l-6.5,29.5c-2.3,9.8-4.4,19.7-6.8,29.5c-2.3,9.8-4.7,19.6-7.1,29.4c-2.5,9.8-4.9,19.6-7.5,29.3c-0.2,0.6-0.8,1-1.4,0.8
				c-0.6-0.2-0.9-0.7-0.8-1.3c1.6-10,3.4-19.9,5.2-29.8c1.9-9.9,3.7-19.8,5.7-29.7c1.9-9.9,4-19.8,6-29.7l6.2-29.6l0.3-1.5l1.3-0.8
				l106.2-63.9l3.8-2.3l1.4,4.2l6.9,21.3l6.7,21.3c2.2,7.1,4.4,14.2,6.5,21.4c2.2,7.1,4.2,14.3,6.3,21.5c0.2,0.6-0.2,1.2-0.8,1.4
				C598.6,357.1,598,356.8,597.8,356.3z"/>
			<polygon class="st291" points="643.9,463.4 433.3,342 580.9,256.4 791.4,377.9 			"/>
			<polygon class="st290" points="791.4,377.9 791.4,382.7 643.9,468.2 643.9,463.4 			"/>
			<polygon class="st290" points="433.3,342 433.3,346.8 643.9,468.2 643.9,463.4 			"/>
		</g>
		<g>
			<path class="st288" d="M747.7,367.9l-25.7,15c-1,0.6-2.7,0.6-3.7,0L670,355c-0.5-0.3-0.8-0.7-0.8-1.1l0,2.1
				c0,0.4,0.3,0.8,0.8,1.1l48.3,27.9c1,0.6,2.7,0.6,3.7,0l25.7-15c0.5-0.3,0.7-0.7,0.7-1l0-2.1C748.5,367.3,748.2,367.6,747.7,367.9
				z"/>
			<path class="st302" d="M747.7,365.8c1,0.6,1,1.5,0,2.1l-25.7,15c-1,0.6-2.7,0.6-3.7,0L670,355c-1-0.6-1-1.5,0-2.1l25.7-15
				c1-0.6,2.6-0.6,3.6,0L747.7,365.8z"/>
			<path class="st303" d="M719.6,381.1c-0.3,0-0.5-0.1-0.5-0.1l-46.2-26.7l14.9-8.6c0,0,0.2-0.1,0.5-0.1c0.3,0,0.5,0.1,0.5,0.1
				l46.2,26.7l-14.9,8.6C720.1,381,719.9,381.1,719.6,381.1z"/>
			<polygon class="st303" points="717.5,360.4 709.3,355.7 717.5,351 725.7,355.7 			"/>
			<path class="st304" d="M719.8,382.9l-8.7-22.9c-0.3-0.9-1.4-2.1-2.5-2.7l-48.3-27.9c-0.6-0.3-1-0.4-1.2-0.2
				c-0.6,0.6-1.1,1.1-1.7,1.7c0.2-0.2,0.6-0.1,1.2,0.2l48.3,27.9c1,0.6,2.1,1.8,2.5,2.7l8.7,22.9c0.1,0.4,0.1,0.6,0,0.8
				c0.6-0.6,1.1-1.1,1.7-1.7C719.9,383.6,719.9,383.3,719.8,382.9z"/>
			<path class="st305" d="M706.9,359.1c1,0.6,2.1,1.8,2.5,2.7l8.7,22.9c0.3,0.9-0.2,1.1-1.2,0.6l-48.3-27.9c-1-0.6-2.1-1.8-2.5-2.7
				l-8.7-22.9c-0.3-0.9,0.2-1.1,1.2-0.6L706.9,359.1z"/>
		</g>
		<g>
			<path class="st288" d="M647.4,313.2l-25.7,15c-1,0.6-2.6,0.6-3.7,0l-48.3-27.9c-0.5-0.3-0.8-0.7-0.8-1.1l0,2.1
				c0,0.4,0.3,0.8,0.8,1.1l48.3,27.9c1,0.6,2.7,0.6,3.7,0l25.7-15c0.5-0.3,0.7-0.7,0.7-1l0-2.1C648.1,312.5,647.9,312.9,647.4,313.2
				z"/>
			<path class="st302" d="M647.4,311.1c1,0.6,1,1.5,0,2.1l-25.7,15c-1,0.6-2.6,0.6-3.7,0l-48.3-27.9c-1-0.6-1-1.5,0-2.1l25.7-15
				c1-0.6,2.6-0.6,3.6,0L647.4,311.1z"/>
			<path class="st303" d="M619.3,326.3c-0.3,0-0.5-0.1-0.5-0.1l-46.2-26.7l14.9-8.6c0,0,0.2-0.1,0.5-0.1c0.3,0,0.5,0.1,0.5,0.1
				l46.2,26.7l-14.9,8.6C619.7,326.3,619.6,326.3,619.3,326.3z"/>
			<polygon class="st303" points="617.2,305.7 609,301 617.2,296.2 625.4,301 			"/>
			<path class="st304" d="M619.5,328.2l-8.7-22.9c-0.3-0.9-1.4-2.1-2.5-2.7L560,274.8c-0.6-0.3-1-0.4-1.2-0.2
				c-0.6,0.6-1.1,1.1-1.7,1.7c0.2-0.2,0.6-0.1,1.2,0.2l48.3,27.9c1,0.6,2.1,1.8,2.5,2.7l8.7,22.9c0.1,0.4,0.1,0.6,0,0.8
				c0.6-0.6,1.1-1.1,1.7-1.7C619.6,328.8,619.6,328.6,619.5,328.2z"/>
			<path class="st305" d="M606.6,304.4c1,0.6,2.1,1.8,2.5,2.7l8.7,22.9c0.3,0.9-0.2,1.1-1.2,0.6l-48.3-27.9c-1-0.6-2.1-1.8-2.5-2.7
				l-8.7-22.9c-0.3-0.9,0.2-1.1,1.2-0.6L606.6,304.4z"/>
		</g>
		<g>
			<path class="st306" d="M704.8,316.7c0.5,2.8,1.3,21,3,25.8c0.4,1.2,1.2,2.2,2,2.9c2.4,2,5.9,1.4,6.7-2.2c0.4-1.7,0.8-5.1,1.1-9.1
				c0.2-2.4,0.4-4.9,0.5-7.3c0.3-5.3,0.4-11-0.1-12.3l1.4-4.7c-1-1-2.3-2.4-3.5-4.2c-2.1-3.2-4-7.7-3.8-14
				c0.5-10.7,3.3-19.6,5.7-22.6c-2.7,2.5-7.3,10.4-9.3,18.2C706.9,294.4,704.3,313.8,704.8,316.7z"/>
			<path class="st289" d="M716.3,333.5c0,1.4-0.2,4.3-0.4,5.5c0.6,0.5,1,2.1,1,2.1l0.7-7c0.2-2.4,0.4-4.9,0.5-7.3
				c0.3-5.3,0.4-11-0.1-12.3l1.4-4.7c-1-1-2.3-2.4-3.5-4.2c0.1,0.4,1.1,4.6,0.9,5.6c-1.5-0.6-4.6-1.6-4.6-1.6l3.7,3.4
				C716,313.1,716.5,325.3,716.3,333.5z"/>
			<path class="st296" d="M748.6,346.4c0,0-4.7,1.2-7.4,2.2c-2.7,1-9.3-1.2-12.1,0c-2.7,1.2-8.2,4.1-8.5,1.2
				c-0.3-2.9,4.2-8,6.5-10.4c2.2-2.4,6.6-1.4,7.8-0.5c1.2,0.8,2.4,1.8,5.3,0.1c0,0,4.8-1.6,6.2,0
				C747.9,340.6,748.6,346.4,748.6,346.4z"/>
			<path class="st306" d="M742.4,348.7c2.8,0.2,25.7-7.4,28.4-9.1c2.7-1.7,5.4-5.9,6.1-8.8c0.7-2.9,2.5-32.6,2-35
				c-0.5-2.4-4.2-9.6-9.7-8.5c-12.9,2.5-6.6,22.4-6.3,26.5c0.3,4.1,0.3,15.8,0.3,15.8s-21.3,8.4-24.2,10
				C741.2,340.8,743.5,345.1,742.4,348.7z"/>
			<path class="st60" d="M739.1,339.6c0,0,0.2,0,0.5,0.1c0.1,0,0.3,0.1,0.5,0.1c0.2,0.1,0.4,0.2,0.7,0.4c0.2,0.2,0.5,0.3,0.7,0.5
				c0.2,0.2,0.4,0.4,0.7,0.7c0.2,0.3,0.4,0.6,0.6,0.9c0.2,0.3,0.3,0.6,0.5,1c0.1,0.3,0.2,0.7,0.3,1c0.1,0.4,0.1,0.7,0.1,1
				c0,0.2,0,0.3,0,0.5c0,0.2-0.1,0.3-0.1,0.5c-0.1,0.3-0.1,0.6-0.2,0.9c0,0.3-0.2,0.5-0.3,0.7c-0.1,0.2-0.2,0.4-0.3,0.5
				c-0.2,0.3-0.3,0.4-0.3,0.4s-0.1-0.2-0.1-0.5c0-0.1-0.1-0.3-0.1-0.5c0-0.2,0-0.4-0.1-0.6c-0.1-0.2-0.2-0.5-0.2-0.7
				c0-0.2-0.1-0.5-0.2-0.7c-0.1-0.3-0.2-0.5-0.2-0.8c-0.1-0.3-0.2-0.5-0.3-0.8c-0.1-0.3-0.2-0.5-0.3-0.8c-0.1-0.3-0.2-0.5-0.3-0.8
				c-0.1-0.2-0.2-0.5-0.3-0.7c-0.1-0.3-0.2-0.4-0.3-0.6c-0.1-0.2-0.2-0.4-0.2-0.6c-0.1-0.2-0.2-0.3-0.3-0.5
				C739.1,339.8,739.1,339.6,739.1,339.6z"/>
			<path class="st296" d="M710.7,337.9c-6.2,1.9-6.9,11.7-6.8,14.9c0,3.3,7,0.6,9.2-1.1c2.3-1.7,2.3-4.6,3.2-4.1
				c1,0.5,3.3,1.8,2.8-0.9C718.7,344.1,715.8,336.4,710.7,337.9z"/>
			<path class="st60" d="M707.3,340.3c0,0,0-0.2,0.1-0.5c0.1-0.3,0.4-0.8,0.8-1.3c0.2-0.2,0.4-0.5,0.7-0.7c0.3-0.2,0.6-0.4,1-0.6
				c0.4-0.1,0.8-0.3,1.2-0.4c0.4-0.1,0.9-0.1,1.3,0l0.7,0.1c0.2,0.1,0.4,0.1,0.6,0.2c0.4,0.1,0.8,0.4,1.1,0.6
				c0.3,0.3,0.6,0.5,0.8,0.8c0.2,0.3,0.4,0.5,0.6,0.8c0.3,0.5,0.5,1,0.5,1.4c0.1,0.3,0.1,0.5,0.1,0.5s-0.2-0.1-0.5-0.3
				c-0.1-0.1-0.3-0.2-0.5-0.3c-0.2-0.1-0.4-0.2-0.6-0.4c-0.2-0.2-0.5-0.2-0.7-0.4c-0.2-0.2-0.5-0.2-0.8-0.4
				c-0.3-0.1-0.5-0.2-0.8-0.3c-0.1,0-0.3-0.1-0.4-0.1l-0.4,0c-0.3,0-0.6-0.1-0.8,0c-0.3,0-0.6,0-0.8,0.1c-0.6,0.1-1.1,0.2-1.6,0.4
				c-0.5,0.2-0.9,0.4-1.2,0.5C707.4,340.2,707.3,340.3,707.3,340.3z"/>
		</g>
		<g>
			<path class="st307" d="M618.3,281.4c0,0.3,0,0.5-0.1,0.8c-0.2,2.5-0.8,5.1-1.3,7.1c-0.2,1-0.4,1.7-0.6,2.3
				c-0.8,3.5-4,3.9-6.3,2.1c-0.8-0.7-1.5-1.6-1.9-2.8c-1.6-4.6-3.2-27.2-3.7-29.8c-0.5-2.6,1.4-24.1,3-30.6c1.4-5.4,4.1-10.8,6.4-14
				c-0.1,0.2-0.2,0.3-0.2,0.5c0,0.1-0.1,0.1-0.1,0.2c-1.6,4-1,10-1.2,15.6c0.5,5.9,1.4,12.1,2.2,18.9c0.6,4.9,1.1,10.1,1.3,15.9
				C616,270.5,618.2,275.9,618.3,281.4z"/>
			<path class="st289" d="M618.3,281.4c0,0.3,0,0.5-0.1,0.8c-0.2,2.5-0.8,5.1-1.3,7.1l-0.3,0.7l-0.5-2.7
				c-0.5-15.8-2.8-23.4-2.8-23.4l-4-3.1c0,0,3.2,0.7,4.7,1.3c0.1-0.9,0.5-8.1,0.5-10.6c0.6,4.9,1.1,10.1,1.3,15.9
				C616,270.5,618.2,275.9,618.3,281.4z"/>
			<path class="st300" d="M612,286.4c-4,0.6-11.3,9.6-9.4,12.1c1.5,1.3,4.6,0.3,7.2-0.8c2.6-1.1,4.3-3.9,9.8-1.5
				c1.6-2.5,1.2-3.5-1-5.9C616.4,288,614.9,285.9,612,286.4z"/>
			<path class="st307" d="M633.5,297.2c0.7-1.5,13.3-10.2,16.6-12.7c3.8-2.9,8.2-7,10.1-9.5c0.2-5.4-6.6-28.4-4.2-35.2
				c2.4-6.8,10.8-7.5,12.1-6.1c1.5,1.7,4.1,8.3,4.2,14.5c0.1,8.8,2.4,20,2.1,24.1c-0.3,4.1-2.4,12.1-3.4,13.4c-1,1.2-5.9,5-12.5,7.8
				c-6.7,2.9-19.4,10.9-19.4,10.9L633.5,297.2z"/>
			<path class="st300" d="M635.5,295.4c2.3,0.8,6.6,6.9,5.7,8.4c-2,1.6-8.6,0.8-9.7,2.3c-1.1,1.5-3.4,3.5-5.6,3.6
				c-2.2,0.1-4.6,0-3.5-2.5c1.1-2.5,3.7-9.3,5.4-9.9C629.4,296.5,635.5,295.4,635.5,295.4z"/>
			<path class="st60" d="M635.5,295.4c0,0,0.2,0,0.5,0c0.3,0,0.8,0.2,1.3,0.4c1,0.5,2.1,1.4,2.9,2.5c0.8,1.1,1.4,2.5,1.5,3.6
				c0.1,0.6,0,1.1-0.2,1.4c0,0.2-0.2,0.3-0.2,0.3c-0.1,0.1-0.1,0.1-0.1,0.1s0,0,0-0.1c0-0.1,0-0.2-0.1-0.3c-0.1-0.3-0.3-0.6-0.6-0.9
				c-0.1-0.2-0.3-0.4-0.5-0.6c-0.2-0.2-0.3-0.4-0.5-0.7c-0.4-0.5-0.7-1-1.1-1.5c-0.7-1-1.4-2.1-1.9-2.9c-0.1-0.2-0.3-0.4-0.4-0.6
				c-0.1-0.1-0.2-0.3-0.3-0.4C635.6,295.5,635.5,295.4,635.5,295.4z"/>
		</g>
		<g>
			<path class="st288" d="M561.7,360.7l-24.2,14.1c-0.9,0.6-2.5,0.6-3.4,0l-45.4-26.2c-0.5-0.3-0.7-0.6-0.7-1l0,2
				c0,0.4,0.2,0.7,0.7,1l45.4,26.2c1,0.5,2.5,0.5,3.4,0l24.2-14.1c0.5-0.3,0.7-0.6,0.7-1l0-2C562.4,360.1,562.2,360.5,561.7,360.7z"
				/>
			<path class="st302" d="M561.7,358.8c1,0.5,1,1.4,0,2l-24.2,14.1c-0.9,0.6-2.5,0.6-3.4,0l-45.4-26.2c-0.9-0.5-1-1.4,0-2l24.2-14.1
				c0.9-0.5,2.5-0.5,3.4,0L561.7,358.8z"/>
			<path class="st303" d="M544,367.9c-0.3,0-0.5-0.1-0.5-0.1l-43.5-25.1l14-8.1c0,0,0.2-0.1,0.5-0.1c0.3,0,0.5,0.1,0.5,0.1
				l43.5,25.1l-14,8C544.5,367.8,544.3,367.9,544,367.9z"/>
			<path class="st304" d="M572.2,322.7l-45.4-26.2c-0.3-0.2-0.7-0.2-1-0.2c-0.2,0-0.4,0.1-0.6,0.1c-0.2,0-0.4,0.1-0.6,0.1
				c-0.2,0-0.3,0-0.5,0.1c0.3-0.1,0.6,0,1,0.2l45.4,26.2c1,0.5,1.5,2,1.1,3.2l-8.4,31.1c-0.2,0.8-0.7,1.3-1.3,1.4
				c0.5-0.1,1.1-0.2,1.6-0.3c0.6-0.1,1.1-0.6,1.3-1.4l8.4-31.1C573.7,324.7,573.2,323.2,572.2,322.7z"/>
			<path class="st308" d="M570.6,322.9c1,0.5,1.5,2,1.1,3.2l-8.4,31.1c-0.3,1.2-1.4,1.8-2.3,1.2l-45.4-26.2c-0.9-0.5-1.5-2-1.1-3.2
				l8.4-31.1c0.3-1.2,1.4-1.8,2.3-1.2L570.6,322.9z"/>
			<path class="st302" d="M517,330.2c-0.1-0.1-0.1-0.3-0.1-0.5l8.1-30.3l44.3,25.6c0.1,0.1,0.1,0.3,0.1,0.5l-8.1,30.3L517,330.2z"/>
			<polygon class="st303" points="516.3,362.4 508.6,357.9 516.3,353.5 524,357.9 			"/>
			<g>
				<polygon class="st303" points="551.3,344.5 557,323.3 563.1,326.8 557.4,348.1 				"/>
				<polygon class="st303" points="541.9,339.1 546.3,322.5 552.4,326 548,342.6 				"/>
				<polygon class="st303" points="532.5,333.6 535.3,323 541.4,326.5 538.6,337.1 				"/>
				<polygon class="st303" points="523,328.2 524.5,323.3 530.6,326.8 529.2,331.7 				"/>
			</g>
		</g>
		<g>
			<path class="st300" d="M479.2,356.7c2.9-1.3,8-0.7,9.5-2.2c1.5-1.5,1.2-3.5-0.9-3.9c3.4-1.6,7.3-5.7,6.8-7.7
				c-0.5-1.9-10.7-4.7-14.4-3c-3.7,1.7-6,6.9-7.9,8.3L479.2,356.7z"/>
			<g>
				<path class="st288" d="M475.7,469c-0.4,2-0.7,6.6,0.7,8.5c1.5,1.9,7.7,2.2,9.8,1.5c2-0.7,11.1-15.9,12.1-19.7
					c1-3.8-1.3-5.8-7.7-3.1c-6.4,2.8-13.9,8.7-13.9,8.7L475.7,469z"/>
				<path class="st300" d="M475.7,469c0,0,2.8,2.3,5.4,2c2.6-0.3,9.3-1.3,11.5-7.9c-4.5-2.6-15.9,1.7-15.9,1.7L475.7,469z"/>
				<path class="st288" d="M548.3,483c-0.5,1-14.3,12.9-17.5,14.2c-3.2,1.3-8.8-1.4-10.1-3c-1.3-1.6-0.6-7.5-0.6-7.5s4.7,4,9,2.1
					c4.3-1.9,12-7,12.3-8.6c0.3-1.6-3.3-3.4-3.3-3.4c1.7-0.3,9-1.5,10.1-0.4C549.4,477.6,548.8,482,548.3,483z"/>
				<path class="st300" d="M541.5,480.2c-0.3,1.6-8.1,6.7-12.3,8.6c-4.3,1.9-9-2.1-9-2.1s0.3-2.4,0.6-3.7c0.3-1.4,4-3.5,6.4-3.7
					c2.4-0.3,11.1-2.4,11.1-2.4S541.8,478.6,541.5,480.2z"/>
				<path class="st297" d="M475.1,399.4c-0.2,2.6-0.3,57.1,0.2,66.4c0.8,0.7,1.7,1.3,2.6,1.8c4.9,2.5,11.9-0.8,14.6-4.5
					c0.3-2.3,1.4-53.2,2-57.3c0,0-3.4-15.3-9.9-14.6C478.3,392,475.1,399.4,475.1,399.4z"/>
				<path class="st297" d="M532,415.2c0,11.1,3.4,65.5,3.4,65.5s-6.4,7.9-13.4,3.6h0c-0.2-0.1-0.4-0.3-0.6-0.4
					c-0.5-0.4-1.1-0.8-1.6-1.3c-0.9-7.3-10.8-47.4-10.8-50.3c-2.2,0.2-24.3,8.3-44.3,8.3c-2.5,0-20.2-5.8-25.6-10.8
					c-5.4-4.9-6.5-16.9-5.4-22.2l45-4.3c0,0,1.5,0,3.9-0.1c10.8-0.2,40.3-0.5,41.9,0.1C528.2,403.3,532,410.9,532,415.2z"/>
				<path class="st298" d="M532,415.2c0,11.1,3.4,65.5,3.4,65.5s-6.4,7.9-13.4,3.6c0.3-0.1,0.5-0.1,0.8-0.1
					c7.3-0.8,10.4-6,10.4-11.3c0-5.3-4.1-42.7-4.4-49c-0.4-6.3-6.3-10.1-8.8-11.5c-2.5-1.4-5.5-3.2-10.9,0
					c-5.4,3.2-13.2,3.7-21.5,2.5c0,0-4.1-4.2-5.1-11.7c10.8-0.2,40.3-0.5,41.9,0.1C528.2,403.3,532,410.9,532,415.2z"/>
			</g>
			<g>
				
					<linearGradient id="SVGID_2_" gradientUnits="userSpaceOnUse" x1="2368.3147" y1="357.0873" x2="2386.4172" y2="357.0873" gradientTransform="matrix(1 0 0 1 -1942.2091 0)">
					<stop  offset="4.132230e-03" style="stop-color:#FF9158"/>
					<stop  offset="1" style="stop-color:#FF4964"/>
				</linearGradient>
				<path style="fill:url(#SVGID_2_);" d="M427.6,328.3c-2.1,6-2,40.9,0,45.6c2,4.8,16.6,12,16.6,12L427.6,328.3z"/>
				<polygon class="st289" points="429.7,357.1 436.1,381.3 444.2,385.9 				"/>
				<path class="st293" d="M488.7,389.2c-0.4,2.9-0.6,5-0.6,5c0.7,5.8,2,14.9,1.8,18.4c-2.4,2.9-8.2,6-14.5,7.5
					c-2.8,0.6-5.7,0.9-8.4,0.7c-8.9-0.7-30.5-8-33.5-13.3c2.9-12.1,6.4-16.7,6.4-22.2c-0.5-4.5-2.4-7.8-3.6-10.1
					c-1.2-2.3-6.3-13.5-8.4-25.6c-2.2-12.1-1.2-20.1,0-21.9c1.2-1.8,5.3-4.6,6.9-4.8c1.6-0.1,20.8,0.9,20.8,0.9l14.5,5.2
					c4.2,3.8,19.2,16.9,19.9,20.5c0.7,3.7,3,19.9,1.1,26.3C490.2,379.5,489.3,385.2,488.7,389.2z"/>
				<path class="st300" d="M473.3,322.5c0,0,0,8.6,0,9.7c0,1.1-4.9,3.5-9.7,2.4c-4.8-1.1-10.1-5-10.1-5.9c0-0.9,0-9.1,0-9.1
					s7.9-4.4,9.9-3C465.4,318,473.3,322.5,473.3,322.5z"/>
				<path class="st60" d="M473.3,332.1c0,0,0,0.1,0,0.3c-0.1,0.2-0.2,0.4-0.4,0.7c-0.2,0.2-0.5,0.5-0.9,0.8
					c-0.4,0.3-0.8,0.5-1.3,0.8c-0.5,0.2-1.1,0.5-1.7,0.6c-0.6,0.2-1.3,0.3-2,0.4c-0.7,0.1-1.4,0.1-2.2,0.1c-0.4,0-0.7-0.1-1.1-0.1
					l-0.3,0l-0.1,0l-0.1,0l-0.1,0l-0.5-0.1c-0.7-0.2-1.4-0.5-2.1-0.7c-0.7-0.3-1.3-0.6-1.9-0.9c-0.6-0.3-1.1-0.7-1.6-1
					c-0.5-0.4-1-0.7-1.4-1.1c-0.8-0.7-1.4-1.4-1.8-1.9c-0.2-0.3-0.3-0.5-0.4-0.7c0-0.2,0-0.3,0-0.3c0,0,0,0.1,0.1,0.2
					c0.1,0.1,0.3,0.3,0.5,0.5c0.5,0.4,1.2,0.8,2.1,1.3c0.5,0.2,1,0.5,1.5,0.8c0.5,0.3,1.1,0.5,1.7,0.8c0.6,0.3,1.2,0.5,1.8,0.7
					c0.6,0.2,1.2,0.4,1.9,0.6l0.5,0.1l0.1,0l0,0c0,0,0,0,0,0l0,0l0.1,0l0.2,0c0.3,0.1,0.6,0.1,0.9,0.2c0.6,0.1,1.3,0.1,1.9,0.1
					c0.6,0,1.2-0.1,1.8-0.1c0.6-0.1,1.1-0.2,1.6-0.3c0.5-0.1,0.9-0.3,1.3-0.4c0.4-0.1,0.7-0.3,1-0.4c0.3-0.2,0.4-0.3,0.5-0.4
					C473.3,332.2,473.3,332.1,473.3,332.1z"/>
				<polygon class="st289" points="467.3,323.8 473.3,329.6 473.3,323.8 				"/>
				<path class="st301" d="M481,293.6c0.9,2.5,3.4,18.3,1.3,24c-2.2,5.7-3.4,10-12.6,7c-9.1-3-12.6-3.6-11.9-11.8
					C458.5,304.5,481,293.6,481,293.6z"/>
				<path class="st288" d="M484.2,296.4c1.2-0.7,1-14.1-6.9-18.4c-7.9-4.3-21.2-2.8-26.4,3.9c-7.7-1.9-14.5,3-16.8,11.7
					c-2.3,8.6,4.7,17.4,10.5,16c1.2,6.1,8.3,15.5,11.9,16c3.6,0.5,11.7-2,12.1-9.4c0.4-7.4,4.7-16.1,6.9-17.6
					C478.2,296.6,483.6,296.8,484.2,296.4z"/>
				<path class="st301" d="M470.7,308.4c0,0-2.4-8.3-5.7-5.2c-3.3,3.1,0.1,13.6,3.5,12.5C471.9,314.7,470.7,308.4,470.7,308.4z"/>
				<path class="st300" d="M526.4,382.4c2.1-2.2,3-7.1,4.9-8c1.8-0.9,3.6-0.1,3.3,2c2.5-2.6,7.5-5,9.1-3.9
					c1.6,1.1,1.1,11.2-1.6,14.1c-2.7,2.9-8.1,3.4-10,4.7L526.4,382.4z"/>
				<path class="st289" d="M489.9,412.6c-2.4,2.9-8.2,6-14.5,7.5c8.7-2.4,8.4-14.4,7.7-18.9c-0.7-4.4-9.5-32-9.7-32.9
					c0.4,0.3,10,8.8,15.3,21c-0.4,2.9-0.6,5-0.6,5C488.8,399.9,490.1,409.1,489.9,412.6z"/>
				<path class="st307" d="M488.7,348.3c-2.9-2.6-11.7-2.7-14.2,1.7c-2.6,4.4-2.3,14-1,18.2c1.3,4.2,16.5,37.7,18.9,39.9
					c2.4,2.2,9.1,4.3,12.2,4.1c3.1-0.3,25.5-17.5,27.2-18.9c0.9-3.2-0.9-7.2-2.2-8.7c-1.3-1.5-4.1-2.7-4.1-2.7s-9.1,5.2-13.1,7.9
					c-4,2.6-7.6,6.4-8.6,5.9c-1-0.5-2.8-8.2-3.5-11.6c-0.6-3.4-7-24.8-8-29.1C491.3,350.8,488.7,348.3,488.7,348.3z"/>
				<path class="st60" d="M531.8,393.3c0,0,0-0.2-0.1-0.6c0-0.2,0-0.4-0.1-0.7c-0.1-0.3-0.1-0.5-0.2-0.8c0-0.3-0.2-0.6-0.3-1
					c-0.1-0.3-0.2-0.7-0.3-1.1c-0.1-0.4-0.3-0.7-0.4-1.1c-0.1-0.4-0.3-0.7-0.5-1.1c-0.2-0.4-0.4-0.7-0.6-1.1
					c-0.1-0.2-0.2-0.3-0.3-0.5l0-0.1l0,0l0,0l0,0c0,0,0,0,0,0l0,0l-0.1-0.1l-0.2-0.2c-0.1-0.2-0.3-0.3-0.4-0.4
					c-0.1-0.1-0.2-0.2-0.4-0.4c-0.3-0.2-0.5-0.5-0.8-0.7c-1-0.8-1.7-1.5-1.7-1.5s0.2,0,0.6,0.1c0.4,0.1,1,0.2,1.6,0.5
					c0.3,0.1,0.7,0.3,1,0.5c0.3,0.2,0.8,0.5,1.1,0.8l0.2,0.2l0.1,0.1l0.2,0.2c0.2,0.2,0.3,0.4,0.5,0.6c0.3,0.4,0.5,0.8,0.7,1.2
					c0.2,0.4,0.4,0.9,0.5,1.3c0.2,0.4,0.3,0.9,0.3,1.3c0.1,0.4,0.1,0.9,0.1,1.3c0,0.4,0,0.8,0,1.2c0,0.4-0.1,0.7-0.2,1
					c-0.1,0.3-0.2,0.5-0.3,0.7C531.9,393.1,531.8,393.3,531.8,393.3z"/>
			</g>
		</g>
		<defs>
			<filter id="Adobe_OpacityMaskFilter" filterUnits="userSpaceOnUse" x="410.5" y="345.7" width="98.2" height="195.9">
				<feFlood  style="flood-color:white;flood-opacity:1" result="back"/>
				<feBlend  in="SourceGraphic" in2="back" mode="normal"/>
			</filter>
		</defs>
		<mask maskUnits="userSpaceOnUse" x="410.5" y="345.7" width="98.2" height="195.9" id="SVGID_4_">
			<g class="st310">
				<path d="M508.9,432.1c0,0-26.5,7.9-40.1,8.2c-2.9-4.7-1.5-17.3-1.3-19.5c0.2-2.3,1.2-16.7,1.1-19.1c4.6-0.3,24.9,1.8,31,7.8
					C505.7,415.5,508.9,432.1,508.9,432.1z"/>
			</g>
		</mask>
		<g style="mask:url(#SVGID_4_);">
			<path class="st288" d="M507.2,515.9c-3.1-5.9-6-11.9-8.9-17.8l-4.4-8.9l-4.3-9c-5.7-12-11.4-24-16.9-36l3.5,1.1l-10.8,6.3
				l1.2-2.1l-0.1,22.9c-0.1,7.6-0.1,15.2-0.3,22.9c-0.1,7.6-0.3,15.2-0.5,22.9c-0.3,7.6-0.4,15.2-0.8,22.9c0,0.4-0.4,0.8-0.8,0.7
				c-0.4,0-0.7-0.3-0.7-0.7c-0.4-7.6-0.5-15.2-0.8-22.9c-0.2-7.6-0.4-15.2-0.5-22.9c-0.1-7.6-0.2-15.2-0.3-22.9l-0.1-22.9l0-1.4
				l1.2-0.7l10.8-6.2l2.3-1.3l1.1,2.5c5.5,12.1,10.8,24.2,16.1,36.4l3.9,9.1l3.9,9.2c2.5,6.1,5.1,12.2,7.6,18.4c0.2,0.4,0,0.9-0.4,1
				C507.8,516.4,507.4,516.3,507.2,515.9z"/>
			<path class="st288" d="M457.5,489.6c0-4.4,0.2-8.8,0.4-13.2c0.1-4.4,0.3-8.8,0.5-13.2L459,450l0.8-13.2l3.6,2.3l-10.8,6.3l1-1.2
				c-2.5,6.1-5.2,12.1-7.8,18.1l-4,9l-4,9c-2.7,6-5.4,12-8.2,17.9l-4.3,8.9c-1.4,3-2.8,5.9-4.3,8.9c-0.2,0.4-0.7,0.5-1.1,0.3
				c-0.4-0.2-0.5-0.6-0.4-1c1.1-3.1,2.3-6.2,3.5-9.2l3.5-9.2c2.4-6.1,4.8-12.2,7.3-18.3l3.7-9.1l3.8-9.1c2.6-6,5.1-12.1,7.7-18.1
				l0.3-0.8l0.7-0.4l10.8-6.2l4-2.3l-0.4,4.5l-1.2,13.2l-1.3,13.2c-0.5,4.4-0.9,8.8-1.5,13.1c-0.5,4.4-1,8.8-1.6,13.1
				c-0.1,0.4-0.5,0.7-0.9,0.7C457.8,490.4,457.5,490,457.5,489.6z"/>
			<path class="st291" d="M506,428.5c0.1-6.1-14.3-17-37.5-25.2c0,0-15.8,11.6-13.9,24.1c1.9,12.5,9,25.4,21.2,23.4
				c12.2-1.9,23.7-10.4,25.9-12.6C504,436,505.9,432.3,506,428.5z"/>
			<path class="st290" d="M418,346.8c5-3.9,24.1,3.6,32.7,13.4c8.6,9.8,18.6,25,17.9,44.6c-0.7,19.6-4.2,32.3,2.2,38
				c6.4,5.7,14.7,3.3,19.6,0.5c4.9-2.8,15.5-8.7,15.7-14.7c0,0-0.4,8-2.2,10.9c-1.8,2.9-7.2,8.6-20.6,13.6c-13.4,5-33,6.3-45-2
				c-21.4-14.9-27-32.2-27.7-64.1C409.9,354.9,414.8,349.3,418,346.8z"/>
		</g>
		<g>
			<path class="st288" d="M610.4,567.3c-3.1-5.9-6-11.9-8.9-17.8l-4.4-8.9l-4.3-9c-5.7-12-11.4-24-16.9-36l3.5,1.1l-10.8,6.3
				l1.2-2.1l-0.1,22.9c-0.1,7.6-0.1,15.2-0.3,22.9c-0.1,7.6-0.3,15.2-0.5,22.9c-0.3,7.6-0.4,15.2-0.8,22.9c0,0.4-0.4,0.8-0.8,0.7
				c-0.4,0-0.7-0.3-0.7-0.7c-0.4-7.6-0.5-15.2-0.8-22.9c-0.2-7.6-0.4-15.2-0.5-22.9c-0.1-7.6-0.2-15.2-0.3-22.9l-0.1-22.9l0-1.4
				l1.2-0.7l10.8-6.2l2.3-1.3l1.1,2.5c5.5,12.1,10.8,24.2,16.1,36.4l3.9,9.1l3.9,9.2c2.5,6.1,5.1,12.2,7.6,18.4c0.2,0.4,0,0.9-0.4,1
				C611,567.8,610.6,567.6,610.4,567.3z"/>
			<path class="st288" d="M560.7,541c0-4.4,0.2-8.8,0.4-13.2c0.1-4.4,0.3-8.8,0.5-13.2l0.7-13.2l0.8-13.2l3.6,2.3l-10.8,6.3l1-1.2
				c-2.5,6.1-5.2,12.1-7.8,18.1l-4,9l-4,9c-2.7,6-5.4,12-8.2,17.9l-4.3,8.9c-1.4,3-2.8,5.9-4.3,8.9c-0.2,0.4-0.7,0.5-1.1,0.3
				c-0.4-0.2-0.5-0.6-0.4-1c1.1-3.1,2.3-6.2,3.5-9.2l3.5-9.2c2.4-6.1,4.8-12.2,7.3-18.3l3.7-9.1l3.8-9.1c2.6-6,5.1-12.1,7.7-18.1
				l0.3-0.8l0.7-0.4l10.8-6.2l4-2.3l-0.4,4.5l-1.2,13.2l-1.3,13.2c-0.5,4.4-0.9,8.8-1.5,13.1c-0.5,4.4-1,8.8-1.6,13.1
				c-0.1,0.4-0.5,0.7-0.9,0.7C560.9,541.7,560.7,541.4,560.7,541z"/>
			<path class="st291" d="M609.2,479.8c0.1-6.1-14.3-17-37.5-25.2c0,0-15.8,11.6-13.9,24.1c1.9,12.5,9,25.4,21.2,23.4
				c12.2-1.9,23.7-10.4,25.9-12.6C607.2,487.4,609.1,483.6,609.2,479.8z"/>
			<path class="st290" d="M521.1,398.1c5-3.9,24.1,3.6,32.7,13.4c8.6,9.8,18.6,25,17.9,44.6c-0.7,19.6-4.2,32.3,2.2,38
				c6.4,5.7,14.7,3.3,19.6,0.5c4.9-2.8,15.5-8.7,15.7-14.7c0,0-0.4,8-2.2,10.9c-1.8,2.9-7.2,8.6-20.6,13.6c-13.4,5-33,6.3-44.9-2
				c-21.4-14.8-27-32.2-27.7-64.1C513.1,406.3,518,400.6,521.1,398.1z"/>
		</g>
	</g>
</g>
</svg>
