<svg id="Layer_1" data-name="Layer 1" xmlns="http://www.w3.org/2000/svg" viewBox="0 0 28 28"><defs><style>.cls-1{fill:#333;}</style></defs><title>share</title><path class="cls-1" d="M21.36,17.75A4.37,4.37,0,0,0,18,19.4l-6.4-4a3.8,3.8,0,0,0,0-2.31l6.4-4a4.37,4.37,0,0,0,2.58,1.55,4.31,4.31,0,0,0,3-.48,4.37,4.37,0,0,0,2-5.29A4.36,4.36,0,0,0,20.6,2,4.35,4.35,0,0,0,17,6.37a4.17,4.17,0,0,0,.17,1.16l-6.39,4A4.46,4.46,0,0,0,8.56,10a4.39,4.39,0,0,0-2.66.08,4.32,4.32,0,0,0-2.13,1.59,4.38,4.38,0,0,0,7,5.26l6.39,4A4.05,4.05,0,0,0,17,22.12a4.38,4.38,0,0,0,5.23,4.29,4.39,4.39,0,0,0,3.19-6,4.46,4.46,0,0,0-1.62-2A4.36,4.36,0,0,0,21.36,17.75Zm0-14a2.61,2.61,0,0,1,1.46.44,2.66,2.66,0,0,1,1,1.18,2.62,2.62,0,0,1-.57,2.86A2.75,2.75,0,0,1,21.88,9a2.64,2.64,0,0,1-1.52-.15,2.66,2.66,0,0,1-1.18-1,2.63,2.63,0,0,1,2.18-4.08Zm-14,13.12a2.62,2.62,0,0,1-2.42-1.62,2.64,2.64,0,0,1-.15-1.52,2.59,2.59,0,0,1,.72-1.34,2.56,2.56,0,0,1,1.34-.72,2.64,2.64,0,0,1,1.52.15,2.66,2.66,0,0,1,1.18,1A2.69,2.69,0,0,1,10,14.25a2.63,2.63,0,0,1-2.63,2.62Zm14,7.88a2.59,2.59,0,0,1-1.45-.45,2.52,2.52,0,0,1-1-1.17,2.64,2.64,0,0,1-.15-1.52,2.64,2.64,0,0,1,2.06-2.06,2.64,2.64,0,0,1,1.52.15,2.58,2.58,0,0,1,1.18,1A2.69,2.69,0,0,1,24,22.12a2.63,2.63,0,0,1-2.63,2.63Z"/></svg>