<?xml version="1.0" encoding="utf-8"?>
<!-- Generator: Adobe Illustrator 23.1.0, SVG Export Plug-In . SVG Version: 6.00 Build 0)  -->
<svg version="1.1" id="Layer_1" xmlns="http://www.w3.org/2000/svg" xmlns:xlink="http://www.w3.org/1999/xlink" x="0px" y="0px"
	 viewBox="0 0 962.7 599.2" style="enable-background:new 0 0 962.7 599.2;" xml:space="preserve">
<style type="text/css">
	.st0{clip-path:url(#SVGID_2_);}
	.st1{clip-path:url(#SVGID_4_);fill:#F9F9F9;}
	.st2{clip-path:url(#SVGID_6_);fill:#F9F9F9;}
	.st3{clip-path:url(#SVGID_8_);fill:#008080;}
	.st4{clip-path:url(#SVGID_10_);fill:#07AAA5;}
	.st5{clip-path:url(#SVGID_12_);fill:#FFFFFF;}
	.st6{clip-path:url(#SVGID_14_);fill:#102A54;}
	.st7{clip-path:url(#SVGID_16_);fill:#F9F9F9;}
	.st8{clip-path:url(#SVGID_18_);fill:#F9F9F9;}
	.st9{clip-path:url(#SVGID_20_);fill:#F9F9F9;}
	.st10{clip-path:url(#SVGID_22_);fill:#F9F9F9;}
	.st11{clip-path:url(#SVGID_24_);fill:#F9F9F9;}
	.st12{clip-path:url(#SVGID_26_);fill:#F9F9F9;}
	.st13{clip-path:url(#SVGID_28_);fill:#102A54;}
	.st14{clip-path:url(#SVGID_30_);fill:#FFFFFF;}
	.st15{opacity:0.61;clip-path:url(#SVGID_32_);fill:#F9F9F9;enable-background:new    ;}
	.st16{opacity:0.26;clip-path:url(#SVGID_34_);fill:#3C94F8;enable-background:new    ;}
	.st17{opacity:0.18;clip-path:url(#SVGID_36_);fill:#3C94F8;enable-background:new    ;}
	.st18{opacity:0.1;clip-path:url(#SVGID_38_);fill:#3C94F8;enable-background:new    ;}
	.st19{opacity:0.14;clip-path:url(#SVGID_40_);fill:#3C94F8;enable-background:new    ;}
	.st20{clip-path:url(#SVGID_42_);fill:#F9F9F9;}
	.st21{clip-path:url(#SVGID_44_);fill:#102A54;}
	.st22{clip-path:url(#SVGID_46_);fill:#102A54;}
	.st23{clip-path:url(#SVGID_48_);fill:#6CB597;}
	.st24{clip-path:url(#SVGID_50_);fill:#102A54;}
	.st25{clip-path:url(#SVGID_52_);fill:#102A54;}
	.st26{clip-path:url(#SVGID_54_);fill:#6CB597;}
	.st27{clip-path:url(#SVGID_56_);fill:#102A54;}
	.st28{clip-path:url(#SVGID_58_);fill:#F99747;}
	.st29{clip-path:url(#SVGID_60_);fill:#FFC0B1;}
	.st30{clip-path:url(#SVGID_62_);fill:#006663;}
	.st31{clip-path:url(#SVGID_64_);fill:#008080;}
	.st32{clip-path:url(#SVGID_66_);fill:#0C203F;}
	.st33{clip-path:url(#SVGID_68_);fill:#102A54;}
	.st34{clip-path:url(#SVGID_70_);fill:#FFC0B1;}
	.st35{clip-path:url(#SVGID_72_);fill:#102A54;}
	.st36{clip-path:url(#SVGID_74_);fill:#FFFFFF;}
	.st37{clip-path:url(#SVGID_76_);fill:#102A54;}
	.st38{clip-path:url(#SVGID_78_);fill:#102A54;}
	.st39{clip-path:url(#SVGID_80_);fill:#FFC0B1;}
	.st40{clip-path:url(#SVGID_82_);fill:#102A54;}
	.st41{clip-path:url(#SVGID_84_);fill:#F99747;}
	.st42{clip-path:url(#SVGID_86_);fill:#102A54;}
	.st43{clip-path:url(#SVGID_88_);fill:#F99747;}
	.st44{clip-path:url(#SVGID_90_);fill:#102A54;}
	.st45{clip-path:url(#SVGID_92_);fill:#102A54;}
	.st46{clip-path:url(#SVGID_94_);fill:#FFC0B1;}
	.st47{clip-path:url(#SVGID_96_);fill:#FFC0B1;}
	.st48{clip-path:url(#SVGID_98_);fill:#102A54;}
	.st49{clip-path:url(#SVGID_100_);fill:#7FC0FF;}
	.st50{clip-path:url(#SVGID_102_);fill:#7FC0FF;}
	.st51{clip-path:url(#SVGID_104_);fill:#102A54;}
	.st52{clip-path:url(#SVGID_106_);fill:#D2FFFE;}
	.st53{clip-path:url(#SVGID_108_);fill:#008080;}
	.st54{clip-path:url(#SVGID_110_);fill:#04AFAA;}
	.st55{fill:none;}
	.st56{fill:#2F3050;}
	.st57{fill:#1A1924;}
	.st58{fill:#4C4F81;}
	.st59{fill:#222231;}
	.st60{fill:#FFFFFF;}
	.st61{fill:#00B0C2;}
	.st62{fill:#E64645;}
	.st63{fill:#009EE2;}
	.st64{fill:#93C01F;}
	.st65{fill:#273C5C;}
	.st66{fill:#3D3F68;}
	.st67{fill:#7FC0FF;}
	.st68{fill:#102A54;}
	.st69{fill:#181936;}
	.st70{fill:#006663;}
	.st71{fill:#2A2F58;}
	.st72{fill:#008080;}
	.st73{fill:#06183C;}
	.st74{fill:#673438;}
	.st75{fill:#21263D;}
	.st76{fill:#F99747;}
	.st77{fill:#7E9BC1;}
	.st78{fill:#6E85B4;}
	.st79{fill:#9CB6E0;}
	.st80{fill:#A36F68;}
	.st81{fill:#8E5C57;}
	.st82{display:none;opacity:0.1;fill:#008080;}
	.st83{opacity:0.1;fill:#008080;}
	.st84{clip-path:url(#XMLID_2_);fill:#E57492;}
	.st85{opacity:0.52;}
	.st86{opacity:0.3;clip-path:url(#XMLID_3_);fill:#096866;}
	.st87{clip-path:url(#XMLID_3_);fill:#096866;}
	.st88{opacity:0.3;clip-path:url(#XMLID_4_);fill:#096866;}
	.st89{clip-path:url(#XMLID_4_);fill:#096866;}
	.st90{clip-path:url(#XMLID_5_);fill:#1C056D;}
	.st91{clip-path:url(#XMLID_6_);fill:#8E5C57;}
	.st92{clip-path:url(#XMLID_7_);fill:#1C056D;}
	.st93{clip-path:url(#XMLID_8_);fill:#8E5C57;}
	.st94{clip-path:url(#XMLID_9_);}
	.st95{clip-path:url(#XMLID_10_);fill:#DB7D37;}
	.st96{clip-path:url(#XMLID_11_);fill:#008080;}
	.st97{opacity:0.37;clip-path:url(#XMLID_12_);fill:#D4DFFF;}
	.st98{fill:#096866;}
	.st99{clip-path:url(#XMLID_13_);fill:#A36F68;}
	.st100{fill:#DB7D37;}
	.st101{clip-path:url(#XMLID_14_);fill:#DB7D37;}
	.st102{clip-path:url(#XMLID_15_);fill:#181936;}
	.st103{fill:#D4DFFF;}
	.st104{clip-path:url(#XMLID_16_);fill:#096866;}
	.st105{fill:#FC476A;}
	.st106{clip-path:url(#XMLID_17_);fill:#E57492;}
	.st107{fill:#1C056D;}
	.st108{fill:#1B3D9E;}
	.st109{clip-path:url(#XMLID_18_);fill:#E57492;}
	.st110{clip-path:url(#XMLID_19_);fill:#E57492;}
	.st111{clip-path:url(#XMLID_20_);fill:#E57492;}
	.st112{clip-path:url(#XMLID_20_);fill:#FFFFFF;}
	.st113{clip-path:url(#XMLID_21_);fill:#F99747;}
	.st114{fill:#FFE0C1;}
	.st115{clip-path:url(#XMLID_22_);fill:#008080;}
	.st116{clip-path:url(#XMLID_22_);fill:#096866;}
	.st117{clip-path:url(#XMLID_23_);fill:#0F0F0F;}
	.st118{opacity:0.12;fill:#008080;}
	.st119{opacity:0.41;}
	.st120{opacity:0.21;}
	.st121{fill:#F6BBBA;}
	.st122{fill:#232E33;}
	.st123{fill:#60C1D4;}
	.st124{fill:#FFDC80;}
	.st125{fill:#FEDA80;}
	.st126{fill:#F08974;}
	.st127{fill:#EA8080;}
	.st128{fill:#7E5A54;}
	.st129{fill:#54322D;}
	.st130{fill:#FBD4B9;}
	.st131{fill:#A54667;}
	.st132{fill:#F7B283;}
	.st133{fill:#F6B699;}
</style>
<path class="st82" d="M311.7,504.2c44.8,4.6,89.9,6.4,134.1,7.1c104.3,1.8,208.8-6.7,311.5-25.4c70.6-12.8,131.7-41.8,143.9-118.7
	c15.8-99.8-33-225.9-141.9-244.6c-33.7-5.8-68.7-5.5-101-16.6c-48.2-16.4-85.7-55.5-136.7-64.8c-52.1-9.4-110,1.7-151.8,36.6
	c-18.4,15.3-34.1,33.3-48.8,52.1c-11.4,14.6-21.9,32.8-39.2,41c-21.2,10.1-45.9,2.1-69.2-1c-39.9-5.3-86.9,7.6-116.7,35.3
	C64.7,234.3,55.4,288,59.6,328.3c5.5,52.8,31.6,102.4,76.8,131.6C187.4,492.9,252.8,498.2,311.7,504.2z"/>
<path class="st118" d="M282.7,443.4c0,40.8-3.9,53.9-36.5,53.9c-32.6,0-81.4-13.1-81.4-53.9c0-40.8,26.4-73.9,58.9-73.9
	C256.3,369.4,282.7,402.5,282.7,443.4z"/>
<path class="st118" d="M745.9,163.5c0,140.3-126.3,254.1-282,254.1s-282-113.8-282-254.1S344.2,33.8,500,33.8
	S745.9,23.2,745.9,163.5z"/>
<g class="st119">
	<path class="st72" d="M372.8,439.9C330,397.5,304,356.6,299,348.4c-5.9,7.7-11.9,23.8,6.6,51.7c18.5,27.9,34.8,18.9,35.4,54.3
		c0.2,8.8,1.9,15.8,4.7,21.5h64.6c-4.1-4-8.2-7.8-11.6-11.1C390.4,457,381.8,448.8,372.8,439.9z"/>
	<path class="st72" d="M413.5,398.2c-29.6-21.1-40.2-1.8-60.5-32.1c-25.9-38.7-48.1-23.2-48.1-23.2s-1.8,1.1-4,3.4
		c3.6,6,29.8,48,73.8,91.7c9,8.9,17.6,17.1,25.8,24.9c3.6,3.4,8.5,8.1,13.6,13.1h54.6C453.7,427.6,416.8,400.6,413.5,398.2z"/>
</g>
<g class="st120">
	<path class="st76" d="M487.1,296.7c0-43.7-63.9-63.7-66.7-104.4c-2.8-40.7-19.7-59.6-19.7-59.6c-13.9-23.3-33.5-20.1-33.5-20.1
		s-2.8,0.2-6.9,1.8c0.9,9.4,8.4,75.6,36.7,154.2c5.8,16.1,11.5,30.9,17,45.2c9.8,25.6,18.7,49,26,73.4l5.7,37.2
		c-8.1-38.7-20.7-71.6-35.1-109.3c-5.5-14.3-11.2-29.2-17-45.3c-27.4-76.3-35.4-140.9-36.7-153.9c-11.7,5.9-28.2,22.1-21.9,66.7
		c6.3,44.6,31.3,43.1,11.6,86.5c-26.7,58.6,31.8,80.4,53.8,112.1c17.3,24.9,11.9,57.1,27.7,62.2l61-13.5
		C466,379.1,487.1,340.4,487.1,296.7z"/>
</g>
<g>
	<polygon class="st121" points="618,261.8 632,261.8 631.4,254.8 616.8,254.8 	"/>
	<polygon class="st122" points="617.5,261.8 617.5,272.5 598.9,285.9 608.9,285.9 617.5,282.4 617.5,285.9 633.3,285.9 633.3,261.8 
		632,261.8 618,261.8 	"/>
	<path class="st72" d="M656.1,138.1c1-2.6,1.6-5.5,1.6-8.5c0-5.5-2-10.6-5.2-14.6l-21.6,7.4c-2.7,7.8-4.9,13.5-4.9,13.5l0,0
		c-0.2,0.6-0.6,1.2-1,1.7c-4.6,14.5-21.1,35.3-22.3,36.9c-0.7,1.5-3.2,6.7-3.8,9.9c-3.1,16.1-1.9-0.2-1.9-0.2
		c-0.3,1.8-0.5,3.2-0.7,4.4c0,0.3,0,0.5,0,0.8c0,1.1,0.1,2.2,0.3,3.3l12.9,62h7.3h14.6h8.5l-13.2-63.1l28.2-50.7
		C655.4,140.1,655.8,139.1,656.1,138.1z"/>
	<polygon class="st121" points="583.2,261.8 597.2,261.8 596.6,254.8 582,254.8 	"/>
	<polygon class="st122" points="582.7,261.8 582.7,272.5 564.1,285.9 574.1,285.9 582.7,282.4 582.7,285.9 598.5,285.9 598.5,261.8 
		597.2,261.8 583.2,261.8 	"/>
	<path class="st123" d="M593.8,189.8l1.1-1.1c0.1-2.4,0.2-4.8,0.2-4.8C594.6,186.6,594.1,188.5,593.8,189.8z"/>
	<path class="st98" d="M591.1,189.5c-1.8-6.7,1.1-16.6,1.7-18.6c0-0.2,0.1-0.3,0.1-0.5l0,0c0-0.1,0.1-0.2,0.1-0.3
		c0.1-0.2,0.1-0.3,0.2-0.5c6.1-14.5,18.9-39.2,18.9-39.2l0,0c0.2-0.4,0.5-0.8,0.7-1.2c0-0.2,0.1-0.4,0.1-0.6l-1.2,0.4
		c0,0.1,0,0.2,0,0.4c-0.2,0.2-0.5,0.4-0.7,0.7l-44.5,45.2c-2.7,2.7-4.1,6.2-4.2,9.7c-0.8,2.4-1,5.1-0.5,7.8l12.9,62h7.3h14.6h8.5
		l-13.2-63l0.8-0.8c0-2.7,0.6-8.7,0.6-8.7S591.3,190.4,591.1,189.5z"/>
	<path class="st124" d="M595.8,54c1.2,1.6,3.6,3.3,6.8,4.6c1.7,0.7,3.4,1.1,4.9,1.3c0.1-0.2,0.2-0.4,0.3-0.6c1.3-1.9,3.3-2.8,4.5-2
		c0.2,0.2,0.4,0.4,0.6,0.7c0.3-2.1-1.6-6.3-5.8-8.2l4.4-2.3c-1.1-0.5-2.4-1-3.8-1.2c-6.6-1.2-14,1.4-16.4,5.8
		c-1.9,3.4-0.3,6.9,3.5,8.9l0.5-4.7C595.3,55.4,595.6,54.7,595.8,54z"/>
	<path class="st124" d="M637.5,52.9c0,0,0,0.1,0,0.1C637.5,53,637.5,53,637.5,52.9z"/>
	<path class="st124" d="M629.1,45.2c-3.8-0.7-7.8-0.1-11,1.3l19.4,6.3C637.6,49.3,634.4,46.2,629.1,45.2z"/>
	<path class="st124" d="M609.3,64.4l-0.2,1.9l2.1,6.1c0.4,0.1,0.8,0.2,1.2,0.3c3,0.6,6.2,0.3,9-0.5C617,73.6,611.4,67.2,609.3,64.4z
		"/>
	<path class="st124" d="M633.2,72.6c6.6,1.2,14-1.4,16.4-5.8c2.4-4.4-1-9.1-7.6-10.3c-0.2,0-0.4-0.1-0.6-0.1l-11.3,15.3
		C631,72.1,632.1,72.4,633.2,72.6z"/>
	<path class="st125" d="M612.9,57.9c0.6,1,0.4,2.7-0.6,4.2c-0.8,1.2-1.9,2-3,2.2l0,0.1c2.1,2.7,7.7,9.1,12.1,7.7c0,0,0.1,0,0.1,0
		c5.6-1.9,8.7-0.4,8.7-0.4l0,0l11.3-15.3l0,0c-3.7-0.6-4-2.6-3.9-3.3c0-0.1,0-0.1,0-0.1c0-0.1,0-0.1,0-0.1l0,0l-19.4-6.3l0,0
		c-4.5,2.2-6.6,0.9-6.6,0.9l0,0l-4.4,2.3C611.3,51.6,613.2,55.8,612.9,57.9z"/>
	<path class="st126" d="M640.1,106.6c-0.2,0.8-0.7,1.3-1.3,1.6c-0.6,0.3-1.4,0.3-2,0.3c-0.8,0-1.4-0.1-1.4-0.1c0,0,0,0,0,0
		c-1.4,5-3,9.8-4.5,14.1l21.6-7.4l0,0l-10.7-23.2c0,0.3,0,0.7,0,1.1C641.9,97.5,640.6,104.4,640.1,106.6z"/>
	<path class="st76" d="M612.9,128.7c1.1-8.2,3-16.8,4.9-24.1c0,0,0,0,0,0c0,0-1-0.3-1.9-1.2c-1-0.9-1.9-2.3-1.9-4.4
		c0-0.9,0.2-2,0.6-3.2C617,89,620,84.9,625,79.8c0.1-0.1,0.2-0.1,0.3,0c0.1,0.1,0.1,0.2,0,0.3c-5,5.1-8,9.1-10.4,15.8
		c-0.4,1.2-0.6,2.2-0.6,3.1c0,1.9,0.8,3.1,1.6,4c0.8,0.8,1.7,1.2,1.9,1.2l0,0c0.1,0,0.2,0.2,0.1,0.3c0,0,0,0,0,0
		c2,1,5.5,2.1,9.5,2.9c2.9,0.5,5.5,0.8,7.6,0.9c0,0,0,0,0,0c0-0.1,0.1-0.2,0.2-0.2c0,0,0.1,0,0.4,0.1c0.2,0,0.6,0.1,1,0.1
		c0.6,0,1.3-0.1,1.8-0.3c0.6-0.2,1-0.6,1.1-1.3c0.4-2.2,1.7-9.1,1.7-13.6c0-0.5,0-0.9,0-1.3c0-0.1,0.1-0.2,0.2-0.2c0,0,0,0,0,0
		l0-0.1c-0.3-11.1-4.5-16.8-8.9-17.6c-0.4-0.1-0.7-0.1-1.1,0c-3.8-0.8-11-0.1-19.3,2l0.4,1.2l-0.1,0c0.2,0.7,0.4,1.5,0.4,2.3
		c0,4-3.2,7.2-7.2,7.2c-3.7,0-6.7-2.7-7.1-6.3c-5,2-9.1,4.2-11.7,6.2c-5,2.9-11,10.8-17.6,22.7c-0.2,0.4,0.2,1.1,1.1,2
		c1.6,1.5,4.7,3.6,8.5,5.5c2.7,1.3,5.2,2.4,7.3,3c2.5,0.7,4.2,0.9,4.5,0.2c2.4-4.5,4.2-8.5,5.3-12.2l0.8,1.2
		c-1.7-2.9-4.2-7.3-5.1-11.3c0-0.1,0-0.2,0.2-0.2c0.1,0,0.2,0,0.2,0.2c1.1,4.7,4.4,10.3,6.1,12.8c0.5,0.8,0.9,1.3,0.9,1.3v0
		c0.1,0.1,0,0.2,0,0.3l12.8,17.5l0,0L612.9,128.7z"/>
	<path class="st121" d="M605.7,86.4c4,0,7.2-3.2,7.2-7.2c0-0.8-0.2-1.5-0.4-2.3l0.1,0l-0.4-1.2l-1.1-3.2l-2.1-6.1l0.2-1.9l0-0.1
		c1-0.2,2.2-1,3-2.2c1-1.5,1.2-3.2,0.6-4.2c-0.1-0.3-0.3-0.5-0.6-0.7c-1.2-0.8-3.2,0.1-4.5,2c-0.1,0.2-0.2,0.4-0.3,0.6
		c-1.5-0.2-3.2-0.6-4.9-1.3c-3.1-1.2-5.6-2.9-6.8-4.6c-0.3,0.7-0.5,1.4-0.6,2.2l-0.5,4.7l-0.4,4.4c-0.3,3.1,1.4,6,4.1,7.3
		c0.8,0.4,1.6,0.7,2.5,0.7c0.9,0.1,1.7,0,2.5-0.2c-1.1,2-2.9,3.6-5.1,4.5l0,1.5c0,0.3,0.1,0.6,0.1,1C599,83.6,602,86.4,605.7,86.4z
		 M603,62c0-0.2,0.1-0.3,0.2-0.3c0.1,0,0.2,0.1,0.2,0.3c0,0.2-0.1,0.3-0.2,0.3C603,62.3,602.9,62.2,603,62z M611.5,61.3
		c0,0.1,0,0.1-0.1,0.1c0,0,0,0.1-0.1,0.1c-0.6,1-1.5,1.6-2.2,1.6c-0.2,0-0.4,0-0.5-0.2c-0.3-0.2-0.5-0.6-0.5-1.1
		c0-0.2,0-0.4,0.1-0.6c0-0.1,0.1-0.2,0.2-0.2c0.1,0,0.2,0.1,0.2,0.2c0,0.2-0.1,0.3-0.1,0.5c0,0.4,0.1,0.6,0.3,0.7
		c0.1,0.1,0.2,0.1,0.3,0.1c0.5,0,1.3-0.5,1.9-1.4c0,0,0-0.1,0.1-0.1c0-0.1,0-0.3-0.1-0.5c-0.1-0.2-0.2-0.4-0.6-0.5l-0.1,0
		c-0.1,0-0.1,0-0.2,0c0.2,0.2,0.4,0.4,0.4,0.7c0,0.1,0,0.2-0.1,0.3c-0.1,0.1-0.2,0.2-0.3,0.2c-0.1,0-0.2,0-0.3,0
		c-0.2,0-0.3-0.1-0.4-0.2c-0.1-0.1-0.1-0.3-0.1-0.4c0-0.3,0.1-0.5,0.3-0.8c0,0,0,0,0,0l-0.1-0.1c-0.1-0.1-0.1-0.2,0-0.3
		c0.1-0.1,0.2-0.1,0.3,0c0,0,0.1,0.1,0.2,0.1c0.1-0.1,0.3-0.1,0.4-0.1c0.1,0,0.2,0,0.2,0c0.4,0.1,0.7,0.4,0.8,0.7c0,0,0,0.1,0,0.1
		c0.2-0.4,0.3-0.8,0.3-1.1c0-0.4-0.1-0.6-0.3-0.7c-0.1-0.1-0.2-0.1-0.3-0.1c-0.2,0-0.5,0.1-0.7,0.2v0c-0.1,0.1-0.2,0-0.3-0.1
		c-0.1-0.1,0-0.2,0.1-0.3c0.3-0.2,0.6-0.3,0.9-0.3c0.2,0,0.4,0,0.5,0.2c0.3,0.2,0.5,0.6,0.5,1.1C612,60,611.8,60.6,611.5,61.3
		L611.5,61.3z M598.1,61.5c0.1,0,0.2,0.1,0.2,0.3c0,0.2-0.1,0.3-0.2,0.3c-0.1,0-0.2-0.1-0.2-0.3C597.9,61.6,598,61.5,598.1,61.5z
		 M599.1,66c0.1,0.2,0.3,0.3,0.3,0.4l0,0c0.1,0.1,0.1,0.2,0,0.3c-0.1,0.1-0.2,0.1-0.3,0c0,0-0.2-0.2-0.4-0.4
		c-0.2-0.2-0.4-0.6-0.4-0.9c0-0.3,0.2-0.7,0.6-0.9c0.5-0.2,0.8-0.6,0.9-0.9c0.2-0.3,0.2-0.7,0.2-0.8l0,0l0,0c0-0.1,0.1-0.2,0.2-0.2
		c0.1,0,0.2,0.1,0.2,0.2c0,0,0,0.4-0.2,0.8c-0.2,0.4-0.5,1-1.2,1.3c-0.3,0.2-0.4,0.3-0.4,0.5C598.8,65.6,598.9,65.8,599.1,66z
		 M600.8,69.3c-0.2,0-0.4,0-0.4,0v0c-0.1,0-0.2-0.1-0.2-0.2c0-0.1,0.1-0.2,0.2-0.2l0.1,0c0.1,0,0.1,0,0.2,0c0.3,0,0.7,0,1.2-0.3
		c0.4-0.2,0.8-0.6,1.1-1.3c0-0.1,0.2-0.2,0.3-0.1c0.1,0,0.2,0.2,0.1,0.3c-0.3,0.8-0.8,1.3-1.3,1.6C601.6,69.2,601.1,69.3,600.8,69.3
		z"/>
	<path class="st127" d="M603.5,73.2c-0.8,0.2-1.6,0.3-2.5,0.2c-0.9-0.1-1.8-0.4-2.5-0.7v5c0,0,0,0,0,0
		C600.6,76.8,602.4,75.2,603.5,73.2z"/>
	<path d="M599.2,64.9c0.7-0.3,1-0.9,1.2-1.3c0.2-0.4,0.2-0.8,0.2-0.8c0-0.1-0.1-0.2-0.2-0.2c-0.1,0-0.2,0.1-0.2,0.2l0,0l0,0
		c0,0.1-0.1,0.4-0.2,0.8c-0.2,0.3-0.4,0.7-0.9,0.9c-0.4,0.2-0.6,0.5-0.6,0.9c0,0.4,0.2,0.7,0.4,0.9c0.2,0.2,0.3,0.4,0.4,0.4
		c0.1,0.1,0.2,0.1,0.3,0c0.1-0.1,0.1-0.2,0-0.3l0,0c-0.1-0.1-0.2-0.2-0.3-0.4c-0.1-0.2-0.2-0.4-0.2-0.6
		C598.8,65.3,598.9,65.1,599.2,64.9z"/>
	<path d="M598,62c0.1,0,0.2-0.1,0.2-0.3c0-0.2-0.1-0.3-0.2-0.3c-0.1,0-0.2,0.1-0.2,0.3C597.9,61.9,597.9,62,598,62z"/>
	<path d="M603.3,62.1c0-0.2-0.1-0.3-0.2-0.3c-0.1,0-0.2,0.1-0.2,0.3c0,0.2,0.1,0.3,0.2,0.3C603.2,62.3,603.3,62.2,603.3,62.1z"/>
	<path d="M603.4,67.4c0-0.1,0-0.2-0.1-0.3c-0.1,0-0.2,0-0.3,0.1c-0.3,0.7-0.7,1.1-1.1,1.3c-0.4,0.2-0.9,0.3-1.2,0.3
		c-0.1,0-0.2,0-0.2,0l-0.1,0c-0.1,0-0.2,0.1-0.2,0.2c0,0.1,0.1,0.2,0.2,0.2v0c0,0,0.2,0,0.4,0c0.3,0,0.8-0.1,1.3-0.3
		C602.6,68.7,603.1,68.2,603.4,67.4z"/>
	<path class="st121" d="M609.8,60.5c-0.1,0.1-0.1,0.3-0.1,0.4c0,0.1,0,0.1,0,0.2l0.1,0l0.1,0c0.1,0,0.1-0.1,0.2-0.1l0-0.1
		C610.1,60.9,610,60.7,609.8,60.5C609.8,60.6,609.8,60.6,609.8,60.5z"/>
	<path d="M612,59.5c0-0.4-0.1-0.8-0.5-1.1c-0.2-0.1-0.4-0.2-0.5-0.2c-0.3,0-0.6,0.1-0.9,0.3c-0.1,0.1-0.1,0.2-0.1,0.3
		c0.1,0.1,0.2,0.1,0.3,0.1v0c0.3-0.2,0.5-0.2,0.7-0.2c0.1,0,0.2,0,0.3,0.1c0.2,0.1,0.3,0.4,0.3,0.7c0,0.3-0.1,0.7-0.3,1.1
		c0,0,0-0.1,0-0.1c-0.1-0.3-0.4-0.6-0.8-0.7c-0.1,0-0.2,0-0.2,0c-0.2,0-0.3,0.1-0.4,0.1c-0.1-0.1-0.2-0.1-0.2-0.1
		c-0.1-0.1-0.2-0.1-0.3,0c-0.1,0.1-0.1,0.2,0,0.3l0.1,0.1c0,0,0,0,0,0c-0.2,0.2-0.3,0.5-0.3,0.8c0,0.1,0,0.3,0.1,0.4
		c0.1,0.1,0.2,0.2,0.4,0.2c0.1,0,0.2,0,0.3,0c0.1-0.1,0.3-0.1,0.3-0.2c0.1-0.1,0.1-0.2,0.1-0.3c0-0.3-0.2-0.5-0.4-0.7
		c0,0,0.1,0,0.2,0l0.1,0c0.3,0.1,0.5,0.3,0.6,0.5c0.1,0.2,0.1,0.4,0.1,0.5c0,0,0,0.1-0.1,0.1c-0.6,0.9-1.4,1.4-1.9,1.4
		c-0.1,0-0.2,0-0.3-0.1c-0.2-0.1-0.3-0.4-0.3-0.7c0-0.2,0-0.3,0.1-0.5c0-0.1,0-0.2-0.2-0.2c-0.1,0-0.2,0-0.2,0.2
		c0,0.2-0.1,0.4-0.1,0.6c0,0.4,0.1,0.8,0.5,1.1c0.2,0.1,0.4,0.2,0.5,0.2c0.7,0,1.6-0.6,2.2-1.6c0,0,0-0.1,0.1-0.1
		c0,0,0.1-0.1,0.1-0.1l0,0C611.8,60.6,612,60,612,59.5z M610.1,61L610.1,61c0,0.1-0.1,0.1-0.2,0.2l-0.1,0l-0.1,0c0,0,0-0.1,0-0.2
		c0-0.1,0.1-0.3,0.1-0.4c0,0,0,0,0,0C610,60.7,610.1,60.9,610.1,61z"/>
	<path class="st121" d="M570.3,110.9c-4,6.7-8.3,14.8-11.7,22.6c-0.4,0.3-0.7,0.6-1,0.9l0,0c0,0-19.1,20.3-28.9,32.5
		c-0.1,0.1-0.2,0.3-0.3,0.4c-0.1,0.1-0.1,0.2-0.2,0.2l0,0c-0.1,0.1-0.2,0.3-0.3,0.4c-1.1,1.7-6.6,10.4-6.7,17.4c0,1,4.1-6.4,4.1-6.4
		s-7.9,19.9,1.3,2.1c0,0-7.2,20.3,1.7,0.8c0,0-5.7,15.3,1.7,0.7c1.5-2.9,5.3-7.3,6.4-8.5c1.6-1.1,23.1-16.7,31.5-29.4
		c0.5-0.4,1-0.8,1.4-1.4l0,0c0,0,8.9-11.7,16.6-24.2c-2-0.6-4.6-1.6-7.3-3C575,114.5,571.9,112.5,570.3,110.9z"/>
	<path class="st121" d="M597,184.2c0,0-1.3,16.3,1.9,0.2c0.6-3.2,3.1-8.4,3.8-9.9c1.2-1.5,17.7-22.4,22.3-36.9
		c0.4-0.5,0.7-1.1,1-1.7l0,0c0,0,2.2-5.7,4.9-13.5c1.5-4.3,3-9.2,4.5-14.1c-0.1,0-0.1-0.1-0.1-0.2c-2.1,0-4.7-0.3-7.6-0.9
		c-4.1-0.8-7.5-1.8-9.5-2.9c0,0.1-0.1,0.1-0.2,0.1c-1.9,7.3-3.8,15.9-4.9,24.1c0,0.2-0.1,0.4-0.1,0.6c-0.3,0.4-0.5,0.8-0.7,1.2l0,0
		c0,0-12.8,24.7-18.9,39.2c-0.1,0.1-0.1,0.3-0.2,0.5c0,0.1-0.1,0.2-0.1,0.3l0,0c-0.1,0.2-0.1,0.3-0.1,0.5
		c-0.6,1.9-3.5,11.8-1.7,18.6c0.3,1,2.2-7.2,2.2-7.2s-0.6,6-0.6,8.7c0,1.7,0.3,2.1,1.1-1.1c0.3-1.3,0.8-3.2,1.3-5.9
		c0,0-0.2,2.4-0.2,4.8c-0.1,4.2-0.1,8.4,1.4,0C596.5,187.4,596.7,186,597,184.2z"/>
	<path d="M618,104.2L618,104.2c-0.2-0.1-1.1-0.4-2-1.2c-0.8-0.8-1.6-2.1-1.6-4c0-0.9,0.2-1.9,0.6-3.1c2.4-6.7,5.4-10.7,10.4-15.8
		c0.1-0.1,0.1-0.2,0-0.3c-0.1-0.1-0.2-0.1-0.3,0c-5,5.1-8.1,9.2-10.5,15.9C614.1,97,614,98,614,99c0,2.2,1,3.6,1.9,4.4
		c1,0.9,1.9,1.2,1.9,1.2c0,0,0,0,0,0c0.1,0,0.2,0,0.2-0.1c0,0,0,0,0,0C618.1,104.3,618.1,104.2,618,104.2z"/>
	<path d="M641.4,91.6c0,0.4,0,0.9,0,1.3c0,4.5-1.3,11.5-1.7,13.6c-0.1,0.7-0.5,1-1.1,1.3c-0.5,0.2-1.2,0.3-1.8,0.3
		c-0.4,0-0.7,0-1-0.1c-0.2,0-0.4-0.1-0.4-0.1c-0.1,0-0.2,0.1-0.2,0.2c0,0,0,0,0,0c0,0.1,0.1,0.2,0.1,0.2c0,0,0,0,0,0
		c0,0,0.6,0.1,1.4,0.1c0.6,0,1.4-0.1,2-0.3c0.6-0.3,1.2-0.8,1.3-1.6c0.4-2.2,1.7-9.1,1.7-13.7c0-0.4,0-0.7,0-1.1c0-0.1,0-0.2,0-0.3
		c0-0.1-0.1-0.2-0.2-0.2c0,0,0,0,0,0C641.5,91.4,641.4,91.5,641.4,91.6z"/>
	<path d="M599,111.3L599,111.3c0,0-0.3-0.5-0.9-1.3c-1.6-2.5-5-8.1-6.1-12.8c0-0.1-0.1-0.2-0.2-0.2c-0.1,0-0.2,0.1-0.2,0.2
		c0.9,3.9,3.4,8.4,5.1,11.3c1.1,1.8,1.9,2.9,1.9,2.9c0.1,0.1,0.2,0.1,0.3,0.1c0,0,0,0,0,0C599,111.5,599.1,111.4,599,111.3z"/>
</g>
<g>
	<polygon class="st128" points="383.1,401.8 395.4,401.7 395.9,393.9 383.1,393.9 	"/>
	<polygon class="st122" points="381.6,401.8 381.7,425.8 394.3,425.8 394.8,422 404.3,425.8 414.4,425.7 396,412.6 397.4,401.7 
		395.4,401.7 383.1,401.8 	"/>
	<path d="M401.2,175.9c-1,0.1-2.3-0.3-3.4-1.3c-1.7-1.4-2.4-3.5-1.5-4.7c0.9-1.1,3.1-0.9,4.9,0.6c0,0,0,0,0.1,0.1c1-0.7,2-1.5,3-2.5
		c1.6-1.6,2.8-3.3,3.6-4.8c0.3,0.2,0.7,0.5,1,0.7c1.5,0.9,3,1.5,4.2,1.8l2.8,6.7c1.6,3.8-0.2,8.1-4,9.7c-0.2,0.1-0.3,0.1-0.5,0.1
		v3.7c2.6,0.3,5.4-0.8,7.1-3.2c0.4-0.5,0.6-1.1,0.9-1.6l0,0c0,0,0.8-2.6,4-4.1c0.2-0.1,0.4-0.2,0.5-0.3c0.6-0.4,1.2-0.9,1.8-1.5
		c2.8-3.4,2.5-8.4-0.8-11.3c-0.7-0.6-1.5-1-2.3-1.4l0,0c0,0-1.7-0.4-1.5-3.8l0,0c0.1-2.3-0.8-4.7-2.6-6.3c-2.6-2.3-6.2-2.5-9-0.7
		l0,0c0,0-2.2,1.6-4.2-0.4l0,0c-0.1-0.1-0.2-0.2-0.3-0.3c-3.2-2.9-8.1-2.5-10.9,0.9c-0.5,0.6-0.9,1.4-1.2,2.1l0,0c0,0-1.6,4-4.9,5.7
		l0,0c-1,0.6-2,1.3-2.7,2.4c-2.5,3.6-1.8,8.6,1.6,11.2c0.6,0.4,1.2,0.7,1.8,1l0,0c0,0,2.3,0.7,2.9,4.5c0,0.1,0.1,0.2,0.1,0.3
		c0.4,1.8,1.4,3.4,2.9,4.5c1.1,0.9,2.4,1.3,3.7,1.5L401.2,175.9z"/>
	<polygon class="st128" points="508.9,300.4 499.3,308.9 504.4,314.7 513.6,306.6 	"/>
	<polygon class="st122" points="543.7,312.2 521.2,314.4 515.1,305.3 513.6,306.6 504.4,314.7 503.2,315.7 519.1,333.8 528.6,325.5 
		526.4,322.3 536.1,318.9 	"/>
	<path class="st76" d="M399,241.2h18.8l9.5-32.6c4.9-0.3,10.8-1.7,17.8-4.4c0.7-0.2,0.8-2,0.3-4.5c-0.4-2.1-1-4.7-2-7.6
		c-1.4-4-3.1-7.4-4.4-9.2c-0.7-1-1.4-1.5-1.8-1.3c-7.1,2.8-12.8,5.6-17.2,8.4c-2.6-0.4-5.5-0.8-8.6-1v0.9c0,4-3.2,7.2-7.2,7.2
		s-7.2-3.2-7.2-7.2c0-0.3,0.1-0.6,0.1-0.9c-4.5,0.3-8.4,0.9-11.5,1.7c-6,0.9-13.4,4.9-21.9,16.4l0.1,0.1c0,0-0.1,0-0.1,0
		c-0.3,0.4-0.1,1.2,0.6,2.2c1.1,1.8,3.5,4.4,6.5,6.9c2.9,2.4,5.6,4.3,7.6,5.1c0.1-0.1,0.1-0.1,0.2-0.1c0,0,0.1,0,0.2,0.1
		c0.1,0,0.3,0.1,0.5,0.2c0.4,0.1,1,0.2,1.6,0.2c0.8,0,1.6-0.2,2.1-0.8c0.7-0.9,2.8-3.5,5-6.4c2.1-2.9,4.3-6,5.1-7.8
		c0-0.1,0.2-0.2,0.3-0.1c0.1,0,0.2,0.2,0.1,0.3c-0.8,1.9-3,5-5.1,7.9c-2.2,2.9-4.3,5.5-5,6.4c-0.6,0.8-1.5,1-2.4,1
		c-1.1,0-2.2-0.4-2.4-0.5V239v2.2H399z"/>
	<path class="st128" d="M404.1,197.2c4,0,7.2-3.2,7.2-7.2V189v-1.9c-2.4-1-4.3-2.8-5.4-5.2c1.7,0.8,3.6,0.9,5.4,0.3
		c0.2-0.1,0.3-0.1,0.5-0.1c3.8-1.6,5.6-5.9,4-9.7l-2.8-6.7c-1.3-0.3-2.7-0.9-4.2-1.8c-0.4-0.2-0.7-0.5-1-0.7c-0.8,1.5-2,3.2-3.6,4.8
		c-1,1-2,1.8-3,2.5c0,0,0,0-0.1-0.1c-1.7-1.4-3.9-1.7-4.9-0.6c-0.9,1.1-0.3,3.2,1.5,4.7c1.1,0.9,2.4,1.4,3.4,1.3l-3,9l-0.9,2.8l0,0
		c-0.2,0.5-0.3,0.9-0.3,1.4c0,0.3-0.1,0.6-0.1,0.9C396.9,194,400.2,197.2,404.1,197.2z M411.4,175L411.4,175
		c0.1-0.1,0.1-0.2,0.1-0.3c0.1-0.2,0.1-0.4,0.1-0.6c0-0.1,0-0.3-0.1-0.3c-0.1-0.1-0.2-0.2-0.4-0.2c-0.7-0.1-1.2-0.5-1.5-0.9
		c-0.3-0.4-0.4-0.7-0.4-0.7v0v0l0,0c0-0.1,0-0.2,0.1-0.3c0.1,0,0.2,0,0.3,0.1l0,0l0.1,0.1c0.1,0.1,0.1,0.3,0.3,0.4
		c0.3,0.3,0.7,0.6,1.3,0.7c0.3,0,0.5,0.2,0.7,0.4c0.1,0.2,0.2,0.4,0.2,0.6c0,0.6-0.3,1.1-0.4,1.1c-0.1,0.1-0.2,0.1-0.3,0.1
		C411.3,175.2,411.3,175.1,411.4,175z M411.2,169.9c0.1,0,0.2,0,0.3,0.2c0.1,0.1,0,0.3-0.1,0.3c-0.1,0-0.2,0-0.3-0.2
		C411.1,170,411.1,169.9,411.2,169.9z M406.7,171.8c0.1,0.1,0,0.3-0.1,0.3c-0.1,0-0.2,0-0.3-0.2c-0.1-0.1,0-0.3,0.1-0.3
		C406.5,171.6,406.6,171.7,406.7,171.8z M407.8,177.1c-0.1-0.1-0.1-0.2,0-0.3c0.1-0.1,0.2-0.1,0.3,0c0.6,0.8,1.3,1,1.9,1
		c0.5,0,1-0.2,1.1-0.2l0,0c0.1-0.1,0.2,0,0.3,0.1c0.1,0.1,0,0.2-0.1,0.3c0,0-0.5,0.3-1.3,0.3C409.3,178.2,408.5,178,407.8,177.1z
		 M398.5,173.8c-0.8-0.7-1.3-1.5-1.3-2.2c0-0.2,0.1-0.5,0.2-0.7c0.2-0.3,0.5-0.4,0.9-0.4c0.2,0,0.4,0,0.6,0.1v0
		c0.1,0,0.2,0.1,0.1,0.3c0,0.1-0.1,0.2-0.3,0.1c-0.2,0-0.3-0.1-0.5-0.1c-0.3,0-0.5,0.1-0.6,0.2c-0.1,0.1-0.1,0.2-0.1,0.4
		c0,0.4,0.2,0.9,0.6,1.4c0-0.3,0.2-0.7,0.6-1c0.1-0.1,0.3-0.1,0.4-0.1c0.1,0,0.2,0,0.2,0.1c0.1-0.1,0.1-0.2,0.1-0.2l0,0
		c0.1-0.1,0.2-0.1,0.3-0.1c0.1,0.1,0.1,0.2,0.1,0.3l-0.1,0.1c0,0,0,0,0,0.1c0.1,0,0.1,0.1,0.2,0.1c0.2,0.2,0.3,0.5,0.3,0.7
		c0,0.1,0,0.3-0.1,0.4c-0.1,0.1-0.3,0.1-0.4,0.1l-0.1,0c-0.2,0-0.4-0.1-0.5-0.2c-0.1-0.1-0.1-0.3-0.1-0.4c0-0.2,0.1-0.4,0.2-0.6
		c0,0,0,0-0.1,0c-0.1,0-0.1,0-0.2,0.1c-0.3,0.2-0.4,0.5-0.4,0.8c0,0.2,0,0.3,0.1,0.4c0,0,0.1,0.1,0.1,0.1c0.7,0.5,1.4,0.8,1.9,0.8
		c0.3,0,0.5-0.1,0.6-0.2c0.1-0.1,0.1-0.2,0.1-0.4c0-0.2-0.1-0.5-0.3-0.8c-0.1-0.1,0-0.2,0.1-0.3c0.1-0.1,0.2,0,0.3,0.1
		c0.2,0.4,0.3,0.7,0.3,1c0,0.2-0.1,0.5-0.2,0.7c-0.2,0.3-0.5,0.4-0.9,0.4C400,174.7,399.3,174.4,398.5,173.8z"/>
	<path class="st129" d="M405.9,182c1.1,2.3,3,4.2,5.4,5.2v-1.2v-3.7C409.5,182.9,407.6,182.7,405.9,182z"/>
	<path d="M411.4,175.3c0.1,0.1,0.2,0,0.3-0.1c0,0,0.3-0.6,0.4-1.1c0-0.2,0-0.4-0.2-0.6c-0.1-0.2-0.4-0.3-0.7-0.4
		c-0.6-0.1-1-0.4-1.3-0.7c-0.1-0.2-0.2-0.3-0.3-0.4l-0.1-0.1l0,0c0-0.1-0.2-0.2-0.3-0.1c-0.1,0-0.2,0.2-0.1,0.3c0,0,0.1,0.4,0.4,0.7
		c0.3,0.4,0.8,0.8,1.5,0.9c0.2,0,0.4,0.1,0.4,0.2c0.1,0.1,0.1,0.2,0.1,0.3c0,0.2-0.1,0.4-0.1,0.6c0,0.1-0.1,0.2-0.1,0.2l0,0.1
		C411.3,175.1,411.3,175.2,411.4,175.3z"/>
	<path d="M411.4,170.4c0.1,0,0.1-0.2,0.1-0.3c-0.1-0.1-0.2-0.2-0.3-0.2c-0.1,0-0.1,0.2-0.1,0.3C411.2,170.3,411.3,170.4,411.4,170.4
		z"/>
	<path d="M406.4,171.6c-0.1,0-0.1,0.2-0.1,0.3c0.1,0.1,0.2,0.2,0.3,0.2c0.1,0,0.1-0.2,0.1-0.3C406.6,171.7,406.5,171.6,406.4,171.6z
		"/>
	<path d="M411.2,178c0.1-0.1,0.1-0.2,0.1-0.3c-0.1-0.1-0.2-0.1-0.3-0.1l0,0c-0.1,0-0.5,0.2-1.1,0.2c-0.6,0-1.3-0.2-1.9-1
		c-0.1-0.1-0.2-0.1-0.3,0c-0.1,0.1-0.1,0.2,0,0.3c0.7,0.9,1.5,1.2,2.2,1.1C410.7,178.2,411.2,178,411.2,178z"/>
	<path class="st128" d="M400,172.9c0-0.1-0.1-0.3-0.2-0.5c0,0,0,0-0.1,0c-0.1,0.2-0.1,0.3-0.1,0.4c0,0.1,0,0.1,0,0.1
		c0,0,0.1,0.1,0.2,0.1l0,0C399.9,173,400,173,400,172.9L400,172.9z"/>
	<path d="M401.6,174.3c0.2-0.2,0.2-0.4,0.2-0.7c0-0.3-0.1-0.7-0.3-1c-0.1-0.1-0.2-0.1-0.3-0.1c-0.1,0.1-0.1,0.2-0.1,0.3
		c0.2,0.3,0.3,0.6,0.3,0.8c0,0.2,0,0.3-0.1,0.4c-0.1,0.1-0.3,0.2-0.6,0.2c-0.5,0-1.2-0.3-1.9-0.8c0,0-0.1-0.1-0.1-0.1
		c0-0.1-0.1-0.2-0.1-0.4c0-0.3,0.1-0.5,0.4-0.8c0.1-0.1,0.1-0.1,0.2-0.1c0,0,0,0,0.1,0c-0.1,0.2-0.2,0.4-0.2,0.6
		c0,0.1,0,0.3,0.1,0.4c0.1,0.1,0.3,0.2,0.5,0.2l0.1,0c0.2,0,0.3,0,0.4-0.1c0.1-0.1,0.1-0.2,0.1-0.4c0-0.3-0.1-0.5-0.3-0.7
		c-0.1-0.1-0.1-0.1-0.2-0.1c0,0,0,0,0-0.1l0.1-0.1c0.1-0.1,0-0.2-0.1-0.3c-0.1-0.1-0.2,0-0.3,0.1l0,0c0,0-0.1,0.1-0.1,0.2
		c-0.1,0-0.1-0.1-0.2-0.1c-0.1,0-0.3,0-0.4,0.1c-0.4,0.3-0.6,0.7-0.6,1c-0.4-0.5-0.6-1-0.6-1.4c0-0.2,0-0.3,0.1-0.4
		c0.1-0.1,0.3-0.2,0.6-0.2c0.1,0,0.3,0,0.5,0.1c0.1,0,0.2,0,0.3-0.1c0-0.1,0-0.2-0.1-0.3v0c-0.2-0.1-0.4-0.1-0.6-0.1
		c-0.4,0-0.7,0.1-0.9,0.4c-0.2,0.2-0.2,0.4-0.2,0.7c0,0.7,0.5,1.5,1.3,2.2c0.7,0.6,1.5,0.9,2.2,0.9
		C401,174.7,401.4,174.6,401.6,174.3z M399.8,173L399.8,173c-0.2,0-0.2,0-0.2-0.1c0,0,0-0.1,0-0.1c0-0.1,0.1-0.3,0.1-0.4
		c0,0,0,0,0.1,0c0.1,0.2,0.2,0.4,0.2,0.5l0,0.1C400,173,399.9,173,399.8,173z"/>
	<path class="st128" d="M378.2,221.6C378.2,221.6,378.2,221.6,378.2,221.6c-1.9-0.9-4.7-2.8-7.5-5.2c-3-2.5-5.3-5.1-6.5-6.9
		c-7.4,7.8-14,15.5-16.4,18.3c-0.1,0.1-0.2,0.2-0.2,0.2c-12.7,8.2-28.6,30.8-29.7,32.4c-1.3,1.1-5.6,5-8.4,6.5
		c-14.5,7.6,0.8,1.7,0.8,1.7c-19.4,9.2,0.8,1.7,0.8,1.7c-17.7,9.5,2.2,1.3,2.2,1.3s-7.3,4.2-6.3,4.2c6.3-0.2,14-4.8,16.7-6.5
		c0.8-0.3,1.6-0.9,2.1-1.5c9.6-7.9,24.4-22.2,30.4-27.9c0.8-0.4,1.4-1,2-1.7c7.2-4.3,14.3-10.6,20.2-16.4
		C378.2,221.8,378.1,221.7,378.2,221.6z"/>
	<path class="st128" d="M445.4,199.7c10-4.6,19.7-9.9,23.9-12.3c15.1,1.5,40.9-5.5,42.8-6c1.7-0.1,7.5-0.3,10.6,0.4
		c16,3.4,0.5-1.8,0.5-1.8c20.8,5.3,0.5-1.9,0.5-1.9c19.7,4-0.8-2.4-0.8-2.4s8.3,1.5,7.5,0.8c-5.5-4.3-15.7-5.5-17.7-5.8
		c-0.2,0-0.3,0-0.5-0.1v0c-0.1,0-0.2,0-0.3,0c-0.2,0-0.3,0-0.5,0c-15.7-0.1-43.5,2-43.5,2l0,0.1c-0.4,0.1-0.7,0.2-1.1,0.3
		c0,0-0.1,0-0.1,0.1c-0.3,0-0.6,0.1-0.8,0.2l0,0c-9.1,2.4-18.8,6.1-26.9,9.6c1.3,1.8,3,5.1,4.4,9.2
		C444.4,194.9,445.1,197.6,445.4,199.7z"/>
	<path d="M383.2,221.4c0.7-0.9,2.8-3.5,5-6.4c2.2-2.9,4.3-6,5.1-7.9c0-0.1,0-0.2-0.1-0.3c-0.1,0-0.2,0-0.3,0.1
		c-0.8,1.8-2.9,4.9-5.1,7.8c-2.1,2.9-4.3,5.5-5,6.4c-0.5,0.6-1.3,0.8-2.1,0.8c-0.6,0-1.2-0.1-1.6-0.2c-0.2-0.1-0.4-0.1-0.5-0.2
		c-0.1,0-0.2-0.1-0.2-0.1c-0.1,0-0.2,0-0.2,0.1c0,0,0,0,0,0c0,0.1,0,0.2,0.1,0.2c0,0,0,0,0.1,0.1v0c0,0,0,0,0.1,0
		c0.2,0.1,1.3,0.5,2.4,0.5C381.6,222.4,382.6,222.2,383.2,221.4z"/>
	<path class="st72" d="M516.3,293.8l-42-47.5c-2.4-2.7-5.5-4.3-8.8-4.8c-1-0.2-2.1-0.4-3.2-0.4h-44.6H399h-20.6V239
		c-1.9,3.2-3.1,6.9-3.1,10.9c0,0.3,0,0.6,0,1c0.1,0,0.2,0.1,0.2,0.2c0,5.3,2.1,10.1,5.6,13.5c3.5,3.5,8.2,5.6,13.5,5.6l16.9,0
		c0.1,0,0.2,0.1,0.2,0.2s-0.1,0.2-0.2,0.2h-16.9c-9.9,0-18-7.3-19.3-16.9v140.2h7.8h12.8h10.8V270.8h49.7l37.7,42.6l5.2-4.6l9.6-8.5
		L516.3,293.8z"/>
	<path d="M394.6,270.6h16.9c0.1,0,0.2-0.1,0.2-0.2s-0.1-0.2-0.2-0.2l-16.9,0c-5.3,0-10.1-2.1-13.5-5.6c-3.5-3.5-5.6-8.2-5.6-13.5
		c0-0.1-0.1-0.2-0.2-0.2c0,0,0,0,0,0c-0.1,0-0.2,0.1-0.2,0.2c0,0.9,0.1,1.8,0.2,2.7C376.6,263.2,384.7,270.6,394.6,270.6z"/>
</g>
<g>
	<path class="st55" d="M211.9,372.5c-0.2,0-0.3-0.1-0.3-0.1v0c-0.1,0-0.2-0.2-0.1-0.3c0,0,0,0,0,0c-1-0.3-2.2-1.1-3.6-2.1
		c-5.1,4.3-11,8.8-17,12.3c5.3,7.5,13.7,19.6,19.1,28.4l0.2-0.5c-1.1-2.5-1.8-5.2-1.8-8.1c0-4.4,1.5-8.5,3.9-11.7h-0.4V372.5z"/>
	<rect x="284.9" y="485.7" class="st130" width="11.8" height="8.8"/>
	<polygon class="st130" points="169.7,541.1 182.7,541.1 186,531.5 173,531.5 	"/>
	<path class="st131" d="M231.4,323.8c-1.7-1.4-2.4-3.5-1.5-4.7c0.9-1.1,3.1-0.9,4.9,0.6c0,0,0,0,0.1,0.1c1-0.7,2-1.5,3-2.5
		c1.6-1.6,2.8-3.3,3.6-4.8c0.3,0.2,0.7,0.5,1,0.7c1.5,0.9,3,1.5,4.2,1.8l2.8,6.7c1.6,3.8-0.2,8.1-4,9.7c-0.2,0.1-0.3,0.1-0.5,0.1
		v1.3c18-2.3,21-12.6,21-12.6s-2.1-4.1-5.6-3.9c-3.4,0.2-6-0.8-6.7-3.2c-0.7-2.4-1.9-4.2-5-4.4c-2.3-0.2-3.6-1.7-4.1-2.4
		c-1.3-2.4-3.8-3.9-6.7-3.9c-2.9,0.1-5.3,1.7-6.5,4.1c-0.4,0.7-1.7,2.3-4,2.6c-3.1,0.3-4.2,2.2-4.8,4.6c-0.6,2.4-3.2,3.5-6.6,3.5
		c-3.4-0.1-5.4,4.1-5.4,4.1s3.5,10.1,21.5,11.8l2.7-7.9C233.8,325.2,232.5,324.8,231.4,323.8z"/>
	<path class="st130" d="M237.7,346.4c4,0,7.2-3.2,7.2-7.2v-0.9v-1.9c-2.4-1-4.3-2.8-5.4-5.2c1.7,0.8,3.6,0.9,5.4,0.3
		c0.2-0.1,0.3-0.1,0.5-0.1c3.8-1.6,5.6-5.9,4-9.7l-2.8-6.7c-1.3-0.3-2.7-0.9-4.2-1.8c-0.4-0.2-0.7-0.5-1-0.7c-0.8,1.5-2,3.2-3.6,4.8
		c-1,1-2,1.8-3,2.5c0,0,0,0-0.1-0.1c-1.7-1.4-3.9-1.7-4.9-0.6c-0.9,1.1-0.3,3.2,1.5,4.7c1.1,0.9,2.4,1.4,3.4,1.3l-2.7,7.9l-1.3,3.9
		l0,0c-0.2,0.5-0.3,0.9-0.3,1.4c0,0.3-0.1,0.6-0.1,0.9C230.5,343.2,233.7,346.4,237.7,346.4z M244.8,327.1c0,0-0.5,0.3-1.3,0.3
		c-0.7,0-1.5-0.2-2.2-1.1c-0.1-0.1-0.1-0.2,0-0.3c0.1-0.1,0.2-0.1,0.3,0c0.6,0.8,1.3,1,1.9,1c0.5,0,1-0.2,1-0.2l0,0v0
		c0.1-0.1,0.2,0,0.3,0.1C244.9,327,244.9,327.1,244.8,327.1z M245.3,324.4c-0.1,0.1-0.2,0.1-0.3,0.1c-0.1-0.1-0.1-0.2-0.1-0.3l0-0.1
		c0-0.1,0.1-0.1,0.1-0.2c0.1-0.2,0.1-0.4,0.1-0.6c0-0.1,0-0.3-0.1-0.3c-0.1-0.1-0.2-0.2-0.4-0.2c-0.7-0.1-1.2-0.5-1.5-0.9
		c-0.3-0.4-0.4-0.7-0.4-0.7c0-0.1,0-0.2,0.1-0.3c0.1,0,0.2,0,0.3,0.1l0,0l0.1,0.1c0.1,0.1,0.1,0.3,0.3,0.4c0.3,0.3,0.7,0.6,1.3,0.7
		c0.3,0,0.5,0.2,0.7,0.4c0.1,0.2,0.2,0.4,0.2,0.6C245.6,323.8,245.3,324.4,245.3,324.4z M239.5,318.9c0.7,0,1.4,0.6,1.8,1.5
		c0.3-0.2,0.9-0.6,1.7-0.6c-0.1-0.3-0.1-0.6-0.1-0.8c0-0.8,0.3-1.4,0.9-1.7c0.1-0.1,0.3-0.1,0.4-0.1c0.8,0,1.6,0.7,1.9,1.7
		c0.1,0.4,0.2,0.8,0.2,1.1c0,0.8-0.3,1.4-0.9,1.7c-0.1,0.1-0.3,0.1-0.4,0.1c-0.8,0-1.5-0.7-1.9-1.6l-0.1,0c-0.9,0-1.5,0.5-1.7,0.6
		c0.1,0.3,0.2,0.7,0.2,1c0,0.8-0.3,1.4-0.9,1.7c-0.1,0.1-0.3,0.1-0.4,0.1c-0.8,0-1.6-0.7-1.9-1.7c-0.1-0.4-0.2-0.8-0.2-1.1
		c0-0.8,0.3-1.4,0.9-1.7C239.2,318.9,239.4,318.9,239.5,318.9z M232.1,323c-0.8-0.7-1.3-1.5-1.3-2.2c0-0.2,0.1-0.5,0.2-0.7
		c0.2-0.3,0.5-0.4,0.9-0.4c0.2,0,0.4,0,0.6,0.1l0,0c0.1,0,0.2,0.1,0.1,0.3c0,0.1-0.1,0.2-0.3,0.1c-0.2,0-0.3-0.1-0.5-0.1
		c-0.3,0-0.5,0.1-0.6,0.2c-0.1,0.1-0.1,0.2-0.1,0.4c0,0.4,0.2,0.9,0.6,1.4c0-0.3,0.2-0.7,0.6-1c0.1-0.1,0.3-0.1,0.4-0.1
		c0.1,0,0.2,0,0.2,0.1c0.1-0.1,0.1-0.2,0.1-0.2v0c0.1-0.1,0.2-0.1,0.3-0.1c0.1,0.1,0.1,0.2,0.1,0.3l-0.1,0.1c0,0,0,0,0,0.1
		c0.1,0,0.1,0.1,0.2,0.1c0.2,0.2,0.3,0.5,0.3,0.7c0,0.1,0,0.3-0.1,0.4c-0.1,0.1-0.3,0.1-0.4,0.1l-0.1,0c-0.2,0-0.4-0.1-0.5-0.2
		c-0.1-0.1-0.1-0.3-0.1-0.4c0-0.2,0.1-0.4,0.2-0.6c0,0,0,0-0.1,0c-0.1,0-0.1,0-0.2,0.1c-0.3,0.2-0.4,0.5-0.4,0.8
		c0,0.2,0,0.3,0.1,0.4c0,0,0.1,0.1,0.1,0.1c0.7,0.5,1.4,0.8,1.9,0.8c0.3,0,0.5-0.1,0.6-0.2c0.1-0.1,0.1-0.2,0.1-0.4
		c0-0.2-0.1-0.5-0.3-0.8c-0.1-0.1,0-0.2,0.1-0.3c0.1-0.1,0.2,0,0.3,0.1c0.2,0.4,0.3,0.7,0.3,1c0,0.2-0.1,0.5-0.2,0.7
		c-0.2,0.3-0.5,0.4-0.9,0.4C233.6,323.9,232.8,323.6,232.1,323z"/>
	<path class="st132" d="M239.5,331.2c1.1,2.3,3,4.2,5.4,5.2v-3.5v-1.3C243.1,332.1,241.2,331.9,239.5,331.2z"/>
	<path class="st130" d="M239.2,319.3c-0.4,0.1-0.7,0.6-0.7,1.3c0,0.3,0.1,0.6,0.2,1c0.3,0.9,1,1.5,1.6,1.4c0.1,0,0.2,0,0.3,0
		c0.4-0.1,0.7-0.6,0.7-1.3c0-0.3-0.1-0.6-0.2-1c-0.3-0.9-1-1.5-1.6-1.4C239.4,319.3,239.3,319.3,239.2,319.3z M240,320.8
		c0.1,0,0.2,0,0.3,0.2c0.1,0.1,0,0.3-0.1,0.3c-0.1,0-0.2,0-0.3-0.2C239.8,321,239.9,320.9,240,320.8z"/>
	<path class="st130" d="M245.1,321.3c0.1,0,0.2,0,0.3,0c0.4-0.1,0.7-0.6,0.7-1.3c0-0.3-0.1-0.6-0.2-1l0.2-0.1l-0.2,0.1
		c-0.3-0.9-1-1.5-1.6-1.4c-0.1,0-0.2,0-0.3,0c-0.4,0.1-0.7,0.6-0.7,1.3c0,0.3,0.1,0.6,0.2,1C243.9,320.7,244.6,321.3,245.1,321.3z
		 M244.9,319.6c-0.1,0-0.2,0-0.3-0.2c-0.1-0.1,0-0.3,0.1-0.3c0.1,0,0.2,0,0.3,0.2C245.1,319.4,245,319.5,244.9,319.6z"/>
	<path d="M244.7,322.3c-0.6-0.1-1-0.4-1.3-0.7c-0.1-0.2-0.2-0.3-0.3-0.4l-0.1-0.1l0,0c0-0.1-0.2-0.2-0.3-0.1c-0.1,0-0.2,0.2-0.1,0.3
		c0,0,0.1,0.3,0.4,0.7c0.3,0.4,0.8,0.8,1.5,0.9c0.2,0,0.4,0.1,0.4,0.2c0.1,0.1,0.1,0.2,0.1,0.3c0,0.2-0.1,0.4-0.1,0.6
		c0,0.1-0.1,0.2-0.1,0.2l0,0.1c-0.1,0.1,0,0.2,0.1,0.3c0.1,0.1,0.2,0,0.3-0.1c0,0,0.3-0.6,0.4-1.1c0-0.2,0-0.4-0.2-0.6
		C245.3,322.5,245,322.3,244.7,322.3z"/>
	<path d="M244.7,319c-0.1,0-0.1,0.2-0.1,0.3c0.1,0.1,0.2,0.2,0.3,0.2c0.1,0,0.1-0.2,0.1-0.3C245,319.1,244.8,319,244.7,319z"/>
	<path d="M240.2,321.3c0.1,0,0.1-0.2,0.1-0.3c-0.1-0.1-0.2-0.2-0.3-0.2c-0.1,0-0.1,0.2-0.1,0.3C239.9,321.3,240.1,321.4,240.2,321.3
		z"/>
	<path d="M238.2,320.6c0,0.4,0.1,0.7,0.2,1.1c0.4,1,1.1,1.7,1.9,1.7c0.1,0,0.3,0,0.4-0.1c0.6-0.2,0.9-0.9,0.9-1.7
		c0-0.3-0.1-0.6-0.2-1c0.2-0.2,0.7-0.6,1.7-0.6l0.1,0c0.4,0.9,1.1,1.6,1.9,1.6c0.1,0,0.3,0,0.4-0.1c0.6-0.2,0.9-0.9,0.9-1.7
		c0-0.4-0.1-0.7-0.2-1.1c-0.4-1-1.1-1.7-1.9-1.7c-0.1,0-0.3,0-0.4,0.1c-0.6,0.2-0.9,0.9-0.9,1.7c0,0.3,0.1,0.6,0.1,0.8
		c-0.9,0-1.4,0.4-1.7,0.6c-0.4-0.8-1.1-1.4-1.8-1.5c-0.1,0-0.3,0-0.4,0.1C238.5,319.2,238.2,319.9,238.2,320.6z M243.3,318.8
		c0-0.7,0.3-1.1,0.7-1.3c0.1,0,0.2,0,0.3,0c0.5,0,1.2,0.6,1.6,1.4l0.2-0.1l-0.2,0.1c0.1,0.3,0.2,0.7,0.2,1c0,0.7-0.3,1.1-0.7,1.3
		c-0.1,0-0.2,0-0.3,0c-0.5,0-1.2-0.6-1.6-1.4C243.4,319.5,243.3,319.2,243.3,318.8z M241.1,320.7c0.1,0.3,0.2,0.7,0.2,1
		c0,0.7-0.3,1.1-0.7,1.3c-0.1,0-0.2,0-0.3,0c-0.5,0-1.2-0.6-1.6-1.4c-0.1-0.3-0.2-0.7-0.2-1c0-0.7,0.3-1.2,0.7-1.3
		c0.1,0,0.2,0,0.3-0.1C240.1,319.3,240.8,319.8,241.1,320.7z"/>
	<path d="M244.6,326.8L244.6,326.8L244.6,326.8c-0.1,0-0.5,0.2-1.1,0.2c-0.6,0-1.3-0.2-1.9-1c-0.1-0.1-0.2-0.1-0.3,0
		c-0.1,0.1-0.1,0.2,0,0.3c0.7,0.9,1.5,1.2,2.2,1.1c0.7,0,1.2-0.3,1.3-0.3c0.1-0.1,0.1-0.2,0.1-0.3
		C244.8,326.8,244.7,326.7,244.6,326.8z"/>
	<path class="st130" d="M233.2,321.6c-0.1,0.2-0.1,0.3-0.1,0.4c0,0.1,0,0.1,0,0.1c0,0,0.1,0.1,0.2,0.1l0,0c0.1,0,0.1,0,0.1,0l0-0.1
		C233.5,322,233.5,321.8,233.2,321.6C233.3,321.6,233.3,321.6,233.2,321.6z"/>
	<path d="M235.1,323.5c0.2-0.2,0.2-0.4,0.2-0.7c0-0.3-0.1-0.7-0.3-1c-0.1-0.1-0.2-0.1-0.3-0.1c-0.1,0.1-0.1,0.2-0.1,0.3
		c0.2,0.3,0.3,0.6,0.3,0.8c0,0.2,0,0.3-0.1,0.4c-0.1,0.1-0.3,0.2-0.6,0.2c-0.5,0-1.2-0.3-1.9-0.8c0,0-0.1-0.1-0.1-0.1
		c0-0.1-0.1-0.2-0.1-0.4c0-0.3,0.1-0.5,0.4-0.8c0.1-0.1,0.1-0.1,0.2-0.1c0,0,0,0,0.1,0c-0.1,0.2-0.2,0.4-0.2,0.6
		c0,0.1,0,0.3,0.1,0.4c0.1,0.1,0.3,0.2,0.5,0.2l0.1,0c0.2,0,0.3,0,0.4-0.1c0.1-0.1,0.1-0.2,0.1-0.4c0-0.3-0.1-0.5-0.3-0.7
		c-0.1-0.1-0.1-0.1-0.2-0.1c0,0,0,0,0-0.1l0.1-0.1c0.1-0.1,0-0.2-0.1-0.3c-0.1-0.1-0.2,0-0.3,0.1v0c0,0-0.1,0.1-0.1,0.2
		c-0.1,0-0.1-0.1-0.2-0.1c-0.1,0-0.3,0-0.4,0.1c-0.4,0.3-0.6,0.7-0.6,1c-0.4-0.5-0.6-1-0.6-1.4c0-0.2,0-0.3,0.1-0.4
		c0.1-0.1,0.3-0.2,0.6-0.2c0.1,0,0.3,0,0.5,0.1c0.1,0,0.2,0,0.3-0.1c0-0.1,0-0.2-0.1-0.3l0,0c-0.2-0.1-0.4-0.1-0.6-0.1
		c-0.4,0-0.7,0.1-0.9,0.4c-0.2,0.2-0.2,0.4-0.2,0.7c0,0.7,0.5,1.5,1.3,2.2c0.7,0.6,1.5,0.9,2.2,0.9
		C234.6,323.9,234.9,323.8,235.1,323.5z M233.5,322.2c0,0,0,0-0.1,0l0,0c-0.1,0-0.2,0-0.2-0.1c0,0,0-0.1,0-0.1
		c0-0.1,0.1-0.3,0.1-0.4c0,0,0,0,0.1,0C233.5,321.8,233.5,322,233.5,322.2L233.5,322.2z"/>
	<polygon class="st122" points="168.7,541.1 161.4,565.1 174,565.1 175.5,561.7 184,565.1 194.1,565.1 178.8,554.1 184.5,541.1 
		182.7,541.1 169.7,541.1 	"/>
	<path class="st130" d="M278.9,348.9c13.3-6.1,26.1-13.5,26.1-13.5l0,0c0.6-0.4,1.2-0.9,1.7-1.4c1-0.9,1.7-2,2.1-3.2l0,0
		c0-0.1,0-0.2,0.1-0.3c0-0.1,0.1-0.2,0.1-0.4c3.7-14.8,0.9-43.5,0.7-45.6c0.2-1.7,0.8-7.4,1.9-10.5c5.7-15.4-1.7-0.8-1.7-0.8
		c8.2-19.8-1.8-0.7-1.8-0.7c6.8-18.9-2.5,0.5-2.5,0.5s2.6-8,1.9-7.3c-5,4.8-7.7,14.8-8.2,16.7c-0.1,0.2-0.1,0.3-0.1,0.5l0,0
		c0,0.1,0,0.2,0,0.3c0,0.2-0.1,0.3-0.1,0.5c-1.8,12.3-3.4,32.4-4,40.1c-7.6,2.3-15.4,5.3-22.1,8.2c1.4,1.8,3,5.2,4.3,9.4
		C278.1,344.2,278.7,346.8,278.9,348.9z"/>
	<polygon class="st122" points="318.1,518.6 299.5,505.3 299.5,494.6 296.7,494.6 284.9,494.6 283.7,494.6 283.7,518.6 299.5,518.6 
		299.5,515.2 308.1,518.6 	"/>
	<path class="st100" d="M305.5,485.7v-45.3c0-6.9-1.4-13.5-3.9-19.5c-3.8-9-10.1-16.6-18.1-22c-4-2.7-8.4-4.8-13.1-6.3
		c-4.7-1.5-9.7-2.3-14.9-2.3h-4.1h-14.6v0h-24.4c-2.4,3.3-3.9,7.3-3.9,11.7c0,2.9,0.6,5.6,1.8,8.1l-0.2,0.5c0.3,0.6,0.7,1.1,1,1.6
		c0.6,0.7,1,1.4,1.2,2.3c1.3,2.9,4.7,11.2,3.9,17.5c-0.1,1-3.2-6.9-3.2-6.9s5.1,20.8-1.6,1.9c0,0,4.4,21.1-1.8,0.6
		c0,0,3.5,16-1.8,0.5c-0.5-1.5-1.5-3.4-2.5-5.1l-41.5,108.3l9.3,0l13,0l9.4,0L238.2,420h17.2c2.9,0,5.5,0.6,7.9,1.6
		c3.6,1.5,6.8,4.1,9,7.4c1.1,1.6,2,3.4,2.6,5.3c0.6,1.9,0.9,3.9,0.9,6.1v45.3h9.1h11.8H305.5z"/>
	<path class="st133" d="M210.1,414.5l1.6-0.9c0,0,0.2,0.4,0.5,1c-0.2-0.9-0.6-1.7-1.2-2.3c0.2,0.4,0.5,0.8,0.7,1.2L210.1,414.5z"/>
	<path class="st130" d="M209.5,427.8c6.2,20.6,1.8-0.6,1.8-0.6c6.7,18.9,1.6-1.9,1.6-1.9s3,7.9,3.2,6.9c0.8-6.3-2.6-14.6-3.9-17.5
		c-0.3-0.7-0.5-1-0.5-1l-1.6,0.9l1.6-1c-0.2-0.4-0.5-0.8-0.7-1.2c-0.3-0.5-0.7-1.1-1-1.6c-5.4-8.8-13.8-20.8-19.1-28.4
		c6-3.6,11.9-8,17-12.3c-1.6-1.1-3.3-2.6-5-4.4c-4.6-4.6-7.4-9.2-6.5-10.3c-10.9,9.4-20.7,19.5-20.7,19.5l0.1,0.1
		c-1,1.2-1.6,2.8-1.8,4.5c-0.1,0.5-0.2,1-0.2,1.5c0,1.4,0.4,2.7,1.1,3.8l0,0c6.1,13.8,26.2,32.9,27.7,34.3c0.5,0.7,1.6,2.4,2.7,4.2
		c1,1.7,2,3.6,2.5,5.1C213.1,443.8,209.5,427.8,209.5,427.8z"/>
	<path class="st98" d="M202.9,365.7c1.7,1.7,3.5,3.2,5,4.4c1.4,1,2.7,1.7,3.6,2.1c0-0.1,0.2-0.1,0.3-0.1l0,0l0,0c0,0,0.1,0,0.2,0.1
		c0.2,0,0.4,0.1,0.7,0.1c0.5,0,1-0.1,1.5-0.6c0.3-0.3,1.2-1.2,2.2-2.5c1-1.3,2.3-2.9,3.6-4.8c2.6-3.6,5.3-7.8,6.5-10.8
		c0-0.1,0.2-0.2,0.3-0.1c0.1,0,0.2,0.2,0.1,0.3c-1.8,4.6-7.1,11.8-10.2,15.7c-1,1.3-1.8,2.2-2.2,2.5c-0.6,0.5-1.3,0.7-1.8,0.7
		c-0.3,0-0.6-0.1-0.8-0.1v17.9h0.4h24.4v0h14.6l9.5-32.4c4.7-0.4,10.5-1.7,17.3-4.3l0,0c0.8-0.3,1-2,0.8-4.7
		c-0.2-2.1-0.8-4.8-1.6-7.6c-1.3-4.1-2.9-7.6-4.3-9.4c-0.7-0.9-1.4-1.4-1.9-1.2c0,0,0,0-0.1,0l0-0.1c-7.1,2.9-13,5.7-17.4,8.5
		c-2.6-0.4-5.5-0.8-8.7-1v0.9c0,4-3.2,7.2-7.2,7.2c-4,0-7.2-3.2-7.2-7.2c0-0.3,0.1-0.6,0.1-0.9c-4.2,0.3-8,0.9-11,1.6
		c-5.8,0.6-13.9,4.8-23.2,15.3c0,0,0,0.1,0,0.1C195.4,356.5,198.3,361.1,202.9,365.7z"/>
	<path d="M211.6,372.4L211.6,372.4c0,0,0.1,0.1,0.3,0.1c0.2,0.1,0.5,0.1,0.8,0.1c0.5,0,1.2-0.1,1.8-0.7c0.4-0.3,1.2-1.3,2.2-2.5
		c3.1-3.9,8.4-11.1,10.2-15.7c0-0.1,0-0.2-0.1-0.3c-0.1,0-0.2,0-0.3,0.1c-1.2,3-3.9,7.2-6.5,10.8c-1.3,1.8-2.6,3.5-3.6,4.8
		c-1,1.3-1.8,2.2-2.2,2.5c-0.5,0.4-1.1,0.6-1.5,0.6c-0.3,0-0.5,0-0.7-0.1c-0.1,0-0.1,0-0.2-0.1l0,0l0,0c-0.1,0-0.2,0-0.3,0.1
		c0,0,0,0,0,0C211.5,372.2,211.5,372.3,211.6,372.4z"/>
</g>
<g>
	<polygon class="st60" points="398.5,519 325.4,519 325.4,519 269.8,519 269.8,564.7 398.5,564.7 	"/>
	<polygon class="st60" points="400.5,518 455,518 455,472.3 380.8,472.3 380.8,472.3 326.3,472.3 326.3,518 398.5,518 	"/>
	<polygon class="st60" points="510.5,471.4 510.5,425.9 433.6,425.9 433.6,425.7 381.8,425.7 381.8,471.4 455,471.4 	"/>
	<polygon class="st60" points="510.5,424.8 512.4,424.8 563.3,424.8 563.3,379.3 486.8,379.3 434.6,379.3 434.6,425 510.5,425 	"/>
	<polygon class="st60" points="565.2,378.3 616.4,378.3 616.4,332.6 546,332.6 487.7,332.6 487.7,378.3 563.3,378.3 	"/>
	<polygon class="st60" points="675.7,331.7 675.7,286 547,286 547,331.7 616.4,331.7 	"/>
	<path class="st124" d="M598.8,528.4c0.9-0.1,1.9-0.2,2.9-0.3c0.6-0.1,1.1-0.2,1.7-0.3c2-0.4,3.5-1,4.4-1.7c0.6-0.4,0.8-0.9,0.8-1.2
		c0-0.4-0.2-0.8-0.8-1.2c-0.6-0.4-1.5-0.9-2.6-1.2c-2.2-0.7-5.3-1.2-8.7-1.2c-0.8,0-1.6,0-2.3,0.1c-0.9,0.1-1.9,0.2-2.9,0.3
		c-0.6,0.1-1.1,0.2-1.7,0.3c-2,0.4-3.5,1-4.4,1.7c-0.6,0.4-0.8,0.9-0.8,1.2c0,0.4,0.2,0.8,0.8,1.2c0.6,0.4,1.5,0.9,2.6,1.2
		c2.2,0.7,5.3,1.2,8.7,1.2C597.2,528.5,598,528.5,598.8,528.4z"/>
	<path class="st124" d="M615.3,531.2c-0.6-0.4-1.5-0.9-2.6-1.2c-2.2-0.7-5.3-1.2-8.7-1.2c-0.8,0-1.6,0-2.3,0.1
		c-0.9,0.1-1.9,0.2-2.9,0.3c-0.6,0.1-1.1,0.2-1.7,0.3c-2,0.4-3.5,1-4.4,1.7c-0.6,0.4-0.8,0.9-0.8,1.2c0,0.4,0.2,0.8,0.8,1.2
		c0.6,0.4,1.5,0.9,2.6,1.2c2.2,0.7,5.3,1.2,8.7,1.2c2.6,0,5-0.3,6.9-0.7c2-0.4,3.5-1,4.4-1.7c0.6-0.4,0.8-0.9,0.8-1.2
		C616.2,532.1,615.9,531.7,615.3,531.2z"/>
	<path class="st124" d="M653.7,418.5c0.9-0.1,1.9-0.2,2.9-0.3c0.6-0.1,1.1-0.2,1.7-0.3c2-0.4,3.5-1,4.4-1.7c0.6-0.4,0.8-0.9,0.8-1.2
		c0-0.4-0.2-0.8-0.8-1.2c-0.6-0.4-1.5-0.9-2.6-1.2c-2.2-0.7-5.3-1.2-8.7-1.2c-2.6,0-5,0.3-6.9,0.7c-2,0.4-3.5,1-4.4,1.7
		c-0.6,0.4-0.8,0.9-0.8,1.2c0,0.4,0.2,0.8,0.8,1.2c0.6,0.4,1.5,0.9,2.6,1.2c2.2,0.7,5.3,1.2,8.7,1.2
		C652.1,418.6,652.9,418.6,653.7,418.5z"/>
	<path class="st124" d="M664.1,426.6c0,0-0.1,0-0.1,0c2.1,2,3.8,4.4,5.2,7c0.8-0.1,1.7-0.2,2.6-0.3c0.6-0.1,1.1-0.2,1.7-0.3
		c2-0.4,3.5-1,4.4-1.7c0.6-0.4,0.8-0.9,0.8-1.2c0-0.4-0.2-0.8-0.8-1.2c-0.6-0.4-1.5-0.9-2.6-1.2c-2.2-0.7-5.3-1.2-8.7-1.2
		C665.7,426.6,664.9,426.6,664.1,426.6z"/>
	<path class="st124" d="M671.7,434.2c-0.7,0.1-1.4,0.2-2.2,0.2c1,2.1,1.6,4.4,2,6.8c0.8,0.1,1.7,0.1,2.5,0.1c2.6,0,5-0.3,6.9-0.7
		c2-0.4,3.5-1,4.4-1.7c0.6-0.4,0.8-0.9,0.8-1.2c0-0.4-0.2-0.8-0.8-1.2c-0.6-0.4-1.5-0.9-2.6-1.2c-2.2-0.7-5.3-1.2-8.7-1.2
		C673.3,434.1,672.5,434.2,671.7,434.2z"/>
	<path class="st124" d="M638.8,364.9c2.4,0,4.3-1.9,4.3-4.3c0-2.4-1.9-4.3-4.3-4.3c-2.4,0-4.3,1.9-4.3,4.3
		C634.5,363,636.4,364.9,638.8,364.9z"/>
	<path class="st124" d="M722.6,518.3c-0.1-0.6-0.2-1.2-0.3-1.8c-0.2,0.3-0.3,0.5-0.3,0.7C722,517.6,722.2,517.9,722.6,518.3z"/>
	<path class="st124" d="M746.3,517.3c0-0.4-0.2-0.8-0.8-1.2c-0.6-0.4-1.5-0.9-2.6-1.2c-0.4-0.1-0.9-0.2-1.3-0.3
		c0.9,1.8,2,3.4,3.3,4.4c0.2-0.1,0.4-0.3,0.6-0.4C746.1,518.1,746.3,517.7,746.3,517.3z"/>
	<path class="st124" d="M715.3,508.5c-0.6,0.4-0.8,0.9-0.8,1.2c0,0.4,0.2,0.8,0.8,1.2c0.6,0.4,1.5,0.9,2.6,1.2
		c1.1,0.4,2.5,0.7,4.1,0.9c-0.4-3.6-0.4-6-0.4-6.6c-0.7,0.1-1.3,0.2-1.9,0.3C717.7,507.2,716.1,507.8,715.3,508.5z"/>
	<path class="st124" d="M664.2,425.8c0.6-0.1,1.1-0.2,1.7-0.3c2-0.4,3.5-1,4.4-1.7c0.6-0.4,0.8-0.9,0.8-1.2c0-0.4-0.2-0.8-0.8-1.2
		c-0.6-0.4-1.5-0.9-2.6-1.2c-2.2-0.7-5.3-1.2-8.7-1.2c-0.8,0-1.6,0-2.3,0.1c-0.9,0.1-1.9,0.2-2.9,0.3c-0.6,0.1-1.1,0.2-1.7,0.3
		c-0.5,0.1-0.9,0.2-1.3,0.3c4.8,0.8,9.1,2.9,12.6,5.9C663.6,425.9,663.8,425.8,664.2,425.8z"/>
	
		<rect x="561.3" y="432.4" transform="matrix(0.8821 -0.471 0.471 0.8821 -138.8249 317.5705)" class="st124" width="7.5" height="7.5"/>
	<path class="st124" d="M583.6,513.2c0.9-0.1,1.9-0.2,2.9-0.3c0.6-0.1,1.1-0.2,1.7-0.3c2-0.4,3.5-1,4.4-1.7c0.6-0.4,0.8-0.9,0.8-1.2
		c0-0.4-0.2-0.8-0.8-1.2c-0.6-0.4-1.5-0.9-2.6-1.2c-2.2-0.7-5.3-1.2-8.7-1.2c-2.6,0-5,0.3-6.9,0.7c-2,0.4-3.5,1-4.4,1.7
		c-0.6,0.4-0.8,0.9-0.8,1.2c0,0.4,0.2,0.8,0.8,1.2c0.6,0.4,1.5,0.9,2.6,1.2c2.2,0.7,5.3,1.2,8.7,1.2
		C582.1,513.3,582.8,513.3,583.6,513.2z"/>
	<path class="st124" d="M591.2,520.8c0.9-0.1,1.9-0.2,2.9-0.3c0.6-0.1,1.1-0.2,1.7-0.3c2-0.4,3.5-1,4.4-1.7c0.6-0.4,0.8-0.9,0.8-1.2
		c0-0.4-0.2-0.8-0.8-1.2c-0.6-0.4-1.5-0.9-2.6-1.2c-2.2-0.7-5.3-1.2-8.7-1.2c-0.8,0-1.6,0-2.3,0.1c-0.9,0.1-1.9,0.2-2.9,0.3
		c-0.6,0.1-1.1,0.2-1.7,0.3c-2,0.4-3.5,1-4.4,1.7c-0.6,0.4-0.8,0.9-0.8,1.2c0,0.4,0.2,0.8,0.8,1.2c0.6,0.4,1.5,0.9,2.6,1.2
		c2.2,0.7,5.3,1.2,8.7,1.2C589.7,520.9,590.4,520.9,591.2,520.8z"/>
	
		<rect x="531.7" y="516.7" transform="matrix(0.8821 -0.4711 0.4711 0.8821 -182.0607 313.6289)" class="st124" width="7.5" height="7.5"/>
	<path class="st124" d="M720.3,286.6c-0.3,0.2-0.3,0.4-0.3,0.5c0,0.1,0.1,0.3,0.3,0.5c0.3,0.2,0.7,0.4,1.2,0.6
		c1.1,0.3,2.6,0.6,4.3,0.6c1.3,0,2.5-0.1,3.4-0.3c1-0.2,1.7-0.5,2.1-0.8c0.3-0.2,0.3-0.4,0.3-0.5c0-0.1-0.1-0.3-0.3-0.5
		c-0.3-0.2-0.7-0.4-1.2-0.6h-8.7C721,286.2,720.6,286.4,720.3,286.6z"/>
	<path class="st124" d="M639.6,558.6c-2.2-2.2-5.2-3.6-8.6-3.6s-6.4,1.4-8.6,3.6c-1.6,1.6-2.8,3.7-3.2,6.1h23.7
		C642.3,562.3,641.2,560.2,639.6,558.6z"/>
	<path class="st124" d="M585.6,563.7c0-2.4-1.9-4.3-4.3-4.3c-2.4,0-4.3,1.9-4.3,4.3c0,0.3,0.1,0.6,0.1,0.9h8.3
		C585.5,564.4,585.6,564.1,585.6,563.7z"/>
	<path class="st124" d="M750.4,355.3c2-0.4,3.5-1,4.4-1.7c0.6-0.4,0.8-0.9,0.8-1.2c0-0.4-0.2-0.8-0.8-1.2c-0.6-0.4-1.5-0.9-2.6-1.2
		c-2.2-0.7-5.3-1.2-8.7-1.2c-0.8,0-1.6,0-2.3,0.1c-0.9,0.1-1.9,0.2-2.9,0.3c-0.6,0.1-1.1,0.2-1.7,0.3c-2,0.4-3.5,1-4.4,1.7
		c-0.6,0.4-0.8,0.9-0.8,1.2c0,0.4,0.2,0.8,0.8,1.2c0.6,0.4,1.5,0.9,2.6,1.2c2.2,0.7,5.3,1.2,8.7,1.2
		C746.1,356,748.5,355.8,750.4,355.3z"/>
	<path class="st124" d="M627.9,461.8l-13.5-4.1l-6.1,20l20,6.1l5.2-17.3C631.4,465.2,629.5,463.6,627.9,461.8z"/>
	<polygon class="st124" points="694.3,563.7 679.5,549 664.8,563.7 665.7,564.7 693.4,564.7 	"/>
	<path class="st76" d="M740.3,425.1l4.2-31.1l0.1-0.7l11.8,10c0-3.9,0-7.7,0-11.4c0-28.7,0.1-51.3,0.5-57.8c0.1-0.9,0.1-1.5,0.2-1.8
		c0-0.1,0-0.1,0.1-0.2v-46H732c0.3,0.3,0.6,0.6,0.6,1c0,0.5-0.3,0.8-0.7,1.1c-0.4,0.3-0.9,0.5-1.5,0.7c-1.2,0.4-2.8,0.6-4.6,0.6
		c-1.3,0-2.6-0.1-3.6-0.4c-1-0.2-1.9-0.5-2.4-1c-0.4-0.3-0.6-0.6-0.7-1.1c0-0.4,0.3-0.8,0.6-1h-26.1c0,0.2,0,0.3,0,0.5
		c0,7.1-5.8,12.9-12.9,12.9c-1.5,0-2.8-0.3-4.1-0.7v26.8l2.6-1.4l4.3,8l-7.7,4.1l-0.4,0.2l-2-3.8h-56h-0.1v46.6l-53.2,0v46.4
		l-40.9,0c-0.1,2.7-2.3,4.9-5.1,4.9c-2.7,0-5-2.2-5.1-4.9h-1.7v46.6h-13.7l-4.5,15l-0.1,0.4l-21.5-6.5l2.7-8.8H456v43.9
		c0.2,0.3,0.4,0.7,0.4,1c0,0.4-0.1,0.8-0.4,1.1v0.6h-0.5c-0.1,0.1-0.1,0.1-0.2,0.2c-0.7,0.5-1.6,0.9-2.7,1.3c2.1,0.1,4,0.3,5.6,0.7
		c2,0.4,3.7,1.1,4.7,1.8c0.7,0.5,1.1,1.1,1.1,1.9c0,0.7-0.5,1.4-1.1,1.9c-0.7,0.5-1.6,0.9-2.7,1.3c2.1,0.1,4,0.3,5.6,0.7
		c2,0.4,3.7,1.1,4.7,1.8c0.7,0.5,1.1,1.1,1.1,1.9c0,0.7-0.5,1.4-1.1,1.9c-0.7,0.5-1.6,1-2.8,1.3c-2.3,0.7-5.5,1.2-9,1.2
		c-2.6,0-5.1-0.3-7.1-0.7c-2-0.4-3.7-1.1-4.7-1.8c-0.7-0.5-1.1-1.1-1.1-1.9c0-0.7,0.5-1.4,1.1-1.9c0.7-0.5,1.6-0.9,2.7-1.3
		c-2.1-0.1-4-0.3-5.6-0.7c-2-0.4-3.7-1.1-4.7-1.8c-0.7-0.5-1.1-1.1-1.1-1.9c0-0.7,0.5-1.4,1.1-1.9c0.7-0.5,1.6-0.9,2.7-1.3
		c-2.1-0.1-4-0.3-5.6-0.7c-2-0.4-3.7-1.1-4.7-1.8c-0.1-0.1-0.1-0.1-0.2-0.2h-31.9v39.6l5.2,5.2l-0.9,0.9h27
		c-0.1-0.3-0.1-0.6-0.1-0.9c0-2.8,2.3-5.1,5.1-5.1c2.8,0,5.1,2.3,5.1,5.1c0,0.3,0,0.6-0.1,0.9h32.1c1.2-6,6.4-10.5,12.7-10.5
		c6.3,0,11.5,4.5,12.7,10.5h21l-0.9-0.9l15.9-15.9l15.9,15.9l-0.9,0.9h27c-0.1-0.3-0.1-0.6-0.1-0.9c0-2.8,2.3-5.1,5.1-5.1
		c2.8,0,5.1,2.3,5.1,5.1c0,0.3,0,0.6-0.1,0.9h32.1c1.2-6,6.4-10.5,12.7-10.5c6.3,0,11.5,4.5,12.7,10.5h20.9l-0.9-0.9l15.9-15.9
		l15.9,15.9l-0.9,0.9h9c-5.1-9.1-10.1-21.4-8.1-32.2c3.8-20.4,17.7-10.3,21.6,3.9c3.9,14.3,16,16,10.1-0.3
		c-2.2-6.1-3.6-11.9-4.4-16.7c-0.1-0.1-0.3-0.2-0.4-0.3c-0.7-0.5-1.1-1.1-1.1-1.9c0-0.7,0.4-1.3,1-1.8c-0.1-0.6-0.1-1.1-0.2-1.7
		c-0.9-0.1-1.8-0.2-2.5-0.4c-2-0.4-3.7-1.1-4.7-1.8c-0.7-0.5-1.1-1.1-1.1-1.9c0-0.7,0.5-1.4,1.1-1.9c0.7-0.5,1.6-1,2.8-1.3
		c1.2-0.4,2.5-0.7,4-0.9c0.1-1.3,0.4-2.6,1.1-3.8c1.5-2.7,4.4-4.3,7.4-4.3c4.3,0,7.6,3.1,8.4,6.9l0,0c0,0,0.8,4.9,2.6,9.2
		c0,0,0.1,0,0.1,0c2,0.4,3.7,1.1,4.7,1.8c0.7,0.5,1.1,1.1,1.1,1.9c0,0.7-0.5,1.4-1.1,1.9c-0.1,0.1-0.2,0.1-0.4,0.2
		c0.6,0.3,1.2,0.5,1.9,0.5c6.5,0,9.1-12.1,5.8-21.7c-0.8-1.8-1-3.8-0.4-5.9c0.6-2.1,2-3.8,3.8-4.9c-0.1-22.4-0.2-47-0.3-69.8
		L740.3,425.1z"/>
	<path class="st124" d="M434.7,519.7c2.2,0.7,5.3,1.2,8.7,1.2c0.8,0,1.6,0,2.3-0.1c0.9-0.1,1.9-0.2,2.9-0.3c0.6-0.1,1.1-0.2,1.7-0.3
		c1.5-0.3,2.7-0.8,3.6-1.2h-21.1C433.4,519.2,433.9,519.5,434.7,519.7z"/>
	<path class="st124" d="M448.6,521.3c-0.9,0.1-1.9,0.2-2.9,0.3c-0.6,0.1-1.1,0.2-1.7,0.3c-2,0.4-3.5,1-4.4,1.7
		c-0.6,0.4-0.8,0.9-0.8,1.2c0,0.4,0.2,0.8,0.8,1.2c0.6,0.4,1.5,0.9,2.6,1.2c2.2,0.7,5.3,1.2,8.7,1.2c0.8,0,1.6,0,2.3-0.1
		c0.9-0.1,1.9-0.2,2.9-0.3c0.6-0.1,1.1-0.2,1.7-0.3c2-0.4,3.5-1,4.4-1.7c0.6-0.4,0.8-0.9,0.8-1.2c0-0.4-0.2-0.8-0.8-1.2
		c-0.6-0.4-1.5-0.9-2.6-1.2c-2.2-0.7-5.3-1.2-8.7-1.2C450.2,521.3,449.4,521.3,448.6,521.3z"/>
	<path class="st124" d="M456.2,528.9c-0.9,0.1-1.9,0.2-2.9,0.3c-0.6,0.1-1.1,0.2-1.7,0.3c-2,0.4-3.5,1-4.4,1.7
		c-0.6,0.4-0.8,0.9-0.8,1.2c0,0.4,0.2,0.8,0.8,1.2c0.6,0.4,1.5,0.9,2.6,1.2c2.2,0.7,5.3,1.2,8.7,1.2c2.6,0,5-0.3,6.9-0.7
		c2-0.4,3.5-1,4.4-1.7c0.6-0.4,0.8-0.9,0.8-1.2c0-0.4-0.2-0.8-0.8-1.2c-0.6-0.4-1.5-0.9-2.6-1.2c-2.2-0.7-5.3-1.2-8.7-1.2
		C457.8,528.8,457,528.9,456.2,528.9z"/>
	<path class="st124" d="M494.1,558.6c-2.2-2.2-5.2-3.6-8.6-3.6c-3.4,0-6.4,1.4-8.6,3.6c-1.6,1.6-2.8,3.7-3.2,6.1h23.7
		C496.9,562.3,495.8,560.2,494.1,558.6z"/>
	<path class="st124" d="M440.1,563.7c0-2.4-1.9-4.3-4.3-4.3c-2.4,0-4.3,1.9-4.3,4.3c0,0.3,0.1,0.6,0.1,0.9h8.3
		C440.1,564.4,440.1,564.1,440.1,563.7z"/>
	<path class="st124" d="M755.1,555.3c0.6,0.2,1.3,0.3,2,0.3c0-2.2,0-4.8,0-7.6C751.2,551.3,752.2,554.6,755.1,555.3z"/>
	<polygon class="st124" points="400,564.7 402.6,564.7 403.5,563.7 399.5,559.7 399.5,564.7 	"/>
	<polygon class="st124" points="472.5,480.6 492.5,486.7 496.9,472.3 475.1,472.3 	"/>
	<path class="st124" d="M518.2,429.8c2.3,0,4.1-1.8,4.3-4.1h-8.5C514.1,428,515.9,429.8,518.2,429.8z"/>
	<path class="st124" d="M676.7,286L676.7,286l-0.1,11.9c1.3,0.5,2.7,0.7,4.1,0.7c3.4,0,6.4-1.4,8.6-3.6c2.2-2.2,3.6-5.2,3.6-8.6
		c0-0.2,0-0.3,0-0.5H676.7z"/>
	<polygon class="st124" points="676.6,332.6 674.4,332.6 675.8,335.4 682.4,331.8 678.9,325.2 676.6,326.4 	"/>
	<path class="st76" d="M703.5,564.7h-9l0.9-0.9l-15.9-15.9l-15.9,15.9l0.9,0.9h-20.9c-1.2-6-6.4-10.5-12.7-10.5
		c-6.3,0-11.5,4.5-12.7,10.5h-32.1c0.1-0.3,0.1-0.6,0.1-0.9c0-2.8-2.3-5.1-5.1-5.1c-2.8,0-5.1,2.3-5.1,5.1c0,0.3,0,0.6,0.1,0.9h-27
		l0.9-0.9l-15.9-15.9l-15.9,15.9l0.9,0.9h-21c-1.2-6-6.4-10.5-12.7-10.5c-6.3,0-11.5,4.5-12.7,10.5h-32.1c0.1-0.3,0.1-0.6,0.1-0.9
		c0-2.8-2.3-5.1-5.1-5.1c-2.8,0-5.1,2.3-5.1,5.1c0,0.3,0,0.6,0.1,0.9h-27l0.9-0.9l-5.2-5.2V519h31.9c0.1,0.1,0.1,0.1,0.2,0.2
		c1,0.8,2.7,1.4,4.7,1.8c1.6,0.4,3.6,0.6,5.6,0.7c-1.1,0.4-2,0.8-2.7,1.3c-0.7,0.5-1.1,1.1-1.1,1.9c0,0.7,0.5,1.4,1.1,1.9
		c1,0.8,2.7,1.4,4.7,1.8c1.6,0.4,3.6,0.6,5.6,0.7c-1.1,0.4-2,0.8-2.7,1.3c-0.7,0.5-1.1,1.1-1.1,1.9c0,0.7,0.5,1.4,1.1,1.9
		c1,0.8,2.7,1.4,4.7,1.8c2,0.4,4.5,0.7,7.1,0.7c3.5,0,6.7-0.5,9-1.2c1.2-0.4,2.1-0.8,2.8-1.3c0.7-0.5,1.1-1.1,1.1-1.9
		c0-0.7-0.5-1.4-1.1-1.9c-1-0.8-2.7-1.4-4.7-1.8c-1.6-0.4-3.6-0.6-5.6-0.7c1.1-0.4,2-0.8,2.7-1.3c0.7-0.5,1.1-1.1,1.1-1.9
		c0-0.7-0.5-1.4-1.1-1.9c-1-0.8-2.7-1.4-4.7-1.8c-1.6-0.4-3.6-0.6-5.6-0.7c1.1-0.4,2-0.8,2.7-1.3c0.1-0.1,0.2-0.1,0.2-0.2h0.5v-0.6
		c0.2-0.3,0.4-0.7,0.4-1.1c0-0.4-0.2-0.7-0.4-1v-43.9h18.2l-2.7,8.8l21.5,6.5l0.1-0.4l4.5-15h13.7v-46.6h1.7
		c0.1,2.7,2.3,4.9,5.1,4.9c2.7,0,5-2.2,5.1-4.9l40.9,0v-46.4l53.2,0v-46.6h0.1h56l2,3.8l0.4-0.2l7.7-4.1l-4.3-8l-2.6,1.4v-26.8
		c1.3,0.4,2.7,0.7,4.1,0.7c7.1,0,12.9-5.8,12.9-12.9c0-0.2,0-0.3,0-0.5h26.1c-0.3,0.3-0.6,0.6-0.6,1c0,0.5,0.3,0.8,0.7,1.1
		c0.6,0.4,1.4,0.7,2.4,1c1,0.2,2.3,0.4,3.6,0.4c1.8,0,3.4-0.2,4.6-0.6c0.6-0.2,1.1-0.4,1.5-0.7c0.4-0.3,0.6-0.6,0.7-1.1
		c0-0.4-0.3-0.8-0.6-1h25.2v46c0,0.1,0,0.1-0.1,0.2c-0.1,0.3-0.1,0.9-0.2,1.8c-0.4,6.5-0.5,29.1-0.5,57.8c0,3.7,0,7.5,0,11.4
		l-11.8-10l-0.1,0.7l-4.2,31.1l16.1-7.5c0,22.8,0.1,47.4,0.3,69.8c0.3-0.2,0.6-0.4,0.9-0.5c-0.1-31-0.3-66.1-0.3-95
		c0-17.1,0-32,0.2-42.6c0.1-5.3,0.1-9.6,0.2-12.5c0-1.5,0.1-2.6,0.2-3.3c0-0.1,0-0.1,0-0.2l0.2,0.2v-1.2v-47.1h-80.5h-2H546v46.6
		h-59.2v46.6h-53.2v46.4h-52.8v46.6h-55.5V518h-56.5v47.6h129.7h2h357.6v0H704C703.9,565.3,703.7,565,703.5,564.7z M269.8,519h55.5
		v0h73.2v45.7H269.8V519z M326.3,472.3h54.5v0H455V518h-54.5h-2h-72.2V472.3z M381.8,425.7h51.8v0.2h76.9v45.5l-55.5,0h-73.3V425.7z
		 M434.6,379.3h52.2h76.5v45.5h-50.8h-2v0.2h-75.9V379.3z M487.7,332.6H546h70.4v45.7h-51.2h-2h-75.6V332.6z M547,286h128.7v45.7
		l-59.2,0H547V286z"/>
	<path d="M757.1,548c0,2.9,0,5.4,0,7.6c0.3,0,0.6,0,0.9,0c0-2.3,0-5.1-0.1-8.2C757.7,547.7,757.4,547.8,757.1,548z"/>
	<path d="M747.1,517.3c0-0.7-0.5-1.4-1.1-1.9c-1-0.8-2.7-1.4-4.7-1.8c0,0-0.1,0-0.1,0c0.1,0.3,0.3,0.6,0.4,0.9
		c0.5,0.1,0.9,0.2,1.3,0.3c1.1,0.4,2,0.8,2.6,1.2c0.6,0.4,0.8,0.9,0.8,1.2c0,0.4-0.2,0.8-0.8,1.2c-0.2,0.1-0.4,0.3-0.6,0.4
		c0.2,0.2,0.5,0.3,0.7,0.5c0.1-0.1,0.3-0.1,0.4-0.2C746.6,518.7,747.1,518,747.1,517.3z"/>
	<path d="M721.2,517.3c0,0.7,0.5,1.4,1.1,1.9c0.1,0.1,0.3,0.2,0.4,0.3c-0.1-0.4-0.1-0.8-0.2-1.1c-0.4-0.4-0.6-0.7-0.6-1
		c0-0.2,0.1-0.5,0.3-0.7c0-0.3-0.1-0.7-0.1-1C721.6,516,721.2,516.6,721.2,517.3z"/>
	<path class="st72" d="M800.7,524.4c-1.6-2.9-3.2-3.4-4.8-3.4c-6.1-0.9-19.2,9.1-22,7.2c-2.8-1.9-1.7-8,11.4-20.9
		c11-10.8,12.5-22.5,12.7-26l0-0.5c0-0.3,0-0.5,0-0.5h0c-0.1-4.2-3.2-7.9-7.5-8.6c-4.9-0.8-9.6,2.5-10.4,7.4
		c-0.1,0.5-0.1,1.1-0.1,1.6h0l0,0c0,0.7,0.1,1.4,0.3,2.1c0.4,3.7,0.6,11-3.6,11c-3.6,0-6.6-2.3-8.3-4c-0.4-0.6-1-1.2-1.6-1.7l0,0h0
		c-1.3-1.1-2.9-1.8-4.8-2c-1.5-0.1-2.9,0.2-4.2,0.7c-0.3,0.1-0.6,0.3-0.9,0.5c-1.8,1.1-3.2,2.8-3.8,4.9c-0.6,2.1-0.4,4.1,0.4,5.9
		c3.3,9.6,0.7,21.8-5.8,21.7c-0.7,0-1.3-0.2-1.9-0.5c-0.3-0.1-0.5-0.3-0.7-0.5c-1.3-1-2.4-2.6-3.3-4.4c-0.1-0.3-0.3-0.6-0.4-0.9
		c-1.8-4.3-2.6-9.2-2.6-9.2l0,0c-0.8-3.8-4.1-6.9-8.4-6.9c-3,0-5.9,1.7-7.4,4.3c-0.7,1.3-1,2.6-1.1,3.8c0,0.2,0,0.5,0,0.7h0
		c0,0,0,0.1,0,0.1c0,0.6,0,3,0.4,6.6c0,0.3,0.1,0.5,0.1,0.8c0.1,0.5,0.1,1.1,0.2,1.7c0,0.3,0.1,0.7,0.1,1c0.1,0.6,0.2,1.2,0.3,1.8
		c0.1,0.4,0.1,0.7,0.2,1.1c0.8,4.8,2.1,10.5,4.4,16.7c5.9,16.3-6.2,14.5-10.1,0.3c-3.9-14.1-17.8-24.3-21.6-3.9
		c-2,10.8,2.9,23,8.1,32.2c0.2,0.3,0.4,0.6,0.5,0.9h54.1h28.2c0.2-0.2,0.4-0.4,0.6-0.6c0.8-0.9,1.3-1.4,1.3-1.4
		c1.4-1.4,2.2-3.3,2.4-5.5c0.2-3.9-2.4-7.6-6.1-8.7c-2.1-0.6-4.1-0.4-5.9,0.4l0,0l0,0l-0.1,0.1c-9.3,4.4-15.8,6-20.3,5.8
		c-0.3,0-0.6,0-0.9,0c-0.7-0.1-1.4-0.2-2-0.3c-2.9-0.7-3.9-4.1,2-7.3c0.3-0.2,0.6-0.3,0.9-0.5c3.1-1.5,7.7-3,14.4-4.2
		c21.7-3.8,27.8-13.6,27.8-13.6c0.5-0.7,0.9-1.5,1-2.5C801.4,526.3,801.2,525.3,800.7,524.4z"/>
	<path class="st72" d="M784.2,523.1c-1.6-2.9-3.2-3.4-4.8-3.4c-6.1-0.9-19.2,9.1-22,7.2c-2.8-1.9-1.7-8,11.4-20.9
		c11-10.8,12.5-22.5,12.7-26l0-0.5c0-0.3,0-0.5,0-0.5h0c-0.1-4.2-3.2-7.9-7.5-8.6c-4.9-0.8-9.6,2.5-10.4,7.4
		c-0.1,0.5-0.1,1.1-0.1,1.6h0l0,0c0,0.7,0.1,1.4,0.3,2.1c0.4,3.7,0.6,11-3.6,11c-3.6,0-6.6-2.3-8.3-4c-0.4-0.6-1-1.2-1.6-1.7l0,0h0
		c-1.3-1.1-2.9-1.8-4.8-2c-1.5-0.1-2.9,0.2-4.2,0.7c-0.3,0.1-0.6,0.3-0.9,0.5c-1.8,1.1-3.2,2.8-3.8,4.9c-0.6,2.1-0.4,4.1,0.4,5.9
		c3.3,9.6,0.7,21.8-5.8,21.7c-0.7,0-1.3-0.2-1.9-0.5c-0.3-0.1-0.5-0.3-0.7-0.5c-1.3-1-2.4-2.6-3.3-4.4c-0.1-0.3-0.3-0.6-0.4-0.9
		c-1.8-4.3-2.6-9.2-2.6-9.2l0,0c-0.8-3.8-4.1-6.9-8.4-6.9c-3,0-5.9,1.7-7.4,4.3c-0.7,1.3-1,2.6-1.1,3.8c0,0.2,0,0.5,0,0.7h0
		c0,0,0,0.1,0,0.1c0,0.6,0,3,0.4,6.6c0,0.3,0.1,0.5,0.1,0.8c0.1,0.5,0.1,1.1,0.2,1.7c0,0.3,0.1,0.7,0.1,1c0.1,0.6,0.2,1.2,0.3,1.8
		c0.1,0.4,0.1,0.7,0.2,1.1c0.8,4.8,2.1,10.5,4.4,16.7c5.9,16.3-6.2,14.5-10.1,0.3c-3.9-14.1-17.8-24.3-21.6-3.9
		c-2,10.8,2.9,23,8.1,32.2c0.2,0.3,0.4,0.6,0.5,0.9h54.1h28.2c0.2-0.2,0.4-0.4,0.6-0.6c0.8-0.9,1.3-1.4,1.3-1.4
		c1.4-1.4,2.2-3.3,2.4-5.5c0.2-3.9-2.4-7.6-6.1-8.7c-2.1-0.6-4.1-0.4-5.9,0.4l0,0l0,0l-0.1,0.1c-9.3,4.4-15.8,6-20.3,5.8
		c-0.3,0-0.6,0-0.9,0c-0.7-0.1-1.4-0.2-2-0.3c-2.9-0.7-3.9-4.1,2-7.3c0.3-0.2,0.6-0.3,0.9-0.5c3.1-1.5,7.7-3,14.4-4.2
		c21.7-3.8,27.8-13.6,27.8-13.6c0.5-0.7,0.9-1.5,1-2.5C785,525,784.7,524,784.2,523.1z"/>
</g>
</svg>
