<?xml version="1.0" encoding="utf-8"?>
<!-- Generator: Adobe Illustrator 23.1.0, SVG Export Plug-In . SVG Version: 6.00 Build 0)  -->
<svg version="1.1" id="Layer_1" xmlns="http://www.w3.org/2000/svg" xmlns:xlink="http://www.w3.org/1999/xlink" x="0px" y="0px"
	 viewBox="0 0 24 24" style="enable-background:new 0 0 24 24;" xml:space="preserve">
<style type="text/css">
	.st0{fill:#333333;}
</style>
<g>
	<path class="st0" d="M18.24,20.86v-5.62h1.88v7.49H3.16v-7.49h1.88v5.62H18.24z"/>
	<path class="st0" d="M7.11,14.71l9.23,1.91l0.39-1.84L7.5,12.86L7.11,14.71L7.11,14.71z M8.33,10.34l8.54,3.95l0.78-1.7L9.11,8.62
		L8.33,10.34L8.33,10.34z M10.7,6.17l7.25,5.99l1.2-1.43L11.9,4.74L10.7,6.17L10.7,6.17z M15.39,1.74l-1.51,1.11l5.61,7.51L21,9.25
		L15.39,1.74z M6.92,18.97h9.42v-1.87H6.92V18.97L6.92,18.97z"/>
</g>
</svg>
