<svg xmlns="http://www.w3.org/2000/svg" xmlns:xlink="http://www.w3.org/1999/xlink" xml:space="preserve" id="Layer_1" x="0" y="0" style="enable-background:new 0 0 962.7 599.2" version="1.1" viewBox="0 0 962.7 599.2"><style>.st1,.st2,.st4{clip-path:url(#SVGID_4_);fill:#f9f9f9}.st2,.st4{fill:teal}.st4{fill:#fff}.st11,.st12,.st13,.st16,.st5{clip-path:url(#SVGID_4_);fill:#102a54}.st11,.st12,.st13,.st16{fill:#6cb597}.st12,.st13,.st16{fill:#f99747}.st13,.st16{fill:#ffc0b1}.st16{fill:#7fc0ff}</style><defs><path id="SVGID_1_" d="M-6 0h976v608H-6z"/></defs><clipPath id="SVGID_2_"><use xlink:href="#SVGID_1_" style="overflow:visible"/></clipPath><g style="clip-path:url(#SVGID_2_)"><defs><path id="SVGID_3_" d="M-4 1h972v605H-4z"/></defs><clipPath id="SVGID_4_"><use xlink:href="#SVGID_3_" style="overflow:visible"/></clipPath><path d="m580 99-1 15c1 19 9 41 27 50 22 12 50 0 73 7 36 12 66 60 106 34 30-20 41-66 35-99C809 48 756 4 697 1c-38-1-75 13-97 44-10 16-18 35-20 54z" class="st1"/><path d="M589 51H171c-4 0-8 3-8 8v277c0 4 4 8 8 8h418c5 0 8-4 8-8V59c1-5-3-8-8-8z" class="st1"/><path d="M617 34H142v49h475V34z" class="st2"/><path d="M186 74c3 0 6-3 6-6s-3-6-6-6-6 3-6 6 3 6 6 6z" style="clip-path:url(#SVGID_4_);fill:#07aaa5"/><path d="M208 74c3 0 5-3 5-6s-2-6-5-6-6 3-6 6 2 6 6 6zM229 74c3 0 6-3 6-6s-3-6-6-6a6 6 0 0 0 0 12z" class="st4"/><path d="M584 341H170c-3 0-6-1-8-3s-3-5-3-8V58c0-3 1-6 3-8s5-3 8-3h414a11 11 0 0 1 11 11v272c0 3-2 6-4 8s-4 3-7 3zM170 48c-3 0-5 1-7 3s-3 4-3 7v272c0 3 1 5 3 7s4 3 7 3h414a10 10 0 0 0 10-10V58a10 10 0 0 0-10-10H170z" class="st5"/><path d="M295 109H187c-3 0-5 2-5 4v198c0 3 2 5 5 5h108c2 0 4-2 4-5V113c0-2-2-4-4-4z" class="st1"/><path d="M233 119h-42l-2 1v55l2 1h42l2-1v-55l-2-1zM247 126c2 0 3-2 3-4s-2-3-4-3c-1 0-3 1-3 3s2 4 4 4zM292 121h-35v-2h36v2h-1zM292 125h-35v-2h35l1 1v1h-1zM292 129h-35v-1c0-1 0 0 0 0h36v1h-1zM250 138c0-2-1-4-3-4-2-1-4 1-4 3s1 4 3 4 4-1 4-3zM292 136h-35v-2h35l1 1v1h-1zM292 140h-35v-1c0-1 0 0 0 0h36v1h-1zM292 144h-35v-1h36v1c0 1 0 0 0 0h-1zM250 153c0-2-1-4-3-4-2-1-4 1-4 3s1 4 3 4 4-1 4-3zM292 151h-35v-1c0-1 0 0 0 0h36v1h-1zM292 155h-35v-1c0-1 0 0 0 0h36v1h-1zM292 159h-35v-1h36v1c0 1 0 0 0 0h-1zM248 171c2-1 3-4 2-5s-3-3-5-2-3 3-2 5 4 3 5 2zM292 166h-35v-1c0-1 0 0 0 0h36v1h-1zM292 170h-35v-1h36v1c0 1 0 0 0 0h-1zM292 175h-35v-2h36v1l-1 1zM233 183h-42l-2 1v55l2 1h42c1 1 1 0 1-1v-55l-1-1zM246 190c2 0 4-2 4-4s-2-3-4-3-4 1-4 3 2 4 4 4zM292 185h-35l-1-1h1v-1h35v1h1-1v1zM292 189h-35l-1-1h37l-1 1zM292 193h-35l-1-1h37l-1 1zM250 202c0-2-1-4-3-4s-4 1-4 2c-1 2 0 4 2 5 2 0 4-1 5-3zM292 200h-35l-1-1h1v-1h35v1h1l-1 1zM292 204h-35l-1-1h37l-1 1zM292 207h-35l-1 1h37l-1-1zM250 217c0-2-1-4-3-4-2-1-4 1-4 3-1 1 0 3 2 4s4-1 5-3zM292 215h-35l-1-1h37l-1 1zM292 219h-36l1-1h35l1 1h-1zM292 224h-35v-1h-1l1-1h35l1 1h-1v1zM249 234v-5h-6c-1 1-1 4 1 5s3 2 5 0zM292 230h-36l1-1h35l1 1h-1zM292 234h-36l1-1h35l1 1h-1zM292 239h-35v-1h-1l1-1h35l1 1h-1v1zM232 247h-42l-1 2v54l1 2h42l2-2v-54l-2-2zM246 254c2 0 3-2 3-4s-1-3-3-3-4 1-4 3 2 4 4 4zM292 249h-36v-1c0-1 0 0 0 0l1-1h35v2zM292 253h-36v-1c0-1 0 0 0 0h36v1zM292 257h-36v-1h36v1c0 1 0 0 0 0zM249 266c1-2-1-4-3-4-1-1-3 1-4 3 0 2 1 4 3 4s4-1 4-3zM292 263h-36l1 1h35v-1zM292 268h-36v-1h36v1c0 1 0 0 0 0zM292 273h-35l-1-1v-1h36v2zM249 281c1-2-1-4-3-4l-4 3c0 2 1 4 3 4 2 1 4-1 4-3zM292 279h-36v-1h36v1c0 1 0 0 0 0zM292 283h-36v-1h36v1c0 1 0 0 0 0zM292 288h-35l-1-1v-1h36v2zM248 298c2-1 2-4 0-5s-4-1-5 0-1 4 0 5c2 2 4 2 5 0zM292 294h-36v-1h36v1c0 1 0 0 0 0zM292 299h-35l-1-1v-1h36v2zM292 303h-35l-1-1 1-1h35v2z" class="st1"/><path d="M226 123h-28l-2 2v22l2 2h28l2-2v-22l-2-2zM227 152h-30l-1 1v1l1 1h29l2-1v-1l-1-1zM227 157h-30l-1 1 1 1h29l2-1-1-1zM227 161h-30l-1 1 1 1h29l2-1-1-1zM227 166h-30l-1 1 1 1h29l2-1-1-1zM227 170h-30l-1 1 1 1h29l2-1-1-1zM226 187h-28l-2 2v22l2 1h28l2-1v-22l-2-2zM227 216h-30l-1 1 1 1h29l2-1-1-1zM227 221h-30l-1 1 1 1h29l2-1-1-1zM227 225h-30l-1 1 1 1h29l2-1-1-1zM227 230h-30l-1 1 1 1h29l2-1v-1h-1zM227 234h-30l-1 1 1 1h29l2-1-1-1zM226 251h-28l-2 2v22l2 1h28l2-1v-22l-2-2zM227 280h-30l-1 1 1 1h29l2-1-1-1zM227 285h-30l-1 1 1 1h29l2-1-1-1zM227 289h-30l-1 1 1 1h29l2-1-1-1zM227 293h-30l-1 1 1 2h29l2-1v-1l-1-1zM227 298h-30l-1 1 1 1h29l2-1-1-1zM589 109H481c-3 0-5 2-5 4v198c0 3 2 5 5 5h108c2 0 4-2 4-5V113c0-2-2-4-4-4z" class="st1"/><path d="M583 119h-34l-1-1v-1l1-1h34l1 1v1l-1 1zM583 124h-34l-1-1v-1l1-1h34l1 1v1l-1 1zM583 129h-35v-2h36v2h-1zM583 134h-35v-2h36v2h-1zM583 139h-35v-2h36v2h-1zM583 144h-35v-2h36v2h-1zM583 149h-35v-2h36v2h-1zM583 247h-35v-2h36v2h-1zM583 252h-35v-2h36v2h-1zM583 257h-35v-2h36v2h-1zM583 262h-35v-2h36v2h-1zM583 267h-35v-1l1-1h34l1 1v1h-1c-1 0 0 0 0 0zM583 273h-34v-1h-1v-1l1-1h34l1 1v1h-1v1zM583 278h-34l-1-1v-1h1v-1h34v1h1v1l-1 1zM583 283h-35v-1l1-1h35v2h-1zM583 289h-34v-1h-1v-1l1-1h34l1 1v1h-1v1zM583 294h-34l-1-1v-1h36v1l-1 1c-1 0 0 0 0 0zM583 299h-34l-1-1v-1h36v2h-1c-1 0 0 0 0 0zM583 304h-35v-2h36v2h-1c-1 0 0 0 0 0zM583 309h-35v-2h36v2h-1c-1 0 0 0 0 0zM583 154h-35v-1l1-1h35v2h-1zM583 160h-34v-1h-1v-1l1-1h34l1 1v1l-1 1zM583 165h-34l-1-1v-1l1-1h34l1 1v1l-1 1zM583 170h-35v-2h36v2h-1zM583 175h-35v-2h36v2h-1c-1 0 0 0 0 0zM583 178h-34l-1 1 1 1h34l1-1-1-1zM583 185h-35v-2h36v2h-1zM583 188h-34l-1 1 1 1h34l1-1-1-1zM583 196h-34l-1-1v-1l1-1h34l1 1c0 1 0 0 0 0v1l-1 1zM537 207h-51v-2h52v2h-1zM537 212h-51v-2h52v2h-1zM537 217h-51v-2h52v1c0 1 0 0 0 0v1h-1zM537 223h-50l-1-1v-1c0-1 0 0 0 0v-1h52v2h-1v1zM537 228h-50l-1-1v-2h51l1 1v1l-1 1zM537 233h-51v-2h52v2h-1zM537 238h-51v-2h52v2h-1zM537 243h-51v-2c0-1 0 0 0 0h52c1 0 0 0 0 0v2h-1zM537 248h-51v-2h52v2h-1zM537 253h-51v-2h52c1 0 0 0 0 0v2h-1zM537 258h-51v-2h52v2h-1zM537 264h-50l-1-1v-2h52v2l-1 1zM537 269h-51v-2h52v1l-1 1zM537 274h-51v-2h52v2h-1zM537 279h-51v-2h52v2h-1zM537 284h-51v-2h52v2h-1zM537 289h-51v-2h52v2h-1zM537 294h-51v-2h52v2h-1zM537 299h-51v-1c0-1 0 0 0 0v-1h52v2h-1zM537 304h-51v-2h52v2h-1zM537 309h-51v-1l1-1h51v2h-1zM583 205h-34l-1 1v31l1 1h34l1-1v-31l-1-1zM537 116h-50l-2 2v76l2 1h50c1 1 1 0 1-1v-76l-1-2z" class="st1"/><path d="M533 121h-42v23h42v-23zM533 147h-42v23h42v-23zM510 173h-20v18l1 1h19l1-1v-18h-1zM533 173h-20v19h19l1-1v-18zM431 109H323c-3 0-5 2-5 4v198c0 3 2 5 5 5h108c2 0 4-2 4-5V113c0-2-2-4-4-4z" class="st1"/><path d="M372 119h-42l-2 1v43l2 2h42l2-2v-43l-2-1zM448 119h-32l-1 1 1 1h32l1-1v-1h-1zM448 123h-32l-1 1v1l1 1h32l1-1v-1l-1-1zM448 128h-32l-1 1v1l1 1h32l1-1v-1l-1-1zM448 133h-32l-1 1v1l1 1h32l1-1v-1l-1-1zM448 138h-32l-1 1v1l1 1h32l1-1v-1l-1-1zM448 143h-32l-1 1v1l1 1h32l1-1v-1l-1-1zM448 148h-32l-1 1v1l1 1h32l1-1v-1l-1-1zM448 153h-32l-1 1 1 2h32l1-1v-1l-1-1zM448 158h-32l-1 1 1 1h32l1-1-1-1zM448 163h-32l-1 1 1 1h32l1-1-1-1zM383 126l2-3c0-1-1-2-3-2s-2 1-2 2 1 3 3 3zM383 145c1 0 2-1 2-3s-1-2-3-2-2 1-2 2c0 2 1 3 3 3zM385 161v2l-1 1h-2l-1-1-1-1v-1l1-2h3v1l1 1zM427 172h-99v6h99v-6zM427 182h-99v6h99v-6zM380 192h-52v6h52v-6zM427 205h-99v4h99v-4zM427 212h-99v3h99v-3zM427 219h-99v3h99v-3zM427 226h-99v3h99v-3zM427 233h-99v3h99v-3zM427 240h-99v3h99v-3zM378 247h-50v3h50v-3zM354 260h-24c-1 0-2 1-2 3v25c0 2 1 3 2 3h24c2 0 3-1 3-3v-25c0-2-1-3-3-3zM390 260h-25c-1 0-2 1-2 3v25c0 2 1 3 2 3h24c2 0 3-1 3-3v-25c0-2-1-3-2-3zM447 260h-24c-2 0-3 1-3 2v26c0 2 1 3 3 3h24l2-3v-26l-2-2zM427 297h-99v3h99v-3zM427 303h-99v3h99v-3zM387 308h-59v3h59v-3z" class="st1"/><path d="M414 368a94 94 0 0 0-46-134 95 95 0 0 0-100 19 95 95 0 0 0-24 99c6 17 17 32 31 43h-3l-1 2-68 117v4l2 3 18 10 4 1 3-2 68-117v-5a94 94 0 0 0 116-40zm-122 23a81 81 0 1 1 82-140 81 81 0 0 1-82 140z" class="st5"/><path d="M388 380a79 79 0 1 0-113-113 79 79 0 0 0 113 113z" class="st4"/><path d="M388 380a79 79 0 1 0-113-113 79 79 0 0 0 113 113z" style="opacity:.61;clip-path:url(#SVGID_4_);fill:#f9f9f9;enable-background:new"/><path d="m370 245-134 55 2 39 166-65-34-29z" style="opacity:.26;clip-path:url(#SVGID_4_);fill:#3c94f8;enable-background:new"/><path d="m426 279-179 72 16 32 176-69-13-35z" style="opacity:.18;clip-path:url(#SVGID_4_);fill:#3c94f8;enable-background:new"/><path d="m440 325-178 72 14 17 172-67-8-22z" style="opacity:.1;clip-path:url(#SVGID_4_);fill:#3c94f8;enable-background:new"/><path d="M422 376a94 94 0 0 0-47-134 95 95 0 0 0-99 19 95 95 0 0 0-24 99c6 17 16 32 30 43l-2 1-2 1-67 117-1 2v2l1 2 1 1 19 11h4l1-1 2-1 67-117 1-2-1-2a94 94 0 0 0 117-41zm-122 23a81 81 0 1 1 81-140 81 81 0 0 1-81 140z" style="opacity:.14;clip-path:url(#SVGID_4_);fill:#3c94f8;enable-background:new"/><path d="M758 184H493a34 34 0 0 0 0 68h265a34 34 0 0 0 0-68z" class="st1"/><path d="M754 251H488a35 35 0 1 1 0-69h266a35 35 0 1 1 0 69zm-266-67a33 33 0 1 0 0 65h266a33 33 0 1 0 0-65H488z" class="st5"/><path d="M494 212h-4l-1 1v4l1 1h4c1 1 1 0 1-1v-4l-1-1zM506 212h-4l-1 1v4l1 1h4c1 1 1 0 1-1v-4l-1-1zM518 212h-3l-2 1v4l2 1h3c1 1 2 0 2-1v-4l-2-1zM530 212h-3l-2 1v4l2 1h3c1 1 2 0 2-1v-4l-2-1zM542 212h-3l-2 1v4l2 1h3c1 1 2 0 2-1v-4l-2-1zM554 212h-3l-2 1v4l2 1h3c1 1 2 0 2-1v-4l-2-1zM566 212h-3l-2 1v4l2 1h3c1 1 2 0 2-1v-4l-2-1zM578 212h-3l-2 1v4l2 1h3c1 1 2 0 2-1v-4l-2-1zM590 212h-3l-2 1v4l2 1h3c1 1 2 0 2-1v-4l-2-1zM602 212h-3l-2 1v4l2 1h3c1 1 2 0 2-1v-4l-2-1zM614 212h-3l-2 1v4l2 1h3c1 1 2 0 2-1v-4l-2-1zM626 212h-3l-2 1v4l2 1h3c1 1 2 0 2-1v-4l-2-1zM638 212h-3l-2 1v4l2 1h3c1 1 2 0 2-1v-4l-2-1zM650 212h-3l-2 1v4l2 1h3c1 1 2 0 2-1v-4l-2-1zM662 212h-3l-2 1v4l2 1h3c1 1 2 0 2-1v-4l-2-1zM675 212h-4l-2 1v4l2 1h3c2 1 2 0 2-1v-4l-1-1zM687 212h-4l-2 1v4l2 1h3c2 1 2 0 2-1v-4l-1-1zM699 212h-4l-2 1v4l2 1h3c2 1 2 0 2-1v-4l-1-1zM711 212h-4l-1 1v4l1 1h4c1 1 1 0 1-1v-4l-1-1zM723 212h-3l-2 1v4l2 1h3c1 1 2 0 2-1v-4l-2-1zM735 212h-3l-2 1v4l2 1h3c1 1 2 0 2-1v-4l-2-1zM747 212h-3l-2 1v4l2 1h3c1 1 2 0 2-1v-4l-2-1zM759 212h-3l-2 1v4l2 1h3c1 1 2 0 2-1v-4l-2-1zM92 542H64v1h-1v1l12 39 1 1h24l1-1 12-39v-1h-1v-1H92z" class="st5"/><path d="M107 523c0-2 1-4 3-5s4-2 6-1c1 0 2 2 4 1l1-2c0-3 0-7 2-9s6-2 9-1h4l2-2c1-2 2-5 4-6 4-2 9 2 13 1l5-2 2 1c2 2 2 6 0 8-3 3-7 2-10 5s-2 8-5 9c-3 2-7 1-9 2-3 1-4 3-6 5-1 2-3 4-6 4h-4c-3 0-5 5-9 5-2 1-5-1-6-3l-2-2v-3l2-5zM80 515c-2-1-3-4-2-6l2-3c1-1 2-2 1-3l-1-2-4-5c-1-1-2-4 0-6l3-3c2-1 3-2 3-4s-3-4-2-6l5-4-1-3v-2l1-1 1-2h5l2 1v2l1 5 4 5c2 3-1 7-1 11s5 8 3 12l-2 4 1 5v6l-4 2-12-1-3-2z" class="st11"/><path d="M88 552h-1v-1c4-6 8-11 14-15 5-5 12-9 18-13l43-25h1v1l-43 25-19 12-13 15v1z" class="st5"/><path d="M89 550v-85h1v84l-1 1z" class="st5"/><path d="M64 536c-2 0-5-2-6-5 0-2 1-5-1-7h-3c-3 0-6 0-8-2-4-2-3-7-4-12l-1-3-3-1c-4-1-7-5-8-9l2-4 2-1h4l4 2 3 4c4 4 10 1 15 3l3 2 2 4 1 7c2 3 7 3 11 5l3 2v2c0 3 0 6-2 9l-4 3h-3l-7 1z" class="st11"/><path d="M87 552h-1a251 251 0 0 0-36-45l-7-4-11-10v-1h1v1c2 4 6 6 11 9l7 4 7 7c7 8 22 25 29 38v1z" class="st5"/><path d="M733 308s-22 42-26 45c-4 4-55 18-55 18l2 7s64 2 67 0l22-18-10-52z" class="st12"/><path d="m702 562 2 9h11v-11l-13 2zM660 560v13l11-1 2-12h-13z" class="st13"/><path d="M751 407s-75 25-86 36-7 117-7 117h16l23-87s90-2 100-19c13-23 3-53 3-53l-49 6z" style="clip-path:url(#SVGID_4_);fill:#006663"/><path d="M755 413s-62 36-70 48 16 101 16 101l15-2 3-78s81-19 87-36c7-23-7-47-7-47l-44 14z" class="st2"/><path d="M673 569s-10 3-14 0l-19 10-3 3-2 4v1h38l1-1c1-1 0 0 0 0l1-1v-1l-2-15z" style="clip-path:url(#SVGID_4_);fill:#0c203f"/><path d="M716 569s-10 3-14 0l-19 10-3 3-1 4v1h37l1-1h1v-2l-2-15z" class="st5"/><path d="m752 296-8-29-3-20a9 9 0 0 0-5-5l-4-1-4 1-14 6-4 4-1 6 3 16 4 11c4 5 12 7 18 4l2 19 16-12z" class="st13"/><path d="m717 272-1-1h-1v-1l1-12h1l-1 12 1 1 4-1 1 1c1 0 0 0 0 0h-1l-3 1h-1z" class="st5"/><path d="M726 272s-4 4-10 5c0 0 8 5 10-5z" class="st4"/><path d="M719 276v-1l7-4c-2 3-4 4-7 5zM714 261l-1 1-2-1 2-2 1 2zM722 260l2-2-2-2-1 2 1 2z" class="st5"/><path d="M709 254s15 2 22-3c0 0 0 10 3 11s10 0 12 11c0 0 4-12 2-25s-10-19-18-19c-8 1-38 12-21 25z" class="st5"/><path d="M742 260c1-4 0-8-2-8-2-1-5 2-6 6s0 7 2 8c3 0 5-2 6-6z" class="st13"/><path d="M736 262v-1c0-4 3-8 3-8h1v1s-3 3-3 7v1h-1z" class="st5"/><path d="M752 292s44 19 52 116c0 0-19 12-66 5l1-15c0-4-15-70-6-90l19-16z" class="st12"/><path d="m734 290-1-1h1s4-2 7-9h1c-3 8-8 10-8 10z" class="st5"/><path d="M751 315s-14 35-19 41-67 16-67 16l4 10s65 4 72 0 26-16 31-34c5-19-6-41-21-33z" class="st12"/><path d="m719 384-50-2h-1 1s65 3 72 0 26-16 31-35h1v1c-6 19-24 31-31 35l-23 1zM665 372v-1c22-3 64-11 67-15a405 405 0 0 0 18-42h1v1c-1 1-14 36-18 41-4 6-65 16-68 16z" class="st5"/><path d="M734 354h-1v-39l1-1c1 0 0 0 0 0v40z" class="st5"/><path d="M666 374s-7-2-11-1l-15 11h20l8-4-2-6z" class="st13"/><path d="M653 373h-9l-12 5s1 2 2 1l13-3s-7 3-8 5l-1 3h12l4-6-1-5z" class="st13"/><path d="M641 385v-1l1-2 11-8h1l-1 1-10 7-2 2v1zM768 478l-27 108h3l33-109-9 1zM804 478l27 108h-3l-33-109 9 1z" class="st5"/><path d="M745 473s38-19 57-48c9-15 10-55 18-55 8-1 15 12 18 26s2 68-15 77c-18 10-79 14-83 12-5-1-6-5 5-12zM762 395H490l-3-1v-4l3-1h273l1 1 1 1v2a4 4 0 0 1-2 2h-1zM506 587h-5l37-192h5l-37 192z" class="st16"/><path d="M746 587h5l-37-192h-5l37 192z" class="st16"/><path d="m589 384-32-73-1-1h-2v1l-1 1v1l33 76h78l1-1 1-1-1-2-1-1h-75z" class="st5"/><path d="M368 321a35 35 0 0 0-16-29 36 36 0 0 0-34-3 35 35 0 0 0-20 27 35 35 0 0 0 12 31 23 23 0 0 1 17-21 13 13 0 0 1-7-14 13 13 0 0 1 13-11c3 0 6 1 8 3s4 5 5 8l-1 8-6 6c4 2 8 4 12 8 3 4 4 8 5 13 4-3 7-7 9-12 2-4 3-9 3-14z" style="clip-path:url(#SVGID_4_);fill:#d2fffe"/><path d="M339 326a13 13 0 0 0 7-14 13 13 0 0 0-13-11c-3 0-6 1-8 3s-4 5-5 8c-1 2-1 6 1 8 1 3 3 5 6 6-5 2-9 4-12 8s-5 8-5 13a35 35 0 0 0 46 0c-1-5-2-9-6-13-2-4-7-6-11-8z" class="st2"/><path d="m732 88-5 1-4 2-3 4-2 4c1-3 0-6-2-9s-5-4-8-4-7 0-9 2-4 5-5 8v2c1 21 21 29 21 29s22-3 27-23l1-2c0-3-1-7-3-9-2-3-5-4-8-5z" style="clip-path:url(#SVGID_4_);fill:#04afaa"/></g></svg>