<?xml version="1.0" encoding="utf-8"?>
<!-- Generator: Adobe Illustrator 23.1.0, SVG Export Plug-In . SVG Version: 6.00 Build 0)  -->
<svg version="1.1" id="Layer_1" xmlns="http://www.w3.org/2000/svg" xmlns:xlink="http://www.w3.org/1999/xlink" x="0px" y="0px"
	 viewBox="0 0 962.7 599.2" style="enable-background:new 0 0 962.7 599.2;" xml:space="preserve">
<style type="text/css">
	.st0{clip-path:url(#SVGID_2_);}
	.st1{fill:#B0EAE5;}
	.st2{fill:#04AFAA;}
	.st3{fill:#025B59;}
	.st4{fill:#008080;}
	.st5{fill:#DCECFD;}
	.st6{fill:#D54A41;}
	.st7{fill:#F99747;}
	.st8{fill:#FFFFFF;}
	.st9{fill:#F9CE68;}
	.st10{fill:#152E60;}
	.st11{clip-path:url(#XMLID_2_);fill:#F99747;}
	.st12{clip-path:url(#XMLID_3_);fill:#EDA19D;}
	.st13{fill:#59445A;}
	.st14{fill:#F4D2C6;}
	.st15{fill:#4292F3;}
	.st16{fill:#324D90;}
	.st17{fill:#2A437D;}
	.st18{fill:#F08F3C;}
</style>
<title>applicant_svg_1</title>
<g>
	<g>
		<g>
			<defs>
				<rect id="SVGID_1_" x="-6.8" y="-1.3" width="972" height="616"/>
			</defs>
			<clipPath id="SVGID_2_">
				<use xlink:href="#SVGID_1_"  style="overflow:visible;"/>
			</clipPath>
			<g class="st0">
				<g>
					<path class="st1" d="M39.2,590h844.6c-10.8-114.1,20-312.5-120.5-360.5c-204.6-95.1-224.8-78.8-400.8,51.2
						c-46.6,34.9-107,30.2-158.7,10.1c-68.7-22.2-130.1,18.9-166.3,75.5C-17.1,424.2,25.7,524.4,39.2,590z"/>
					<path class="st2" d="M605.4,335.6H467.1c4.2-8.7,8.5-9.7,16.9-12c1.7-1.2,2.3-3.4,2.9-5.4c10.5-29.1,50.7-23,66.1-1
						c6.1-2.9,13.8-5.8,19.2-1.6c3.3,2.5,4.9,7.2,8.8,8.4c2.8,0.9,5.7-0.3,8.6-0.6C595.2,322.9,603.6,330.2,605.4,335.6z"/>
					<path class="st2" d="M645.8,228.7H571c1.6-3.2,4.8-5.1,8.4-5.6c3.9-16.2,25.7-15.3,35.3-4.5c3.4-5.1,10-0.7,12.6,3.2
						C634,215.3,643.2,220.9,645.8,228.7z"/>
					<path class="st2" d="M431.6,381h-79.8c1.9-2.9,3.8-4.5,7.2-5.5c5-19.2,30.9-19.2,43-6.4c4.5-6,14.4-2.9,14.7,4.6
						C421.9,371.8,429.5,375.8,431.6,381z"/>
					<path class="st3" d="M423.9,589.8c-34.4-0.2-61.4,6.7-78.9-33c14-0.3,26.4,9,37.5,17.9c-13-12-16.4-31.9-15.4-49.9
						c14.5,12.8,28.3,27.4,35.8,45.6c-1.1-13.6-2.2-27.6,2.1-40.5C419.3,544.1,427.1,569.5,423.9,589.8z"/>
					<polygon class="st4" points="660.3,227.6 605,306.5 525.1,323.6 525.1,451.1 396.4,589.8 666.6,589.8 724,313.6 					"/>
					<polygon class="st4" points="764.9,143.5 660.3,227.6 682.3,313.6 595.6,366.9 586.5,499.4 470.3,589.8 877.7,589.8 
						902.4,366.7 846.7,311.3 824.7,199.2 					"/>
					<polygon class="st4" points="824.7,199.2 741.3,288.5 758.8,316 758.8,427.8 818.3,445.5 821.1,435.2 778.9,410.7 790.8,312.8 
						758.8,291.8 831.8,235.3 					"/>
					<polygon class="st3" points="607.2,589.8 689.3,480.8 816.9,466.3 774.8,486.8 831.8,530.7 729.5,506.3 671,528 659.8,589.8 
											"/>
					<polygon class="st5" points="682.3,313.6 706.5,301.2 719.5,335.4 673.8,429.1 686.3,429.1 744.2,332.3 719.5,272.7 
						683.5,272.7 660.3,227.6 					"/>
					<polygon class="st5" points="821.1,435.2 826.4,412.4 855.9,445.5 845.2,513.1 836.2,509.6 842.8,445.5 					"/>
					<polygon class="st5" points="614.2,355.4 626,445.5 607.2,513.1 552.1,576.6 586.5,499.4 595.6,366.9 					"/>
					<polygon class="st4" points="902.4,366.7 934.2,472.5 931.2,589.8 877.7,589.8 					"/>
					<path class="st3" d="M919.4,589.8c0,0,38.1-9.1,45.8-40.8c0,0-28.2,5.8-36.8,15.6c0,0,22.7-26.8,21-60.7
						c0,0-34.2,19.6-36.4,45.1c0,0-1-34.7-27.5-62.4c0,0-7.2,43.2,3.5,71.4c0,0-21.4-20.1-44.1-24.6c0,0-0.4,34.8,33.8,40.6
						c0,0-17.5-8-39.4-6.7C861,590,881.4,591.3,919.4,589.8z"/>
					<polygon class="st6" points="771.3,141.1 801.1,209.3 786.2,209.3 761.1,152.9 					"/>
					<polygon class="st6" points="722.7,141.1 692.9,209.3 707.8,209.3 732.9,152.9 					"/>
					<path class="st6" d="M784.5,39.9c-57.4-14.2-120.9,146.6-51.3,163C790.7,217.2,854.2,56.3,784.5,39.9z"/>
					<path class="st7" d="M723.4,202c-69.7-16.4-6.1-177.3,51.3-163C844.4,55.4,780.8,216.3,723.4,202z"/>
					<path class="st8" d="M729.1,184.1c-54.4-12.8-4.8-138.3,40-127.2C823.4,69.7,773.8,195.2,729.1,184.1z"/>
					<path class="st7" d="M734.7,166.2c-39.1-9.2-3.4-99.4,28.7-91.4C802.5,84,766.8,174.2,734.7,166.2z"/>
					<path class="st8" d="M740.3,148.3c-23.7-5.6-2.1-60.4,17.5-55.5C781.5,98.3,759.9,153.1,740.3,148.3z"/>
					<path class="st9" d="M755.1,121.5c-1.7,5.4-5.8,9.4-9.1,8.9c-8.4-2-0.7-21.4,6.2-19.7C755.5,111.2,756.8,116,755.1,121.5z"/>
					<path class="st10" d="M152.6,571l1.6,6.2l17.7,8.2c2.1,1,3.5,3.2,3.5,5.7h-36.6l1.4-20.1H152.6z"/>
					<path class="st10" d="M70.5,571l1.6,6.2l17.7,8.2c2.1,1,3.5,3.2,3.5,5.7H56.8l1.4-20.1H70.5z"/>
					<g>
						<defs>
							<path id="XMLID_00000131357406444780977350000008696107071176627346_" d="M138.9,231.3l36.8,32.2l7-66l15.7-1.7l4.6,83.8
								c0.4,6.4-1.9,12.7-6.1,17.3h0c-6.1,6.6-15.4,8.5-23.3,4.7L125,279.2L138.9,231.3z"/>
						</defs>
						<use xlink:href="#XMLID_00000131357406444780977350000008696107071176627346_"  style="overflow:visible;fill:#F99747;"/>
						<clipPath id="XMLID_2_">
							<use xlink:href="#XMLID_00000131357406444780977350000008696107071176627346_"  style="overflow:visible;"/>
						</clipPath>
						<path class="st11" d="M141.8,233.8c0,0,28,34.4,31.9,67.8c3.9,33.5,0,0,0,0l-35.3-10.8L141.8,233.8"/>
					</g>
					<path class="st4" d="M174.7,428l-17.8-90.7c-21.7,0-54.6,0-76.1,0l-24,237.3h17.4L120,399l18.1,42.5l0.5,133.7h18.3L175,440.6
						C175.6,436.4,175.5,432.2,174.7,428z"/>
					<path class="st3" d="M120,399l6.7-28.4c31.2,81.9,26.6,62.2,11.7,147.9l-0.3-77L120,399z"/>
					<g>
						<g>
							<defs>
								<path id="XMLID_00000003827132378449912810000004942264167061875384_" d="M120.5,228.1l2.1-20.9l0,0
									c-18.6-23.6,10.5-54.7,28.6-29.3c10.2,15.9,7.2,42.5-12.4,39.7l3.1,16.2L120.5,228.1z"/>
							</defs>
							<use xlink:href="#XMLID_00000003827132378449912810000004942264167061875384_"  style="overflow:visible;fill:#F4D2C6;"/>
							<clipPath id="XMLID_3_">
								<use xlink:href="#XMLID_00000003827132378449912810000004942264167061875384_"  style="overflow:visible;"/>
							</clipPath>
							<path class="st12" d="M138.8,217.6c0,0-4.3-2-5.2-4.7c0,0,12.1,5.5,19.5-0.9c7.4-6.4,0,0,0,0S148.3,220.5,138.8,217.6"/>
							<path class="st12" d="M135.4,188.4c0,0,6.9-10.9,20.4-5.7c0,0-6.2-11.3-8.9-12.5c-2.7-1.3-9.7,6.9-9.7,6.9L135.4,188.4z"/>
						</g>
						<path class="st13" d="M136.4,187.7c0,0,4.4-15.6,11.1-14.3c-10.4-18.4-44.8,2.8-35.7,22.8c3.7,7,10.4,14.8,10.4,14.8
							s6.6-1.1,6.7-2.1c0.1-0.9,2.4-12.8,2.4-12.8L136.4,187.7z"/>
						<path class="st14" d="M138.2,193.3c-1.7,6.1-10.5,3.1-8.6-2.9C131.2,184.3,140.1,187.2,138.2,193.3z"/>
					</g>
					<path class="st15" d="M90.5,320.5"/>
					<path class="st15" d="M175.4,373"/>
					<path class="st7" d="M160.8,336.6L142.2,230l-21.8-13.5c-36.5,6.8-45.7,125.1-47.2,136.7C73.2,353.3,117.4,368.7,160.8,336.6z"
						/>
					<polygon class="st16" points="142.2,230 140.1,231.8 147.5,297.5 165.8,313.6 164.5,288.2 					"/>
					<g>
						<polygon class="st16" points="276.8,184.1 215.4,193.5 211.4,162.7 272.8,153.3 						"/>
						<polygon class="st17" points="215,189.2 177.9,194.9 175,172.6 212.1,166.9 						"/>
						<polygon class="st10" points="177.1,189 148.9,193.3 147.5,182.7 175.8,178.4 						"/>
						<polygon class="st10" points="281.4,187.4 275.2,188.3 270.1,149.5 276.3,148.6 						"/>
					</g>
					<g>
						<g>
							<g>
								<path class="st18" d="M276.4,323.9l-52.9,9.3c-5.8,1-10.8,5.1-13.3,10.8l-14.8,33.3l6.9,10l17.1-35.8
									c1.7-3.5,4.6-6.1,8.1-7.2l51.5-16.3C280,326,278.5,323.5,276.4,323.9z"/>
								<path class="st18" d="M98.2,468.1l23.2-52.3c2.5-5.7,7.5-9.8,13.3-10.8l33.7-5.9l6.9,10l-36.6,7.7c-3.6,0.7-6.7,3-8.6,6.3
									l-29.1,48.9C99,472.5,97.2,470.2,98.2,468.1z"/>
								<polygon class="st17" points="175.5,409.2 168.4,399.1 195.3,377.3 202.3,387.5 								"/>
							</g>
							<path class="st16" d="M278.9,328c-56.7,46.5-120.6,98.2-177.9,144C157.8,425.4,221.7,373.7,278.9,328L278.9,328z"/>
						</g>
					</g>
					<path class="st8" d="M142.2,230l-6.7,5.6c0,0-20-9.2-15.1-19.1L142.2,230z"/>
					<path class="st14" d="M184.3,197.4c0.3-0.3-9.9-18.1-1.1-11.5c0,0,6,7.3,6,7.3l10.1-1.5L197,196L184.3,197.4z"/>
					<path class="st7" d="M125,246.4l3.9,67.2l56.9,67.4l-13.7,11.3c-7.3-6.6-64.6-47.2-68.2-55.4l0,0c-11-13.1-8.7-56.8-11-73.1
						L125,246.4z"/>
					<path class="st6" d="M122.8,354.3c-26.5-21.2-26.1-30.7-28.1-63.4c-5.4,34.9-16.4,45.8,21.4,64.8L122.8,354.3z"/>
					<polygon class="st6" points="152.9,341.9 128.9,313.6 127.3,286.8 136.8,313.6 157.2,339.1 					"/>
					<path class="st14" d="M183.2,382.3c0,0,8.1,1.3,9.3,2.9c0.7,1,1.9,7,2.6,11.1c0.4,2.4-0.7,4.9-2.8,6c-15.4,8.8-11.4,4.5-19-11
						L183.2,382.3z"/>
					<g>
						<g>
							<g>
								<g>
									<g>
										<polygon class="st15" points="228.3,480.2 227.1,485 218.9,475.6 220.1,470.8 										"/>
										<polygon class="st8" points="229.5,475.3 228.3,480.2 220.1,470.8 221.3,465.9 										"/>
										<polygon class="st15" points="230.7,470.5 229.5,475.3 221.3,465.9 222.5,461.1 										"/>
										<polygon class="st8" points="231.8,465.7 230.7,470.6 222.5,461.2 223.7,456.3 										"/>
										<polygon class="st15" points="233,460.9 231.8,465.7 223.7,456.4 224.9,451.5 										"/>
									</g>
									<g>
										<polygon class="st15" points="244,463.1 245.2,458.2 234,461.2 232.8,466 										"/>
										<polygon class="st8" points="242.8,467.9 244,463.1 232.8,466.1 231.6,470.9 										"/>
										<polygon class="st15" points="241.6,472.7 242.8,467.9 231.6,470.9 230.4,475.7 										"/>
										<polygon class="st8" points="240.4,477.5 241.6,472.7 230.4,475.7 229.2,480.5 										"/>
										<polygon class="st15" points="239.2,482.3 240.4,477.5 229.2,480.5 228,485.3 										"/>
									</g>
									<polygon class="st10" points="234.8,461.4 203.2,589.9 200.4,589.9 232.2,460.6 									"/>
								</g>
							</g>
						</g>
						<path class="st10" d="M214.4,426.5l0.3-5c-14.2,7.2-7.9,7.7-21-1.7l-0.3,5l0,0l-0.3,4.9l0,0l-0.3,5l0,0l-0.3,5l8.8,6.6l0,0
							l-8.8-6.6l-0.3,5l8.8,6.6l-6.5,138.5l2.6,0l6.5-138.3l9.5-5.1l0.3-5l0,0l0.3-5l0,0l0.3-5l0,0L214.4,426.5l-9.5,5.2l0,0
							L214.4,426.5z"/>
						<g>
							<g>
								<g>
									<g>
										<polygon class="st15" points="184.5,475.6 184.6,480.6 174.5,474.4 174.4,469.3 										"/>
										<polygon class="st8" points="184.5,470.6 184.5,475.6 174.4,469.3 174.3,464.3 										"/>
										<polygon class="st15" points="184.4,465.5 184.5,470.6 174.3,464.3 174.3,459.3 										"/>
										<polygon class="st8" points="184.3,460.6 184.4,465.6 174.3,459.3 174.2,454.3 										"/>
										<polygon class="st15" points="184.3,455.6 184.3,460.6 174.2,454.3 174.1,449.3 										"/>
									</g>
									<g>
										<polygon class="st15" points="195.3,454 195.2,448.9 185.2,455.5 185.3,460.6 										"/>
										<polygon class="st8" points="195.4,459 195.3,454 185.3,460.6 185.4,465.6 										"/>
										<polygon class="st15" points="195.4,464 195.3,459 185.4,465.6 185.4,470.6 										"/>
										<polygon class="st8" points="195.5,469 195.4,464 185.4,470.6 185.5,475.6 										"/>
										<polygon class="st15" points="195.5,474 195.5,469 185.5,475.6 185.6,480.6 										"/>
									</g>
									<polygon class="st10" points="186.1,455.5 187.9,590 185.2,590 183.4,455.5 									"/>
								</g>
							</g>
						</g>
					</g>
				</g>
			</g>
		</g>
	</g>
</g>
</svg>
