<svg width="48" height="48" viewBox="0 0 48 48" fill="none" xmlns="http://www.w3.org/2000/svg">
<path d="M39 6.5C39.663 6.5 40.2989 6.76339 40.7678 7.23223C41.2366 7.70107 41.5 8.33696 41.5 9V39C41.5 39.663 41.2366 40.2989 40.7678 40.7678C40.2989 41.2366 39.663 41.5 39 41.5H9C8.33696 41.5 7.70107 41.2366 7.23223 40.7678C6.76339 40.2989 6.5 39.663 6.5 39V9C6.5 8.33696 6.76339 7.70107 7.23223 7.23223C7.70107 6.76339 8.33696 6.5 9 6.5H39ZM9 4C7.67392 4 6.40215 4.52678 5.46447 5.46447C4.52678 6.40215 4 7.67392 4 9L4 39C4 40.3261 4.52678 41.5979 5.46447 42.5355C6.40215 43.4732 7.67392 44 9 44H39C40.3261 44 41.5979 43.4732 42.5355 42.5355C43.4732 41.5979 44 40.3261 44 39V9C44 7.67392 43.4732 6.40215 42.5355 5.46447C41.5979 4.52678 40.3261 4 39 4H9Z" fill="black"/>
<path d="M21.1353 15.615C21.2517 15.7312 21.344 15.8691 21.4071 16.021C21.4701 16.1728 21.5025 16.3356 21.5025 16.5C21.5025 16.6645 21.4701 16.8273 21.4071 16.9791C21.344 17.131 21.2517 17.2689 21.1353 17.385L14.5178 24L21.1353 30.615C21.37 30.8498 21.5019 31.1681 21.5019 31.5C21.5019 31.832 21.37 32.1503 21.1353 32.385C20.9006 32.6198 20.5822 32.7516 20.2503 32.7516C19.9183 32.7516 19.6 32.6198 19.3653 32.385L11.8653 24.885C11.7489 24.7689 11.6565 24.631 11.5935 24.4791C11.5305 24.3273 11.498 24.1645 11.498 24C11.498 23.8356 11.5305 23.6728 11.5935 23.521C11.6565 23.3691 11.7489 23.2311 11.8653 23.115L19.3653 15.615C19.4814 15.4986 19.6193 15.4063 19.7712 15.3433C19.9231 15.2802 20.0859 15.2478 20.2503 15.2478C20.4147 15.2478 20.5775 15.2802 20.7294 15.3433C20.8812 15.4063 21.0192 15.4986 21.1353 15.615V15.615ZM26.8653 15.615C26.7489 15.7312 26.6565 15.8691 26.5935 16.021C26.5305 16.1728 26.498 16.3356 26.498 16.5C26.498 16.6645 26.5305 16.8273 26.5935 16.9791C26.6565 17.131 26.7489 17.2689 26.8653 17.385L33.4828 24L26.8653 30.615C26.6306 30.8498 26.4987 31.1681 26.4987 31.5C26.4987 31.832 26.6306 32.1503 26.8653 32.385C27.1 32.6198 27.4183 32.7516 27.7503 32.7516C28.0822 32.7516 28.4006 32.6198 28.6353 32.385L36.1353 24.885C36.2517 24.7689 36.344 24.631 36.4071 24.4791C36.4701 24.3273 36.5025 24.1645 36.5025 24C36.5025 23.8356 36.4701 23.6728 36.4071 23.521C36.344 23.3691 36.2517 23.2311 36.1353 23.115L28.6353 15.615C28.5192 15.4986 28.3812 15.4063 28.2294 15.3433C28.0775 15.2802 27.9147 15.2478 27.7503 15.2478C27.5859 15.2478 27.4231 15.2802 27.2712 15.3433C27.1193 15.4063 26.9814 15.4986 26.8653 15.615V15.615Z" fill="black"/>
</svg>
