<svg width="32" height="32" viewBox="0 0 32 32" fill="none" xmlns="http://www.w3.org/2000/svg">
<path d="M11.52 14.72H10.24V12.16C10.24 8.96002 12.8 6.40002 16 6.40002C18.88 6.40002 21.376 8.57602 21.696 11.456L20.416 11.584C20.16 9.34402 18.24 7.68002 16 7.68002C13.504 7.68002 11.52 9.66402 11.52 12.16V14.72Z" fill="#333333"/>
<path d="M21.12 25.6H10.88C9.79196 25.6 8.95996 24.768 8.95996 23.68V16C8.95996 14.912 9.79196 14.08 10.88 14.08H21.12C22.208 14.08 23.04 14.912 23.04 16V23.68C23.04 24.768 22.208 25.6 21.12 25.6ZM10.88 15.36C10.496 15.36 10.24 15.616 10.24 16V23.68C10.24 24.064 10.496 24.32 10.88 24.32H21.12C21.504 24.32 21.76 24.064 21.76 23.68V16C21.76 15.616 21.504 15.36 21.12 15.36H10.88Z" fill="#333333"/>
<path d="M16 19.2C16.7069 19.2 17.28 18.6269 17.28 17.92C17.28 17.2131 16.7069 16.64 16 16.64C15.293 16.64 14.72 17.2131 14.72 17.92C14.72 18.6269 15.293 19.2 16 19.2Z" fill="#333333"/>
<path d="M16.32 17.92H15.68L15.04 21.76H16.96L16.32 17.92Z" fill="#333333"/>
</svg>
