<?xml version="1.0" encoding="utf-8"?>
<!-- Generator: Adobe Illustrator 23.1.0, SVG Export Plug-In . SVG Version: 6.00 Build 0)  -->
<svg version="1.1" id="Layer_1" xmlns="http://www.w3.org/2000/svg" xmlns:xlink="http://www.w3.org/1999/xlink" x="0px" y="0px"
	 viewBox="0 0 36 36" style="enable-background:new 0 0 36 36;" xml:space="preserve">
<style type="text/css">
	.st0{fill:#F2C94C;}
</style>
<g>
	<path class="st0" d="M33.5,18.1c0,4.1-1.6,8.1-4.5,11c-2.9,2.9-6.9,4.5-11,4.5S9.9,32,7,29.1c-2.9-2.9-4.5-6.9-4.5-11S4.1,10,7,7.1
		s6.9-4.5,11-4.5s8.1,1.6,11,4.5C31.9,10,33.5,14,33.5,18.1z M11.2,17.1c-0.3,0-0.5,0.1-0.7,0.3c-0.2,0.2-0.3,0.4-0.3,0.7
		c0,0.3,0.1,0.5,0.3,0.7s0.4,0.3,0.7,0.3h13.6c0.3,0,0.5-0.1,0.7-0.3c0.2-0.2,0.3-0.4,0.3-0.7c0-0.3-0.1-0.5-0.3-0.7
		c-0.2-0.2-0.4-0.3-0.7-0.3H11.2z"/>
</g>
</svg>
