<?xml version="1.0" encoding="utf-8"?>
<!-- Generator: Adobe Illustrator 23.1.0, SVG Export Plug-In . SVG Version: 6.00 Build 0)  -->
<svg version="1.1" id="Layer_1" xmlns="http://www.w3.org/2000/svg" xmlns:xlink="http://www.w3.org/1999/xlink" x="0px" y="0px"
	 viewBox="0 0 36 36" style="enable-background:new 0 0 36 36;" xml:space="preserve">
<style type="text/css">
	.st0{clip-path:url(#SVGID_2_);}
	.st1{fill-rule:evenodd;clip-rule:evenodd;fill:#27AE60;}
</style>
<title>envelope_success</title>
<g>
	<defs>
		<rect id="SVGID_1_" x="1.4" y="2.6" width="32.6" height="31.6"/>
	</defs>
	<clipPath id="SVGID_2_">
		<use xlink:href="#SVGID_1_"  style="overflow:visible;"/>
	</clipPath>
	<g class="st0">
		<path class="st1" d="M17.7,3.9c-8.3,0-15,6.5-15,14.5c0,8,6.7,14.5,15,14.5s15-6.5,15-14.5c0,0,0,0,0,0C32.7,10.4,26,3.9,17.7,3.9
			C17.8,3.9,17.7,3.9,17.7,3.9z M24.2,15.9c0.1-0.1,0.2-0.3,0.3-0.5c0-0.2,0-0.3,0-0.5c0-0.2-0.1-0.3-0.1-0.5
			c-0.1-0.2-0.2-0.3-0.3-0.4c-0.1-0.1-0.3-0.2-0.5-0.2c-0.2,0-0.4,0-0.5,0c-0.2,0-0.4,0.1-0.5,0.2c-0.2,0.1-0.3,0.2-0.4,0.3
			l-5.9,6.8l-3-3c-0.3-0.2-0.6-0.4-1-0.4c-0.7,0-1.3,0.6-1.3,1.3c0,0,0,0,0,0c0,0.3,0.1,0.7,0.4,0.9l4.1,3.9
			c0.1,0.1,0.3,0.2,0.5,0.3c0.3,0.1,0.7,0.1,1.1,0c0.2-0.1,0.3-0.2,0.4-0.3L24.2,15.9z"/>
	</g>
</g>
</svg>
