<?xml version="1.0" encoding="UTF-8"?>
<svg id="Layer_2" data-name="Layer 2" xmlns="http://www.w3.org/2000/svg" viewBox="0 0 290.85 223.06">
  <defs>
    <style>
      .cls-1 {
        fill: teal;
        fill-rule: evenodd;
      }
    </style>
  </defs>
  <g id="Layer_1-2" data-name="Layer 1">
    <path class="cls-1" d="M25.45,34.56V223.06H.33V31.69C.33,25.49-.94,10.51,1.49,6.29h0C4.93,.3,12.65-1.78,18.64,1.66L202.13,107.19V60.65c0-9.38,.12-17.87,9.36-23.18L271.38,3.02c.42-.24,.84-.45,1.27-.64,1.7-.86,3.61-1.35,5.64-1.35h0c6.91,0,12.56,5.65,12.56,12.56V223.06h-25.12V35.25l-38.39,21.87-.09,3.53V223.06h-25.12l-113.14-65.87v65.87h-25.12V60.65l.19-3.7L25.45,34.56h0Zm176.68,101.61L88.98,71.09v57.13l113.14,65.07v-57.13Z"/>
  </g>
</svg>