<?xml version="1.0" encoding="utf-8"?>
<!-- Generator: Adobe Illustrator 27.0.0, SVG Export Plug-In . SVG Version: 6.00 Build 0)  -->
<svg version="1.1" id="Layer_2_00000165941593032397782460000001628440155041157281_"
	 xmlns="http://www.w3.org/2000/svg" xmlns:xlink="http://www.w3.org/1999/xlink" x="0px" y="0px" viewBox="0 0 186 122.4"
	 style="enable-background:new 0 0 186 122.4;" xml:space="preserve">
<style type="text/css">
	.st0{fill-rule:evenodd;clip-rule:evenodd;fill:#008080;}
	.st1{enable-background:new    ;}
</style>
<g id="Layer_1-2">
	<path class="st0" d="M60.2,9.4V61h-6.9V8.7c0-1.7-0.3-5.8,0.3-6.9l0,0c0.9-1.6,3-2.2,4.7-1.3l50.2,28.9V16.6c0-2.6,0-4.9,2.6-6.3
		l16.4-9.4c0.1-0.1,0.2-0.1,0.3-0.2c0.5-0.2,1-0.4,1.5-0.4l0,0c1.9,0,3.4,1.5,3.4,3.4V61h-6.9V9.6l-10.5,6l0,1V61h-6.9L77.6,43v18
		h-6.9V16.6l0.1-1L60.2,9.4L60.2,9.4L60.2,9.4z M108.5,37.2L77.6,19.5v15.6l30.9,17.8V37.2z"/>
	<g class="st1">
		<path d="M3.2,109.2v-37h7l15.6,25.3V72.2h6.4v37h-6.9L9.6,83.8v25.3H3.2z"/>
	</g>
	<g class="st1">
		<path d="M50.2,109.8c-2.4,0-4.6-0.6-6.6-1.9c-2-1.3-3.6-2.9-4.8-5c-1.2-2.1-1.8-4.4-1.8-7c0-1.9,0.3-3.7,1-5.4
			c0.7-1.7,1.6-3.2,2.8-4.4c1.2-1.3,2.6-2.3,4.2-3c1.6-0.7,3.3-1.1,5.1-1.1c2.1,0,3.9,0.4,5.7,1.3c1.7,0.9,3.2,2.1,4.4,3.6
			c1.2,1.5,2.1,3.2,2.6,5.2s0.7,4,0.4,6.1H44c0.2,1,0.7,1.9,1.2,2.7c0.6,0.8,1.3,1.4,2.1,1.9c0.9,0.5,1.8,0.7,2.9,0.7
			c1.1,0,2.2-0.3,3.1-0.8s1.7-1.3,2.3-2.3l6.6,1.5c-1.1,2.3-2.7,4.3-4.8,5.7C55.3,109.1,52.9,109.8,50.2,109.8z M43.7,93.3h13
			c-0.2-1.1-0.6-2-1.2-2.9c-0.6-0.9-1.4-1.5-2.3-2c-0.9-0.5-1.9-0.8-3-0.8c-1.1,0-2,0.3-2.9,0.8c-0.9,0.5-1.7,1.2-2.3,2
			C44.4,91.3,44,92.2,43.7,93.3z"/>
	</g>
	<g class="st1">
		<path d="M79.8,109.2h-6.4l-8.8-26.4h6.3l5.7,17.1l5.7-17.1h6.4l5.7,17.1l5.7-17.1h6.3l-8.8,26.4h-6.4L85.5,92L79.8,109.2z"/>
	</g>
	<g class="st1">
		<path d="M126.1,89.2h-5.1v20h-6.4v-20h-3.9v-6.4h3.9v-8.3h6.4v8.3h5.1V89.2z"/>
	</g>
	<g class="st1">
		<path d="M142.1,109.8c-2.4,0-4.6-0.6-6.6-1.9c-2-1.3-3.6-2.9-4.8-5c-1.2-2.1-1.8-4.4-1.8-7c0-1.9,0.3-3.7,1-5.4
			c0.7-1.7,1.6-3.2,2.8-4.4c1.2-1.3,2.6-2.3,4.2-3c1.6-0.7,3.3-1.1,5.1-1.1c2.4,0,4.6,0.6,6.6,1.9c2,1.3,3.6,2.9,4.8,5
			c1.2,2.1,1.8,4.5,1.8,7c0,1.9-0.3,3.7-1,5.4c-0.7,1.7-1.6,3.1-2.8,4.4c-1.2,1.3-2.6,2.3-4.2,3
			C145.6,109.5,143.9,109.8,142.1,109.8z M142.1,103.4c1.3,0,2.4-0.3,3.5-1c1-0.7,1.8-1.6,2.4-2.7s0.9-2.4,0.9-3.7
			c0-1.4-0.3-2.6-0.9-3.8c-0.6-1.1-1.4-2-2.5-2.7c-1-0.7-2.2-1-3.4-1c-1.3,0-2.4,0.3-3.4,1c-1,0.7-1.8,1.6-2.4,2.7
			c-0.6,1.1-0.9,2.4-0.9,3.7c0,1.4,0.3,2.7,0.9,3.8c0.6,1.1,1.4,2,2.5,2.7C139.8,103.1,140.9,103.4,142.1,103.4z"/>
	</g>
	<g class="st1">
		<path d="M183.6,92.5v16.7h-6.4v-15c0-1-0.3-2-0.8-2.8s-1.2-1.5-2-2s-1.8-0.8-2.8-0.8s-2,0.3-2.8,0.8c-0.9,0.5-1.5,1.2-2,2
			s-0.8,1.8-0.8,2.8v15h-6.4l0-26.4h6.4l0,2.4c0.9-1,2-1.7,3.2-2.3c1.3-0.6,2.6-0.8,4-0.8c1.9,0,3.7,0.5,5.3,1.4s2.8,2.2,3.8,3.8
			S183.6,90.5,183.6,92.5z"/>
	</g>
</g>
</svg>
