<svg width="28" height="28" viewBox="0 0 28 28" fill="none" xmlns="http://www.w3.org/2000/svg">
<path d="M24.8891 22.5556H3.11127C2.90499 22.5556 2.70716 22.4736 2.5613 22.3278C2.41544 22.1819 2.3335 21.9841 2.3335 21.7778C2.3335 21.5715 2.41544 21.3737 2.5613 21.2278C2.70716 21.0819 2.90499 21 3.11127 21H24.8891C25.0953 21 25.2932 21.0819 25.439 21.2278C25.5849 21.3737 25.6668 21.5715 25.6668 21.7778C25.6668 21.9841 25.5849 22.1819 25.439 22.3278C25.2932 22.4736 25.0953 22.5556 24.8891 22.5556Z" fill="#333333"/>
<path d="M24.8891 14.7777H3.11127C2.90499 14.7777 2.70716 14.6958 2.5613 14.5499C2.41544 14.4041 2.3335 14.2062 2.3335 13.9999C2.3335 13.7937 2.41544 13.5958 2.5613 13.45C2.70716 13.3041 2.90499 13.2222 3.11127 13.2222H24.8891C25.0953 13.2222 25.2932 13.3041 25.439 13.45C25.5849 13.5958 25.6668 13.7937 25.6668 13.9999C25.6668 14.2062 25.5849 14.4041 25.439 14.5499C25.2932 14.6958 25.0953 14.7777 24.8891 14.7777Z" fill="#333333"/>
<path d="M24.8891 6.99989H3.11127C2.90499 6.99989 2.70716 6.91795 2.5613 6.77209C2.41544 6.62622 2.3335 6.42839 2.3335 6.22211C2.3335 6.01583 2.41544 5.818 2.5613 5.67214C2.70716 5.52628 2.90499 5.44434 3.11127 5.44434H24.8891C25.0953 5.44434 25.2932 5.52628 25.439 5.67214C25.5849 5.818 25.6668 6.01583 25.6668 6.22211C25.6668 6.42839 25.5849 6.62622 25.439 6.77209C25.2932 6.91795 25.0953 6.99989 24.8891 6.99989Z" fill="#333333"/>
</svg>
