<?xml version="1.0" encoding="utf-8"?>
<!-- Generator: Adobe Illustrator 23.1.0, SVG Export Plug-In . SVG Version: 6.00 Build 0)  -->
<svg version="1.1" id="Layer_1" xmlns="http://www.w3.org/2000/svg" xmlns:xlink="http://www.w3.org/1999/xlink" x="0px" y="0px"
	 viewBox="0 0 128 128" style="enable-background:new 0 0 128 128;" xml:space="preserve">
<style type="text/css">
	.st0{fill:#E88B8B;}
	.st1{fill:#EA6387;}
	.st2{opacity:0.8;fill:url(#SVGID_1_);enable-background:new    ;}
	.st3{opacity:0.8;fill:url(#SVGID_2_);enable-background:new    ;}
	.st4{fill:#FF9C9C;}
	.st5{fill:#422B0D;}
	.st6{fill:none;stroke:#000000;stroke-width:4;stroke-miterlimit:10;}
</style>
<path class="st0" d="M63.6,124.8c-24.8,0-51.6-15.6-51.6-49.7c0-34.1,26.8-49.7,51.6-49.7c13.8,0,26.5,4.5,35.9,12.8
	c10.2,9.1,15.7,21.9,15.7,36.9s-5.4,27.8-15.7,36.8C90.1,120.2,77.3,124.8,63.6,124.8z"/>
<path class="st1" d="M106.2,45.5c4.9,8.1,7.4,17.4,7.2,26.9c0,15-5.4,27.8-15.6,36.8c-9.4,8.3-22.2,12.9-35.9,12.9
	c-16.1,0-32.9-6.5-42.8-20.4c9.6,15.7,27.6,23.1,44.6,23.1c13.7,0,26.5-4.6,35.9-12.9c10.2-9.1,15.6-21.8,15.6-36.8
	C115.2,63.8,112.1,53.7,106.2,45.5z"/>
<radialGradient id="SVGID_1_" cx="-424.2049" cy="311.2084" r="1" gradientTransform="matrix(19.0473 0 0 -17.1037 8100.9443 5277.7847)" gradientUnits="userSpaceOnUse">
	<stop  offset="0" style="stop-color:#ED7770"/>
	<stop  offset="0.9" style="stop-color:#ED7770;stop-opacity:0"/>
</radialGradient>
<path class="st2" d="M21-32.1c9.7,0,17.5-7.4,17.5-16.5S30.7-65.1,21-65.1S3.5-57.7,3.5-48.6S11.3-32.1,21-32.1z"/>
<radialGradient id="SVGID_2_" cx="-423.9944" cy="305.4786" r="1" gradientTransform="matrix(19.43 0 0 -19.43 8364.7295 7108.04)" gradientUnits="userSpaceOnUse">
	<stop  offset="0" style="stop-color:#ED7770"/>
	<stop  offset="0.9" style="stop-color:#ED7770;stop-opacity:0"/>
</radialGradient>
<path class="st3" d="M94.2,88.1c9.7,0,17.5-7.4,17.5-16.5s-7.8-16.5-17.5-16.5c-9.7,0-17.5,7.4-17.5,16.5S84.5,88.1,94.2,88.1z"/>
<path class="st4" d="M108.3-54.9l28.1,4l1.4-5.3l-21.7-3.1L108.3-54.9z M140-65c0,0,0.3-1.4,0.5-2.1l-8.4-1.2l-7.8,4.4l14.8,2.1
	L140-65z M97.7-49l1.1,3.2c0,0.2,0.1,0.3,0.2,0.5l34.7,5l1.3-5.3l-34.5-4.9L97.7-49z M110.6-32.8c0.1,0.1,0.3,0.2,0.4,0.3l20.1,2.9
	l1.3-5.3L103.6-39C105.8-36.8,108.1-34.7,110.6-32.8z"/>
<path class="st5" d="M186.2,10.6c1.5-1.3,2.4-3.1,2.6-5c0.3-2-0.3-3.9-1.6-5.4c-2.3-3.1-8.8-2.3-8.8-2.3c-1.7,0.1-3.8,0.9-3.5,2.9
	c0.2,0.6,0.5,1.1,0.9,1.5c0.4,0.4,1,0.7,1.5,0.8c2.6,0.6,6.2,0,6.3,2.6c0.1,2.9-4.4,1.7-4.7,4.8c-0.4,3.1,4.7,2.7,4.7,4.8
	c0,1.6-1.7,1.9-3.4,2.3c-1.5,0.3-4.4,0.8-4.6,2.5c-0.2,1.7,0.8,3.9,4.8,3.2c6.4-1,8.6-4.5,8.6-6.6C189,14.3,188,12.1,186.2,10.6z
	 M164.2-15.8l-0.2-0.2l-0.4-0.5l-0.5-0.6c-0.2-0.2-0.4-0.5-0.7-0.7c-0.2-0.2-0.5-0.5-0.8-0.7c-0.2-0.2-0.5-0.4-0.8-0.5
	c-0.2-0.1-0.4-0.2-0.6-0.2c-0.1,0-0.1,0-0.2,0H160h0.2h-0.5c-0.1,0,0,0,0,0h0.1c0.1,0,0,0,0,0c0,0-0.1,0-0.1,0
	c-0.2,0-0.4,0.1-0.6,0.2c-0.3,0.2-0.5,0.3-0.8,0.5c-0.3,0.2-0.5,0.4-0.8,0.7c-0.5,0.5-0.9,1-1.2,1.3l-0.5,0.6l-0.2,0.2
	c-0.7,0.7-1.6,1.2-2.5,1.3s-2-0.2-2.8-0.7c-1-0.7-1.6-2-1.4-3.3c0,0,0.1-0.4,0.2-1c0.3-1,0.7-1.9,1.2-2.7c0.8-1.4,1.8-2.7,3.1-3.7
	c0.9-0.7,1.8-1.2,2.9-1.6c0.3-0.1,0.6-0.2,0.9-0.3c0.3-0.1,0.7-0.2,1-0.2l0.6-0.1h2.2c0.3,0,0.6,0.1,0.9,0.1c1.7,0.3,3.3,1,4.6,2
	c1.3,1,2.4,2.2,3.2,3.6c0.3,0.5,0.6,1,0.8,1.5c0.2,0.4,0.3,0.9,0.4,1.3c0.1,0.4,0.1,0.5,0.1,0.7v0.2c0.1,0.9-0.1,1.9-0.7,2.6
	c-0.6,0.7-1.4,1.2-2.3,1.4c0,0-0.1,0-0.1,0C166.5-14.2,165.1-14.7,164.2-15.8z M201.4-15.8l-0.2-0.2l-0.4-0.5l-0.4-0.6
	c-0.2-0.2-0.4-0.5-0.7-0.7c-0.2-0.2-0.5-0.5-0.8-0.7c-0.2-0.2-0.5-0.4-0.8-0.5c-0.2-0.1-0.4-0.2-0.6-0.2c-0.1,0-0.1,0-0.2,0h-0.1
	h0.2h-0.5c-0.1,0,0,0,0,0h0.1c0.1,0,0,0,0,0h-0.1c-0.2,0-0.4,0.1-0.6,0.2c-0.3,0.2-0.5,0.3-0.8,0.5c-0.3,0.2-0.5,0.4-0.8,0.7
	c-0.5,0.5-0.9,1-1.2,1.3l-0.5,0.6l-0.2,0.2c-0.7,0.7-1.6,1.2-2.5,1.3s-2-0.2-2.8-0.7c-1.1-0.7-1.6-2-1.4-3.3c0,0,0.1-0.4,0.3-1
	c0.2-1,0.6-1.9,1.1-2.8c0.8-1.4,1.9-2.6,3.2-3.6c0.9-0.7,1.8-1.2,2.9-1.6c0.3-0.1,0.6-0.2,0.9-0.3c0.3-0.1,0.7-0.2,1-0.2l0.6-0.1
	h2.2c0.3,0,0.6,0.1,0.9,0.1c1.7,0.3,3.3,1,4.7,2c1.3,1,2.4,2.2,3.2,3.6c0.3,0.5,0.5,1,0.8,1.5c0.2,0.4,0.3,0.8,0.4,1.3
	c0.1,0.2,0.1,0.5,0.2,0.7v0.2c0.1,0.5,0,0.9-0.1,1.4c-0.1,0.4-0.3,0.9-0.6,1.2c-0.3,0.4-0.6,0.7-1,0.9c-0.4,0.2-0.8,0.4-1.3,0.5
	c0,0-0.1,0-0.1,0C203.7-14.2,202.3-14.7,201.4-15.8z"/>
<path class="st5" d="M88.4,67.5L77.5,56.6c-1.3-1.3-1.3-3.5,0-4.9l0,0c1.3-1.3,3.5-1.3,4.9,0l10.9,10.9c1.3,1.3,1.3,3.5,0,4.9l0,0
	C91.9,68.8,89.7,68.8,88.4,67.5z"/>
<path class="st6" d="M40.4,102.2c14.6-19.9,47.3,0,47.3,0"/>
<path class="st5" d="M92.7,56.1L81.8,66.9c-1.3,1.3-3.5,1.3-4.9,0l0,0c-1.3-1.3-1.3-3.5,0-4.9l10.9-10.9c1.3-1.3,3.5-1.3,4.9,0l0,0
	C94,52.5,94,54.7,92.7,56.1z"/>
<g>
	<path class="st5" d="M46.8,67.8L35.9,56.9c-1.3-1.3-1.3-3.5,0-4.9l0,0c1.3-1.3,3.5-1.3,4.9,0l10.9,10.9c1.3,1.3,1.3,3.5,0,4.9l0,0
		C50.3,69.1,48.1,69.1,46.8,67.8z"/>
	<path class="st5" d="M51.1,56.3L40.2,67.2c-1.3,1.3-3.5,1.3-4.9,0l0,0c-1.3-1.3-1.3-3.5,0-4.9l10.9-10.9c1.3-1.3,3.5-1.3,4.9,0l0,0
		C52.4,52.8,52.4,55,51.1,56.3z"/>
</g>
</svg>
