<?xml version="1.0" encoding="utf-8"?>
<!-- Generator: Adobe Illustrator 23.1.0, SVG Export Plug-In . SVG Version: 6.00 Build 0)  -->
<svg version="1.1" id="Layer_1" xmlns="http://www.w3.org/2000/svg" xmlns:xlink="http://www.w3.org/1999/xlink" x="0px" y="0px"
	 viewBox="0 0 962.7 599.2" style="enable-background:new 0 0 962.7 599.2;" xml:space="preserve">
<style type="text/css">
	.st0{clip-path:url(#SVGID_2_);}
	.st1{clip-path:url(#SVGID_4_);fill:#F9F9F9;}
	.st2{clip-path:url(#SVGID_6_);fill:#F9F9F9;}
	.st3{clip-path:url(#SVGID_8_);fill:#008080;}
	.st4{clip-path:url(#SVGID_10_);fill:#07AAA5;}
	.st5{clip-path:url(#SVGID_12_);fill:#FFFFFF;}
	.st6{clip-path:url(#SVGID_14_);fill:#102A54;}
	.st7{clip-path:url(#SVGID_16_);fill:#F9F9F9;}
	.st8{clip-path:url(#SVGID_18_);fill:#F9F9F9;}
	.st9{clip-path:url(#SVGID_20_);fill:#F9F9F9;}
	.st10{clip-path:url(#SVGID_22_);fill:#F9F9F9;}
	.st11{clip-path:url(#SVGID_24_);fill:#F9F9F9;}
	.st12{clip-path:url(#SVGID_26_);fill:#F9F9F9;}
	.st13{clip-path:url(#SVGID_28_);fill:#102A54;}
	.st14{clip-path:url(#SVGID_30_);fill:#FFFFFF;}
	.st15{opacity:0.61;clip-path:url(#SVGID_32_);fill:#F9F9F9;enable-background:new    ;}
	.st16{opacity:0.26;clip-path:url(#SVGID_34_);fill:#3C94F8;enable-background:new    ;}
	.st17{opacity:0.18;clip-path:url(#SVGID_36_);fill:#3C94F8;enable-background:new    ;}
	.st18{opacity:0.1;clip-path:url(#SVGID_38_);fill:#3C94F8;enable-background:new    ;}
	.st19{opacity:0.14;clip-path:url(#SVGID_40_);fill:#3C94F8;enable-background:new    ;}
	.st20{clip-path:url(#SVGID_42_);fill:#F9F9F9;}
	.st21{clip-path:url(#SVGID_44_);fill:#102A54;}
	.st22{clip-path:url(#SVGID_46_);fill:#102A54;}
	.st23{clip-path:url(#SVGID_48_);fill:#6CB597;}
	.st24{clip-path:url(#SVGID_50_);fill:#102A54;}
	.st25{clip-path:url(#SVGID_52_);fill:#102A54;}
	.st26{clip-path:url(#SVGID_54_);fill:#6CB597;}
	.st27{clip-path:url(#SVGID_56_);fill:#102A54;}
	.st28{clip-path:url(#SVGID_58_);fill:#F99747;}
	.st29{clip-path:url(#SVGID_60_);fill:#FFC0B1;}
	.st30{clip-path:url(#SVGID_62_);fill:#006663;}
	.st31{clip-path:url(#SVGID_64_);fill:#008080;}
	.st32{clip-path:url(#SVGID_66_);fill:#0C203F;}
	.st33{clip-path:url(#SVGID_68_);fill:#102A54;}
	.st34{clip-path:url(#SVGID_70_);fill:#FFC0B1;}
	.st35{clip-path:url(#SVGID_72_);fill:#102A54;}
	.st36{clip-path:url(#SVGID_74_);fill:#FFFFFF;}
	.st37{clip-path:url(#SVGID_76_);fill:#102A54;}
	.st38{clip-path:url(#SVGID_78_);fill:#102A54;}
	.st39{clip-path:url(#SVGID_80_);fill:#FFC0B1;}
	.st40{clip-path:url(#SVGID_82_);fill:#102A54;}
	.st41{clip-path:url(#SVGID_84_);fill:#F99747;}
	.st42{clip-path:url(#SVGID_86_);fill:#102A54;}
	.st43{clip-path:url(#SVGID_88_);fill:#F99747;}
	.st44{clip-path:url(#SVGID_90_);fill:#102A54;}
	.st45{clip-path:url(#SVGID_92_);fill:#102A54;}
	.st46{clip-path:url(#SVGID_94_);fill:#FFC0B1;}
	.st47{clip-path:url(#SVGID_96_);fill:#FFC0B1;}
	.st48{clip-path:url(#SVGID_98_);fill:#102A54;}
	.st49{clip-path:url(#SVGID_100_);fill:#7FC0FF;}
	.st50{clip-path:url(#SVGID_102_);fill:#7FC0FF;}
	.st51{clip-path:url(#SVGID_104_);fill:#102A54;}
	.st52{clip-path:url(#SVGID_106_);fill:#D2FFFE;}
	.st53{clip-path:url(#SVGID_108_);fill:#008080;}
	.st54{clip-path:url(#SVGID_110_);fill:#04AFAA;}
	.st55{fill:none;}
	.st56{fill:#2F3050;}
	.st57{fill:#1A1924;}
	.st58{fill:#4C4F81;}
	.st59{fill:#222231;}
	.st60{fill:#FFFFFF;}
	.st61{fill:#00B0C2;}
	.st62{fill:#E64645;}
	.st63{fill:#009EE2;}
	.st64{fill:#93C01F;}
	.st65{fill:#273C5C;}
	.st66{fill:#3D3F68;}
	.st67{fill:#7FC0FF;}
	.st68{fill:#102A54;}
	.st69{fill:#181936;}
	.st70{fill:#006663;}
	.st71{fill:#2A2F58;}
	.st72{fill:#008080;}
	.st73{fill:#06183C;}
	.st74{fill:#673438;}
	.st75{fill:#21263D;}
	.st76{fill:#F99747;}
	.st77{fill:#7E9BC1;}
	.st78{fill:#6E85B4;}
	.st79{fill:#9CB6E0;}
	.st80{fill:#A36F68;}
	.st81{fill:#8E5C57;}
	.st82{display:none;opacity:0.1;fill:#008080;}
	.st83{opacity:0.1;fill:#008080;}
	.st84{clip-path:url(#XMLID_2_);fill:#E57492;}
	.st85{opacity:0.52;}
	.st86{opacity:0.3;clip-path:url(#XMLID_3_);fill:#096866;}
	.st87{clip-path:url(#XMLID_3_);fill:#096866;}
	.st88{opacity:0.3;clip-path:url(#XMLID_4_);fill:#096866;}
	.st89{clip-path:url(#XMLID_4_);fill:#096866;}
	.st90{clip-path:url(#XMLID_5_);fill:#1C056D;}
	.st91{clip-path:url(#XMLID_6_);fill:#8E5C57;}
	.st92{clip-path:url(#XMLID_7_);fill:#1C056D;}
	.st93{clip-path:url(#XMLID_8_);fill:#8E5C57;}
	.st94{clip-path:url(#XMLID_9_);}
	.st95{clip-path:url(#XMLID_10_);fill:#DB7D37;}
	.st96{clip-path:url(#XMLID_11_);fill:#008080;}
	.st97{opacity:0.37;clip-path:url(#XMLID_12_);fill:#D4DFFF;}
	.st98{fill:#096866;}
	.st99{clip-path:url(#XMLID_13_);fill:#A36F68;}
	.st100{fill:#DB7D37;}
	.st101{clip-path:url(#XMLID_14_);fill:#DB7D37;}
	.st102{clip-path:url(#XMLID_15_);fill:#181936;}
	.st103{fill:#D4DFFF;}
	.st104{clip-path:url(#XMLID_16_);fill:#096866;}
	.st105{fill:#FC476A;}
	.st106{clip-path:url(#XMLID_17_);fill:#E57492;}
	.st107{fill:#1C056D;}
	.st108{fill:#1B3D9E;}
	.st109{clip-path:url(#XMLID_18_);fill:#E57492;}
	.st110{clip-path:url(#XMLID_19_);fill:#E57492;}
	.st111{clip-path:url(#XMLID_20_);fill:#E57492;}
	.st112{clip-path:url(#XMLID_20_);fill:#FFFFFF;}
	.st113{clip-path:url(#XMLID_21_);fill:#F99747;}
	.st114{fill:#FFE0C1;}
	.st115{clip-path:url(#XMLID_22_);fill:#008080;}
	.st116{clip-path:url(#XMLID_22_);fill:#096866;}
	.st117{clip-path:url(#XMLID_23_);fill:#0F0F0F;}
	.st118{opacity:0.12;fill:#008080;}
	.st119{opacity:0.41;}
	.st120{opacity:0.21;}
	.st121{fill:#F6BBBA;}
	.st122{fill:#232E33;}
	.st123{fill:#60C1D4;}
	.st124{fill:#FFDC80;}
	.st125{fill:#FEDA80;}
	.st126{fill:#F08974;}
	.st127{fill:#EA8080;}
	.st128{fill:#7E5A54;}
	.st129{fill:#54322D;}
	.st130{fill:#FBD4B9;}
	.st131{fill:#A54667;}
	.st132{fill:#F7B283;}
	.st133{fill:#F6B699;}
	.st134{opacity:0.12;clip-path:url(#SVGID_112_);fill-rule:evenodd;clip-rule:evenodd;fill:#008080;}
	.st135{clip-path:url(#SVGID_112_);fill-rule:evenodd;clip-rule:evenodd;fill:#CAE7E4;}
	.st136{clip-path:url(#SVGID_112_);fill-rule:evenodd;clip-rule:evenodd;fill:#9FC9D0;}
	.st137{clip-path:url(#SVGID_112_);fill-rule:evenodd;clip-rule:evenodd;fill:#243A9D;}
	.st138{clip-path:url(#SVGID_112_);fill-rule:evenodd;clip-rule:evenodd;fill:#1486CF;}
	.st139{clip-path:url(#SVGID_112_);fill-rule:evenodd;clip-rule:evenodd;fill:#08A4DD;}
	.st140{clip-path:url(#SVGID_112_);fill-rule:evenodd;clip-rule:evenodd;fill:#ED7D65;}
	.st141{clip-path:url(#SVGID_112_);fill-rule:evenodd;clip-rule:evenodd;fill:#EA684D;}
	.st142{clip-path:url(#SVGID_112_);fill-rule:evenodd;clip-rule:evenodd;fill:#F69B6E;}
	.st143{clip-path:url(#SVGID_112_);fill-rule:evenodd;clip-rule:evenodd;fill:#FFFFFF;}
	.st144{fill:#F5F5F5;}
	.st145{fill:#E0E0E0;}
	.st146{opacity:0.1;}
	.st147{fill:#333333;}
	.st148{fill:#27DEBF;}
	.st149{opacity:0.2;fill:#333333;enable-background:new    ;}
	.st150{opacity:0.15;fill:#333333;enable-background:new    ;}
	.st151{fill:#37474F;}
	.st152{fill:#263238;}
	.st153{fill:#455A64;}
	.st154{opacity:0.75;fill:#FFFFFF;enable-background:new    ;}
	.st155{opacity:0.5;fill:#333333;enable-background:new    ;}
	.st156{opacity:0.3;fill:#333333;enable-background:new    ;}
	.st157{opacity:0.6;fill:#333333;enable-background:new    ;}
	.st158{opacity:0.4;fill:#333333;enable-background:new    ;}
	.st159{opacity:0.45;fill:#333333;enable-background:new    ;}
	.st160{opacity:0.15;fill:#27DEBF;enable-background:new    ;}
	.st161{opacity:0.3;fill:#27DEBF;enable-background:new    ;}
	.st162{fill:#FAFAFA;}
	.st163{fill:#EBEBEB;}
	.st164{opacity:0.5;}
	.st165{opacity:0.6;fill:#FFFFFF;enable-background:new    ;}
	.st166{fill:#F28F8F;}
	.st167{opacity:0.8;fill:#455A64;enable-background:new    ;}
	.st168{opacity:0.4;}
	.st169{fill:#FFA8A7;}
	.st170{fill:none;stroke:#E0E0E0;stroke-width:0.5;stroke-linecap:round;stroke-linejoin:round;}
	.st171{fill:#FAFAFA;stroke:#E0E0E0;stroke-width:0.92;stroke-miterlimit:10;}
	.st172{opacity:0.1;fill:#333333;enable-background:new    ;}
	.st173{opacity:0.5;fill:#FFFFFF;enable-background:new    ;}
	.st174{opacity:0.2;}
	.st175{fill:#F0F0F0;}
	.st176{opacity:0.4;fill:#FFFFFF;enable-background:new    ;}
	.st177{fill:#B16668;}
	.st178{opacity:0.85;fill:#FFFFFF;enable-background:new    ;}
	.st179{opacity:0.6;}
	.st180{opacity:3.000000e-02;fill:#FFFFFF;enable-background:new    ;}
	.st181{fill:#EAF2FC;}
	.st182{clip-path:url(#XMLID_24_);fill:#D4DFFF;}
	.st183{clip-path:url(#XMLID_25_);fill:#FFFFFF;}
	.st184{clip-path:url(#XMLID_25_);fill:#008080;}
	.st185{opacity:0.3;clip-path:url(#XMLID_26_);fill:#6880E4;}
	.st186{opacity:0.3;clip-path:url(#XMLID_27_);fill:#6880E4;}
	.st187{clip-path:url(#XMLID_28_);fill:#F99747;}
	.st188{clip-path:url(#XMLID_29_);fill:#8E5C57;}
	.st189{clip-path:url(#XMLID_29_);fill:#FFFFFF;}
	.st190{clip-path:url(#XMLID_30_);fill:#8E5C57;}
	.st191{clip-path:url(#XMLID_31_);fill:#008080;}
	.st192{fill:#FE8E9C;}
	.st193{clip-path:url(#XMLID_32_);fill:#008080;}
	.st194{clip-path:url(#XMLID_33_);fill:#1C056D;}
	.st195{clip-path:url(#XMLID_34_);fill:#E57492;}
	.st196{fill:#E57492;}
	.st197{clip-path:url(#XMLID_35_);fill:#F99747;}
	.st198{opacity:0.3;clip-path:url(#XMLID_36_);fill:#F99747;}
	.st199{opacity:0.27;}
	.st200{opacity:0.3;}
	.st201{opacity:0;fill:#190C00;}
	.st202{opacity:4.166667e-02;fill:#190C00;}
	.st203{opacity:8.333334e-02;fill:#190C00;}
	.st204{opacity:0.125;fill:#190C00;}
	.st205{opacity:0.1667;fill:#190C00;}
	.st206{opacity:0.2083;fill:#190C00;}
	.st207{opacity:0.25;fill:#190C00;}
	.st208{opacity:0.2917;fill:#190C00;}
	.st209{opacity:0.3333;fill:#190C00;}
	.st210{opacity:0.375;fill:#190C00;}
	.st211{opacity:0.4167;fill:#190C00;}
	.st212{opacity:0.4583;fill:#190C00;}
	.st213{opacity:0.5;fill:#190C00;}
	.st214{opacity:0.5417;fill:#190C00;}
	.st215{opacity:0.5833;fill:#190C00;}
	.st216{opacity:0.625;fill:#190C00;}
	.st217{opacity:0.6667;fill:#190C00;}
	.st218{opacity:0.7083;fill:#190C00;}
	.st219{opacity:0.75;fill:#190C00;}
	.st220{opacity:0.7917;fill:#190C00;}
	.st221{opacity:0.8333;fill:#190C00;}
	.st222{opacity:0.875;fill:#190C00;}
	.st223{opacity:0.9167;fill:#190C00;}
	.st224{opacity:0.9583;fill:#190C00;}
	.st225{fill:#190C00;}
	.st226{fill:url(#SVGID_113_);}
	.st227{fill:url(#SVGID_114_);}
	.st228{fill:url(#SVGID_115_);}
	.st229{fill:url(#SVGID_116_);}
	.st230{fill:url(#SVGID_117_);}
	.st231{fill:url(#SVGID_118_);}
	.st232{fill:url(#SVGID_119_);}
	.st233{fill:url(#SVGID_120_);}
	.st234{fill:url(#SVGID_121_);}
	.st235{fill:url(#SVGID_122_);}
	.st236{fill:url(#SVGID_123_);}
	.st237{fill:url(#SVGID_124_);}
	.st238{fill:url(#SVGID_125_);}
	.st239{fill:url(#SVGID_126_);}
	.st240{fill:url(#SVGID_127_);}
	.st241{fill:url(#SVGID_128_);}
	.st242{fill:url(#SVGID_129_);}
	.st243{fill:url(#SVGID_130_);}
	.st244{fill:url(#SVGID_131_);stroke:#A0A0A0;stroke-width:2;stroke-miterlimit:10;}
	.st245{fill:url(#SVGID_132_);stroke:#A0A0A0;stroke-width:2;stroke-miterlimit:10;}
	.st246{fill:url(#SVGID_133_);stroke:#A0A0A0;stroke-width:2;stroke-miterlimit:10;}
	.st247{fill:url(#SVGID_134_);stroke:#A0A0A0;stroke-width:2;stroke-miterlimit:10;}
	.st248{fill:url(#SVGID_135_);stroke:#A0A0A0;stroke-width:2;stroke-miterlimit:10;}
	.st249{fill:url(#SVGID_136_);stroke:#A0A0A0;stroke-width:2;stroke-miterlimit:10;}
	.st250{fill:url(#SVGID_137_);stroke:#A0A0A0;stroke-width:2;stroke-miterlimit:10;}
	.st251{fill:url(#SVGID_138_);stroke:#A0A0A0;stroke-width:2;stroke-miterlimit:10;}
	.st252{fill:url(#SVGID_139_);stroke:#A0A0A0;stroke-width:2;stroke-miterlimit:10;}
	.st253{fill:url(#SVGID_140_);stroke:#A0A0A0;stroke-width:2;stroke-miterlimit:10;}
	.st254{fill:url(#SVGID_141_);stroke:#A0A0A0;stroke-width:2;stroke-miterlimit:10;}
	.st255{fill:url(#SVGID_142_);stroke:#A0A0A0;stroke-width:2;stroke-miterlimit:10;}
	.st256{fill:url(#SVGID_143_);}
	.st257{fill:url(#SVGID_144_);}
	.st258{fill:url(#SVGID_145_);}
	.st259{fill:url(#SVGID_146_);}
	.st260{fill:#525575;}
	.st261{fill:url(#SVGID_147_);}
	.st262{fill:url(#SVGID_148_);}
	.st263{fill:url(#SVGID_149_);}
	.st264{fill:url(#SVGID_150_);}
	.st265{fill:url(#SVGID_151_);}
	.st266{fill:url(#SVGID_152_);}
	.st267{fill:url(#SVGID_153_);}
	.st268{fill:url(#SVGID_154_);}
	.st269{fill:url(#SVGID_155_);}
	.st270{fill:url(#SVGID_156_);}
	.st271{fill:url(#SVGID_157_);}
	.st272{fill:url(#SVGID_158_);}
	.st273{fill:url(#SVGID_159_);}
	.st274{fill:url(#SVGID_160_);}
	.st275{fill:url(#SVGID_161_);}
	.st276{fill:url(#SVGID_162_);}
	.st277{fill:url(#SVGID_163_);}
	.st278{fill:url(#SVGID_164_);}
	.st279{fill:url(#SVGID_165_);}
	.st280{fill:url(#SVGID_166_);}
	.st281{fill:url(#SVGID_167_);}
	.st282{fill:url(#SVGID_168_);}
	.st283{fill:url(#SVGID_169_);}
	.st284{fill:url(#SVGID_170_);}
	.st285{fill:url(#SVGID_171_);}
	.st286{fill:url(#SVGID_172_);}
	.st287{fill:#E6E6E6;}
	.st288{fill:#373A5A;}
	.st289{fill:#F5CDBD;}
	.st290{fill:#EB8568;}
	.st291{fill:#FFCE8F;}
	.st292{fill:#FFF1E9;}
	.st293{fill:#F7BE4A;}
	.st294{fill:#FF9158;}
	.st295{fill:#FF9768;}
	.st296{fill:#FFCBB7;}
	.st297{fill:#54476C;}
	.st298{fill:#BDD2F5;}
	.st299{fill:#FFC799;}
	.st300{fill:#FFB798;}
	.st301{fill:#FFC19F;}
	.st302{fill:#FFEAD8;}
	.st303{fill:#FFA55C;}
	.st304{fill:#676982;}
	.st305{fill:#51546F;}
	.st306{fill:#FF7B58;}
	.st307{fill:#F7B245;}
	.st308{fill:#7F8195;}
	.st309{fill:url(#SVGID_173_);}
	.st310{filter:url(#Adobe_OpacityMaskFilter);}
	.st311{mask:url(#SVGID_174_);}
	.st312{opacity:0.5;fill:url(#SVGID_175_);}
	.st313{fill:#031F33;}
	.st314{fill:url(#SVGID_176_);}
	.st315{fill:#CECECE;}
	.st316{fill:url(#SVGID_177_);}
	.st317{opacity:0.25;fill:url(#SVGID_178_);}
	.st318{fill:url(#SVGID_179_);}
	.st319{opacity:0.25;fill:url(#SVGID_180_);}
	.st320{fill:#F73C5A;}
	.st321{opacity:0.25;fill:url(#SVGID_181_);}
	.st322{opacity:0.5;fill:url(#SVGID_182_);}
	.st323{fill:#042947;}
	.st324{opacity:0.25;fill:url(#SVGID_183_);}
	.st325{opacity:0.5;fill:url(#SVGID_184_);}
	.st326{fill:url(#SVGID_185_);}
	.st327{opacity:0.5;fill:url(#SVGID_186_);}
	.st328{fill:#E8E8E8;}
	.st329{fill:#0A7BFC;}
	.st330{fill:#D1D1D1;}
	.st331{opacity:0.5;fill:url(#SVGID_187_);}
	.st332{fill:#CCCCCC;}
	.st333{fill:#065EB5;}
	.st334{fill:#FF9A55;}
	.st335{fill:#FFAD71;}
	.st336{fill:#BABABA;}
	.st337{opacity:0.5;fill:url(#SVGID_188_);}
	.st338{filter:url(#Adobe_OpacityMaskFilter_1_);}
	.st339{filter:url(#Adobe_OpacityMaskFilter_2_);}
	.st340{mask:url(#SVGID_189_);fill:url(#SVGID_190_);}
	.st341{opacity:0.5;fill:url(#SVGID_191_);}
	.st342{fill:url(#SVGID_192_);}
	.st343{fill:#FFB680;}
	.st344{opacity:0.25;fill:url(#SVGID_193_);}
	.st345{opacity:0.25;fill:url(#SVGID_194_);}
	.st346{fill:url(#SVGID_195_);}
	.st347{opacity:0.25;fill:url(#SVGID_196_);}
	.st348{opacity:0.5;fill:url(#SVGID_197_);}
	.st349{opacity:0.5;fill:url(#SVGID_198_);}
	.st350{opacity:0.25;fill:url(#SVGID_199_);}
	.st351{opacity:0.25;fill:url(#SVGID_200_);}
</style>
<path class="st82" d="M311.7,504.2c44.8,4.6,89.9,6.4,134.1,7.1c104.3,1.8,208.8-6.7,311.5-25.4c70.6-12.8,131.7-41.8,143.9-118.7
	c15.8-99.8-33-225.9-141.9-244.6c-33.7-5.8-68.7-5.5-101-16.6c-48.2-16.4-85.7-55.5-136.7-64.8c-52.1-9.4-110,1.7-151.8,36.6
	c-18.4,15.3-34.1,33.3-48.8,52.1c-11.4,14.6-21.9,32.8-39.2,41c-21.2,10.1-45.9,2.1-69.2-1c-39.9-5.3-86.9,7.6-116.7,35.3
	C64.7,234.3,55.4,288,59.6,328.3c5.5,52.8,31.6,102.4,76.8,131.6C187.4,492.9,252.8,498.2,311.7,504.2z"/>
<g>
	<g>
		<path class="st80" d="M642,169c0,0-20.3,8.3-26.7,9.6c-4.6,0.9-5.4-5.8-5.9-9.9c-0.5-4.1,10.3-14.9,21.7-20.5
			C639.9,143.9,643.1,167.4,642,169z"/>
		<path class="st100" d="M686.6,152.4c-15.3,10.1-51.7,28.9-51.7,28.9s-8.3-3.7-13.2-14.7c-4.5-10.1-3.3-15.9-3.3-15.9
			s32.3-23.4,46.3-31.9c11.7-7.1,21.9-5.6,30.8,3.9C705,132.7,698.9,144.2,686.6,152.4z"/>
	</g>
	<g>
		<path class="st81" d="M608.3,87.7c4.9-2.9,5.2-7.7,7.7-7.8c1.4,0,1.5,4.6-0.4,8.3c-1.3,2.6-2.2,5.1-7.3,6.7
			C606.4,95.5,608.3,87.7,608.3,87.7z"/>
		<path class="st80" d="M617.6,171.4c1.7-10.3-13.5-59.2-12.9-69c0.6-9.9,7.7-5.7,7.6-15.6c-0.1-7.7-1-7.1-11.9-7.4
			c-6.2-0.2-2.3,5.1-1.5,14.5c0.7,9.4,0,24.5-0.8,39.2c-0.8,14.6-0.9,25.3,0.8,33.9c1.3,6.9,9.4,14.2,16.8,11.8
			C623.2,176.1,617.4,172.4,617.6,171.4z"/>
	</g>
</g>
<linearGradient id="SVGID_2_" gradientUnits="userSpaceOnUse" x1="670.7264" y1="103.1356" x2="578.0312" y2="149.234">
	<stop  offset="0" style="stop-color:#FFFFFF"/>
	<stop  offset="1" style="stop-color:#B7B7B7"/>
</linearGradient>
<path style="opacity:0.5;fill:url(#SVGID_2_);" d="M664,118.9c-1,0.6-2.1,1.3-3.2,2c-2.1,1.8-4.8,4.5-6.4,7.3c-2.8,5-4,6.1-5.5,0.6
	c-4.5,3.1-9.2,6.3-13.4,9.3c-0.1,7.1-0.8,16.1-0.8,18.5c0,2.5-4.1,3.4-9.4,6.2c-5.3,2.7-15.4,10.8-16.7-2.5
	c-1.3-13.3-5.7-51.3-6.1-56.1c-0.4-4.8-1.4-7.5,1.3-7.8c0.9-0.1,1.9-0.1,3-0.1c0.6-0.8,1.2-1.4,1.9-1.9c5.2-1.6,6-4.1,7.3-6.7
	c1.9-3.7,1.8-8.4,0.4-8.3c-1.6,0-2.3,1.9-3.8,4c-0.4-4.8-2.4-4.4-11.8-4.7c-6.2-0.2-2.3,5.1-1.5,14.5c0.7,9.4,0,24.5-0.8,39.2
	c-0.8,14.6-0.9,25.2,0.8,33.8c1.3,6.9,9.4,14.2,16.8,11.7h0c2.5-0.5,6.8-1.9,11.3-3.6c4,4.6,7.9,6.4,7.9,6.4s30.3-15.6,47.2-26
	c1.7-4.9,3-8.9,3-9.5c-0.1-1.8-14.3-21.8-14.3-21.8L664,118.9z"/>
<g>
	<path class="st313" d="M663.4,86.9C663.4,86.9,663.5,86.9,663.4,86.9L663.4,86.9l-3.4-0.2v5l3.5-0.2v0c0,0-0.1,0-0.1,0
		c0.8,0,1.5-1,1.5-2.3C664.9,87.9,664.3,86.9,663.4,86.9z"/>
	<linearGradient id="SVGID_4_" gradientUnits="userSpaceOnUse" x1="552.3075" y1="89.1988" x2="662.7774" y2="89.1988">
		<stop  offset="0" style="stop-color:#094484"/>
		<stop  offset="1" style="stop-color:#06335B"/>
	</linearGradient>
	<path style="fill:url(#SVGID_4_);" d="M661,86.5C661,86.5,661,86.5,661,86.5L661,86.5l-108.7-6.2v17.8L661,91.9v0c0,0-0.1,0,0,0
		c1,0,1.7-1.2,1.7-2.7C662.8,87.7,662,86.5,661,86.5z"/>
	<path class="st60" d="M555.7,89.2c0,4.9-1.6,8.9-3.6,8.9c-2,0-3.6-4-3.6-8.9c0-4.9,1.6-8.9,3.6-8.9
		C554.1,80.3,555.7,84.3,555.7,89.2z"/>
	<path class="st315" d="M572.6,81.5c1.3,1.1,2.2,4.1,2.2,7.7c0,3.6-0.9,6.6-2.2,7.7l2-0.1c1.1-1.9,1.7-4.8,1.7-7.6
		c0-2.9-0.6-5.7-1.7-7.6L572.6,81.5z M627.1,84.6l-2-0.1c0.9,0.5,1.5,2.4,1.5,4.8c0,2.3-0.6,4.3-1.5,4.8l2-0.1c0.6-1.1,1-2.7,1-4.6
		C628.1,87.3,627.7,85.7,627.1,84.6z M608.4,83.5c1,0.6,1.8,3,1.8,5.7s-0.8,5.1-1.8,5.7l2.1-0.1c0.8-1.5,1.2-3.6,1.2-5.6
		c0-2-0.4-4.1-1.2-5.6L608.4,83.5z M591,82.5c1.1,0.9,1.9,3.6,1.9,6.7c0,3.1-0.8,5.8-1.9,6.7l2-0.1c1-1.7,1.4-4.2,1.4-6.6
		s-0.5-4.9-1.4-6.6L591,82.5z"/>
</g>
<path class="st315" d="M664.7,88.5h-11.1c-2.9,0-3.8,0.3-3.7-1.9c0-0.3,0-0.5-0.1-0.8l-24-1.3l-0.8,0l-0.3,0c1.4,0.2,2.7,1,3.3,3
	c0.6,2.3-3.5,1.8-9.8,1.8c-6.2,0-7.8-0.6-7.6-2.4c0.2-1.8,1.1-3.2,3.1-3c0,0,0.1,0,0.1,0l-3.4-0.2l-0.8,0l-15.3-0.9
	c-0.1,0.7-0.2,1.5-0.1,2.6c0.4,3.7-1.2,3.6-4.6,3.6c-3.3,0-23.8,0.3-32,0.3c-8.2,0-7.6-0.7-7.4-4.4c0.2-3.7,2-4.5,2-4.5s0,0,0,0
	c0,0-0.1,0-0.1,0c0,0,0.1,0,0.1,0l0,0v0c-2,0.2-3.4,4.1-3.4,8.9s1.4,8.7,3.4,8.9v0l0,0c0,0,0,0,0,0c0,0,0.1,0,0.1,0l20.2-1.1l2-0.1
	l17.7-1l0.8,0l16.6-0.9l0.8,0l14.6-0.8l0.9,0l35-2v0c0,0-0.1,0,0,0c0.3,0,0.7-0.1,0.9-0.3l1.6-0.1v0c0,0-0.1,0-0.1,0
	c0.8,0,1.4-1.1,1.4-2.4C664.8,88.9,664.7,89,664.7,88.5z M624.3,84.4L624.3,84.4L624.3,84.4L624.3,84.4z"/>
<g>
	
		<linearGradient id="SVGID_6_" gradientUnits="userSpaceOnUse" x1="3364.1621" y1="441.5452" x2="3369.5989" y2="656.3013" gradientTransform="matrix(1 0 0 1 -2722.6426 0)">
		<stop  offset="0" style="stop-color:#FF3B73"/>
		<stop  offset="1" style="stop-color:#2E1158"/>
	</linearGradient>
	<path style="fill:url(#SVGID_6_);" d="M627.6,528.8c0,0,26.6-7.2,28.5-7.8c2.1-0.7,5.5-2,6,5.3c0.4,7.3,0.7,9.6,0.7,9.6
		s-30.8,0.2-34.1-0.2C625.4,535.3,622.7,532.7,627.6,528.8z"/>
	<path class="st98" d="M640.2,266.4c0,0,4.5,92.5,6.1,111c1.6,18.5,36.2,21.2,44.9-3.1c8.7-24.3,20.2-58,19.6-82.4
		c-0.7-24.4-6.9-42.8-24.4-56.6C668.9,221.5,638.9,241.5,640.2,266.4z"/>
	<path class="st98" d="M650.1,355.8c-6.3,17.2-4,34.4-2.8,61.8c1.2,27.5,4.4,106.3,4.4,106.3s1.7,1.2,3.9,1.1c2.2-0.1,3.8-1,3.8-1
		s0.9-19.6,4.9-32.3c4-12.7,16.4-72.1,19.5-88.2c3.1-16,5.3-49.8-12.5-51.9C653.4,349.5,651.3,352.7,650.1,355.8z"/>
</g>
<linearGradient id="SVGID_8_" gradientUnits="userSpaceOnUse" x1="667.9691" y1="555.2075" x2="667.9691" y2="117.5722">
	<stop  offset="0" style="stop-color:#FFFFFF"/>
	<stop  offset="1" style="stop-color:#B7B7B7"/>
</linearGradient>
<path style="opacity:0.25;fill:url(#SVGID_8_);" d="M686.4,235.3c-17.5-13.8-47.4,6.2-46.2,31.2c0,0,0.2,3.9,0.5,10.3
	c2.8,1.9,6.9,4.2,12.9,6.3c15.2,5.3,22.6,4.6,24.7,20.8c2.1,16.2,2.8,29.3-5.9,54.2c-8.7,24.9-7.4,47.1-10.9,78.4
	c-3.5,31.2-5.6,59.4-5.7,73.9c-0.2,14.6,2.6,22.3-7.4,22.3H632c-3.2,0-2.7-4.2,1.3-5.3v0c-3.5,0.8-5.4,1.4-5.4,1.4
	c-4.9,3.9-2.4,6.5,0.9,6.9c3.3,0.4,34.1,0.2,34.1,0.2s-0.3-2.3-0.7-9.6c-0.2-3.7-1.2-5.2-2.5-5.7c0.5-6.2,1.7-19.4,4.7-28.9
	c4-12.7,16.4-72.1,19.5-88.2c1-5.4,2-12.8,2.1-20.3c2.2-2.4,4-5.4,5.3-8.9c8.7-24.3,20.2-58,19.6-82.4
	C710.1,267.5,703.8,249.1,686.4,235.3z"/>
<g>
	<path class="st72" d="M676.7,258.8c0,0,17,108.1,21.3,126.1c4.3,18,36,11.6,41.1-13.7c5.2-25.3,15.2-74,11.1-98
		c-4.2-24-13-41.2-32.2-52.2C698.6,209.9,671.9,234.4,676.7,258.8z"/>
	
		<linearGradient id="SVGID_10_" gradientUnits="userSpaceOnUse" x1="-854.4897" y1="431.3694" x2="-848.4827" y2="668.6467" gradientTransform="matrix(-1 0 0 1 -129.7949 0)">
		<stop  offset="0" style="stop-color:#FF3B73"/>
		<stop  offset="1" style="stop-color:#2E1158"/>
	</linearGradient>
	<path style="fill:url(#SVGID_10_);" d="M713.3,526.3c0-0.8,0.1-1.5,0.3-2.1c0.9-4.8,3.8-3.8,5.7-3.2c0.3,0.1,1.3,0.4,2.8,0.8
		c1.5-0.4,2.5-0.7,2.8-0.8c1.9-0.6,4.8-1.7,5.7,3.2c0.1,0.6,0.2,1.3,0.3,2.1c0.4,7.3,0.7,9.6,0.7,9.6s-4.1,0-9.5,0
		c-5.4,0-9.5,0-9.5,0S712.8,533.5,713.3,526.3z"/>
	<path class="st72" d="M699,355.2c-4.5,17.8-0.3,34.6,3.8,61.8c4.1,27.2,15.7,105.1,15.7,105.1s1.1,0.9,4,0.9c2.6,0,3.7-1.4,3.7-1.4
		s10.1-106.6,11.4-122.9c1.4-16.3,0-50.1-18-50.1C701.6,348.6,699.8,352,699,355.2z"/>
</g>
<linearGradient id="SVGID_12_" gradientUnits="userSpaceOnUse" x1="713.5114" y1="555.1721" x2="713.5114" y2="117.5814">
	<stop  offset="0" style="stop-color:#FFFFFF"/>
	<stop  offset="1" style="stop-color:#B7B7B7"/>
</linearGradient>
<path style="opacity:0.25;fill:url(#SVGID_12_);" d="M717.8,220.9c-19.3-11-46,13.4-41.2,37.9c0,0,2,12.8,4.8,30.3
	c4.9,0.1,14.2,0.3,24.5-0.1c15.2-0.5,22.8-1.3,21.2,20.7c-1.7,22.1-8.2,47.4-9.6,59c-1.4,11.6,0.5,25.4,1.8,57.6
	c1.3,32.2,2.7,75.6,2.8,84.5c0.1,9-0.4,13.9,1.9,13.9c2.2,0,4.8-1.7,4.8,2.9c0,4.5,0.7,6-7.2,6h-8.7c-0.1,1.5-0.2,2.1-0.2,2.1
	s4.1,0.1,9.5,0.1c5.4,0,9.5,0,9.5,0s-0.3-2.3-0.7-9.5c0-0.8-0.1-1.5-0.3-2.1c-0.7-3.8-2.7-4-4.4-3.6c1.1-11.4,10-106.5,11.3-121.8
	c0.5-5.9,0.6-14-0.2-22c0.7-1.8,1.3-3.6,1.7-5.6c5.2-25.3,15.2-74,11.1-98C745.9,249.2,737,231.9,717.8,220.9z"/>
<path class="st320" d="M679.6,114.1c-28.1,2.2-29.2,29.1-31.7,50.7c-3.9,35.2-9.6,102.7-9.6,102.7s11.6,13.7,53,13.3
	c62.8-0.6,59.8-10.1,59.8-10.1s-2.3-63.9-15.4-127.4c-2.9-14.3-14.5-27.5-37.5-29.4C691.7,113.3,686.5,113.6,679.6,114.1z"/>
<path class="st76" d="M679.6,114.1c-28.1,2.2-29.2,29.1-31.7,50.7c-3.9,35.2-9.6,102.7-9.6,102.7s11.6,13.7,53,13.3
	c62.8-0.6,59.8-10.1,59.8-10.1s-2.3-63.9-15.4-127.4c-2.9-14.3-14.5-27.5-37.5-29.4C691.7,113.3,686.5,113.6,679.6,114.1z"/>
<linearGradient id="SVGID_14_" gradientUnits="userSpaceOnUse" x1="675.2072" y1="157.6837" x2="688.5132" y2="211.59">
	<stop  offset="0" style="stop-color:#FFFFFF"/>
	<stop  offset="1" style="stop-color:#B7B7B7"/>
</linearGradient>
<path style="opacity:0.25;fill:url(#SVGID_14_);" d="M691.3,280.8c62.8-0.6,59.8-10.1,59.8-10.1s-2.3-63.9-15.4-127.4
	c-2.9-14.3-14.5-27.5-37.5-29.4c-6.6-0.6-11.8-0.3-18.7,0.3c-15.9,1.3-23.1,10.3-26.9,21.9c3.2-5.9,10.4-13.3,13.9-13.4
	c3.5-0.1,2.2,9.8,7,13.4c4.9,3.6-8.5,13.9-14.1,16.5c-5.2,2.5-7.1-5.6-8.2-12c-1.9,7.8-2.6,16.4-3.5,24.3c-1.2,10.9-2.6,24.9-3.9,39
	c10.6,2.5,20.7-4.2,30.7-9c11.8-5.6,14.6-7.2,22-10.6c7.4-3.4,13.1,13.2,14.1,46.6c1,33.3-6.6,43.3-33.4,42c-19.4-1-32.9-6.2-38.8-9
	c-0.2,2.4-0.3,3.7-0.3,3.7S649.9,281.2,691.3,280.8z"/>
<g>
	<g>
		<path class="st80" d="M640.3,92.9c4.9-3,5.1-7.8,7.7-7.9c1.4-0.1,1.6,5.2-0.8,8.2c-1.8,2.3-4.5,3.5-5,7.7
			C642,103.1,640.3,92.9,640.3,92.9z"/>
		<path class="st80" d="M637.8,184.4c-3.6-9.8-0.6-65.9-1.3-75.7c-0.7-9.9-6.1-9.1-6.1-19c0-7.7-6-4-6-5.7c0-2.8,7.4-7.8,18.2-1.1
			c5.3,3.3,0.3,7.7-0.3,17.1c-0.7,9.4,3.9,28.5,7.5,42.7c3.6,14.2,5.6,24.6,5.6,33.4c0,7-1.5,7.9-7.3,13.1
			C643.7,193,638.2,185.3,637.8,184.4z"/>
		<g>
			<path class="st80" d="M673.4,181.5c0,0-20.5,7.6-27,8.7c-4.6,0.8-5.2-6-5.6-10.1c-0.4-4.1,10.7-14.5,22.3-19.8
				C672,156.4,674.5,180,673.4,181.5z"/>
			<path class="st100" d="M718.4,166.3c-15.6,9.6-52.6,27.2-52.6,27.2s-8.2-3.9-12.7-15.1c-4.2-10.2-2.8-16-2.8-16
				s33-22.3,47.3-30.3c11.9-6.7,22.1-4.9,30.7,4.9C737.4,147.3,730.9,158.6,718.4,166.3z"/>
		</g>
	</g>
	<linearGradient id="SVGID_16_" gradientUnits="userSpaceOnUse" x1="718.178" y1="145.0241" x2="657.8212" y2="138.3913">
		<stop  offset="0" style="stop-color:#FFFFFF"/>
		<stop  offset="1" style="stop-color:#B7B7B7"/>
	</linearGradient>
	<path style="opacity:0.5;fill:url(#SVGID_16_);" d="M729,136.9c-0.5-0.6-1-1.1-1.6-1.7c-3.7,3.4-13.5,11.6-31.6,21
		c-23.6,12.3-42.5,18.3-46,18.9c-3.5,0.7-5.5-22.5-6.8-38.6c-1.3-16-3.1-33.8-4.4-36.8c-1.2-3-4.4-5.5-5.2-11
		c-0.8-5.6-2.9-9.7-7.3-6.8l0,0c-0.7,0.7-1,1.4-1,2c0,1.7,6-2,6,5.7c0,9.9,5.4,9.1,6.1,19c0.7,9.9-2.3,66,1.3,75.7
		c0.3,0.7,3.5,5.3,7,5.8c0.5,0.1,1,0.1,1.6,0c2.5-0.4,7-1.8,11.7-3.4c3.9,4.8,7.7,6.6,7.7,6.6s37-17.6,52.6-27.2
		C731.7,158.6,738.2,147.3,729,136.9z"/>
</g>
<path class="st80" d="M599.7,79.3c-5.5,0-4.8,5.1-4.5,8c0.3,2.9,8.1,3.2,11.3,2.8c3.1-0.3,1.2-7,3.6-7c2.7,0,1.7-3.6-2.1-3.9
	C605.5,79.1,601.4,79.3,599.7,79.3z"/>
<path class="st80" d="M608,79.3c-1.6,0.3-1.4,1.7-1.4,4.6c0,3.4-0.4,4.6-4.6,4.6s-4.8-2.3-4.7-5.5c0.1-2.1,1.7-3.1,2.8-3.6
	c-0.1,0-0.2,0-0.3,0c-5.5,0-4.8,5.1-4.5,8c0.3,2.9,8.1,3.2,11.3,2.8c3.1-0.3,1.2-7,3.6-7C612.8,83.2,611.8,79.6,608,79.3z"/>
<path class="st323" d="M676.7,113c2.5-1.1,6.7-0.7,11.8-0.7c5.2-0.1,11.5-0.5,13.6,0.8c1.1,0.7,2.2,13.8-6.9,20.3
	c-6.3,4.5-19.5,3.9-21.6-5.8C671.7,118.7,674.4,114,676.7,113z"/>
<path class="st323" d="M665.9,85.1c-9.2-7.5-14.4-36.6-1.2-39.5c20.2-4.4,14.2,9.8,23.4,9.5c20-0.6,26.5,9.8,23,29.2
	c-2.2,11.9-8.4,15.5-13,21.5c-2.6,3.3-4.7-12.8-15-17.8C673,83,665.9,85.1,665.9,85.1z"/>
<linearGradient id="SVGID_18_" gradientUnits="userSpaceOnUse" x1="721.3058" y1="105.5298" x2="644.962" y2="17.5188">
	<stop  offset="0" style="stop-color:#FFFFFF"/>
	<stop  offset="1" style="stop-color:#B7B7B7"/>
</linearGradient>
<path style="opacity:0.25;fill:url(#SVGID_18_);" d="M695.7,104.2c1,1.8,1.7,2.6,2.5,1.6c4.6-6,10.8-9.7,13-21.5
	c3.5-19.4-3-29.8-23-29.2c-9.2,0.3-3.2-13.9-23.4-9.5c-4.3,0.9-6.6,4.6-7.5,9.3l0,0c3.4-5,8.5-3.7,13.6-3c5.1,0.6,6,7.8,15.4,7.8
	c9.4,0,25.6,4.6,22.8,22.6C706.8,96.4,700.3,100.6,695.7,104.2z"/>
<g>
	<path class="st80" d="M698.3,115.9c0.1-15.8-3.4-25.4-8.3-38.1c0-0.5-18.7,3.1-23.7-6.7c0,0-1.2,12.8,0.7,23.4
		c1.8,10,4.7,15.4,14.1,10.5c-0.7,4.7-1.6,10.3-2.7,14.4c-2.3,8.3,2.9,11.7,6.8,12.2C689.1,132.2,698.2,131.9,698.3,115.9z"/>
	<path class="st80" d="M700.1,81.5c1.4,2.4-0.1,6.1-3.5,8.3c-3.4,2.2-7.3,2.1-8.7-0.3c-1.4-2.4,0.1-6.1,3.5-8.3
		C694.7,79,698.6,79.1,700.1,81.5z"/>
</g>
<linearGradient id="SVGID_20_" gradientUnits="userSpaceOnUse" x1="680.7858" y1="56.2687" x2="686.5976" y2="116.7819">
	<stop  offset="0" style="stop-color:#FFFFFF"/>
	<stop  offset="1" style="stop-color:#B7B7B7"/>
</linearGradient>
<path style="opacity:0.5;fill:url(#SVGID_20_);" d="M667.8,98.8c0,0.1,0.1,0.2,0.1,0.3c-0.1-0.2-0.1-0.3-0.2-0.5
	C667.7,98.6,667.8,98.7,667.8,98.8z M679.6,128.7c-0.1-0.1-0.2-0.2-0.3-0.4C679.4,128.5,679.5,128.6,679.6,128.7z M679.2,128.3
	C679.2,128.3,679.2,128.3,679.2,128.3C679.2,128.3,679.2,128.3,679.2,128.3L679.2,128.3z M696.4,89.8c3.4-2.2,5-5.9,3.5-8.3
	c-1.4-2.4-5.4-2.5-8.7-0.3c0,0,0,0-0.1,0c-0.4-1.1-0.9-2.3-1.3-3.4c0-0.5-18.7,3.1-23.7-6.7c0,0-0.1,0.7-0.1,1.8
	c0.5,2.1,2.3,5.6,8.2,7.3c8.9,2.7,13.8-0.3,14,0.8c0.2,1,2.2,3.7,3.5,3.3s5.9-3.2,6.9-1.2c1,2-2.4,6-4.6,6.7
	c-2.2,0.7-0.7,3.5-2.9,4.6c-2.2,1.1-13.4,7.7-15.7,8.5c-2.2,0.8-6.4-0.5-7.7-4c0.2,0.7,0.5,1.7,0.9,2.7c2,5,5.5,6.8,12.2,3.2
	c3.8-2.4,5.6-3.5,7.4-4.6c1.7-1.1,5,6,2.5,17c-2.4,10.7-7.9,15-11.3,11.3c1.5,1.8,3.6,2.7,5.5,2.9c3.9,0.5,13,0.3,13.1-15.8
	c0.1-10.1-1.3-17.7-3.7-25.1C695.2,90.5,695.8,90.2,696.4,89.8z"/>
<linearGradient id="SVGID_22_" gradientUnits="userSpaceOnUse" x1="425.9126" y1="444.662" x2="425.9126" y2="512.1215">
	<stop  offset="0" style="stop-color:#094484"/>
	<stop  offset="1" style="stop-color:#06335B"/>
</linearGradient>
<path style="fill:url(#SVGID_22_);" d="M497.5,535.7h-83.6c7.3,0,11.6-6,9.5-13.6l-62.1-227.3c-2.1-7.6-9.7-13.8-17.1-13.8h83.6
	c7.3,0,15,6.3,17.1,13.8L507,522.1C509.1,529.6,504.8,535.7,497.5,535.7z"/>
<linearGradient id="SVGID_24_" gradientUnits="userSpaceOnUse" x1="421.1964" y1="438.8432" x2="421.1964" y2="507.3404">
	<stop  offset="0" style="stop-color:#B7B7B7"/>
	<stop  offset="0.2159" style="stop-color:#BCBCBC"/>
	<stop  offset="0.4703" style="stop-color:#CACACA"/>
	<stop  offset="0.7432" style="stop-color:#E2E2E2"/>
	<stop  offset="1" style="stop-color:#FFFFFF"/>
</linearGradient>
<path style="opacity:0.5;fill:url(#SVGID_24_);" d="M497.6,522.1l-62.1-227.3c-2.1-7.6-9.7-13.8-17.1-13.8h-74.2
	c7.3,0,15,6.2,17.1,13.8l62.1,227.2c2.1,7.6-2.2,13.7-9.5,13.7H488C495.4,535.7,499.7,529.7,497.6,522.1z"/>
<image style="overflow:visible;" width="427" height="284" xlink:href="912CC2478E46949D.png"  transform="matrix(1 0 0 1 259 181.2)">
</image>
<path class="st144" d="M604.9,436.9c-2.1,7.6-9.7,13.8-17.1,13.8H278.9c-7.3,0-11.6-6.2-9.5-13.8l62.1-227.3
	c2.1-7.6,9.7-13.8,17.1-13.8h308.9c7.3,0,11.6,6.2,9.5,13.8L604.9,436.9z"/>
<path class="st72" d="M602.1,398.4c-1,3.8-4.9,6.9-8.5,6.9H298c-3.7,0-5.8-3.1-4.8-6.9l49.5-181.2c1-3.8,4.9-6.9,8.5-6.9h295.6
	c3.7,0,5.8,3.1,4.8,6.9L602.1,398.4z"/>
<g>
	<path class="st98" d="M453.8,428c-2.1,7.9-10.1,14.2-17.7,14.2c-7.6,0-12-6.4-9.9-14.2c2.1-7.9,10.1-14.2,17.7-14.2
		C451.5,413.7,455.9,420.1,453.8,428z"/>
	<path class="st315" d="M477.3,428c-1.3,4.6-5.9,8.4-10.4,8.4c-4.5,0-7.1-3.8-5.8-8.4c1.3-4.6,5.9-8.4,10.4-8.4
		C476,419.6,478.6,423.3,477.3,428z"/>
	<path class="st315" d="M418.9,428c-1.3,4.6-5.9,8.4-10.4,8.4c-4.5,0-7.1-3.8-5.8-8.4c1.3-4.6,5.9-8.4,10.4-8.4
		C417.5,419.6,420.1,423.3,418.9,428z"/>
	<path class="st315" d="M492.2,428c-0.6,2.2-2.8,3.9-4.8,3.9c-2.1,0-3.3-1.7-2.7-3.9c0.6-2.2,2.8-3.9,4.8-3.9
		C491.6,424.1,492.8,425.8,492.2,428z"/>
	<path class="st315" d="M395.3,428c-0.6,2.2-2.8,3.9-4.8,3.9c-2.1,0-3.3-1.7-2.7-3.9c0.6-2.2,2.8-3.9,4.8-3.9
		C394.6,424.1,395.9,425.8,395.3,428z"/>
</g>
<g>
	
		<image style="overflow:visible;" width="387" height="223" xlink:href="912CC2478E46949F.png"  transform="matrix(1 0 0 1 275 176.2)">
	</image>
	<path class="st98" d="M589.9,378.1c-1,3.8-4.9,6.9-8.5,6.9H285.8c-3.7,0-5.8-3.1-4.8-6.9l49.5-181.2c1-3.8,4.9-6.9,8.5-6.9h295.6
		c3.7,0,5.8,3.1,4.8,6.9L589.9,378.1z"/>
	<path class="st328" d="M634.6,189.7h-75.3h-30.9c-47.5,7.7-93.3,48.4-106.7,97.6c-13.4,49.1,10,89.8,53.3,97.5h31.2h75.1
		c3.7,0,7.5-3,8.5-6.8l49.5-181.3C640.4,192.9,638.2,189.7,634.6,189.7z"/>
	<g>
		<g>
			<g class="st164">
				<path class="st144" d="M527.8,279c0.2,0.3,0.1,0.7-0.2,0.9l-55.4,44.7c-0.3,0.3-0.7,0.2-0.9,0c-0.2-0.3-0.1-0.7,0.2-0.9
					l55.4-44.7C527.2,278.7,527.6,278.7,527.8,279z"/>
			</g>
			<g>
				<path class="st144" d="M512.2,280.3c0.8-0.7,1.9-0.7,2.4,0l17.7,25.9c0.5,0.7,0.2,1.8-0.7,2.4c-0.8,0.7-1.9,0.7-2.4,0
					l-17.7-25.9C511.1,282.1,511.4,281,512.2,280.3z"/>
			</g>
			<g>
				<path class="st144" d="M450,315.3c-0.2-1.3-1.5-1.9-2.9-1.3c-1.4,0.6-2.4,2.1-2.2,3.4c0.9,5.4,2.5,10.5,4.7,15.1
					c0.3,0.6,1,1,1.7,1c0.5,0,1.1-0.2,1.7-0.6c1.3-0.9,2-2.5,1.4-3.6C452.3,325,450.8,320.2,450,315.3z"/>
				<path class="st144" d="M457.9,335.3c-0.7-1-2.3-1-3.5,0c-1.2,1-1.7,2.6-1,3.6c0.4,0.5,0.7,1,1.1,1.5c0.4,0.5,0.9,0.7,1.5,0.7
					c0.7,0,1.4-0.3,2-0.8c1.2-1,1.6-2.7,0.9-3.6C458.6,336.2,458.3,335.7,457.9,335.3z"/>
				<path class="st144" d="M477.4,351c-4.4-1.9-8.5-4.4-12-7.4c-0.9-0.8-2.6-0.5-3.7,0.7c-1.1,1.2-1.2,2.8-0.3,3.6
					c3.8,3.3,8.1,6,12.9,8c0.3,0.1,0.5,0.2,0.8,0.2c1,0,2.1-0.6,2.8-1.7C478.8,352.9,478.5,351.5,477.4,351z"/>
				<path class="st144" d="M537.1,214.7c-38.8,0-79.3,32.6-90.2,72.7c-1.5,5.6-2.4,11.3-2.7,16.7c-0.1,1.4,1,2.2,2.5,1.9
					c1.4-0.3,2.6-1.7,2.7-3.1c0.2-5.1,1.1-10.3,2.5-15.5c10.2-37.3,47.8-67.6,83.8-67.6c36,0,57.1,30.3,46.9,67.6
					c-10.2,37.3-47.8,67.6-83.8,67.6c-4.4,0-8.6-0.4-12.6-1.3c-1.3-0.3-2.8,0.6-3.5,2c-0.7,1.4-0.2,2.8,1.1,3
					c4.3,1,8.9,1.4,13.6,1.4c38.8,0,79.3-32.6,90.2-72.7C598.5,247.4,575.9,214.7,537.1,214.7z"/>
			</g>
			<g>
				<path class="st329" d="M513.7,300c-0.9,0-1.5-0.8-1.2-1.7l15.6-57.1c0.3-0.9,1.2-1.7,2.1-1.7s1.5,0.8,1.2,1.7l-15.6,57.1
					C515.6,299.3,514.7,300,513.7,300z"/>
			</g>
			<path class="st144" d="M579,286.2h-9.4c-0.1,0-0.2,0.7-0.3,1.1c-0.1,0.5-0.2,0.9-0.4,1.5h9.4c0.2-0.5,0.3-0.9,0.4-1.5
				C578.8,286.9,578.9,286.2,579,286.2z M533.2,223.9l-2.6,9.7c0.3,0,0.9,0,1.4,0c0.4,0,0.9,0,1.3,0l2.6-9.7c-0.3,0-0.8,0-1.3,0
				C534.1,223.9,533.6,223.9,533.2,223.9z M465.1,287.3c0.1-0.4,0.2-1.1,0.3-1.1H456c-0.1,0-0.2,0.7-0.3,1.1
				c-0.1,0.5-0.2,0.9-0.4,1.5h9.4C464.8,288.2,464.9,287.8,465.1,287.3z M480.4,259.4l-6.8-4.8c-0.7,0.8-1.3,1.6-2,2.4l6.8,4.8
				C479.1,260.9,479.7,260.1,480.4,259.4z M579.5,257c-0.2-0.8-0.4-1.6-0.7-2.4l-9.4,4.8c0.2,0.8,0.5,1.6,0.7,2.4L579.5,257z
				 M555.2,240.2c0.7,0.4,1.3,0.9,1.9,1.4l7-8.4c-0.6-0.5-1.3-0.9-1.9-1.4L555.2,240.2z M505.2,240.1l-2.4-8.4
				c-0.9,0.4-1.8,0.9-2.7,1.4l2.4,8.4C503.4,241,504.3,240.6,505.2,240.1z M455,318.2c0.2,0.8,0.4,1.6,0.7,2.4l9.4-4.8
				c-0.3-0.8-0.5-1.6-0.7-2.4L455,318.2z M529.1,334.9l2.4,8.4c0.9-0.4,1.8-0.9,2.7-1.4l-2.4-8.4C530.9,334,530,334.4,529.1,334.9z
				 M554,315.6l6.8,4.8c0.7-0.8,1.3-1.6,2-2.4l-6.8-4.8C555.3,314.1,554.7,314.9,554,315.6z M501.1,341.4l-2.6,9.7
				c0.3,0,0.9,0,1.4,0c0.4,0,0.9,0,1.3,0l2.6-9.7c-0.3,0-0.9,0-1.3,0C502,341.4,501.4,341.4,501.1,341.4z M470.5,341.9
				c0.6,0.5,1.3,0.9,1.9,1.4l7-8.4c-0.7-0.4-1.3-0.9-1.9-1.4L470.5,341.9z"/>
			<path class="st330" d="M498.1,241.7l-1.8-4.2c-0.3,0.2-0.6,0.4-1,0.6l1.8,4.2C497.4,242.1,497.8,241.9,498.1,241.7z M487.4,249.5
				l-2.8-3.4c-0.3,0.3-0.6,0.5-0.9,0.8l2.8,3.4C486.9,250,487.2,249.7,487.4,249.5z M509.4,235.9l-0.7-4.7c-0.3,0.1-0.7,0.3-1,0.4
				l0.7,4.7C508.7,236.2,509.1,236,509.4,235.9z M527.1,231.4l0.9-5.1c-0.3,0-0.7,0.1-1,0.1l-0.9,5.1
				C526.4,231.5,526.8,231.5,527.1,231.4z M521.2,232.3l0.3-5c-0.3,0.1-0.7,0.1-1,0.2l-0.3,5C520.5,232.5,520.9,232.4,521.2,232.3z
				 M515.3,233.8l-0.2-4.9c-0.3,0.1-0.7,0.2-1,0.3l0.2,4.9C514.6,234,515,233.9,515.3,233.8z M467.4,275.3l-4.6-1.1
				c-0.2,0.3-0.3,0.7-0.5,1l4.6,1.1C467,276,467.2,275.6,467.4,275.3z M464.8,281.1l-4.8-0.5c-0.1,0.3-0.3,0.7-0.4,1l4.8,0.5
				C464.6,281.8,464.7,281.4,464.8,281.1z M474,264.1l-4-2.1c-0.2,0.3-0.4,0.6-0.7,0.9l4,2.1C473.6,264.7,473.8,264.4,474,264.1z
				 M470.4,269.6l-4.3-1.6c-0.2,0.3-0.4,0.7-0.6,1l4.3,1.6C470.1,270.3,470.2,269.9,470.4,269.6z M482.6,254l-3.2-3
				c-0.3,0.3-0.5,0.6-0.8,0.8l3.2,3C482,254.6,482.3,254.3,482.6,254z M461.5,293.2l-5.1,0.5c-0.1,0.3-0.1,0.7-0.2,1l5.1-0.5
				C461.3,293.9,461.4,293.5,461.5,293.2z M578.5,263.3c0-0.3-0.1-0.6-0.1-0.9l-5.1,2.1c0.1,0.3,0.1,0.6,0.1,0.9L578.5,263.3z
				 M570.2,254.1c0.1,0.3,0.2,0.6,0.4,0.8l4.9-3c-0.1-0.3-0.2-0.6-0.4-0.8L570.2,254.1z M568.2,250.3l4.6-3.4
				c-0.2-0.3-0.3-0.5-0.5-0.8l-4.6,3.4C567.9,249.8,568.1,250,568.2,250.3z M537.8,231.4c0.3,0,0.6,0.1,1,0.1l1.9-5.1
				c-0.3,0-0.6-0.1-1-0.1L537.8,231.4z M573.6,276.6l5.2-1.1c0-0.3,0.1-0.7,0.1-1l-5.2,1.1C573.7,275.9,573.6,276.3,573.6,276.6z
				 M573.8,270.9l5.2-1.6c0-0.3,0-0.7,0-1l-5.2,1.6C573.8,270.2,573.8,270.6,573.8,270.9z M548.3,233.8c0.3,0.1,0.6,0.2,0.9,0.3
				l2.9-4.9c-0.3-0.1-0.6-0.2-0.9-0.3L548.3,233.8z M543.2,232.3c0.3,0.1,0.6,0.1,0.9,0.2l2.4-5c-0.3-0.1-0.6-0.2-0.9-0.2
				L543.2,232.3z M561.4,241.7c0.2,0.2,0.4,0.4,0.6,0.6l4.1-4.2c-0.2-0.2-0.4-0.4-0.6-0.6L561.4,241.7z M553.1,235.9
				c0.3,0.1,0.5,0.3,0.8,0.4l3.3-4.7c-0.3-0.1-0.5-0.3-0.8-0.4L553.1,235.9z M569.8,242.3c-0.2-0.2-0.4-0.5-0.6-0.7l-4.4,3.8
				c0.2,0.2,0.4,0.5,0.5,0.7L569.8,242.3z M492.6,245.3l-2.3-3.8c-0.3,0.2-0.6,0.5-0.9,0.7l2.3,3.8
				C492,245.8,492.3,245.6,492.6,245.3z M512.7,342.7l-0.3,5c0.3-0.1,0.7-0.1,1-0.2l0.3-5C513.4,342.6,513.1,342.7,512.7,342.7z
				 M551.8,321l3.2,3c0.3-0.3,0.5-0.6,0.8-0.8l-3.2-3C552.3,320.5,552,320.8,551.8,321z M536.2,333.4l1.8,4.2c0.3-0.2,0.6-0.4,1-0.6
				l-1.8-4.2C536.9,333,536.6,333.2,536.2,333.4z M460.7,299l-5.2,1.1c0,0.3,0,0.7-0.1,1l5.2-1.1C460.7,299.7,460.7,299.4,460.7,299
				z M518.7,341.3l0.2,4.9c0.3-0.1,0.7-0.2,1-0.3l-0.2-4.9C519.3,341.1,519,341.2,518.7,341.3z M524.6,339.2l0.7,4.7
				c0.3-0.1,0.7-0.3,1-0.4l-0.7-4.7C525.3,339,524.9,339.1,524.6,339.2z M541.7,329.7l2.3,3.8c0.3-0.2,0.6-0.5,0.9-0.7l-2.3-3.8
				C542.3,329.2,542,329.5,541.7,329.7z M569.6,293.9l4.8,0.5c0.1-0.3,0.3-0.7,0.4-1l-4.8-0.5C569.8,293.2,569.7,293.6,569.6,293.9z
				 M572.8,282.4l5.1-0.5c0.1-0.3,0.1-0.7,0.2-1l-5.1,0.5C573,281.8,572.9,282.1,572.8,282.4z M567,299.7l4.6,1.1
				c0.2-0.3,0.3-0.7,0.5-1l-4.6-1.1C567.4,299,567.2,299.4,567,299.7z M564,305.4l4.3,1.6c0.2-0.3,0.4-0.7,0.6-1l-4.3-1.6
				C564.3,304.7,564.1,305.1,564,305.4z M560.4,310.9l4,2.1c0.2-0.3,0.4-0.6,0.7-0.9l-4-2.1C560.8,310.3,560.6,310.6,560.4,310.9z
				 M546.9,325.6l2.8,3.4c0.3-0.3,0.6-0.5,0.9-0.8l-2.8-3.4C547.5,325.1,547.2,325.3,546.9,325.6z M466.3,324.9l-4.6,3.4
				c0.2,0.3,0.3,0.5,0.5,0.8l4.6-3.4C466.6,325.4,466.4,325.1,466.3,324.9z M464,320.3l-4.9,3c0.1,0.3,0.2,0.6,0.4,0.8l4.9-3
				C464.2,320.8,464.1,320.6,464,320.3z M460.6,304.7l-5.2,1.6c0,0.3,0,0.7,0,1l5.2-1.6C460.7,305.4,460.7,305,460.6,304.7z
				 M456,312.3c0,0.3,0.1,0.6,0.2,0.9l5.1-2.1c-0.1-0.3-0.1-0.6-0.2-0.9L456,312.3z M464.8,332.9c0.2,0.2,0.4,0.5,0.6,0.7l4.4-3.8
				c-0.2-0.2-0.4-0.5-0.6-0.7L464.8,332.9z M493.9,348.6c0.3,0,0.6,0.1,1,0.1l1.9-5.1c-0.3,0-0.6-0.1-1-0.1L493.9,348.6z
				 M506.9,343.6l-0.9,5.1c0.3,0,0.7-0.1,1-0.1l0.9-5.1C507.5,343.5,507.2,343.5,506.9,343.6z M468.5,337c0.2,0.2,0.4,0.4,0.6,0.6
				l4.1-4.2c-0.2-0.2-0.4-0.4-0.6-0.6L468.5,337z M488.1,347.5c0.3,0.1,0.6,0.1,0.9,0.2l2.4-5c-0.3-0.1-0.6-0.1-0.9-0.2L488.1,347.5
				z M477.4,343.5c0.3,0.1,0.5,0.3,0.8,0.4l3.3-4.7c-0.3-0.1-0.5-0.3-0.8-0.4L477.4,343.5z M482.5,345.8c0.3,0.1,0.6,0.2,0.9,0.3
				l2.9-4.9c-0.3-0.1-0.6-0.2-0.9-0.3L482.5,345.8z"/>
		</g>
		<g>
			<g>
				<g>
					
						<radialGradient id="SVGID_26_" cx="946.9706" cy="337.5569" r="47.7535" gradientTransform="matrix(0.9999 0 -0.2719 0.9953 -475.8946 -88.4654)" gradientUnits="userSpaceOnUse">
						<stop  offset="0" style="stop-color:#B7B7B7"/>
						<stop  offset="0.2159" style="stop-color:#BCBCBC"/>
						<stop  offset="0.4703" style="stop-color:#CACACA"/>
						<stop  offset="0.7432" style="stop-color:#E2E2E2"/>
						<stop  offset="1" style="stop-color:#FFFFFF"/>
					</radialGradient>
					<path style="opacity:0.5;fill:url(#SVGID_26_);" d="M426.9,247.5c-7.2,26.2-34.4,47.5-60.7,47.5c-26.4,0-41.9-21.3-34.8-47.5
						c7.2-26.2,34.4-47.5,60.7-47.5C418.6,200,434.1,221.2,426.9,247.5z"/>
					<path class="st60" d="M418.7,247.5c-6.2,22.6-28.9,40.9-50.7,40.9c-21.8,0-34.5-18.3-28.4-40.9c6.2-22.6,28.9-40.9,50.7-40.9
						C412.2,206.6,424.9,224.9,418.7,247.5z"/>
					<path class="st332" d="M418.7,247.5c-6.2,22.6-28.9,40.9-50.7,40.9c-21.8,0-34.5-18.3-28.4-40.9c6.2-22.6,28.9-40.9,50.7-40.9
						C412.2,206.6,424.9,224.9,418.7,247.5z"/>
				</g>
				<path class="st333" d="M405.9,227.2c2-7.3-2.1-13.3-9.2-13.3c-1.1,0-2.2,0.1-3.2,0.4c-2.1-2.2-5.2-3.6-9-3.6
					c-8.8,0-18,7.4-20.7,16.5l-0.7,2c-3.4,12.4,2.8,22.5,14.8,22.9c12.2-0.4,24.3-10.5,27.6-22.9L405.9,227.2z"/>
				<path class="st329" d="M394.8,252.8h-34.4c-3.7,0-8,4.9-9.1,8.7l-5.1,18.5c5.2,5.2,12.6,8.3,21.6,8.3c8.9,0,17.8-3,25.9-8.1
					l5.1-18.7C399.9,257.7,398.5,252.8,394.8,252.8z"/>
				<polygon class="st334" points="383.8,256 369.7,256 372.1,247.3 386.2,247.3 				"/>
				<g>
					<g>
						<path class="st334" d="M397.8,235.7c0.9,1.3-0.1,3.6-2.2,5.3c-2.1,1.7-4.5,2-5.3,0.8c-0.9-1.3,0.1-3.6,2.2-5.3
							C394.6,234.8,397,234.4,397.8,235.7z"/>
						<path class="st334" d="M367,235.7c-1.6,1.3-1.9,3.6-0.7,5.3c1.2,1.7,3.4,2,4.9,0.8c1.6-1.3,1.9-3.6,0.7-5.3
							C370.8,234.8,368.6,234.4,367,235.7z"/>
					</g>
					<path class="st335" d="M388.9,227.1c-4.4,3.3-11.6,8.2-18.6,7.7c-0.3,0.7-0.5,1.4-0.7,2.2c-2.2,8.1,1.6,14.7,8.5,14.7
						c6.9,0,14.3-6.6,16.5-14.7c0.2-0.9,0.4-1.7,0.5-2.5C392.7,233.7,389.4,231.8,388.9,227.1z"/>
				</g>
				<path class="st334" d="M373.4,270.4c-0.1,0-0.2,0-0.4,0c-0.1,0-0.3,0-0.4,0H373.4z M366.6,253l-1.6,5.8
					c-1.7,6.3,1.9,11.4,7.8,11.6c6.1-0.2,12.4-5.3,14.2-11.6l1.6-5.8H366.6z"/>
			</g>
			<g>
				<path class="st336" d="M408.2,302.6c-0.4,1.4-1.8,2.6-3.2,2.6h-67.8c-1.4,0-2.2-1.1-1.8-2.6l0,0c0.4-1.4,1.8-2.6,3.2-2.6h67.8
					C407.8,300.1,408.6,301.2,408.2,302.6L408.2,302.6z"/>
				<path class="st336" d="M404.8,315.5c-0.4,1.4-1.8,2.6-3.2,2.6h-83.4c-1.4,0-2.2-1.1-1.8-2.6l0,0c0.4-1.4,1.8-2.6,3.2-2.6H403
					C404.3,312.9,405.1,314,404.8,315.5L404.8,315.5z"/>
				<path class="st336" d="M401.4,328.3c-0.4,1.4-1.8,2.6-3.2,2.6h-83.4c-1.4,0-2.2-1.1-1.8-2.6l0,0c0.4-1.4,1.8-2.6,3.2-2.6h83.4
					C401,325.7,401.8,326.9,401.4,328.3L401.4,328.3z"/>
				<path class="st336" d="M397.9,340.6c-0.4,1.4-1.8,2.6-3.2,2.6h-83.4c-1.4,0-2.2-1.1-1.8-2.6l0,0c0.4-1.4,1.8-2.6,3.2-2.6h83.4
					C397.5,338,398.3,339.2,397.9,340.6L397.9,340.6z"/>
				<path class="st336" d="M394.5,352.9c-0.4,1.4-1.8,2.6-3.2,2.6h-83.4c-1.4,0-2.2-1.1-1.8-2.6l0,0c0.4-1.4,1.8-2.6,3.2-2.6h83.4
					C394.1,350.4,394.9,351.5,394.5,352.9L394.5,352.9z"/>
			</g>
		</g>
	</g>
</g>
<g>
	<g>
		
			<image style="overflow:visible;opacity:0.4;" width="258" height="146" xlink:href="912CC2478E46949A.png"  transform="matrix(1 0 0 1 231 100.2)">
		</image>
		<path class="st60" d="M278.3,105.5c-3.7,0-7.5,3.1-8.5,6.8l-30.9,113.4c-1,3.6,1.2,6.7,4.8,6.7h194.2c3.7,0,7.5-3,8.5-6.6
			l30.9-113.4c1-3.6-1.2-6.8-4.8-6.8H278.3z"/>
		<linearGradient id="SVGID_28_" gradientUnits="userSpaceOnUse" x1="358.0793" y1="105.4661" x2="358.0793" y2="233.2724">
			<stop  offset="0" style="stop-color:#FFFFFF"/>
			<stop  offset="0.5394" style="stop-color:#C9C9C9"/>
			<stop  offset="1" style="stop-color:#FFFFFF"/>
		</linearGradient>
		<path style="opacity:0.5;fill:url(#SVGID_28_);" d="M417.9,229.7l7.8-28.2H453l0.7-3.1h-27.3l7.9-28.2h27.3l0.7-2.6h-27.3
			l7.8-28.8H470l0.7-2.1h-27.3l7.8-28.2h25.7c-0.8-2.1-2.4-3.1-4.5-3.1H278.3c-2.1,0-4.2,1-5.8,3.1h26.1l-7.8,28.2h-27.6l-0.7,2.1
			h27.6l-7.8,28.8h-27.6l-0.5,1.9l-0.2,0.7h27.6l-7.9,28.2h-27.6l0,0.1l-0.2,0.8l-0.5,2.2h27.6l-7.8,28.2h-26.1
			c0.8,1.5,2.4,2.6,4.5,2.6h194.2c2.1,0,4.2-1,5.8-2.6H417.9z M424,198.4h-27.9l7.9-28.2h27.9L424,198.4z M372.4,167.6h-27.6
			l7.8-28.8h27.6L372.4,167.6z M382.5,138.8h27.6l-7.8,28.8h-27.6L382.5,138.8z M342.5,167.6h-27.6l7.8-28.8h27.6L342.5,167.6z
			 M341.8,170.2l-7.9,28.2h-27.6l7.9-28.2H341.8z M344.2,170.2h27.6l-7.9,28.2h-27.6L344.2,170.2z M374.1,170.2h27.6l-7.9,28.2
			h-27.6L374.1,170.2z M432.6,167.6h-27.9l7.8-28.8h27.9L432.6,167.6z M448.8,108.5l-7.8,28.2h-27.9l7.8-28.2H448.8z M418.6,108.5
			l-7.8,28.2h-27.6l7.8-28.2H418.6z M388.7,108.5l-7.8,28.2h-27.6l7.8-28.2H388.7z M358.7,108.5l-7.8,28.2h-27.6l7.8-28.2H358.7z
			 M300.9,108.5h27.9l-7.8,28.2h-27.9L300.9,108.5z M292.4,138.8h27.9l-7.8,28.8h-27.9L292.4,138.8z M284,170.2h27.9l-7.9,28.2
			h-27.9L284,170.2z M267.6,229.7l7.8-28.2h27.9l-7.8,28.2H267.6z M297.9,229.7l7.8-28.2h27.6l-7.8,28.2H297.9z M327.8,229.7
			l7.8-28.2h27.6l-7.8,28.2H327.8z M357.7,229.7l7.8-28.2h27.6l-7.8,28.2H357.7z M387.7,229.7l7.8-28.2h27.9l-7.8,28.2H387.7z"/>
	</g>
	<defs>
		<filter id="Adobe_OpacityMaskFilter" filterUnits="userSpaceOnUse" x="237.1" y="135.8" width="233.2" height="96.5">
			<feFlood  style="flood-color:white;flood-opacity:1" result="back"/>
			<feBlend  in="SourceGraphic" in2="back" mode="normal"/>
		</filter>
	</defs>
	<mask maskUnits="userSpaceOnUse" x="237.1" y="135.8" width="233.2" height="96.5" id="SVGID_30_">
		<g class="st310">
			<defs>
				<filter id="Adobe_OpacityMaskFilter_1_" filterUnits="userSpaceOnUse" x="237.1" y="135.8" width="233.2" height="96.5">
					<feFlood  style="flood-color:white;flood-opacity:1" result="back"/>
					<feBlend  in="SourceGraphic" in2="back" mode="normal"/>
				</filter>
			</defs>
			<mask maskUnits="userSpaceOnUse" x="237.1" y="135.8" width="233.2" height="96.5" id="SVGID_30_">
			</mask>
			<linearGradient id="SVGID_32_" gradientUnits="userSpaceOnUse" x1="436.5916" y1="129.0417" x2="309.2604" y2="228.2259">
				<stop  offset="0" style="stop-color:#FFFFFF"/>
				<stop  offset="1" style="stop-color:#000000"/>
			</linearGradient>
			<polygon style="mask:url(#SVGID_30_);fill:url(#SVGID_32_);" points="462.6,163.6 470.3,135.8 443.3,135.8 450.2,145.6 
				403.2,183.4 379,148.5 323.3,193.4 309.4,173.3 237.3,231.3 237.1,232.3 252.6,232.3 304.7,190.3 318.7,210.4 374.3,165.5 
				398.5,200.4 456.1,154.1 			"/>
		</g>
	</mask>
	<linearGradient id="SVGID_34_" gradientUnits="userSpaceOnUse" x1="436.5916" y1="129.0417" x2="309.2604" y2="228.2259">
		<stop  offset="0" style="stop-color:#FFFFFF"/>
		<stop  offset="1" style="stop-color:#FFFFFF"/>
	</linearGradient>
	<polygon style="opacity:0.5;fill:url(#SVGID_34_);" points="462.6,163.6 470.3,135.8 443.3,135.8 450.2,145.6 403.2,183.4 
		379,148.5 323.3,193.4 309.4,173.3 237.3,231.3 237.1,232.3 252.6,232.3 304.7,190.3 318.7,210.4 374.3,165.5 398.5,200.4 
		456.1,154.1 	"/>
</g>
<linearGradient id="SVGID_36_" gradientUnits="userSpaceOnUse" x1="371.7603" y1="528.5194" x2="459.4744" y2="528.5194">
	<stop  offset="0" style="stop-color:#094484"/>
	<stop  offset="1" style="stop-color:#06335B"/>
</linearGradient>
<path style="fill:url(#SVGID_36_);" d="M500.7,529.5c0,3.5-2.7,6.3-6,6.3h-120c-3.3,0-6-2.8-6-6.3v-1.9c0-3.5,2.7-6.3,6-6.3h120
	c3.3,0,6,2.8,6,6.3V529.5z"/>
<image style="overflow:visible;" width="87" height="57" xlink:href="912CC2478E46949B.png"  transform="matrix(1 0 0 1 311 228.2)">
</image>
<g>
	<g>
		<path class="st343" d="M161.7,255.8c-4.6,2-11.3,3.8-9.7,4.9c2.8,1.9,5,2.4,7.7,1.9c2.8-0.5,6.7-4.6,6.7-4.6L161.7,255.8z"/>
		<path class="st343" d="M201.2,183.4c-1,10.4-27.7,59.3-31.3,68.5c-3.6,9.2,1,10.7-2.7,19.8c-3.7,9.1-11.2,14.4-12.8,13.6
			c-1.6-0.8-4.1-5.5-5.3-11.4c-1.8-9.2,7.3-8.8,12-16.9c4.6-8.1,8.7-27.4,11.6-41.7c2.9-14.4,5.8-24.5,9.3-32.5
			c1.9-4.3,6.5-6.2,13.7-9.2C201.3,171.2,201.3,182.3,201.2,183.4z"/>
	</g>
	<g>
		<path class="st343" d="M216.3,165.7c0,0-20.7,7.2-26.4,10.5c-4.1,2.4-0.5,8,1.7,11.5c2.2,3.5,17.1,4.5,29.4,1.2
			C230.3,186.3,218.1,166.2,216.3,165.7z"/>
		<path class="st100" d="M260.7,148.7c-18,2.5-57.6,12.4-57.6,12.4s-4.1,8.3-0.9,20c2.9,10.7,7.4,14.3,7.4,14.3s39.2-3.7,55.3-6.5
			c13.4-2.4,20.2-10.3,21.1-23.5C287,151.5,275.2,146.7,260.7,148.7z"/>
	</g>
</g>
<linearGradient id="SVGID_38_" gradientUnits="userSpaceOnUse" x1="133.5894" y1="264.2398" x2="229.6749" y2="181.5927">
	<stop  offset="0" style="stop-color:#FFFFFF"/>
	<stop  offset="1" style="stop-color:#B7B7B7"/>
</linearGradient>
<path style="opacity:0.25;fill:url(#SVGID_38_);" d="M286,165.5c1-14.1-10.9-18.8-25.4-16.8c-18,2.5-57.6,12.4-57.6,12.4
	s-1.9,3.9-2.1,10.1c-3,1.2-6,2.4-8.2,3.4c-5.6,2.4-9.2,4.3-10.8,8c-3.5,7.9-6.4,18.1-9.3,32.5c-2.8,13.8-6.7,32.1-11.1,40.7
	c-4.6,2-11.1,3.8-9.6,4.8c1.4,0.9,2.6,1.5,3.8,1.8c-4.1,3.1-8,4.9-6.7,11.3c0.3,1.6,0.7,3,1.2,4.4c2,5.6,7.3,1.4,11.5-4.2
	c4.2-5.6,3.3-13.2,4.6-18.2c1.4-5,22.3-54.1,25.4-62.3c3.1-8.2,2.7-10.1,7.1-11.4c4.3-1.3,9-1.9,8.5,0.5c-0.3,1.4-2.3,5.3-3.9,8.2
	c0.8,0,1.7,0,2.6,0c1.9,3.3,3.6,4.7,3.6,4.7s39.2-3.7,55.3-6.5C278.2,186.7,285.1,178.7,286,165.5z"/>
<g>
	<g>
		<path class="st98" d="M224,526.3c0-0.8-0.1-1.5-0.3-2.1c-0.9-4.8-3.8-3.8-5.7-3.2c-0.3,0.1-1.3,0.4-2.8,0.8
			c-1.5-0.4-2.5-0.7-2.8-0.8c-1.9-0.6-4.8-1.7-5.7,3.2c-0.1,0.6-0.2,1.3-0.3,2.1c-0.4,7.3-0.7,9.6-0.7,9.6s4.1,0,9.5,0
			c5.4,0,9.5,0,9.5,0S224.4,533.5,224,526.3z"/>
		<path class="st98" d="M238.5,355.2c4.5,17.8,0.3,34.6-3.8,61.8c-4.1,27.2-15.7,105.1-15.7,105.1s-1.1,0.9-4,0.9
			c-2.6,0-3.7-1.4-3.7-1.4s-10.1-106.6-11.4-122.9c-1.4-16.3,0-50.1,18-50.1C235.8,348.6,237.7,352,238.5,355.2z"/>
	</g>
	<path class="st98" d="M248.2,254c0,0-6.1,92.4-8.1,110.8c-2,18.4-31.4,33.4-39.7,9c-8.3-24.4-24.4-71.4-23.3-95.7
		c1.1-24.4,7.7-42.6,25.4-56.1C220.3,208.5,249.9,229.1,248.2,254z"/>
</g>
<linearGradient id="SVGID_40_" gradientUnits="userSpaceOnUse" x1="212.7092" y1="492.7423" x2="212.7092" y2="229.8724">
	<stop  offset="0" style="stop-color:#FFFFFF"/>
	<stop  offset="1" style="stop-color:#B7B7B7"/>
</linearGradient>
<path style="opacity:0.25;fill:url(#SVGID_40_);" d="M177.3,278.1c-1.1,24.4,15.1,71.3,23.5,95.7v0c-1.5,8.9-1.4,18.4-0.8,25
	c1.3,15.3,10.1,110.3,11.2,121.8c-1.7-0.4-3.7-0.2-4.4,3.6c-0.1,0.6-0.2,1.3-0.3,2.1c-0.4,7.3-0.7,9.6-0.7,9.6s4.1,0,9.5,0
	c5.4,0,9.5,0,9.5,0s-0.1-0.9-0.3-3.5c-1.9,0-4.2-0.1-6.7-0.1c-6.8,0-9.4,1.5-9.4-2.9s5.1-2.7,5.8-4.4c0.7-1.7,0.7-9.9,1.2-24.5
	c0.6-14.6,7.1-82.1,7.6-111.7c0.5-29.6,0-50.5-3-62.6c-3-12-0.7-11.3,12.9-10.5c4.1,0.2,7.6,3.2,10.5,7.4
	c2.3-31.9,4.8-68.9,4.8-68.9c0.9-12.8-6.5-24.4-16.3-30.9c-9.9-0.1-20.3-0.2-30.3-0.2C184.6,236.3,178.4,254.3,177.3,278.1z"/>
<g>
	
		<linearGradient id="SVGID_42_" gradientUnits="userSpaceOnUse" x1="2286.4666" y1="441.5451" x2="2291.9036" y2="656.3013" gradientTransform="matrix(-1 0 0 1 2592.8477 0)">
		<stop  offset="0" style="stop-color:#FF3B73"/>
		<stop  offset="1" style="stop-color:#2E1158"/>
	</linearGradient>
	<path style="fill:url(#SVGID_42_);" d="M320.3,528.8c0,0-26.6-7.2-28.5-7.8c-2.1-0.7-5.5-2-6,5.3c-0.4,7.3-0.7,9.6-0.7,9.6
		s30.8,0.2,34.1-0.2C322.5,535.3,325.2,532.7,320.3,528.8z"/>
	<path class="st72" d="M270.4,259.9c0,0,26,88.6,30.5,106.6c4.5,18-27.1,32.6-43.3,12.8c-16.2-19.8-38-47.5-45.3-70.7
		c-7.3-23.2-7.5-42.7,4.5-61.8C228.6,227.6,263.4,236,270.4,259.9z"/>
	<path class="st72" d="M297.8,355.8c6.3,17.2,4,34.4,2.8,61.8c-1.2,27.5-4.4,106.3-4.4,106.3s-1.7,1.2-3.9,1.1c-2.2-0.1-3.8-1-3.8-1
		s-0.9-19.6-4.9-32.3c-4-12.7-16.4-72.1-19.5-88.2c-3.1-16-5.3-49.8,12.5-51.9C294.5,349.5,296.6,352.7,297.8,355.8z"/>
</g>
<linearGradient id="SVGID_44_" gradientUnits="userSpaceOnUse" x1="265.7096" y1="491.6826" x2="265.7096" y2="228.8125">
	<stop  offset="0" style="stop-color:#FFFFFF"/>
	<stop  offset="1" style="stop-color:#B7B7B7"/>
</linearGradient>
<path style="opacity:0.25;fill:url(#SVGID_44_);" d="M286.4,525.2c-0.4,7.3-0.7,9.6-0.7,9.6s30.8,0.2,34.1-0.2c3.3-0.4,5.9-3,1-6.9
	c0,0-2-0.5-5-1.3c6.4,4,1.1,5.1-9.9,5.1c-11,0-12.4-0.3-12.4-3.9c0-3.6-2.2-24.6-2.8-48.9c-0.7-24.3-4.6-70.2-5.4-90.2
	c-0.7-20-5-26.2-19.1-51.3c-14.1-25.2-21.1-41.1-5.8-40c9.4,0.6,16.7-1.4,20.9-3c-5.7-19.6-10.3-35.3-10.3-35.3
	c-7-23.9-41.7-32.3-53.7-13.2c-11.9,19.1-11.8,38.6-4.5,61.8c7.3,23.2,29.2,50.9,45.3,70.7c1.4,1.7,2.8,3.1,4.4,4.3
	c0.1,7.4,1.1,14.7,2.1,20c3.1,16,15.5,75.4,19.5,88.2c3,9.5,4.2,22.8,4.7,28.9C287.6,520,286.6,521.5,286.4,525.2z"/>
<g>
	<path class="st343" d="M283.1,142.5c5.3-14.8,9-19.4,18-29.5c0.2-0.4,20.1,6.4,29.5-4c0,0-2.5,17.1-7.9,26.3
		c-5.1,8.7-10.8,11.7-17.9,3.6c-3.5,4.3-5.2,8.1-6.7,13.3c-2.3,8.3-4.4,10.6-8.3,9.7C286.1,161.1,277.7,157.5,283.1,142.5z"/>
</g>
<linearGradient id="SVGID_46_" gradientUnits="userSpaceOnUse" x1="342.5057" y1="159.0034" x2="296.0161" y2="126.0593">
	<stop  offset="0" style="stop-color:#FFFFFF"/>
	<stop  offset="1" style="stop-color:#B7B7B7"/>
</linearGradient>
<path style="opacity:0.5;fill:url(#SVGID_46_);" d="M301.1,113c-9,10.1-12.7,14.7-18,29.5c-5.4,15,3,18.6,6.9,19.5
	c3.9,0.9,5.9-1.4,8.3-9.7c1.5-5.3,3.1-9.1,6.7-13.3c5.1,5.8,9.5,5.9,13.4,2.2c-6.8,3.9-11.9-5.6-12.7-5.3c-0.8,0.2-3.6,5.1-4.7,7.4
	c-1.1,2.3-1.7,4.2-3.4,2.3c-1.7-1.9-0.9-3.4,0.2-5.1c1.2-1.7,6.8-11.8,9.3-15.1c2.6-3.3,3.9-2.7,10.8-2.6c4.2,0,7.9-0.7,10.1-1.3
	c1.8-6.6,2.6-12.4,2.6-12.4C321.2,119.4,301.2,112.6,301.1,113z"/>
<path class="st100" d="M294.2,144.1c5.7,5.7,6.4,6.9,7.4,10.6c3.4,12.5-4.2,42.9-8.6,55.2c-8.6,24.5-12.9,80.6-12.9,80.6
	s-11,2.5-38.3,0.6c-52.9-3.6-67.5-18.9-67.5-18.9s17.4-83.5,65-115.8c15.7-10.7,35.6-22.8,44-20.2
	C286.9,137.3,289.1,138.9,294.2,144.1z"/>
<linearGradient id="SVGID_48_" gradientUnits="userSpaceOnUse" x1="204.0872" y1="357.5917" x2="261.3194" y2="165.4544">
	<stop  offset="0" style="stop-color:#FFFFFF"/>
	<stop  offset="1" style="stop-color:#B7B7B7"/>
</linearGradient>
<path style="opacity:0.5;fill:url(#SVGID_48_);" d="M280,290.5c0,0,0.1-1.8,0.4-4.8c-25.6-1-33.9,0.5-33-20.1
	c0.9-22.5,8.5-48.8,12.4-62.2c3.8-13.3,4.5,4,5.3,11.7c1.1,11.8,3.8,30.5,9,33c2.1,1,6.9,2.2,10.3,3.1c1.6-11.7,3.8-24,6.3-33.8
	c-3-19.1-6.5-41.4-8.3-55.1c-1.5-11.2-3.4-19.8-5.1-26c-9.9,2-25.3,11.5-38,20.2c-47.6,32.3-65,115.8-65,115.8s14.6,15.3,67.5,18.9
	C269,293,280,290.5,280,290.5z"/>
<g>
	<g>
		<path class="st343" d="M367.4,270.9c4.3,2.7,9.6,7.2,9.5,5.3c-0.2-3.5-1-5.6-3-7.6c-2-2-7.5-2.9-7.5-2.9L367.4,270.9z"/>
		<path class="st343" d="M300,231.9c10.1,3.9,48.5,23.6,57.5,27c9,3.5,10.3-1.3,19.2,2.3c8.9,3.6,14.2,11.2,13.4,12.9
			c-0.7,1.7-7.5-4.8-13.1-3.4c-8.9,2.1-6.4,1.9-14.4-2.7c-8-4.6-26.7-8.3-40.6-11c-14-2.6-24-5.1-31.6-8.8c-6.1-3-6-4.8-8.4-12.4
			C278.2,224.1,295.5,230.1,300,231.9z"/>
	</g>
	<g>
		<path class="st343" d="M276.2,215.5c0,0,5.6,21.8,8.4,28c2,4.4,7.7,1,11.2-1c3.5-2,5.5-17.4,3.1-30.3
			C297.1,202.4,276.8,213.6,276.2,215.5z"/>
		<path class="st100" d="M262.8,168.5c1.2,18.7,8.2,60.2,8.2,60.2s7.8,4.7,19.3,2.3c10.5-2.3,14.3-6.7,14.3-6.7s-0.9-40.7-2.6-57.5
			c-1.4-14-8.6-21.6-21.3-23.4C267.2,141.5,261.9,153.5,262.8,168.5z"/>
	</g>
</g>
<linearGradient id="SVGID_50_" gradientUnits="userSpaceOnUse" x1="313.9189" y1="151.6182" x2="324.1455" y2="212.9783">
	<stop  offset="0" style="stop-color:#FFFFFF"/>
	<stop  offset="1" style="stop-color:#B7B7B7"/>
</linearGradient>
<path style="opacity:0.25;fill:url(#SVGID_50_);" d="M388,270.9c-0.6,0.4-2.8-1.1-7.4-4.1c-4.6-3-11.9-1.3-19.9-3.5
	c-8-2.2-13.5-5.1-25.6-9c-12-3.9-29.4-9.1-38.1-13.2c-8.7-4.1-6.3-3.2-7.2-9.9c-0.9-6.7-1.7-20.3-3.8-41.2
	c-2.1-20.9-5.6-29.1-2.5-33.5c1.8-2.5,5.1-6.4,7.7-9.3c-3-1.9-6.5-3.1-10.7-3.7c-13.5-1.9-18.9,10-17.9,25.1
	c1.2,18.7,8.2,60.2,8.2,60.2s3.6,2.2,9.6,2.8c0.8,2.8,1.7,5.5,2.4,7.8c0.5,1.7,1,3,1.5,4.1l0,0c0.2,0.4,0.4,0.8,0.7,1
	c1,1.4,2.5,2.4,5.1,3.7c7.7,3.7,17.7,6.2,31.6,8.8c14,2.6,32.7,6.4,40.6,11c2.3,1.3,3.8,2.3,4.9,3c4.2,2.7,9.5,7.1,9.5,5.2
	c-0.1-2.2-0.5-3.8-1.2-5.2c0.4-0.1,0.8-0.2,1.3-0.3c5.7-1.4,12.4,5.1,13.1,3.4c0.3-0.7-0.5-2.7-2.4-4.9
	C387.8,269.3,388.6,270.5,388,270.9z"/>
<path class="st323" d="M328.2,120.3c14.9-3.3,17.7-22.7,9.4-30.7c-11.2-10.8-25.6-18.1-52.1,0.9C266.6,104,254.2,108.8,239,92
	c-24.8-27.3-87,20.5-53.8,63.4c31,40,66.3,30.6,90.1,5.4c23.8-25.3,23.8-41.2,34.8-39.8C318.8,122.2,328.2,120.3,328.2,120.3z"/>
<linearGradient id="SVGID_52_" gradientUnits="userSpaceOnUse" x1="432.8773" y1="43.3742" x2="147.2999" y2="168.2206">
	<stop  offset="0" style="stop-color:#FFFFFF"/>
	<stop  offset="1" style="stop-color:#B7B7B7"/>
</linearGradient>
<path style="opacity:0.25;fill:url(#SVGID_52_);" d="M328.1,120.3c14.9-3.3,17.7-22.7,9.4-30.7c-5.7-5.5-12.3-10.1-20.8-10.8
	c13.1,4.6,20.3,15.7,16.9,25.4s-23.5-4.7-40.7,16.2c-13.1,15.9-49.2,25.2-61.8,8c-12.6-17.2-1.2-41.1,13.8-30.8
	c-2-1.5-3.9-3.4-6-5.6c-24.8-27.3-87,20.5-53.8,63.4c31,40,66.3,30.6,90.1,5.4c23.8-25.3,23.8-41.2,34.8-39.8
	C318.7,122.2,328.1,120.3,328.1,120.3z"/>
<image style="overflow:visible;opacity:0.3;" width="666" height="35" xlink:href="912CC2478E4694A5.png"  transform="matrix(1 0 0 1 138 518.2)">
</image>
</svg>
