<?xml version="1.0" encoding="utf-8"?>
<!-- Generator: Adobe Illustrator 23.1.0, SVG Export Plug-In . SVG Version: 6.00 Build 0)  -->
<svg version="1.1" id="Layer_1" xmlns="http://www.w3.org/2000/svg" xmlns:xlink="http://www.w3.org/1999/xlink" x="0px" y="0px"
	 viewBox="0 0 962.7 599.2" style="enable-background:new 0 0 962.7 599.2;" xml:space="preserve">
<style type="text/css">
	.st0{display:none;opacity:0.1;fill:#008080;enable-background:new    ;}
	.st1{fill:#031F33;}
	.st2{fill:url(#SVGID_1_);}
	.st3{fill:#FFFFFF;}
	.st4{fill:#CECECE;}
	.st5{fill:url(#SVGID_2_);}
	.st6{fill:#A36F68;}
	.st7{fill:#DB7D37;}
	.st8{fill:#8E5C57;}
	.st9{fill:#096866;}
	.st10{fill:#008080;}
	.st11{fill:#F73C5A;}
	.st12{fill:#F99747;}
	.st13{opacity:0.5;fill:url(#SVGID_3_);enable-background:new    ;}
	.st14{opacity:0.5;fill:url(#SVGID_4_);enable-background:new    ;}
	.st15{fill:#DBDCDD;}
	.st16{opacity:0.5;}
	.st17{fill:#F5F5F5;}
	.st18{fill:#0A7BFC;}
	.st19{fill:#D1D1D1;}
	.st20{fill:#CCCCCC;}
	.st21{fill:#065EB5;}
	.st22{fill:#FF9A55;}
	.st23{fill:#FFAD71;}
	.st24{fill:#FFB680;}
</style>
<path class="st0" d="M311.7,504.2c44.8,4.6,89.9,6.4,134.1,7.1c104.3,1.8,208.8-6.7,311.5-25.4c70.6-12.8,131.7-41.8,143.9-118.7
	c15.8-99.8-33-225.9-141.9-244.6c-33.7-5.8-68.7-5.5-101-16.6c-48.2-16.4-85.7-55.5-136.7-64.8c-52.1-9.4-110,1.7-151.8,36.6
	c-18.4,15.3-34.1,33.3-48.8,52.1c-11.4,14.6-21.9,32.8-39.2,41c-21.2,10.1-45.9,2.1-69.2-1c-39.9-5.3-86.9,7.6-116.7,35.3
	C64.7,234.3,55.4,288,59.6,328.3c5.5,52.8,31.6,102.4,76.8,131.6C187.4,492.9,252.8,498.2,311.7,504.2z"/>
<g>
	<g>
		<path class="st1" d="M696.3,84.7C696.3,84.7,696.4,84.7,696.3,84.7L696.3,84.7l-3.4-0.2v5l3.5-0.2l0,0h-0.1c0.8,0,1.5-1,1.5-2.3
			S697.2,84.7,696.3,84.7z"/>
		
			<linearGradient id="SVGID_1_" gradientUnits="userSpaceOnUse" x1="585.2499" y1="511.989" x2="695.6584" y2="511.989" gradientTransform="matrix(1 0 0 -1 0 599)">
			<stop  offset="0" style="stop-color:#094484"/>
			<stop  offset="1" style="stop-color:#06335B"/>
		</linearGradient>
		<path class="st2" d="M693.9,84.3L693.9,84.3L693.9,84.3l-108.7-6.2v17.8l108.7-6.2l0,0c0,0-0.1,0,0,0c1,0,1.7-1.2,1.7-2.7
			C695.7,85.5,694.9,84.3,693.9,84.3z"/>
		<path class="st3" d="M588.6,87c0,4.9-1.6,8.9-3.6,8.9s-3.6-4-3.6-8.9s1.6-8.9,3.6-8.9C587,78.1,588.6,82.1,588.6,87z"/>
		<path class="st4" d="M605.5,79.3c1.3,1.1,2.2,4.1,2.2,7.7s-0.9,6.6-2.2,7.7l2-0.1c1.1-1.9,1.7-4.8,1.7-7.6c0-2.9-0.6-5.7-1.7-7.6
			L605.5,79.3z M660,82.4l-2-0.1c0.9,0.5,1.5,2.4,1.5,4.8c0,2.3-0.6,4.3-1.5,4.8l2-0.1c0.6-1.1,1-2.7,1-4.6
			C661,85.1,660.6,83.5,660,82.4z M641.3,81.3c1,0.6,1.8,3,1.8,5.7s-0.8,5.1-1.8,5.7l2.1-0.1c0.8-1.5,1.2-3.6,1.2-5.6
			s-0.4-4.1-1.2-5.6L641.3,81.3z M623.9,80.3c1.1,0.9,1.9,3.6,1.9,6.7s-0.8,5.8-1.9,6.7l2-0.1c1-1.7,1.4-4.2,1.4-6.6
			s-0.5-4.9-1.4-6.6L623.9,80.3z"/>
	</g>
	<linearGradient id="SVGID_2_" gradientUnits="userSpaceOnUse" x1="581.75" y1="87.111" x2="697.6944" y2="87.111">
		<stop  offset="0" style="stop-color:#094484"/>
		<stop  offset="1" style="stop-color:#06335B"/>
	</linearGradient>
	<path class="st5" d="M697.6,86.3h-11.1c-2.9,0-3.8,0.3-3.7-1.9c0-0.3,0-0.5-0.1-0.8l-24-1.3h-0.8h-0.3c1.4,0.2,2.7,1,3.3,3
		c0.6,2.3-3.5,1.8-9.8,1.8c-6.2,0-7.8-0.6-7.6-2.4c0.2-1.8,1.1-3.2,3.1-3h0.1l-3.4-0.2h-0.8l-15.3-0.9c-0.1,0.7-0.2,1.5-0.1,2.6
		c0.4,3.7-1.2,3.6-4.6,3.6c-3.3,0-23.8,0.3-32,0.3c-8.2,0-7.6-0.7-7.4-4.4c0.2-3.7,2-4.5,2-4.5l0,0h-0.1h0.1l0,0l0,0
		c-2,0.2-3.4,4.1-3.4,8.9s1.4,8.7,3.4,8.9l0,0l0,0l0,0h0.1l20.2-1.1l2-0.1l17.7-1h0.8l16.6-0.9h0.8l14.6-0.8h0.9l35-2l0,0
		c0,0-0.1,0,0,0c0.3,0,0.7-0.1,0.9-0.3l1.6-0.1l0,0h-0.1c0.8,0,1.4-1.1,1.4-2.4C697.7,86.7,697.6,86.8,697.6,86.3z M657.2,82.2
		L657.2,82.2L657.2,82.2L657.2,82.2z"/>
</g>
<g>
	<g>
		<g>
			<path class="st6" d="M683.6,171.9c0,0-21.4,8.7-28.2,10.1c-4.9,1-5.7-6.1-6.2-10.4c-0.5-4.3,10.8-15.7,22.9-21.6
				C681.3,145.5,684.7,170.2,683.6,171.9z"/>
			<path class="st7" d="M730.4,154.4c-16,10.6-54.4,30.4-54.4,30.4s-8.7-3.9-13.9-15.5c-4.7-10.6-3.5-16.8-3.5-16.8
				s34-24.6,48.8-33.6c12.3-7.5,23.1-5.9,32.4,4.1C749.8,133.7,743.4,145.8,730.4,154.4z"/>
		</g>
		<g>
			<path class="st8" d="M648,86.3c5.2-3.1,5.5-8.1,8.2-8.2c1.5,0,1.5,4.9-0.4,8.8c-1.4,2.7-2.3,5.4-7.7,7.1
				C646,94.5,648,86.3,648,86.3z"/>
			<path class="st6" d="M657.8,174.4c1.8-10.8-14.2-62.3-13.6-72.7c0.7-10.4,8.1-6,8-16.4c-0.1-8.1-1-7.5-12.6-7.8
				c-6.5-0.2-2.4,5.4-1.6,15.3c0.8,9.9,0,25.8-0.9,41.3c-0.9,15.4-0.9,26.6,0.8,35.6c1.4,7.2,9.9,14.9,17.7,12.4
				C663.7,179.4,657.7,175.4,657.8,174.4z"/>
		</g>
	</g>
	<g>
		<path d="M668.4,550.7c0,0,28-7.6,30-8.2c2.3-0.7,5.8-2.1,6.3,5.6c0.5,7.7,0.7,10.1,0.7,10.1s-32.4,0.2-35.9-0.2
			C666,557.5,663.2,554.8,668.4,550.7z"/>
		<path class="st9" d="M681.6,274.5c0,0,4.7,97.4,6.4,116.8c1.7,19.5,38.1,22.3,47.3-3.3c9.2-25.6,21.3-61.1,20.6-86.8
			c-0.7-25.7-7.3-45-25.7-59.6C711.8,227.1,680.3,248.2,681.6,274.5z"/>
		<path class="st9" d="M692.1,368.6c-6.7,18.1-4.2,36.2-3,65.1c1.3,28.9,4.7,111.9,4.7,111.9s1.8,1.2,4.1,1.1c2.3-0.1,4-1,4-1
			s1-20.6,5.2-34c4.2-13.4,17.3-76,20.5-92.8c3.3-16.9,5.6-52.4-13.2-54.6C695.6,361.9,693.3,365.3,692.1,368.6z"/>
	</g>
	<g>
		<path class="st10" d="M720,266.4c0,0,17.9,113.8,22.4,132.8s37.9,12.2,43.3-14.5c5.4-26.7,16-77.9,11.7-103.2
			c-4.4-25.3-13.7-43.4-34-55C743.1,215,715,240.7,720,266.4z"/>
		<path d="M758.6,548.1c0.1-0.9,0.1-1.6,0.3-2.3c1-5.1,4-4,6-3.3c0.3,0.1,1.4,0.4,3,0.9c1.5-0.4,2.6-0.7,3-0.9c2-0.7,5-1.8,6,3.3
			c0.1,0.6,0.2,1.4,0.3,2.3c0.5,7.7,0.7,10.1,0.7,10.1s-4.3,0-10,0s-10,0-10,0S758.1,555.7,758.6,548.1z"/>
		<path class="st10" d="M743.6,368c-4.7,18.7-0.4,36.4,4,65s16.5,110.7,16.5,110.7s1.1,1,4.2,1c2.7,0,3.9-1.4,3.9-1.4
			s10.6-112.2,12-129.4c1.4-17.1,0-52.7-18.9-52.8C746.3,361,744.4,364.6,743.6,368z"/>
	</g>
	<path class="st11" d="M723.1,114.1c-29.6,2.3-30.8,30.6-33.3,53.4c-4.2,37-10.1,108.1-10.1,108.1s12.3,14.5,55.8,14
		c66.2-0.7,63-10.7,63-10.7s-2.5-67.3-16.2-134.2c-3.1-15-15.3-28.9-39.5-31C735.9,113.2,730.4,113.5,723.1,114.1z"/>
	<path class="st12" d="M723.1,114.1c-29.6,2.3-30.8,30.6-33.3,53.4c-4.2,37-10.1,108.1-10.1,108.1s12.3,14.5,55.8,14
		c66.2-0.7,63-10.7,63-10.7s-2.5-67.3-16.2-134.2c-3.1-15-15.3-28.9-39.5-31C735.9,113.2,730.4,113.5,723.1,114.1z"/>
	<g>
		<g>
			<path class="st6" d="M681.7,91.8c5.2-3.1,5.4-8.2,8.1-8.3c1.5-0.1,1.6,5.5-0.9,8.6c-1.9,2.4-4.7,3.7-5.2,8.2
				C683.5,102.5,681.7,91.8,681.7,91.8z"/>
			<path class="st6" d="M679.1,188.1c-3.8-10.3-0.6-69.3-1.4-79.8c-0.7-10.4-6.4-9.5-6.4-20c0-8.1-6.4-4.2-6.4-6
				c0-2.9,7.8-8.2,19.2-1.2c5.6,3.4,0.3,8.2-0.4,18c-0.7,9.9,4.1,30.1,7.9,45c3.8,15,5.9,25.9,5.9,35.1c0,7.4-1.5,8.3-7.7,13.8
				C685.3,197.2,679.5,189.1,679.1,188.1z"/>
			<g>
				<path class="st6" d="M716.6,185.1c0,0-21.6,8-28.5,9.2c-4.9,0.8-5.5-6.3-5.9-10.6s11.3-15.3,23.5-20.8
					C715.1,158.6,717.8,183.4,716.6,185.1z"/>
				<path class="st7" d="M763.9,169.1c-16.4,10.1-55.4,28.6-55.4,28.6s-8.6-4.1-13.4-15.9c-4.4-10.8-2.9-16.9-2.9-16.9
					s34.7-23.5,49.8-32c12.6-7.1,23.2-5.1,32.3,5.1C784,149,777.2,161,763.9,169.1z"/>
			</g>
		</g>
	</g>
	<path d="M720,112.9c2.6-1.1,7-0.7,12.5-0.8c5.4-0.1,12.1-0.6,14.3,0.8c1.2,0.7,2.3,14.5-7.2,21.3c-6.6,4.7-20.5,4.2-22.7-6.2
		C714.8,118.9,717.6,114,720,112.9z"/>
	<path d="M708.7,83.5c-9.7-7.9-15.2-38.6-1.2-41.6c21.2-4.6,15,10.3,24.6,10c21-0.6,27.9,10.3,24.2,30.8
		c-2.3,12.5-8.8,16.4-13.7,22.7c-2.7,3.5-5-13.5-15.8-18.7C716.1,81.4,708.7,83.5,708.7,83.5z"/>
	<g>
		<path class="st6" d="M742.8,116c0.1-16.6-3.5-26.7-8.8-40.1c0-0.5-19.7,3.2-24.9-7c0,0-1.2,13.5,0.7,24.6
			c1.8,10.5,4.9,16.2,14.9,11c-0.7,4.9-1.7,10.8-2.9,15.2c-2.4,8.8,3,12.3,7.2,12.9C733.1,133.1,742.7,132.9,742.8,116z"/>
		<path class="st6" d="M744.7,79.8c1.5,2.5-0.2,6.4-3.7,8.7c-3.6,2.3-7.7,2.2-9.2-0.3s0.2-6.4,3.7-8.7
			C739,77.1,743.1,77.3,744.7,79.8z"/>
	</g>
	
		<linearGradient id="SVGID_3_" gradientUnits="userSpaceOnUse" x1="714.6032" y1="508.7721" x2="717.6586" y2="476.959" gradientTransform="matrix(1 0 0 -1 0 599)">
		<stop  offset="0" style="stop-color:#FFFFFF"/>
		<stop  offset="1" style="stop-color:#B7B7B7"/>
	</linearGradient>
	<path class="st13" d="M710.7,97.9c0,0.1,0.1,0.2,0.1,0.3c-0.1-0.2-0.1-0.4-0.2-0.5C710.6,97.8,710.6,97.8,710.7,97.9z M723.1,129.5
		c-0.1-0.1-0.2-0.3-0.3-0.4C722.9,129.2,723,129.3,723.1,129.5z M722.7,129C722.7,129,722.7,129.1,722.7,129
		C722.7,129.1,722.7,129,722.7,129L722.7,129z"/>
	<path class="st9" d="M531.4,558h-88c7.7,0,12.2-6.4,10-14.3L388,304.3c-2.2-8-10.3-14.5-18-14.5h88c7.7,0,15.8,6.6,18,14.6
		l65.4,239.2C543.6,551.6,539.1,558,531.4,558z"/>
	
		<linearGradient id="SVGID_4_" gradientUnits="userSpaceOnUse" x1="451.0081" y1="142.9885" x2="451.0081" y2="70.8653" gradientTransform="matrix(1 0 0 -1 0 599)">
		<stop  offset="0" style="stop-color:#B7B7B7"/>
		<stop  offset="0.2159" style="stop-color:#BCBCBC"/>
		<stop  offset="0.4703" style="stop-color:#CACACA"/>
		<stop  offset="0.7432" style="stop-color:#E2E2E2"/>
		<stop  offset="1" style="stop-color:#FFFFFF"/>
	</linearGradient>
	<path class="st14" d="M531.5,543.7l-65.4-239.3c-2.2-8-10.3-14.5-18-14.5H370c7.7,0,15.8,6.6,18,14.5l65.4,239.2
		c2.2,8-2.3,14.4-10,14.4h78.1C529.1,558,533.6,551.6,531.5,543.7z"/>
	<path class="st15" d="M644.4,454c-2.2,8-10.3,14.5-18,14.5H301.2c-7.7,0-12.2-6.5-10-14.5l65.4-239.3c2.2-8,10.3-14.5,18-14.5
		h325.2c7.7,0,12.2,6.5,10,14.5L644.4,454z"/>
	<path class="st10" d="M641.5,413.4c-1.1,4-5.1,7.2-9,7.2H321.3c-3.9,0-6.1-3.3-5-7.2l52.1-190.8c1.1-4,5.1-7.2,9-7.2h311.2
		c3.9,0,6.1,3.3,5,7.2L641.5,413.4z"/>
	<g>
		<path class="st9" d="M485.3,444.5c-2.3,8.3-10.6,15-18.6,15s-12.7-6.7-10.4-15c2.3-8.3,10.6-15,18.6-15
			C482.9,429.6,487.6,436.3,485.3,444.5z"/>
		<path class="st4" d="M510.2,444.5c-1.3,4.9-6.2,8.8-11,8.8c-4.7,0-7.5-4-6.1-8.8c1.3-4.9,6.2-8.8,11-8.8
			C508.7,435.7,511.5,439.7,510.2,444.5z"/>
		<path class="st4" d="M448.6,444.5c-1.3,4.9-6.2,8.8-11,8.8c-4.7,0-7.5-4-6.1-8.8c1.3-4.9,6.2-8.8,11-8.8
			C447.2,435.7,449.9,439.7,448.6,444.5z"/>
		<path class="st4" d="M525.8,444.5c-0.6,2.3-2.9,4.1-5.1,4.1c-2.2,0-3.5-1.8-2.8-4.1c0.6-2.3,2.9-4.1,5.1-4.1
			C525.2,440.4,526.5,442.3,525.8,444.5z"/>
		<path class="st4" d="M423.7,444.5c-0.6,2.3-2.9,4.1-5.1,4.1s-3.5-1.8-2.8-4.1c0.6-2.3,2.9-4.1,5.1-4.1
			C423.1,440.4,424.4,442.3,423.7,444.5z"/>
	</g>
	<path class="st9" d="M628.7,392c-1.1,4-5.1,7.2-9,7.2H308.5c-3.9,0-6.1-3.3-5-7.2l52.1-190.8c1.1-4,5.1-7.2,9-7.2h311.2
		c3.9,0,6.1,3.3,5,7.2L628.7,392z"/>
	<g>
		<g class="st16">
			<path class="st17" d="M563.3,287.7c0.2,0.3,0.1,0.7-0.2,1l-58.3,47c-0.3,0.3-0.8,0.2-1,0c-0.2-0.3-0.1-0.7,0.2-1l58.3-47
				C562.6,287.4,563.1,287.4,563.3,287.7z"/>
		</g>
		<g>
			<path class="st17" d="M546.9,289.1c0.9-0.7,2-0.7,2.5,0l18.6,27.3c0.5,0.7,0.2,1.9-0.7,2.6s-2,0.7-2.5,0l-18.6-27.3
				C545.7,291,546,289.8,546.9,289.1z"/>
		</g>
		<g>
			<path class="st17" d="M481.4,325.9c-0.2-1.4-1.6-2-3.1-1.4s-2.5,2.2-2.3,3.6c0.9,5.7,2.6,11,5,15.9c0.3,0.7,1,1,1.8,1
				c0.6,0,1.2-0.2,1.8-0.6c1.4-0.9,2.1-2.6,1.5-3.8C483.8,336.1,482.2,331.1,481.4,325.9z"/>
			<path class="st17" d="M489.7,347c-0.7-1.1-2.4-1.1-3.7,0c-1.3,1.1-1.8,2.8-1,3.8c0.4,0.5,0.8,1.1,1.2,1.6c0.4,0.5,1,0.7,1.6,0.7
				c0.7,0,1.5-0.3,2.1-0.9c1.3-1.1,1.7-2.8,0.9-3.8C490.4,348,490.1,347.5,489.7,347z"/>
			<path class="st17" d="M510.2,363.5c-4.7-2-8.9-4.6-12.6-7.8c-1-0.8-2.7-0.5-3.8,0.7c-1.1,1.2-1.3,2.9-0.3,3.8
				c4,3.5,8.6,6.3,13.6,8.4c0.3,0.1,0.6,0.2,0.9,0.2c1.1,0,2.3-0.7,3-1.8C511.7,365.6,511.4,364,510.2,363.5z"/>
			<path class="st17" d="M573,220c-40.8,0-83.4,34.4-95,76.6c-1.6,5.9-2.6,11.9-2.8,17.6c-0.1,1.5,1.1,2.4,2.6,2
				c1.5-0.3,2.8-1.8,2.8-3.3c0.2-5.3,1.1-10.8,2.6-16.3c10.7-39.2,50.3-71.2,88.3-71.2c37.9,0,60.1,31.9,49.4,71.2
				c-10.7,39.2-50.3,71.2-88.3,71.2c-4.6,0-9.1-0.5-13.3-1.4c-1.3-0.3-3,0.7-3.7,2.1c-0.7,1.5-0.2,2.9,1.2,3.2
				c4.5,1,9.3,1.5,14.3,1.5c40.8,0,83.4-34.4,95-76.6C637.7,254.4,613.9,220,573,220z"/>
		</g>
		<g>
			<path class="st18" d="M548.5,309.8c-1,0-1.5-0.8-1.3-1.8l16.4-60.1c0.3-1,1.3-1.8,2.2-1.8c1,0,1.5,0.8,1.3,1.8L550.7,308
				C550.5,309,549.4,309.8,548.5,309.8z"/>
		</g>
		<path class="st17" d="M617.2,295.3h-9.9c-0.1,0-0.2,0.8-0.3,1.2c-0.1,0.5-0.3,1-0.5,1.5h9.9c0.2-0.5,0.3-1,0.5-1.5
			C617,296,617.1,295.3,617.2,295.3z M569,229.7l-2.8,10.2c0.4,0,1,0,1.5,0s1,0,1.3,0l2.8-10.2c-0.3,0-0.9,0-1.3,0
			C570,229.7,569.3,229.7,569,229.7z M497.2,296.5c0.1-0.4,0.3-1.2,0.4-1.2h-9.9c-0.1,0-0.2,0.8-0.4,1.2c-0.1,0.5-0.2,1-0.4,1.5h9.9
			C497,297.4,497.1,297,497.2,296.5z M513.4,267l-7.1-5.1c-0.7,0.8-1.4,1.7-2.1,2.5l7.1,5.1C512,268.7,512.7,267.8,513.4,267z
			 M617.7,264.5c-0.2-0.8-0.5-1.7-0.7-2.5l-9.9,5.1c0.3,0.8,0.5,1.7,0.7,2.5L617.7,264.5z M592.1,246.8c0.7,0.5,1.4,1,2,1.5l7.3-8.8
			c-0.7-0.5-1.3-1-2-1.5L592.1,246.8z M539.5,246.8L537,238c-0.9,0.5-1.9,0.9-2.8,1.4l2.5,8.8C537.6,247.7,538.5,247.2,539.5,246.8z
			 M486.6,329c0.2,0.8,0.5,1.7,0.7,2.5l9.9-5.1c-0.3-0.8-0.5-1.7-0.7-2.5L486.6,329z M564.7,346.5l2.5,8.8c0.9-0.5,1.9-0.9,2.8-1.4
			l-2.5-8.8C566.6,345.6,565.6,346.1,564.7,346.5z M590.8,326.3l7.1,5.1c0.7-0.8,1.4-1.7,2.1-2.5l-7.1-5.1
			C592.3,324.6,591.6,325.5,590.8,326.3z M535.2,353.4l-2.8,10.2c0.3,0,1,0,1.4,0s1,0,1.4,0l2.8-10.2c-0.4,0-0.9,0-1.4,0
			C536.1,353.4,535.5,353.4,535.2,353.4z M503,354c0.7,0.5,1.3,1,2,1.4l7.3-8.8c-0.7-0.5-1.4-0.9-2-1.4L503,354z"/>
		<path class="st19" d="M532,248.4l-1.9-4.4c-0.3,0.2-0.7,0.4-1,0.6l1.9,4.4C531.3,248.8,531.7,248.6,532,248.4z M520.8,256.6
			l-2.9-3.6c-0.3,0.3-0.6,0.5-0.9,0.8l2.9,3.6C520.2,257.1,520.5,256.9,520.8,256.6z M543.9,242.3l-0.8-5c-0.4,0.1-0.7,0.3-1.1,0.4
			l0.8,5C543.2,242.6,543.5,242.5,543.9,242.3z M562.5,237.6l0.9-5.4c-0.4,0-0.7,0.1-1.1,0.1l-0.9,5.4
			C561.8,237.7,562.2,237.7,562.5,237.6z M556.4,238.6l0.4-5.3c-0.4,0.1-0.7,0.2-1.1,0.2l-0.4,5.3
			C555.6,238.7,556,238.6,556.4,238.6z M550.1,240.1l-0.2-5.2c-0.4,0.1-0.7,0.2-1.1,0.3l0.2,5.2
			C549.4,240.4,549.8,240.2,550.1,240.1z M499.6,283.8l-4.8-1.1c-0.2,0.4-0.3,0.7-0.5,1.1l4.8,1.1
			C499.3,284.5,499.5,284.1,499.6,283.8z M497,289.9l-5.1-0.6c-0.1,0.4-0.3,0.7-0.4,1.1l5.1,0.6C496.7,290.6,496.8,290.3,497,289.9z
			 M506.7,272l-4.2-2.2c-0.2,0.3-0.5,0.7-0.7,1l4.2,2.2C506.2,272.7,506.4,272.4,506.7,272z M502.9,277.8l-4.5-1.7
			c-0.2,0.3-0.4,0.7-0.6,1l4.5,1.7C502.5,278.5,502.7,278.2,502.9,277.8z M515.7,261.4l-3.4-3.2c-0.3,0.3-0.6,0.6-0.9,0.9l3.4,3.2
			C515.1,262,515.4,261.7,515.7,261.4z M493.4,302.6l-5.4,0.6c-0.1,0.4-0.1,0.7-0.2,1.1l5.4-0.6C493.3,303.4,493.4,303,493.4,302.6z
			 M616.6,271.1c0-0.3-0.1-0.7-0.1-1l-5.4,2.2c0.1,0.3,0.1,0.7,0.2,1L616.6,271.1z M607.9,261.5c0.1,0.3,0.3,0.6,0.4,0.9l5.1-3.2
			c-0.1-0.3-0.3-0.6-0.4-0.9L607.9,261.5z M605.9,257.5l4.9-3.6c-0.2-0.3-0.3-0.5-0.5-0.8l-4.9,3.6
			C605.5,256.9,605.7,257.2,605.9,257.5z M573.8,237.6c0.3,0,0.7,0.1,1,0.1l2-5.4c-0.3,0-0.7-0.1-1-0.1L573.8,237.6z M611.5,285.2
			l5.4-1.1c0-0.4,0.1-0.7,0.1-1.1l-5.4,1.1C611.6,284.5,611.6,284.8,611.5,285.2z M611.7,279.2l5.5-1.7c0-0.3,0-0.7,0-1l-5.5,1.7
			C611.7,278.5,611.7,278.8,611.7,279.2z M584.9,240.1c0.3,0.1,0.6,0.2,0.9,0.3l3-5.2c-0.3-0.1-0.6-0.2-0.9-0.3L584.9,240.1z
			 M579.5,238.5c0.3,0.1,0.6,0.2,1,0.2l2.5-5.3c-0.3-0.1-0.6-0.2-1-0.2L579.5,238.5z M598.7,248.4c0.2,0.2,0.5,0.4,0.7,0.6l4.3-4.4
			c-0.2-0.2-0.4-0.4-0.7-0.6L598.7,248.4z M589.9,242.3c0.3,0.1,0.6,0.3,0.8,0.4l3.5-5c-0.3-0.2-0.6-0.3-0.8-0.4L589.9,242.3z
			 M607.5,249c-0.2-0.2-0.4-0.5-0.6-0.7l-4.6,4c0.2,0.2,0.4,0.5,0.6,0.7L607.5,249z M526.3,252.3l-2.4-4c-0.3,0.2-0.7,0.5-1,0.7
			l2.4,4C525.6,252.7,525.9,252.5,526.3,252.3z M547.4,354.8l-0.4,5.3c0.4-0.1,0.7-0.1,1.1-0.2l0.4-5.3
			C548.1,354.7,547.8,354.7,547.4,354.8z M588.5,332l3.4,3.2c0.3-0.3,0.6-0.6,0.9-0.9l-3.4-3.2C589.1,331.4,588.8,331.7,588.5,332z
			 M572.2,344.9l1.9,4.4c0.3-0.2,0.7-0.4,1-0.6l-1.9-4.4C572.8,344.5,572.5,344.7,572.2,344.9z M492.7,308.8l-5.4,1.1
			c0,0.4,0,0.7-0.1,1.1l5.4-1.1C492.6,309.5,492.6,309.1,492.7,308.8z M553.7,353.3l0.2,5.2c0.4-0.1,0.7-0.2,1.1-0.3l-0.2-5.2
			C554.4,353.1,554,353.2,553.7,353.3z M559.9,351.1l0.8,5c0.4-0.1,0.7-0.3,1.1-0.4l-0.8-5C560.6,350.8,560.2,351,559.9,351.1z
			 M577.9,341.1l2.4,4c0.3-0.2,0.7-0.5,1-0.7l-2.4-4C578.6,340.6,578.2,340.8,577.9,341.1z M607.3,303.4l5.1,0.6
			c0.1-0.4,0.3-0.7,0.4-1.1l-5.1-0.6C607.5,302.7,607.4,303,607.3,303.4z M610.7,291.3l5.4-0.6c0.1-0.4,0.1-0.7,0.2-1.1l-5.4,0.6
			C610.8,290.6,610.8,291,610.7,291.3z M604.6,309.5l4.8,1.1c0.2-0.4,0.3-0.7,0.5-1.1l-4.8-1.1C604.9,308.8,604.8,309.2,604.6,309.5
			z M601.3,315.5l4.5,1.7c0.2-0.3,0.4-0.7,0.6-1l-4.5-1.7C601.8,314.8,601.5,315.2,601.3,315.5z M597.6,321.3l4.2,2.2
			c0.2-0.3,0.5-0.7,0.7-1l-4.2-2.2C598,320.6,597.8,320.9,597.6,321.3z M583.4,336.7l2.9,3.6c0.3-0.3,0.6-0.5,0.9-0.8l-2.9-3.6
			C584,336.2,583.7,336.5,583.4,336.7z M498.5,336l-4.9,3.6c0.2,0.3,0.3,0.5,0.5,0.8l4.9-3.6C498.8,336.5,498.7,336.3,498.5,336z
			 M496.1,331.2l-5.1,3.2c0.1,0.3,0.3,0.6,0.4,0.9l5.1-3.2C496.3,331.8,496.2,331.5,496.1,331.2z M492.6,314.8l-5.5,1.7
			c0,0.3,0,0.7,0,1l5.5-1.7C492.6,315.5,492.6,315.1,492.6,314.8z M487.7,322.8c0.1,0.3,0.1,0.7,0.2,1l5.4-2.2
			c-0.1-0.3-0.1-0.7-0.2-1L487.7,322.8z M496.9,344.5c0.2,0.2,0.4,0.5,0.6,0.7l4.6-4c-0.2-0.2-0.4-0.5-0.6-0.7L496.9,344.5z
			 M527.6,361c0.3,0,0.7,0.1,1,0.1l2-5.4c-0.3,0-0.7-0.1-1-0.1L527.6,361z M541.2,355.7l-0.9,5.4c0.4,0,0.7-0.1,1.1-0.1l0.9-5.4
			C542,355.6,541.6,355.7,541.2,355.7z M500.8,348.8c0.2,0.2,0.4,0.4,0.7,0.6l4.3-4.4c-0.2-0.2-0.5-0.4-0.7-0.6L500.8,348.8z
			 M521.4,359.9c0.3,0.1,0.6,0.2,1,0.2l2.5-5.3c-0.3-0.1-0.6-0.1-1-0.2L521.4,359.9z M510.2,355.6c0.3,0.1,0.6,0.3,0.8,0.4l3.5-5
			c-0.3-0.1-0.6-0.3-0.8-0.4L510.2,355.6z M515.6,358.1c0.3,0.1,0.6,0.2,0.9,0.3l3-5.2c-0.3-0.1-0.6-0.2-0.9-0.3L515.6,358.1z"/>
	</g>
	<g>
		<g>
			<g>
				<path class="st3" d="M448.4,254.5c-6.5,23.8-30.4,43.1-53.4,43.1s-36.4-19.3-29.9-43.1s30.4-43.1,53.4-43.1
					C441.6,211.5,454.9,230.8,448.4,254.5z"/>
				<path class="st20" d="M448.4,254.5c-6.5,23.8-30.4,43.1-53.4,43.1s-36.4-19.3-29.9-43.1s30.4-43.1,53.4-43.1
					C441.6,211.5,454.9,230.8,448.4,254.5z"/>
			</g>
			<path class="st21" d="M434.9,233.2c2.1-7.7-2.2-14-9.7-14c-1.1,0-2.3,0.1-3.4,0.4c-2.3-2.3-5.5-3.8-9.5-3.8
				c-9.3,0-19,7.7-21.7,17.3l-0.7,2.2c-3.6,13,2.9,23.6,15.6,24.1c12.9-0.4,25.5-11,29.1-24.1L434.9,233.2z"/>
			<path class="st18" d="M423.3,260.1h-36.2c-3.9,0-8.5,5.2-9.6,9.2l-5.3,19.5c5.5,5.5,13.3,8.8,22.8,8.8c9.3,0,18.8-3.2,27.3-8.6
				l5.4-19.7C428.7,265.3,427.1,260.1,423.3,260.1z"/>
			<polygon class="st22" points="411.7,263.5 396.8,263.5 399.3,254.3 414.2,254.3 			"/>
			<g>
				<g>
					<path class="st22" d="M426.4,242.1c0.9,1.3-0.1,3.8-2.3,5.6c-2.2,1.8-4.7,2.1-5.6,0.8s0.1-3.8,2.3-5.6
						C423,241.1,425.5,240.8,426.4,242.1z"/>
					<path class="st22" d="M394,242.1c-1.6,1.3-2,3.8-0.7,5.6c1.2,1.8,3.5,2.1,5.2,0.8c1.6-1.3,2-3.8,0.7-5.6
						C398,241.1,395.6,240.8,394,242.1z"/>
				</g>
				<path class="st23" d="M417,233.1c-4.7,3.5-12.2,8.6-19.6,8.1c-0.3,0.7-0.6,1.5-0.8,2.3c-2.3,8.5,1.7,15.5,9,15.5
					s15.1-6.9,17.4-15.5c0.2-0.9,0.4-1.8,0.5-2.7C421,240,417.6,238,417,233.1z"/>
			</g>
			<path class="st22" d="M400.7,278.6c-0.1,0-0.3,0-0.4,0s-0.3,0-0.4,0H400.7z M393.5,260.3l-1.7,6.1c-1.8,6.6,2,12,8.3,12.2
				c6.4-0.2,13.1-5.6,14.9-12.2l1.7-6.1H393.5z"/>
		</g>
		<g>
			<path class="st3" d="M437.4,312.6c-0.4,1.5-1.9,2.7-3.4,2.7h-71.4c-1.5,0-2.3-1.2-1.9-2.7l0,0c0.4-1.5,1.9-2.7,3.4-2.7h71.4
				C436.9,309.9,437.8,311.1,437.4,312.6L437.4,312.6z"/>
			<path class="st3" d="M433.7,326.1c-0.4,1.5-1.9,2.7-3.4,2.7h-87.9c-1.4,0-2.3-1.2-1.9-2.7l0,0c0.4-1.5,1.9-2.7,3.4-2.7h87.9
				C433.3,323.4,434.1,324.6,433.7,326.1L433.7,326.1z"/>
			<path class="st3" d="M430.2,339.6c-0.4,1.5-1.9,2.7-3.4,2.7h-87.9c-1.4,0-2.3-1.2-1.9-2.7l0,0c0.4-1.5,1.9-2.7,3.4-2.7h87.9
				C429.7,336.9,430.6,338.1,430.2,339.6L430.2,339.6z"/>
			<path class="st3" d="M426.5,352.6c-0.4,1.5-1.9,2.7-3.4,2.7h-87.9c-1.4,0-2.3-1.2-1.9-2.7l0,0c0.4-1.5,1.9-2.7,3.4-2.7h87.9
				C426.1,349.9,426.9,351.1,426.5,352.6L426.5,352.6z"/>
			<path class="st3" d="M422.9,365.6c-0.4,1.5-1.9,2.7-3.4,2.7h-87.9c-1.4,0-2.3-1.2-1.9-2.7l0,0c0.4-1.5,1.9-2.7,3.4-2.7H421
				C422.5,362.8,423.3,364.1,422.9,365.6L422.9,365.6z"/>
		</g>
	</g>
	<path class="st9" d="M534.7,551.4c0,3.6-2.9,6.6-6.4,6.6H402c-3.5,0-6.4-2.9-6.4-6.6v-2c0-3.6,2.9-6.6,6.4-6.6h126.3
		c3.5,0,6.4,2.9,6.4,6.6V551.4z"/>
	<g>
		<g>
			<path class="st24" d="M177.8,263.3c-4.8,2.1-11.9,4-10.2,5.2c3,2,5.2,2.5,8.2,2c2.9-0.5,7-4.8,7-4.8L177.8,263.3z"/>
			<path class="st24" d="M219.4,187c-1,10.9-29.2,62.4-33,72.1s1.1,11.2-2.8,20.8c-3.9,9.6-11.8,15.1-13.5,14.3
				c-1.7-0.8-4.4-5.7-5.6-12c-1.9-9.7,7.7-9.3,12.6-17.8c4.9-8.5,9.2-28.8,12.3-43.9c3.1-15.1,6.1-25.8,9.8-34.2
				c2-4.5,6.8-6.5,14.4-9.7C219.5,174.2,219.5,185.9,219.4,187z"/>
		</g>
		<g>
			<path class="st24" d="M235.3,168.4c0,0-21.8,7.6-27.8,11c-4.3,2.5-0.5,8.4,1.8,12.1c2.3,3.7,18,4.8,30.9,1.3
				C250,190.1,237.2,168.9,235.3,168.4z"/>
			<path class="st7" d="M282,150.6c-18.9,2.6-60.6,13.1-60.6,13.1s-4.3,8.8-1,21.1c3,11.3,7.8,15.1,7.8,15.1s41.3-3.9,58.2-6.9
				c14.1-2.5,21.3-10.9,22.3-24.7C309.8,153.4,297.3,148.4,282,150.6z"/>
		</g>
	</g>
	<g>
		<g>
			<path d="M243.4,548.1c-0.1-0.9-0.1-1.6-0.3-2.3c-1-5.1-4-4-6-3.3c-0.3,0.1-1.4,0.4-3,0.9c-1.5-0.4-2.6-0.7-3-0.9
				c-2-0.7-5-1.8-6,3.3c-0.1,0.6-0.2,1.4-0.3,2.3c-0.5,7.7-0.7,10.1-0.7,10.1s4.3,0,10,0s10,0,10,0S243.9,555.7,243.4,548.1z"/>
			<path class="st9" d="M258.6,368c4.7,18.7,0.4,36.4-4,65s-16.5,110.7-16.5,110.7s-1.1,1-4.2,1c-2.7,0-3.9-1.4-3.9-1.4
				S219.4,431,218,413.9s0-52.7,18.9-52.8C255.9,361,257.8,364.6,258.6,368z"/>
		</g>
		<path class="st9" d="M268.9,261.4c0,0-6.5,97.3-8.5,116.7c-2.1,19.4-33,35.2-41.7,9.4c-8.7-25.7-25.7-75.1-24.5-100.8
			c1.2-25.6,8.1-44.9,26.8-59.1C239.5,213.5,270.7,235.2,268.9,261.4z"/>
	</g>
	<g>
		<path d="M344.8,550.7c0,0-28-7.6-30-8.2c-2.3-0.7-5.8-2.1-6.3,5.6c-0.5,7.7-0.7,10.1-0.7,10.1s32.5,0.2,35.9-0.2
			C347.2,557.5,349.9,554.8,344.8,550.7z"/>
		<path class="st10" d="M292.2,267.6c0,0,27.4,93.3,32.1,112.2c4.7,18.9-28.6,34.3-45.6,13.5s-40-50.1-47.7-74.5s-7.9-44.9,4.7-65.1
			C248.3,233.6,284.9,242.4,292.2,267.6z"/>
		<path class="st10" d="M321.1,368.6c6.7,18.1,4.2,36.2,3,65.1c-1.3,28.9-4.7,111.9-4.7,111.9s-1.8,1.2-4.1,1.1c-2.3-0.1-4-1-4-1
			s-1-20.6-5.2-34c-4.2-13.4-17.3-76-20.5-92.8c-3.3-16.9-5.6-52.4,13.2-54.6C317.6,361.9,319.9,365.3,321.1,368.6z"/>
	</g>
	<g>
		<path class="st24" d="M305.7,144c5.6-15.6,9.5-20.4,19-31c0.2-0.5,21.2,6.7,31.1-4.2c0,0-2.7,18-8.3,27.7
			c-5.3,9.1-11.3,12.3-18.8,3.8c-3.7,4.5-5.5,8.5-7,14.1c-2.5,8.7-4.6,11.2-8.7,10.2C308.8,163.6,299.9,159.8,305.7,144z"/>
	</g>
	<path class="st12" d="M317.3,145.7c5.9,6,6.7,7.3,7.8,11.2c3.5,13.1-4.5,45.1-9,58.1c-9.1,25.8-13.6,84.9-13.6,84.9
		s-11.6,2.6-40.3,0.7c-55.7-3.7-71.1-19.8-71.1-19.8s18.3-87.9,68.4-121.9c16.6-11.3,37.5-24,46.3-21.3
		C309.6,138.5,311.9,140.2,317.3,145.7z"/>
	<g>
		<g>
			<path class="st24" d="M394.4,279.1c4.5,2.8,10.1,7.6,10,5.5c-0.2-3.7-1.1-5.9-3.2-8s-7.9-3.1-7.9-3.1L394.4,279.1z"/>
			<path class="st24" d="M323.4,238.1c10.7,4.1,51.1,24.8,60.5,28.5s10.8-1.4,20.2,2.4c9.4,3.8,14.9,11.8,14.2,13.6
				c-0.8,1.8-7.9-5.1-13.8-3.6c-9.3,2.3-6.8,2-15.2-2.9c-8.4-4.8-28.1-8.8-42.8-11.5c-14.7-2.8-25.2-5.4-33.3-9.3
				c-6.5-3.1-6.3-5.1-8.8-13C300.5,229.9,318.7,236.2,323.4,238.1z"/>
		</g>
		<g>
			<path class="st24" d="M298.4,220.9c0,0,5.9,23,8.8,29.4c2.1,4.6,8.1,1.1,11.8-1c3.7-2.1,5.8-18.3,3.3-31.9
				C320.3,207.1,299,218.9,298.4,220.9z"/>
			<path class="st7" d="M284.3,171.4c1.3,19.7,8.6,63.4,8.6,63.4s8.2,5,20.3,2.4c11.1-2.4,15.1-7.1,15.1-7.1s-1-42.9-2.8-60.5
				c-1.5-14.7-9.1-22.7-22.4-24.6C288.9,143,283.3,155.5,284.3,171.4z"/>
		</g>
	</g>
	<path d="M353.1,120.7c15.7-3.4,18.6-23.9,9.9-32.3c-11.8-11.4-27-19-54.8,0.9c-19.9,14.2-33,19.3-49,1.6
		c-26.1-28.7-91.6,21.6-56.6,66.8c32.7,42.1,69.8,32.3,94.9,5.7c25.1-26.6,25.1-43.4,36.6-41.9C343.2,122.6,353.1,120.7,353.1,120.7
		z"/>
</g>
</svg>
